<svg width="148" height="149" viewBox="0 0 148 149" fill="none" xmlns="http://www.w3.org/2000/svg">
<g filter="url(#filter0_dd_11511_122111)">
<rect x="8" y="6" width="132" height="132" rx="18.3024" fill="white"/>
<path d="M73.5389 42.0212C83.436 42.0212 93.3323 42.0212 103.229 42.0212C105.207 42.0212 107.186 41.9687 109.161 42.0289C111.735 42.1073 113.818 43.2204 115.389 45.258C116.523 46.7283 117.04 48.4087 117.034 50.2638C117.024 53.3189 117.03 56.3749 117.03 59.43C117.03 68.567 117.03 77.7049 117.03 86.8419C117.03 89.1085 117.033 91.3751 117.03 93.6425C117.025 97.9786 113.85 101.509 109.522 101.829C107.544 101.975 105.547 101.859 103.558 101.862C103.273 101.862 102.988 101.864 102.703 101.864C93.965 101.864 85.2274 101.864 76.4899 101.864C65.8077 101.864 55.1255 101.864 44.4433 101.864C42.2843 101.864 40.1261 101.866 37.9671 101.861C34.8294 101.854 31.7484 99.7278 30.5975 96.8087C30.186 95.7671 29.9966 94.6988 30 93.5805C30.0112 90.2534 30.0026 86.9254 30.0026 83.5973C30.0026 74.9605 30.0026 66.3245 30.0026 57.6877C30.0026 55.1783 30 52.6681 30.0018 50.1588C30.0061 45.6436 33.6354 42.0186 38.1419 42.0195C49.4422 42.0221 60.7433 42.0212 72.0436 42.0212C72.5421 42.0212 73.0405 42.0212 73.5389 42.0212ZM73.5226 47.4548C71.0984 47.4548 68.6751 47.4548 66.251 47.4548C57.0271 47.4548 47.804 47.4548 38.5801 47.4566C38.2805 47.4566 37.9715 47.4488 37.6831 47.5151C36.2016 47.8569 35.4414 48.8537 35.4406 50.4385C35.438 55.7895 35.4397 61.1405 35.4397 66.4915C35.4397 75.1705 35.4397 83.8496 35.4397 92.5294C35.4397 92.9168 35.4311 93.3042 35.444 93.6916C35.4655 94.3553 35.6515 94.9613 36.1043 95.4658C36.7189 96.1502 37.4963 96.4273 38.4036 96.4256C42.2042 96.4187 46.0048 96.4213 49.8063 96.4213C55.4681 96.4213 61.1307 96.4239 66.7925 96.4248C71.8121 96.4248 76.8308 96.4239 81.8504 96.423C90.8307 96.4222 99.8118 96.4239 108.792 96.417C110.299 96.4162 111.405 95.4021 111.568 93.9102C111.6 93.6124 111.598 93.3094 111.598 93.0089C111.599 83.7127 111.599 74.4164 111.6 65.1211C111.6 60.2719 111.58 55.4219 111.611 50.5728C111.625 48.4353 110.162 47.4161 108.495 47.4393C104.843 47.4901 101.188 47.4557 97.5349 47.4557C89.5308 47.4557 81.5267 47.4557 73.5226 47.4557V47.4548Z" fill="#1A6058"/>
<path d="M53.7881 88.2606C50.188 88.2606 46.5871 88.2615 42.9871 88.2606C41.8508 88.2606 40.9641 87.5797 40.9228 86.4494C40.8582 84.6769 40.8332 82.8864 41.0063 81.1251C41.1836 79.3242 42.2571 77.9185 43.5965 76.7529C45.8416 74.7996 48.5111 73.82 51.4311 73.4524C54.0988 73.1158 56.727 73.2949 59.2871 74.1393C61.5985 74.9012 63.6559 76.0702 65.1925 78.0218C66.1412 79.2269 66.6878 80.5871 66.7145 82.128C66.7377 83.4476 66.7343 84.7673 66.7145 86.087C66.6981 87.219 66.1188 87.9852 65.1374 88.2193C64.9463 88.2649 64.7397 88.2623 64.5409 88.2623C60.9563 88.2649 57.3718 88.2641 53.7872 88.2641V88.2623L53.7881 88.2606Z" fill="#C09C1D"/>
<path d="M89.0992 63.7852C85.2736 63.7852 81.4481 63.7852 77.6216 63.7852C76.0953 63.7852 74.8798 62.5929 74.8678 61.0796C74.8557 59.5774 76.0144 58.3559 77.5407 58.3455C80.3221 58.3266 83.1035 58.355 85.8848 58.3576C87.2742 58.3584 88.6636 58.3429 90.053 58.3412C93.5928 58.3378 97.1326 58.3317 100.672 58.3404C102.113 58.3438 103.235 59.3148 103.427 60.681C103.613 62.005 102.786 63.2928 101.469 63.6896C101.2 63.7706 100.902 63.7817 100.618 63.7826C96.7788 63.7886 92.9386 63.7861 89.0992 63.7861V63.7852Z" fill="#C09C1D"/>
<path d="M89.1495 69.2331C93.0207 69.2331 96.892 69.2296 100.764 69.2348C102.106 69.2365 103.204 70.1938 103.421 71.5263C103.629 72.7969 102.854 74.0908 101.615 74.5023C101.336 74.5953 101.028 74.6503 100.734 74.6512C93.0345 74.6598 85.3343 74.6598 77.6349 74.6581C76.0836 74.6581 74.8699 73.4701 74.8716 71.968C74.8733 70.4012 76.0466 69.2339 77.6228 69.2331C81.4656 69.2331 85.3084 69.2331 89.1513 69.2331H89.1495Z" fill="#C09C1D"/>
<path d="M89.1263 85.5271C85.2818 85.5271 81.4372 85.528 77.5927 85.5271C76.0699 85.5271 74.8802 84.3503 74.875 82.8482C74.8699 81.3021 76.0759 80.0874 77.6142 80.0874C84.0241 80.0874 90.4339 80.0874 96.8437 80.0874C98.1333 80.0874 99.4237 80.0857 100.713 80.0874C102.227 80.09 103.433 81.3029 103.441 82.8249C103.448 84.3056 102.277 85.5176 100.782 85.5237C97.9284 85.534 95.0747 85.5168 92.221 85.5125C91.1889 85.5107 90.1576 85.5125 89.1254 85.5125C89.1254 85.5176 89.1254 85.5228 89.1254 85.5288L89.1263 85.5271Z" fill="#C09C1D"/>
<path d="M60.4333 62.2984C60.5134 65.8451 57.4479 68.9846 53.6963 68.9192C50.0481 68.8555 47.135 65.9045 47.1367 62.1943C47.1384 58.6502 50.1652 55.5167 53.977 55.6191C57.4014 55.7113 60.5211 58.5925 60.4333 62.2993V62.2984Z" fill="#C09C1D"/>
</g>
<defs>
<filter id="filter0_dd_11511_122111" x="0.156094" y="0.770729" width="147.688" height="147.688" filterUnits="userSpaceOnUse" color-interpolation-filters="sRGB">
<feFlood flood-opacity="0" result="BackgroundImageFix"/>
<feColorMatrix in="SourceAlpha" type="matrix" values="0 0 0 0 0 0 0 0 0 0 0 0 0 0 0 0 0 0 127 0" result="hardAlpha"/>
<feOffset dy="2.61464"/>
<feGaussianBlur stdDeviation="3.92195"/>
<feColorMatrix type="matrix" values="0 0 0 0 0.2471 0 0 0 0 0.2471 0 0 0 0 0.2667 0 0 0 0.15 0"/>
<feBlend mode="normal" in2="BackgroundImageFix" result="effect1_dropShadow_11511_122111"/>
<feColorMatrix in="SourceAlpha" type="matrix" values="0 0 0 0 0 0 0 0 0 0 0 0 0 0 0 0 0 0 127 0" result="hardAlpha"/>
<feOffset/>
<feColorMatrix type="matrix" values="0 0 0 0 0.2471 0 0 0 0 0.2471 0 0 0 0 0.2667 0 0 0 0.05 0"/>
<feBlend mode="normal" in2="effect1_dropShadow_11511_122111" result="effect2_dropShadow_11511_122111"/>
<feBlend mode="normal" in="SourceGraphic" in2="effect2_dropShadow_11511_122111" result="shape"/>
</filter>
</defs>
</svg>
