<svg width="148" height="148" viewBox="0 0 148 148" fill="none" xmlns="http://www.w3.org/2000/svg">
<g filter="url(#filter0_dd_11511_122484)">
<rect x="8" y="5.375" width="132" height="132" rx="18.3024" fill="white"/>
<path d="M131.75 86.6174C131.75 84.4869 130.219 82.7438 128.347 82.7438H124.278L121.327 74.0107C120.593 71.8418 118.387 69.5442 116.424 68.9055C116.424 68.9055 111.332 67.25 100.813 67.25C90.2934 67.25 85.2013 68.9065 85.2013 68.9065C83.2379 69.5452 81.032 71.8418 80.2992 74.0117L77.3483 82.7439H73.2787C71.4069 82.7439 69.8755 84.4869 69.8755 86.6175C69.8755 88.7477 71.4068 90.4912 73.2787 90.4912H74.7302L73.6831 93.5901C72.9503 95.758 72.3504 99.4351 72.3504 101.759V120.07C72.3504 122.782 74.2996 125 76.6815 125C79.0635 125 81.0126 122.781 81.0126 120.07V117.253H120.612V120.07C120.612 122.782 122.562 125 124.944 125C127.326 125 129.275 122.781 129.275 120.07L129.276 101.759C129.276 99.4351 128.675 95.758 127.943 93.5896L126.895 90.4912H128.347C130.219 90.4912 131.75 88.7476 131.75 86.6174ZM80.822 87.7611L84.2977 77.0231C84.5334 76.296 85.2826 75.7011 85.9632 75.7011H115.663C116.344 75.7011 117.093 76.296 117.328 77.0221L120.804 87.7601C121.039 88.4871 120.675 89.0821 119.994 89.0821H81.6319C80.9512 89.0821 80.5868 88.4872 80.822 87.7611ZM80.7037 105.28C78.8241 105.28 77.3005 103.544 77.3005 101.406C77.3005 99.2687 78.8241 97.5326 80.7037 97.5326C82.583 97.5326 84.107 99.2687 84.107 101.406C84.107 103.544 82.583 105.28 80.7037 105.28ZM120.922 105.28C119.043 105.28 117.519 103.546 117.519 101.406C117.519 99.2667 119.043 97.5326 120.922 97.5326C122.802 97.5326 124.326 99.2667 124.326 101.406C124.326 103.546 122.802 105.28 120.922 105.28Z" fill="#1A6058"/>
<path d="M75.4094 23.6166H60.5493L60.0983 21.201C59.7249 19.2012 57.9786 17.75 55.9432 17.75H39.9488C37.9134 17.75 36.1671 19.2007 35.7937 21.201L35.3427 23.6166H20.4764C18.1454 23.6166 16.2505 25.5108 16.2505 27.8424V61.3091C16.2505 63.6401 18.1447 65.535 20.4764 65.535L75.4094 65.5345C77.7404 65.5345 79.6353 63.6402 79.6353 61.3086V27.8419C79.6353 25.5109 77.741 23.6166 75.4094 23.6166ZM47.9429 58.083C40.4919 58.083 34.4347 52.0194 34.4347 44.5749C34.4347 37.1309 40.4983 31.0667 47.9429 31.0667C55.3874 31.0667 61.451 37.1304 61.451 44.5749C61.451 52.0189 55.3874 58.083 47.9429 58.083Z" fill="#1A6058"/>
<path d="M47.9435 35.2859C42.8236 35.2859 38.6611 39.4484 38.6611 44.5683C38.6611 49.6882 42.8236 53.8507 47.9435 53.8507C53.0634 53.8507 57.2259 49.6882 57.2259 44.5683C57.2259 39.4484 53.0634 35.2859 47.9435 35.2859Z" fill="#1A6058"/>
<path fill-rule="evenodd" clip-rule="evenodd" d="M101.858 21.1971C102.18 21.5195 102.18 22.0423 101.858 22.3647L86.6674 37.5552C86.345 37.8776 85.8223 37.8776 85.4999 37.5552C85.1775 37.2328 85.1775 36.7101 85.4999 36.3877L100.69 21.1971C101.013 20.8747 101.536 20.8747 101.858 21.1971Z" fill="#2F5450"/>
<path fill-rule="evenodd" clip-rule="evenodd" d="M100.123 20.6305C100.759 19.9949 101.79 19.9949 102.425 20.6305C103.061 21.2662 103.061 22.2968 102.425 22.9324L87.2346 38.123C86.599 38.7586 85.5684 38.7586 84.9328 38.123C84.2971 37.4873 84.2971 36.4567 84.9328 35.8211L100.123 20.6305ZM101.265 21.7596C101.263 21.7603 101.261 21.7615 101.258 21.7649L86.0671 36.9554C86.0638 36.9588 86.0626 36.9611 86.0619 36.9628C86.061 36.965 86.0602 36.9682 86.0602 36.972C86.0602 36.9759 86.061 36.979 86.0619 36.9813C86.0626 36.983 86.0638 36.9853 86.0671 36.9886C86.0704 36.992 86.0728 36.9932 86.0745 36.9939C86.0767 36.9948 86.0799 36.9955 86.0837 36.9955C86.0875 36.9955 86.0907 36.9948 86.093 36.9939C86.0947 36.9932 86.097 36.992 86.1003 36.9886L101.291 21.7981C101.294 21.7947 101.295 21.7924 101.296 21.7907C101.297 21.7885 101.298 21.7853 101.298 21.7815C101.298 21.7776 101.297 21.7745 101.296 21.7722C101.295 21.7705 101.294 21.7682 101.291 21.7649C101.288 21.7615 101.285 21.7603 101.284 21.7596C101.281 21.7587 101.278 21.758 101.274 21.758C101.27 21.758 101.267 21.7587 101.265 21.7596Z" fill="#1A6058"/>
<path fill-rule="evenodd" clip-rule="evenodd" d="M101.858 65.9879C102.18 65.6655 102.18 65.1428 101.858 64.8204L86.6674 49.6298C86.345 49.3074 85.8223 49.3074 85.4999 49.6298C85.1775 49.9522 85.1775 50.475 85.4999 50.7974L100.69 65.9879C101.013 66.3103 101.536 66.3103 101.858 65.9879Z" fill="#2F5450"/>
<path fill-rule="evenodd" clip-rule="evenodd" d="M100.123 66.5567C100.759 67.1924 101.79 67.1924 102.425 66.5567L101.858 65.9896L102.425 66.5567C103.061 65.9211 103.061 64.8905 102.425 64.2549L101.858 64.822L102.425 64.2549L87.2346 49.0643L86.6675 49.6315L87.2346 49.0643C86.599 48.4287 85.5684 48.4287 84.9328 49.0643L85.4999 49.6315L84.9328 49.0643C84.2971 49.6999 84.2971 50.7305 84.9328 51.3662L100.123 66.5567ZM101.265 65.4276C101.263 65.4269 101.261 65.4257 101.258 65.4224L86.0671 50.2318C86.0638 50.2285 86.0626 50.2262 86.0619 50.2245C86.061 50.2222 86.0602 50.2191 86.0602 50.2152C86.0602 50.2114 86.061 50.2082 86.0619 50.206C86.0626 50.2043 86.0638 50.202 86.0671 50.1986C86.0704 50.1953 86.0728 50.1941 86.0745 50.1934C86.0767 50.1925 86.0799 50.1917 86.0837 50.1917C86.0875 50.1917 86.0907 50.1925 86.093 50.1934C86.0947 50.1941 86.097 50.1953 86.1003 50.1986L101.291 65.3892C101.294 65.3925 101.295 65.3948 101.296 65.3965C101.297 65.3988 101.298 65.402 101.298 65.4058C101.298 65.4096 101.297 65.4128 101.296 65.415C101.295 65.4167 101.294 65.4191 101.291 65.4224C101.288 65.4257 101.285 65.4269 101.284 65.4276C101.281 65.4285 101.278 65.4293 101.274 65.4293C101.27 65.4293 101.267 65.4285 101.265 65.4276Z" fill="#1A6058"/>
<path fill-rule="evenodd" clip-rule="evenodd" d="M108.37 43.4644C108.37 43.0085 108.001 42.6388 107.545 42.6388H86.0619C85.6059 42.6388 85.2363 43.0085 85.2363 43.4644C85.2363 43.9204 85.6059 44.29 86.0619 44.29H107.545C108.001 44.29 108.37 43.9204 108.37 43.4644Z" fill="#2F5450"/>
<path fill-rule="evenodd" clip-rule="evenodd" d="M107.545 45.0928C108.444 45.0928 109.172 44.364 109.172 43.4651C109.172 42.5662 108.444 41.8374 107.545 41.8374L86.0619 41.8374C85.1629 41.8374 84.4342 42.5662 84.4342 43.4651C84.4342 44.364 85.1629 45.0928 86.0619 45.0928L107.545 45.0928ZM107.553 43.4871C107.553 43.4871 107.549 43.4886 107.545 43.4886L86.0619 43.4886C86.0571 43.4886 86.053 43.4871 86.053 43.4871C86.0507 43.4861 86.048 43.4844 86.0453 43.4817C86.0426 43.479 86.0408 43.4762 86.0399 43.474C86.0399 43.474 86.0384 43.4698 86.0384 43.4651C86.0384 43.4604 86.0399 43.4562 86.0399 43.4562C86.0408 43.454 86.0426 43.4512 86.0453 43.4485C86.048 43.4458 86.0507 43.4441 86.053 43.4431C86.053 43.4431 86.0571 43.4416 86.0619 43.4416L107.545 43.4416C107.549 43.4416 107.553 43.4431 107.553 43.4431C107.556 43.4441 107.558 43.4458 107.561 43.4485C107.564 43.4512 107.566 43.454 107.567 43.4562C107.567 43.4562 107.568 43.4604 107.568 43.4651C107.568 43.4698 107.567 43.474 107.567 43.474C107.566 43.4762 107.564 43.479 107.561 43.4817C107.558 43.4844 107.556 43.4861 107.553 43.4871Z" fill="#1A6058"/>
</g>
<defs>
<filter id="filter0_dd_11511_122484" x="0.156094" y="0.145729" width="147.688" height="147.688" filterUnits="userSpaceOnUse" color-interpolation-filters="sRGB">
<feFlood flood-opacity="0" result="BackgroundImageFix"/>
<feColorMatrix in="SourceAlpha" type="matrix" values="0 0 0 0 0 0 0 0 0 0 0 0 0 0 0 0 0 0 127 0" result="hardAlpha"/>
<feOffset dy="2.61464"/>
<feGaussianBlur stdDeviation="3.92195"/>
<feColorMatrix type="matrix" values="0 0 0 0 0.2471 0 0 0 0 0.2471 0 0 0 0 0.2667 0 0 0 0.15 0"/>
<feBlend mode="normal" in2="BackgroundImageFix" result="effect1_dropShadow_11511_122484"/>
<feColorMatrix in="SourceAlpha" type="matrix" values="0 0 0 0 0 0 0 0 0 0 0 0 0 0 0 0 0 0 127 0" result="hardAlpha"/>
<feOffset/>
<feColorMatrix type="matrix" values="0 0 0 0 0.2471 0 0 0 0 0.2471 0 0 0 0 0.2667 0 0 0 0.05 0"/>
<feBlend mode="normal" in2="effect1_dropShadow_11511_122484" result="effect2_dropShadow_11511_122484"/>
<feBlend mode="normal" in="SourceGraphic" in2="effect2_dropShadow_11511_122484" result="shape"/>
</filter>
</defs>
</svg>
