<svg width="148" height="148" viewBox="0 0 148 148" fill="none" xmlns="http://www.w3.org/2000/svg">
<g filter="url(#filter0_dd_11511_122511)">
<rect x="8" y="5.5" width="132" height="132" rx="18.3024" fill="white"/>
<path d="M32.6434 36.8361V109.717C32.6434 113.108 35.4211 115.867 38.8347 115.867H93.0435C96.4579 115.867 99.2356 113.108 99.2356 109.717L99.2349 47.2624H113.29C114.432 47.2624 115.358 46.3425 115.358 45.2083V37.1978C115.358 34.5085 114.304 31.9806 112.39 30.0807C110.477 28.1801 107.932 27.1333 105.224 27.1333H42.768C37.3322 27.1333 32.886 31.3557 32.6445 36.7454C32.6431 36.7754 32.6423 36.8062 32.6423 36.8363L32.6434 36.8361ZM97.0431 31.2411C97.0298 31.2587 97.0173 31.2778 97.004 31.2954C96.9789 31.3299 96.9545 31.3644 96.9301 31.3988C96.8703 31.4832 96.812 31.5683 96.7543 31.6548C96.7292 31.6923 96.7049 31.7297 96.6805 31.7671C96.6155 31.8683 96.552 31.971 96.4899 32.0744C96.4781 32.0935 96.4663 32.1126 96.4545 32.1324C96.3828 32.2549 96.3142 32.3789 96.2477 32.5051C96.2285 32.541 96.2108 32.5769 96.1923 32.6136C96.1443 32.7068 96.0978 32.8007 96.0527 32.896C96.0328 32.9386 96.0128 32.9811 95.9929 33.0237C95.9471 33.1242 95.9028 33.2254 95.8607 33.3274C95.8474 33.3597 95.8334 33.3912 95.8201 33.4235C95.7661 33.5563 95.7152 33.6898 95.6672 33.8255C95.6554 33.8585 95.645 33.8915 95.6332 33.9252C95.597 34.0309 95.5623 34.1365 95.5298 34.2436C95.5158 34.2891 95.5025 34.3346 95.4892 34.3801C95.4589 34.4835 95.4308 34.5869 95.4042 34.6911C95.3939 34.7307 95.3836 34.7703 95.3732 34.8107C95.3385 34.953 95.3068 35.0953 95.2787 35.2398C95.2743 35.2633 95.2706 35.2868 95.2661 35.3095C95.2432 35.432 95.2218 35.5552 95.2034 35.68C95.1967 35.7262 95.1901 35.7731 95.1834 35.8201C95.1687 35.9272 95.1561 36.035 95.145 36.1436C95.1406 36.1883 95.1354 36.2331 95.131 36.2786C95.1177 36.4289 95.1066 36.5793 95.0992 36.7312C95.0911 36.8874 95.0881 37.0415 95.0881 37.1977V45.2083C95.0881 45.2706 95.0911 45.3315 95.0963 45.3924L95.0985 109.716C95.0985 110.842 94.176 111.757 93.0423 111.757H38.8336C37.6999 111.757 36.7782 110.841 36.7782 109.716V36.8853C36.9421 33.7171 39.5647 31.2412 42.7672 31.2412L97.0431 31.2411ZM111.222 37.1978V43.1544H99.2352V36.8986C99.3925 33.7245 102.017 31.2413 105.224 31.2413C106.827 31.2413 108.334 31.8604 109.466 32.9857C110.598 34.1103 111.222 35.6066 111.222 37.1978Z" fill="#C09C1D"/>
<path d="M51.6909 54.0974H78.1628C79.3046 54.0974 80.2309 53.1776 80.2309 52.0433C80.2309 50.9091 79.3047 49.9893 78.1628 49.9893H51.6909C50.549 49.9893 49.6228 50.9091 49.6228 52.0433C49.6228 53.1776 50.549 54.0974 51.6909 54.0974Z" fill="#C09C1D"/>
<path d="M44.8713 82.1482H86.2326C87.3744 82.1482 88.3007 81.2283 88.3007 80.0941C88.3007 78.96 87.3745 78.04 86.2326 78.04H44.8713C43.7295 78.04 42.8032 78.9599 42.8032 80.0941C42.8032 81.2282 43.7294 82.1482 44.8713 82.1482Z" fill="#C09C1D"/>
<path d="M44.8713 69.8221H86.2326C87.3744 69.8221 88.3007 68.9022 88.3007 67.768C88.3007 66.6339 87.3745 65.7139 86.2326 65.7139H44.8713C43.7295 65.7139 42.8032 66.6338 42.8032 67.768C42.8032 68.9021 43.7294 69.8221 44.8713 69.8221Z" fill="#C09C1D"/>
<path d="M85.7043 98.1443C85.126 98.3218 84.6555 98.7421 84.4162 99.2945C84.0027 100.25 83.3727 101.304 82.9015 101.877C81.9524 100.858 80.2596 98.3959 78.8652 95.9553C78.4013 95.144 77.4456 94.7442 76.5366 94.9841C75.6577 95.2159 75.038 95.9884 75.0003 96.8832C74.7573 97.867 72.2425 101.269 69.5711 104.223C68.8082 105.066 68.8776 106.365 69.727 107.123C70.1221 107.476 70.6162 107.65 71.1088 107.65C71.6753 107.65 72.2388 107.42 72.6473 106.969C72.71 106.899 74.2041 105.246 75.7219 103.309C76.3416 102.518 76.8512 101.827 77.2692 101.219C77.3261 101.306 77.3837 101.392 77.442 101.48C79.8098 105.013 80.9953 105.805 81.8423 106.113C84.1229 106.943 85.9516 104.961 87.1231 103.042L89.4443 104.5C90.4104 105.106 91.6873 104.82 92.2974 103.861C92.9075 102.902 92.6194 101.633 91.6541 101.027L87.4214 98.3702C86.9096 98.0489 86.2819 97.9667 85.7043 98.1443Z" fill="#C09C1D"/>
<path d="M53.5019 41.7836C53.5497 41.8602 53.6261 41.8986 53.7312 41.8986C53.865 41.9082 53.9605 41.7644 53.9605 41.7644L56.2249 38.8405C56.416 38.6488 56.5976 38.8021 56.5976 38.8021C56.7791 38.9939 56.6453 39.1568 56.6453 39.1568L56.139 39.8087V39.8183C56.0912 39.8662 56.0721 39.9238 56.0721 39.9909C56.0721 40.0484 56.0912 40.1059 56.1294 40.1538L56.6358 40.8057L58.2409 38.7542L57.6008 37.9298L57.4861 37.7764C57.381 37.623 57.1517 37.5942 57.1517 37.5942H56.1867C55.9288 37.5942 55.795 37.7764 55.795 37.7764L53.0911 41.2563L53.5019 41.7836Z" fill="#9F2241"/>
<path d="M53.3876 40.0001L52.7475 39.1661C52.6137 38.9552 52.8048 38.8018 52.8048 38.8018C53.0437 38.658 53.187 38.8785 53.187 38.8785L53.7221 39.5687L54.3526 38.7443L53.6265 37.8048C53.4545 37.5556 53.187 37.5939 53.187 37.5939H52.3175C52.0405 37.5939 51.9162 37.7665 51.9162 37.7665L51.1423 38.7443L52.7475 40.815L53.3876 40.0001Z" fill="#9F2241"/>
<path d="M55.8814 40.7098C55.8814 40.7098 55.8049 40.5947 55.6616 40.5947C55.5087 40.5947 55.4514 40.7002 55.4514 40.7002L53.1583 43.6624C52.9768 43.8637 52.7666 43.7008 52.7666 43.7008C52.5851 43.509 52.7379 43.3365 52.7379 43.3365L53.2539 42.675V42.6654C53.3017 42.6175 53.3208 42.56 53.3208 42.4929C53.3208 42.4353 53.3017 42.3778 53.2634 42.3299L52.757 41.678L51.1423 43.7583L52.0405 44.8991L53.4545 44.9087L56.3018 41.2562L55.8814 40.7098Z" fill="#9F2241"/>
<path d="M55.996 42.4838L56.6457 43.3274C56.7986 43.5383 56.6075 43.6917 56.6075 43.6917C56.3591 43.8643 56.2062 43.6054 56.2062 43.6054L55.6616 42.9056L55.031 43.7301L55.9482 44.8996L57.3528 44.89L58.2509 43.7301L56.6362 41.6689L55.996 42.4838Z" fill="#9F2241"/>
<path d="M58.2312 41.601C58.0402 41.601 57.8873 41.4476 57.8873 41.2559C57.8873 41.0642 58.0402 40.9108 58.2312 40.9108C58.4223 40.9108 58.5752 41.0642 58.5752 41.2559C58.5752 41.4476 58.4223 41.601 58.2312 41.601ZM58.2312 40.604C57.8682 40.604 57.5815 40.8916 57.5815 41.2463C57.5815 41.601 57.8682 41.8886 58.2312 41.8886C58.5943 41.8886 58.881 41.601 58.881 41.2463C58.881 40.8916 58.5943 40.604 58.2312 40.604Z" fill="#9F2241"/>
<path d="M54.6866 36.597C54.8777 36.597 55.0305 36.7504 55.0305 36.9421C55.0305 37.1338 54.8777 37.2872 54.6866 37.2872C54.4955 37.2872 54.3426 37.1338 54.3426 36.9421C54.3426 36.7504 54.505 36.597 54.6866 36.597ZM54.6866 37.594C55.0496 37.594 55.3363 37.3064 55.3363 36.9517C55.3363 36.597 55.0496 36.2998 54.6866 36.2998C54.3235 36.2998 54.0369 36.5874 54.0369 36.9421C54.0369 37.2968 54.3235 37.594 54.6866 37.594Z" fill="#9F2241"/>
<path d="M50.7889 41.2463C50.7889 41.0546 50.9417 40.9012 51.1328 40.9012C51.3239 40.9012 51.4768 41.0546 51.4768 41.2463C51.4768 41.438 51.3239 41.5914 51.1328 41.5914C50.9417 41.5914 50.7889 41.438 50.7889 41.2463ZM51.7921 41.2463C51.7921 40.8916 51.5055 40.604 51.1424 40.604C50.7793 40.604 50.4927 40.8916 50.4927 41.2463C50.4927 41.601 50.7793 41.8886 51.1424 41.8886C51.4959 41.8982 51.7921 41.601 51.7921 41.2463Z" fill="#9F2241"/>
<path d="M54.6866 45.9062C54.4955 45.9062 54.3426 45.7528 54.3426 45.5611C54.3426 45.3693 54.4955 45.2159 54.6866 45.2159C54.8777 45.2159 55.0305 45.3693 55.0305 45.5611C55.0305 45.7432 54.8777 45.9062 54.6866 45.9062ZM54.6866 44.9092C54.3235 44.9092 54.0369 45.1968 54.0369 45.5515C54.0369 45.9062 54.3235 46.1938 54.6866 46.1938C55.0496 46.1938 55.3363 45.9062 55.3363 45.5515C55.3363 45.1968 55.0496 44.9092 54.6866 44.9092Z" fill="#9F2241"/>
<path d="M47.8746 36.9424H40.3647V41.9657C40.3647 44.7266 44.1101 45.5511 44.1101 45.5511H44.1197C44.1197 45.5511 47.865 44.7171 47.865 41.9657L47.8746 36.9424ZM47.6835 37.1245V41.9657C47.6835 42.5505 47.502 43.0969 47.1389 43.5763C46.8427 43.9693 46.4319 44.324 45.9064 44.6308C45.1133 45.1005 44.3012 45.321 44.1101 45.3594C43.9286 45.3114 43.126 45.1005 42.3234 44.6308C41.7979 44.324 41.3871 43.9693 41.0909 43.5763C40.7278 43.0969 40.5463 42.5505 40.5463 41.9657V37.1245H47.6835Z" fill="#BC955C"/>
<path d="M45.027 38.5524V38.0923H44.5588V38.5237H44.3773V38.0923H43.89V38.5237H43.7084V38.0923H43.2307V38.5524L43.4696 38.9551C43.4791 38.9742 43.4791 38.9838 43.4791 39.003V41.112H43.7084V40.3547C43.7084 40.1726 43.9091 40.0096 44.1288 40.0096C44.3581 40.0096 44.5492 40.1726 44.5492 40.3547V41.112H44.7881V40.3164C44.7881 40.3068 44.7881 40.3068 44.7881 40.3068V39.9137V39.9041V39.6165V39.4919V39.0126C44.7881 38.9934 44.7977 38.9838 44.8072 38.9647L45.027 38.5524Z" fill="#BC955C"/>
<path d="M43.2782 41.1599V40.4601L43.2018 40.5176C43.1731 40.5368 43.1349 40.5368 43.1062 40.508L43.0011 40.4409C43.0011 40.4505 43.0011 40.4505 43.0011 40.4505L42.9916 40.7189C42.9916 40.7477 42.9725 40.7764 42.9534 40.786C42.9629 40.7956 42.9725 40.7956 42.982 40.8052C43.1062 40.9011 43.1158 41.0449 43.0871 41.1599H43.2782Z" fill="#BC955C"/>
<path d="M44.1097 40.2021C43.9664 40.2021 43.8708 40.3076 43.8708 40.3555V41.1129H44.3486V40.3555C44.3581 40.298 44.253 40.2021 44.1097 40.2021Z" fill="#BC955C"/>
<path d="M41.3007 41.1598C41.2721 41.1022 41.253 41.0351 41.2434 40.9489C41.2148 40.7955 41.2243 40.6708 41.2243 40.6613C41.2243 40.6229 41.253 40.5942 41.2912 40.575L41.4918 40.5175L41.2625 40.3545C41.2339 40.3353 41.2243 40.3066 41.2243 40.2778V40.019C41.2243 39.9806 41.2434 39.9519 41.2721 39.9327L41.3581 39.8848V39.7985L41.2912 39.7697C41.253 39.7601 41.2243 39.7314 41.2243 39.6834V39.3767C41.2243 39.3287 41.2625 39.2808 41.3199 39.2808L41.6065 39.2712C41.5969 39.1945 41.5969 39.0891 41.616 39.0028C41.6447 38.8878 41.7116 38.7631 41.7403 38.7056L41.7211 38.6002C41.7116 38.5714 41.7307 38.5522 41.7403 38.5331C41.7594 38.5139 41.7785 38.5043 41.8071 38.5043H41.96C41.9791 38.5043 41.9982 38.5139 42.0078 38.5235L42.3804 38.7631H42.5619C42.5906 38.7631 42.6097 38.7727 42.6288 38.7919C42.6479 38.8111 42.6575 38.8302 42.6575 38.859L42.6384 39.1562C42.6384 39.1849 42.6288 39.2041 42.6097 39.2233H42.7244C42.753 39.2233 42.7721 39.2329 42.7913 39.252L42.839 39.3096L42.8772 39.2808L42.9441 39.1466C42.9632 39.1178 42.9919 39.0987 43.0301 39.0987H43.2785V39.0507L43.0397 38.6385C43.0301 38.6193 43.0301 38.6097 43.0301 38.5906V37.9962C43.0301 37.9483 43.0683 37.9003 43.1257 37.9003H43.6989H43.8805H44.3677H44.5588H45.1226C45.1703 37.9003 45.2181 37.9387 45.2181 37.9962V38.5714C45.2181 38.5906 45.2085 38.6002 45.199 38.6193L44.9601 39.022V39.0795H45.2085C45.2468 39.0795 45.2754 39.0987 45.2945 39.1274L45.3614 39.2616L45.3996 39.2904L45.4474 39.2329C45.4665 39.2137 45.4856 39.2041 45.5143 39.2041H45.6289C45.6098 39.1849 45.6003 39.1658 45.6003 39.137L45.5812 38.8398C45.5812 38.8111 45.5907 38.7919 45.6098 38.7727C45.6289 38.7535 45.6481 38.744 45.6767 38.744H45.8487L46.2213 38.5043C46.2404 38.4947 46.25 38.4851 46.2691 38.4851H46.422C46.4506 38.4851 46.4697 38.4947 46.4888 38.5139C46.508 38.5331 46.5175 38.5618 46.508 38.581L46.4888 38.6864C46.5175 38.744 46.5844 38.8686 46.6131 38.9836C46.6322 39.0699 46.6322 39.1753 46.6226 39.252L46.9092 39.2616C46.957 39.2616 47.0048 39.3 47.0048 39.3575V39.6643C47.0048 39.7026 46.9857 39.7314 46.9475 39.7505L46.8615 39.7793V39.8656L46.9475 39.9135C46.9761 39.9327 46.9952 39.9614 46.9952 39.9998V40.2586C46.9952 40.2874 46.9761 40.3161 46.957 40.3353L46.7277 40.4983L46.9284 40.5558C46.9666 40.5654 46.9857 40.6037 46.9952 40.6421C46.9952 40.6517 47.0048 40.7763 46.9761 40.9297C46.957 41.016 46.9475 41.0831 46.9188 41.1406H47.2532H47.2628V37.584H40.9568V41.1598H41.3007Z" fill="#BC955C"/>
<path d="M45.2468 40.8052C45.2564 40.7956 45.2659 40.7956 45.2755 40.786C45.2564 40.7669 45.2373 40.7477 45.2373 40.7189V40.4505C45.2373 40.4409 45.2373 40.4409 45.2373 40.4409L45.1417 40.5176C45.1131 40.5368 45.0749 40.5368 45.0366 40.5272L44.9602 40.4793V41.1791H45.1417C45.1226 41.0449 45.1226 40.9107 45.2468 40.8052Z" fill="#BC955C"/>
<path d="M46.4797 43.0777C46.4319 43.0777 46.3841 43.0394 46.3841 42.9819V42.3779C46.3841 42.33 46.3555 42.2725 46.3172 42.2341C46.279 42.1958 46.2217 42.1574 46.1262 42.167C45.9828 42.167 45.8969 42.2821 45.8873 42.3875V42.9915C45.8873 43.0202 45.8777 43.0394 45.8586 43.0586C45.8395 43.0777 45.8204 43.0873 45.7918 43.0873H45.2471C45.1994 43.0873 45.1516 43.049 45.1516 42.9915V42.3875C45.1516 42.3396 45.1229 42.2821 45.0847 42.2437C45.0465 42.2054 44.9892 42.167 44.8936 42.1766C44.8363 42.1766 44.779 42.2054 44.7312 42.2341L45.1803 44.5445C45.8109 44.2665 46.5657 43.7967 46.9765 43.0873L46.4797 43.0777Z" fill="#BC955C"/>
<path d="M45.0084 44.5923L44.3778 41.3521H43.8714L43.2312 44.5923C43.2312 44.6019 43.2312 44.6019 43.2217 44.6115C43.6612 44.7936 44.0147 44.8799 44.1198 44.9182C44.2249 44.8895 44.5784 44.7936 45.0179 44.6115C45.0179 44.6019 45.0179 44.6019 45.0084 44.5923Z" fill="#BC955C"/>
<path d="M43.4982 42.224C43.46 42.1857 43.4026 42.1665 43.3357 42.1665H43.3262C43.2306 42.1665 43.1733 42.2048 43.1447 42.2432C43.1064 42.2815 43.0778 42.3391 43.0778 42.387V42.9909C43.0778 43.0389 43.0396 43.0868 42.9822 43.0868H42.4376C42.409 43.0868 42.3899 43.0772 42.3707 43.0581C42.3516 43.0389 42.3421 43.0197 42.3421 42.9909V42.387C42.3325 42.2815 42.2465 42.1665 42.1032 42.1665H42.0937C41.9981 42.1665 41.9408 42.2048 41.9121 42.2432C41.8739 42.2815 41.8452 42.3391 41.8452 42.387V42.9909C41.8452 43.0389 41.807 43.0868 41.7497 43.0868H41.272C41.6733 43.7962 42.4185 44.2564 43.0587 44.544L43.4982 42.224Z" fill="#BC955C"/>
<path d="M47.2723 41.3521H44.5684L44.7021 42.0327C44.7594 42.0039 44.8263 41.9848 44.8932 41.9848C45.0174 41.9848 45.1321 42.0231 45.2181 42.1094C45.2945 42.1861 45.3423 42.2915 45.3423 42.3778V42.8859H45.7053V42.3778C45.7053 42.3682 45.7053 42.3682 45.7053 42.3682C45.7245 42.1477 45.906 41.9752 46.1257 41.9752C46.25 41.9752 46.3646 42.0135 46.4506 42.0998C46.527 42.1765 46.5748 42.2819 46.5748 42.3682V42.8763H47.0812C47.2054 42.5983 47.2818 42.2915 47.2818 41.9368L47.2723 41.3521Z" fill="#BC955C"/>
<path d="M41.6733 42.8949V42.3868C41.6733 42.2909 41.7211 42.195 41.7976 42.1184C41.8835 42.0321 41.9982 41.9937 42.1224 41.9937C42.3422 42.0033 42.5237 42.1663 42.5428 42.3868C42.5428 42.3964 42.5428 42.3964 42.5428 42.3964V42.9045H42.9059V42.3964C42.9059 42.3005 42.9536 42.2046 43.0301 42.1279C43.1161 42.0417 43.2307 42.0033 43.3549 42.0033C43.4218 42.0033 43.4887 42.0225 43.546 42.0512L43.6798 41.3706H40.9663V41.9554C40.9663 42.3101 41.0427 42.6264 41.167 42.8949H41.6733Z" fill="#BC955C"/>
<path d="M41.8931 40.9687H42.0459C42.0555 40.9878 42.0651 41.007 42.0651 41.0262C42.0651 41.0358 42.0651 41.0549 42.0651 41.0645C42.0651 41.0933 42.0555 41.1316 42.0555 41.1604H41.53C41.4536 41.1125 41.4153 40.9015 41.4153 40.7386L41.6447 40.6715C41.6829 40.6619 41.7115 40.6235 41.7115 40.5852V40.4989C41.7115 40.4702 41.6924 40.4414 41.6733 40.4222L41.4058 40.2305V40.0771L41.4918 40.0292C41.5204 40.01 41.5396 39.9812 41.5396 39.9429V39.7416C41.5396 39.7032 41.5204 39.6745 41.4822 39.6553L41.3962 39.6265V39.4732H41.6351L41.7498 39.6649V39.9237L41.6733 40.173C41.6638 40.2017 41.6638 40.2305 41.6924 40.2593C41.7115 40.288 41.7402 40.2976 41.7689 40.2976H41.8357C41.8835 40.2976 41.9217 40.2688 41.9313 40.2209C41.9408 40.1826 41.96 40.0579 41.9791 40.01C41.9982 39.9717 42.0651 39.8854 42.1033 39.8279C42.1319 39.7895 42.1319 39.7416 42.1033 39.7128L41.7975 39.3485C41.788 39.291 41.7784 39.1664 41.7975 39.0705C41.8166 38.9651 41.8931 38.8404 41.9122 38.8021C41.9217 38.7829 41.9313 38.7638 41.9217 38.7446L41.9122 38.7158H41.9313L42.3039 38.9555C42.323 38.9651 42.3326 38.9747 42.3517 38.9747H42.4663L42.4568 39.0801L42.3326 39.128C42.3039 39.1472 42.2753 39.176 42.2753 39.2143V39.3102C42.2753 39.3581 42.3135 39.4061 42.3708 39.4061H42.6861L42.7721 39.4923C42.8008 39.5307 42.8581 39.5307 42.8963 39.5019C42.8963 39.5019 43.0396 39.3869 43.0492 39.3773L43.0969 39.2718H43.288V39.4827V39.5978C43.288 39.5978 42.9536 39.7128 42.925 39.7224C42.9059 39.732 42.8867 39.8374 42.8963 39.8566C42.9059 39.8854 42.8963 39.895 42.9345 39.9141C42.9345 39.9141 43.0301 39.9908 43.0587 40.0004L43.1543 39.9046L43.2785 39.9237V40.2401L43.1543 40.3264L42.7625 40.0579C42.7243 40.0292 42.667 40.0388 42.6383 40.0771L42.581 40.1538C42.5523 40.1921 42.5523 40.2497 42.5906 40.2784L42.8103 40.4893V40.6619L42.581 40.7578C42.5428 40.7769 42.5237 40.8057 42.5237 40.844V40.8824C42.5237 40.9303 42.5619 40.9782 42.6192 40.9782H42.8867C42.9345 41.0358 42.9154 41.1125 42.8963 41.17H42.2848C42.2657 41.1508 42.2561 41.1125 42.2466 41.0645C42.2466 41.0549 42.2466 41.0358 42.2466 41.0262C42.2466 40.9687 42.2561 40.9111 42.2657 40.8728L42.409 40.6906C42.4186 40.6715 42.4281 40.6523 42.4281 40.6427L42.4377 40.5564C42.4377 40.5277 42.4186 40.4989 42.3995 40.4702C42.3804 40.4414 42.3421 40.451 42.3135 40.4606L42.0842 40.5564C42.0555 40.566 42.0364 40.5948 42.0268 40.6235L42.0077 40.7194L41.874 40.7578C41.8357 40.7673 41.8071 40.8057 41.8071 40.844V40.8824C41.7975 40.9303 41.8453 40.9687 41.8931 40.9687Z" fill="#BC955C"/>
<path d="M46.3456 40.9683H46.1927C46.1832 40.9875 46.1736 41.0067 46.1736 41.0259C46.1736 41.0355 46.1736 41.0546 46.1736 41.0642C46.1736 41.093 46.1832 41.1313 46.1832 41.1601H46.7087C46.7851 41.1121 46.8233 40.9012 46.8233 40.7383L46.594 40.6712C46.5558 40.6616 46.5271 40.6232 46.5271 40.5849V40.4986C46.5271 40.4698 46.5463 40.4411 46.5654 40.4219L46.8233 40.2398V40.0864L46.7373 40.0385C46.7087 40.0193 46.6896 39.9905 46.6896 39.9522V39.7509C46.6896 39.7125 46.7087 39.6838 46.7469 39.6646L46.8329 39.6358V39.4824H46.594L46.4794 39.6742V39.933L46.5558 40.1823C46.5654 40.211 46.5654 40.2398 46.5367 40.2685C46.5176 40.2973 46.4889 40.3069 46.4603 40.3069H46.3934C46.3456 40.3069 46.3074 40.2781 46.2978 40.2302C46.2883 40.1918 46.2692 40.0672 46.2501 40.0193C46.231 39.9809 46.1641 39.8947 46.1259 39.8371C46.0972 39.7988 46.0972 39.7509 46.1259 39.7221L46.4412 39.3578C46.4507 39.3003 46.4603 39.1757 46.4412 39.0798C46.422 38.9743 46.3456 38.8497 46.3265 38.8114C46.3169 38.7922 46.3074 38.773 46.3169 38.7539L46.3265 38.7251H46.3074L45.9348 38.9648C45.9157 38.9743 45.9061 38.9839 45.887 38.9839H45.7819L45.7914 39.1181L45.9157 39.1661C45.9539 39.1853 45.973 39.214 45.973 39.2524V39.3482C45.973 39.3962 45.9348 39.4441 45.8774 39.4441H45.5621L45.4761 39.5304C45.4475 39.5687 45.3902 39.5687 45.3519 39.54C45.3519 39.54 45.2086 39.4249 45.1991 39.4153L45.1513 39.3099H44.9602V39.5208V39.6358C44.9602 39.6358 45.2946 39.7509 45.3233 39.7604C45.3424 39.77 45.3615 39.8755 45.3519 39.8947C45.3424 39.9234 45.3519 39.933 45.3137 39.9522C45.3137 39.9522 45.2182 40.0289 45.1895 40.0385L45.094 39.9426H44.9602V40.2589L45.0844 40.3356L45.4761 40.0672C45.5144 40.0385 45.5717 40.048 45.6004 40.0864L45.6577 40.1631C45.6863 40.2014 45.6863 40.2589 45.6481 40.2877L45.4284 40.489V40.6616L45.6577 40.7574C45.6959 40.7766 45.715 40.8054 45.715 40.8437V40.8821C45.715 40.93 45.6768 40.9779 45.6195 40.9779H45.3519C45.3042 41.0355 45.3233 41.1121 45.3424 41.1697H45.9634C45.9825 41.1505 45.9921 41.1121 46.0016 41.0642C46.0016 41.0546 46.0016 41.0355 46.0016 41.0259C46.0016 40.9683 45.9921 40.9108 45.9825 40.8725L45.8392 40.6903C45.8297 40.6712 45.8201 40.652 45.8201 40.6424L45.8106 40.5465C45.8106 40.5178 45.8297 40.489 45.8488 40.4603C45.8774 40.4411 45.9061 40.4411 45.9348 40.4507L46.1641 40.5465C46.1927 40.5561 46.2118 40.5849 46.2214 40.6136L46.2405 40.7095L46.3743 40.7479C46.4125 40.7574 46.4412 40.7958 46.4412 40.8341V40.8725C46.4412 40.93 46.4029 40.9683 46.3456 40.9683Z" fill="#BC955C"/>
</g>
<defs>
<filter id="filter0_dd_11511_122511" x="0.156094" y="0.270729" width="147.688" height="147.688" filterUnits="userSpaceOnUse" color-interpolation-filters="sRGB">
<feFlood flood-opacity="0" result="BackgroundImageFix"/>
<feColorMatrix in="SourceAlpha" type="matrix" values="0 0 0 0 0 0 0 0 0 0 0 0 0 0 0 0 0 0 127 0" result="hardAlpha"/>
<feOffset dy="2.61464"/>
<feGaussianBlur stdDeviation="3.92195"/>
<feColorMatrix type="matrix" values="0 0 0 0 0.2471 0 0 0 0 0.2471 0 0 0 0 0.2667 0 0 0 0.15 0"/>
<feBlend mode="normal" in2="BackgroundImageFix" result="effect1_dropShadow_11511_122511"/>
<feColorMatrix in="SourceAlpha" type="matrix" values="0 0 0 0 0 0 0 0 0 0 0 0 0 0 0 0 0 0 127 0" result="hardAlpha"/>
<feOffset/>
<feColorMatrix type="matrix" values="0 0 0 0 0.2471 0 0 0 0 0.2471 0 0 0 0 0.2667 0 0 0 0.05 0"/>
<feBlend mode="normal" in2="effect1_dropShadow_11511_122511" result="effect2_dropShadow_11511_122511"/>
<feBlend mode="normal" in="SourceGraphic" in2="effect2_dropShadow_11511_122511" result="shape"/>
</filter>
</defs>
</svg>
