<svg width="148" height="149" viewBox="0 0 148 149" fill="none" xmlns="http://www.w3.org/2000/svg">
<g filter="url(#filter0_dd_11511_122088)">
<rect x="8" y="6.125" width="132" height="132" rx="18.3024" fill="white"/>
<path d="M113.615 80.3044V49.5766C113.615 40.8088 106.483 33.6769 97.7156 33.6769H93.5383L93.5391 28.859C93.5391 26.9197 91.9666 25.3472 90.0272 25.3472C88.0879 25.3472 86.5154 26.9197 86.5154 28.859V33.6777H61.5009V28.859C61.5009 26.9197 59.9284 25.3472 57.989 25.3472C56.0497 25.3472 54.4772 26.9197 54.4772 28.859V33.6777H50.2999C41.532 33.6777 34.4001 40.8096 34.4001 49.5774V96.9956C34.4001 105.763 41.532 112.895 50.2999 112.895H81.0276C85.2365 119.375 92.5251 123.68 100.812 123.68C113.819 123.68 124.4 113.098 124.4 100.092C124.401 91.8042 120.096 84.5164 113.615 80.3068L113.615 80.3044ZM100.813 116.655C91.6778 116.655 84.2465 109.225 84.2465 100.091C84.2465 90.9558 91.6786 83.5245 100.813 83.5245C109.948 83.5245 117.377 90.9566 117.377 100.091C117.378 109.225 109.948 116.655 100.813 116.655ZM50.3001 40.7006H97.7182C102.612 40.7006 106.594 44.6821 106.594 49.5766L106.593 53.1119H41.4253V49.5758C41.4253 44.6819 45.4076 40.7004 50.3013 40.7004L50.3001 40.7006ZM50.3001 105.869C45.4061 105.869 41.4241 101.887 41.4241 96.9928V60.1363H106.592V77.2465C104.739 76.7769 102.81 76.5002 100.813 76.5002C87.8054 76.5002 77.2236 87.0819 77.2236 100.09C77.2236 102.086 77.5003 104.016 77.9699 105.869L50.3001 105.869Z" fill="#8B1232"/>
<path d="M99.6556 103.407C100.447 103.62 107.845 106.442 108.5 106.286C109.953 106.285 111.311 105.378 111.817 103.928C112.455 102.099 111.488 100.096 109.656 99.4563L104.324 97.5961L104.323 92.402C104.323 90.4626 102.75 88.8901 100.811 88.8901C98.8716 88.8901 97.2991 90.4626 97.2991 92.402V100.091C97.2991 101.585 98.2444 102.916 99.6554 103.407L99.6556 103.407Z" fill="#8B1232"/>
</g>
<defs>
<filter id="filter0_dd_11511_122088" x="0.156094" y="0.895729" width="147.688" height="147.688" filterUnits="userSpaceOnUse" color-interpolation-filters="sRGB">
<feFlood flood-opacity="0" result="BackgroundImageFix"/>
<feColorMatrix in="SourceAlpha" type="matrix" values="0 0 0 0 0 0 0 0 0 0 0 0 0 0 0 0 0 0 127 0" result="hardAlpha"/>
<feOffset dy="2.61464"/>
<feGaussianBlur stdDeviation="3.92195"/>
<feColorMatrix type="matrix" values="0 0 0 0 0.2471 0 0 0 0 0.2471 0 0 0 0 0.2667 0 0 0 0.15 0"/>
<feBlend mode="normal" in2="BackgroundImageFix" result="effect1_dropShadow_11511_122088"/>
<feColorMatrix in="SourceAlpha" type="matrix" values="0 0 0 0 0 0 0 0 0 0 0 0 0 0 0 0 0 0 127 0" result="hardAlpha"/>
<feOffset/>
<feColorMatrix type="matrix" values="0 0 0 0 0.2471 0 0 0 0 0.2471 0 0 0 0 0.2667 0 0 0 0.05 0"/>
<feBlend mode="normal" in2="effect1_dropShadow_11511_122088" result="effect2_dropShadow_11511_122088"/>
<feBlend mode="normal" in="SourceGraphic" in2="effect2_dropShadow_11511_122088" result="shape"/>
</filter>
</defs>
</svg>
