<svg width="148" height="148" viewBox="0 0 148 148" fill="none" xmlns="http://www.w3.org/2000/svg">
<g filter="url(#filter0_dd_11511_122056)">
<rect x="8" y="5.375" width="132" height="132" rx="18.3024" fill="white"/>
<path d="M45.9396 42.782C44.938 42.782 44.127 43.5914 44.127 44.5899V53.6269C44.127 54.6253 44.938 55.434 45.9396 55.434H55.0031C56.0048 55.434 56.8158 54.6253 56.8158 53.6269V44.5899C56.8158 43.5914 56.0048 42.782 55.0031 42.782H45.9396Z" fill="#006598"/>
<path d="M84.0083 102.428C83.0074 102.428 82.1956 103.237 82.1956 104.236V113.273C82.1956 114.271 83.0074 115.08 84.0083 115.08H93.0717C94.0734 115.08 94.8852 114.271 94.8852 113.273V104.236C94.8852 103.237 94.0734 102.428 93.0717 102.428H84.0083Z" fill="#006598"/>
<path fill-rule="evenodd" clip-rule="evenodd" d="M63.9544 21.9886C62.0145 21.4938 60.04 22.6619 59.5444 24.5964L56.7373 35.5534H42.3135C39.3103 35.5534 36.8755 37.981 36.8755 40.9754V116.887C36.8755 119.882 39.3103 122.309 42.3135 122.309H96.6977C99.7009 122.309 102.136 119.882 102.136 116.887V106.654L119.262 39.8058C119.757 37.8714 118.586 35.9026 116.646 35.4087L63.9544 21.9886ZM43.9133 39.1682C42.0285 39.1682 40.501 40.7159 40.501 42.6254V115.237C40.501 117.147 42.0286 118.695 43.9133 118.695H95.0979C96.9827 118.695 98.5102 117.147 98.5102 115.237V42.6254C98.5102 40.7158 96.9826 39.1682 95.0979 39.1682H43.9133Z" fill="#006598"/>
<path d="M65.0728 55.3872C61.511 55.3872 58.5724 58.3157 58.5724 61.8662C58.5724 64.5844 60.3032 66.931 62.7088 67.8851V81.2665L62.7092 81.2661C62.7092 81.891 62.9582 82.49 63.4017 82.9321C63.8448 83.3737 64.4462 83.6219 65.0728 83.6219H79.0334L85.4596 95.3647L85.46 95.3651C85.662 95.7365 85.9604 96.0471 86.3244 96.264C86.6883 96.481 87.1038 96.5964 87.5279 96.5981L91.6643 96.58C92.2971 96.589 92.9071 96.3446 93.3577 95.9017C93.8082 95.4588 94.0617 94.8545 94.0617 94.2238C94.0617 93.5932 93.8082 92.9889 93.3577 92.5464C92.9071 92.1035 92.297 91.859 91.6643 91.8681L88.9315 91.8862L82.5054 80.1434C82.303 79.772 82.0046 79.4614 81.6406 79.2444C81.2766 79.0275 80.8611 78.9121 80.437 78.9104H67.4366V75.9655H78.0733C78.7056 75.9741 79.3156 75.7301 79.7662 75.2872C80.2167 74.8443 80.4706 74.24 80.4706 73.6093C80.4706 72.9787 80.2167 72.3744 79.7662 71.9315C79.3157 71.489 78.7056 71.2446 78.0733 71.2536H67.4366V67.8856C69.8487 66.9349 71.573 64.5894 71.573 61.8667C71.573 58.3166 68.6348 55.3877 65.0726 55.3877L65.0728 55.3872ZM65.0728 60.0992C66.0798 60.0992 66.8457 60.8625 66.8457 61.8662C66.8457 62.8699 66.0799 63.6148 65.0728 63.6148C64.0658 63.6148 63.3185 62.8699 63.3185 61.8662C63.3185 60.8625 64.0658 60.0992 65.0728 60.0992ZM56.2089 72.8906C52.4093 75.0771 49.6438 78.6793 48.5082 82.9032C46.1504 91.6738 51.3977 100.744 60.197 103.095C68.9966 105.445 78.0968 100.215 80.4552 91.4444L75.8938 90.2296C74.1972 96.5405 67.748 100.24 61.4161 98.5491C55.0843 96.8581 51.3724 90.4301 53.069 84.1191C53.8806 81.1007 55.8567 78.5403 58.5718 76.9779L56.2083 72.8916L56.2089 72.8906Z" fill="#006598"/>
</g>
<defs>
<filter id="filter0_dd_11511_122056" x="0.156094" y="0.145729" width="147.688" height="147.688" filterUnits="userSpaceOnUse" color-interpolation-filters="sRGB">
<feFlood flood-opacity="0" result="BackgroundImageFix"/>
<feColorMatrix in="SourceAlpha" type="matrix" values="0 0 0 0 0 0 0 0 0 0 0 0 0 0 0 0 0 0 127 0" result="hardAlpha"/>
<feOffset dy="2.61464"/>
<feGaussianBlur stdDeviation="3.92195"/>
<feColorMatrix type="matrix" values="0 0 0 0 0.2471 0 0 0 0 0.2471 0 0 0 0 0.2667 0 0 0 0.15 0"/>
<feBlend mode="normal" in2="BackgroundImageFix" result="effect1_dropShadow_11511_122056"/>
<feColorMatrix in="SourceAlpha" type="matrix" values="0 0 0 0 0 0 0 0 0 0 0 0 0 0 0 0 0 0 127 0" result="hardAlpha"/>
<feOffset/>
<feColorMatrix type="matrix" values="0 0 0 0 0.2471 0 0 0 0 0.2471 0 0 0 0 0.2667 0 0 0 0.05 0"/>
<feBlend mode="normal" in2="effect1_dropShadow_11511_122056" result="effect2_dropShadow_11511_122056"/>
<feBlend mode="normal" in="SourceGraphic" in2="effect2_dropShadow_11511_122056" result="shape"/>
</filter>
</defs>
</svg>
