<svg width="148" height="149" viewBox="0 0 148 149" fill="none" xmlns="http://www.w3.org/2000/svg">
<g filter="url(#filter0_dd_11511_122441)">
<rect x="8" y="6.125" width="132" height="132" rx="18.3024" fill="white"/>
<path d="M89.4696 75.7355C91.3015 75.3691 93.9407 74.8399 96.58 74.331C97.1159 74.2293 97.808 73.7679 98.1336 74.4735C98.2286 74.6839 97.5909 75.3284 97.1906 75.6473C95.949 76.631 95.1959 77.798 95.2773 79.467C95.3587 81.1835 94.5039 82.2962 93.0044 83.1986C90.2227 84.8744 87.4885 86.6588 84.8968 88.6195C83.1056 89.9697 81.6741 91.7744 81.2874 94.1015C81.1517 94.9292 81.3348 95.818 81.423 96.6729C81.4705 97.1343 81.6198 97.582 81.708 98.0366C81.9862 99.536 81.7758 99.7396 80.3375 99.346C78.6278 98.8847 76.8027 100.309 77.0809 101.958C77.1691 102.501 77.5083 103.084 77.9018 103.471C78.6685 104.231 79.5573 104.869 80.385 105.574C80.8531 105.975 81.4841 106.436 81.0431 107.114C80.6292 107.759 79.9033 107.671 79.2859 107.345C75.8529 105.507 73.1526 103.064 72.7726 98.8915C72.4673 95.4924 72.2231 92.0865 72.0195 88.6806C71.7414 84.1552 71.5242 79.6299 71.2868 75.0977C71.1511 72.4313 71.0086 69.765 70.9001 67.0918C70.744 63.3331 70.6151 59.5812 70.4658 55.8225C70.398 54.0178 70.6694 53.3665 72.352 52.8576C74.0821 52.3352 75.9071 52.1045 77.6915 51.7924C77.9832 51.745 78.3157 51.9417 78.6278 52.0299C78.5192 52.3691 78.4921 52.7694 78.2885 53.034C77.8068 53.6786 77.2505 54.2756 76.7009 54.8659C73.4375 58.3803 73.7021 64.914 76.07 68.1842C76.7959 69.1883 77.4947 70.2263 78.3021 71.1694C81.0092 74.3378 84.5915 75.5455 89.4696 75.7219V75.7355Z" fill="#818181"/>
<path d="M40.1925 96.4559C39.012 96.4559 37.8314 96.4559 36.6577 96.4559C34.4188 96.4559 32.8108 95.3296 31.7049 93.491C30.1851 90.9536 29.7781 88.1515 30.002 85.2409C30.2394 82.1674 30.9586 79.2365 32.4376 76.5158C33.7878 74.0259 35.925 72.5061 38.6388 72.0447C40.3893 71.7462 42.2279 71.9294 44.0258 71.9294C46.4479 71.9294 48.8701 71.9362 51.2854 71.9837C52.0521 71.9972 52.8323 72.0787 53.5922 72.2279C55.8718 72.6893 56.9641 73.9919 57.0931 76.6176C57.3305 81.584 57.5205 86.5503 57.663 91.5167C57.7308 93.9931 57.0049 94.9226 54.5285 95.3161C51.8146 95.7435 49.0668 95.9945 46.3258 96.232C44.2904 96.4084 42.2415 96.4423 40.1993 96.5373V96.4627L40.1925 96.4559ZM43.9241 91.4624C44.5957 91.3674 45.281 91.3335 45.9391 91.1774C49.7249 90.2819 52.1878 86.591 51.4211 83.0834C50.227 77.6489 43.4627 75.7084 39.2019 78.8769C37.1665 80.3899 36.0403 82.4524 36.3795 84.9966C36.9155 88.9724 39.8736 91.3878 43.9241 91.4624Z" fill="#818181"/>
<path d="M44.9354 115.16C43.0561 115.174 41.1971 114.991 39.8198 113.6C38.9921 112.766 38.2594 111.7 37.8591 110.608C36.9906 108.22 36.285 105.771 35.654 103.308C35.1045 101.184 35.8847 100.295 38.0422 100.146C42.8593 99.8068 47.6697 99.4133 52.4868 99.0741C54.1829 98.952 55.8859 98.9113 57.5888 98.8298C58.5319 98.7891 59.2714 99.2098 59.6174 100.038C60.608 102.412 61.6528 104.773 62.4059 107.229C63.0097 109.183 62.0802 110.791 60.2213 111.632C56.2319 113.437 52.0458 114.489 47.6968 114.923C46.7741 115.011 45.8514 115.086 44.9219 115.174L44.9354 115.16Z" fill="#818181"/>
<path d="M30.7336 35.9032C30.6793 33.1283 31.636 31.7578 34.3838 31.2354C38.6649 30.4212 42.9663 29.7021 47.2814 29.044C51.7457 28.3655 56.2168 27.7684 60.7014 27.2257C63.5849 26.8729 66.4887 26.6354 69.3858 26.4319C71.3601 26.2894 73.348 26.2894 75.3291 26.2351C75.6073 26.2283 75.8922 26.2215 76.1636 26.2622C78.1922 26.5268 78.9657 27.8838 78.2058 29.8106C77.9208 30.5298 77.3713 30.8351 76.6589 30.9844C72.9341 31.7578 69.2026 32.5177 65.4846 33.3386C56.2371 35.3808 46.9964 37.4366 37.7557 39.5127C36.487 39.7976 35.2522 40.2251 33.9902 40.5168C32.4366 40.8696 31.3578 40.1504 31.0661 38.59C30.9032 37.7079 30.8422 36.8056 30.7404 35.9168L30.7336 35.9032Z" fill="#818181"/>
<path d="M34.5623 53.5432C33.3479 53.3668 32.7848 53.0275 32.5269 51.9149C32.2556 50.7411 32.0384 49.5402 31.9638 48.3393C31.8553 46.5482 32.5134 45.5509 34.2502 44.9335C36.3806 44.1736 38.5314 43.4476 40.716 42.8777C52.2228 39.8857 63.7431 36.9276 75.2702 34.0102C76.1387 33.7931 77.1156 33.7727 78.0044 33.9084C79.0968 34.0712 79.5853 34.899 79.6463 36.188C79.6938 37.3007 79.3139 37.9995 78.2826 38.3591C74.3068 39.7568 70.3106 41.1069 66.3281 42.4842C56.9856 45.7205 47.6431 48.9568 38.3007 52.193C37.0523 52.6272 35.8107 53.0886 34.5691 53.5364L34.5623 53.5432Z" fill="#818181"/>
<path d="M110.13 82.9624C107.043 82.7249 103.956 82.5078 100.869 82.2229C100.177 82.1618 99.4851 81.8972 98.827 81.6326C98.1621 81.3612 97.9246 80.8117 98.1892 80.1061C98.2639 79.9025 98.3385 79.699 98.4199 79.4954C99.458 76.8901 99.5462 76.8562 102.375 76.7952C102.905 76.7816 103.759 76.5577 103.875 76.2252C104.051 75.7096 103.726 75.0176 103.597 74.407C103.583 74.3255 103.502 74.2441 103.434 74.1831C102.07 72.9618 102.246 71.5574 102.966 70.1123C104.343 67.3645 104.967 64.4267 104.94 61.3872C104.913 58.2391 103.583 55.6338 101.222 53.5577C100.639 53.0489 100.021 52.574 99.4987 52.004C99.2816 51.7666 99.1798 51.312 99.2409 50.9999C99.2748 50.8439 99.804 50.6946 100.103 50.7014C103.169 50.7964 106.236 50.8914 109.296 51.0813C109.933 51.122 110.632 51.4274 111.155 51.8073C113.048 53.1778 113.808 55.8984 113.048 58.1102C112.057 60.9869 111.046 63.85 110.137 66.7539C109.71 68.1176 109.927 69.4881 110.849 70.6347C112.084 72.1545 113.421 73.586 114.601 75.1465C115.036 75.7164 115.273 76.517 115.382 77.2429C115.551 78.3149 115.565 79.4072 115.572 80.4996C115.578 81.8633 114.676 82.7589 113.299 82.7928C112.247 82.8199 111.189 82.7928 110.13 82.7928L110.117 82.9556L110.13 82.9624Z" fill="#818181"/>
<path d="M90.1353 73.3281C85.9831 73.2602 82.6179 72.1611 80.1212 69.1419C76.0775 64.2502 77.0545 54.0054 86.5869 52.0175C90.617 51.1762 94.5046 51.5629 97.9309 54.08C100.4 55.8983 101.547 58.4493 101.832 61.4956C102.409 67.6697 97.6255 72.1204 92.4489 73.077C91.5736 73.2399 90.6713 73.267 90.1285 73.3281H90.1353ZM96.5943 62.6694C96.5943 58.7818 93.5208 55.844 89.4229 55.8169C85.6371 55.7897 82.3397 58.8835 82.2855 62.4998C82.2312 66.1635 85.5624 69.2708 89.5247 69.2573C93.8126 69.2369 96.5943 66.652 96.5943 62.6694Z" fill="#818181"/>
<path d="M39.6779 61.9762C39.7797 60.8024 39.8136 59.6219 39.9968 58.4685C40.1596 57.4508 40.6956 56.5485 41.6387 56.0939C45.6552 54.1603 49.6785 52.2199 54.0478 51.1886C55.2555 50.9036 56.0561 51.4193 56.3139 52.6134C56.4428 53.2172 56.5039 53.8346 56.5378 54.452C56.7277 57.7629 56.8634 61.0806 57.0941 64.3915C57.2502 66.6915 56.4292 67.8042 53.9121 68.0077C50.3637 68.2927 46.8086 68.4691 43.2534 68.5912C41.0213 68.6726 40.18 67.8313 39.9493 65.5992C39.8883 64.9818 39.8136 64.3644 39.7797 63.747C39.7526 63.1567 39.7797 62.5664 39.7797 61.9762H39.6711H39.6779Z" fill="#818181"/>
<path d="M114.553 92.7853C112.755 92.4393 111.215 92.0933 109.654 91.8558C106.622 91.3944 103.589 90.9602 100.502 91.3605C98.7447 91.5912 97.3742 92.5003 96.0716 93.5655C94.484 94.8614 92.9574 96.2319 91.397 97.5617C91.0645 97.8398 90.6981 98.0773 90.3318 98.308C89.3073 98.9661 88.1675 99.536 87.0344 98.8033C85.725 97.9552 84.7073 96.7747 84.8769 95.0446C84.9312 94.4882 85.1483 93.8505 85.5079 93.4434C87.645 91.0009 90.0129 88.8366 92.8557 87.2015C94.986 85.9803 97.3132 85.736 99.6674 85.6071C104.464 85.3561 109.193 85.9057 113.881 86.8962C114.031 86.9301 114.18 86.9776 114.329 87.0183C117.362 87.7714 117.084 89.8408 115.869 92.0729C115.645 92.48 114.906 92.6089 114.56 92.7921L114.553 92.7853Z" fill="#818181"/>
<path d="M68.3485 83.1098C68.8166 87.0788 66.8287 90.0437 64.4066 92.8254C64.0945 93.185 63.5517 93.3478 63.1175 93.6056C62.914 93.1443 62.5815 92.6965 62.534 92.2216C62.3508 90.2472 62.2355 88.2661 62.1337 86.2782C61.937 82.5874 61.7402 78.9033 61.5977 75.2125C61.5095 73.0617 61.903 71.006 63.2193 69.2216C63.8977 68.2989 64.5423 67.3355 65.3089 66.4874C65.6142 66.1482 66.2113 65.8836 66.6523 65.9175C66.9169 65.9378 67.2765 66.5688 67.3511 66.9691C67.5954 68.3735 67.8193 69.7847 67.8871 71.2027C68.016 73.842 68.0228 76.4812 68.1042 79.1204C68.1449 80.4502 68.2603 81.78 68.3417 83.1166L68.3485 83.1098Z" fill="#818181"/>
<path d="M70.6964 46.0138C70.6964 45.8306 70.6964 45.6406 70.6964 45.4574C70.7236 43.3135 70.8389 43.1032 72.9082 42.6011C76.4227 41.7462 79.9371 40.871 83.5873 40.8032C85.2359 40.7692 85.7041 41.251 85.6702 42.8996C85.6498 43.8902 85.5345 44.874 85.4327 45.8645C85.3106 46.984 84.6457 47.6964 83.5737 47.927C81.4298 48.3884 79.279 48.8362 77.1215 49.1822C75.6899 49.4129 74.238 49.5214 72.7861 49.5757C71.1646 49.6368 70.6693 49.1144 70.6286 47.4996C70.615 47.0043 70.6286 46.5091 70.6286 46.007H70.6964V46.0138Z" fill="#818181"/>
<path d="M66.8153 53.0822C66.8153 54.9141 66.856 56.7527 66.7882 58.5846C66.7678 59.1816 66.5982 59.8601 66.2658 60.335C65.1192 61.9498 63.8844 63.5102 62.6292 65.0436C62.3917 65.3353 61.8286 65.627 61.5504 65.5321C61.2723 65.4371 61.1298 64.8672 60.9805 64.4804C60.8788 64.2226 60.838 63.9377 60.8313 63.6595C60.6956 59.0663 60.587 54.4663 60.4378 49.8731C60.397 48.7333 60.8177 47.8581 61.7268 47.2474C62.4935 46.725 63.2805 46.2026 64.1286 45.843C65.6212 45.2053 66.7475 45.9584 66.7882 47.5799C66.8289 49.4117 66.795 51.2504 66.795 53.0822H66.8153Z" fill="#818181"/>
<path d="M90.3235 106.436C86.999 106.334 83.9187 105.581 81.2049 103.607C80.9064 103.389 80.5603 103.172 80.3839 102.867C80.2075 102.562 80.0379 102.012 80.1872 101.815C80.3975 101.544 80.9064 101.395 81.2863 101.395C81.6595 101.395 82.0598 101.612 82.4126 101.795C87.1211 104.292 91.3683 103.199 95.2491 100.011C96.5314 98.9591 97.5559 97.5953 98.6889 96.3605C99.3538 95.6346 100.032 95.0375 101.138 95.0918C102.834 95.1732 103.587 96.062 102.977 97.6632C102.597 98.6605 102 99.6104 101.335 100.452C99.3063 103.037 96.9046 105.174 93.614 105.988C92.542 106.253 91.4158 106.293 90.3167 106.436H90.3235Z" fill="#818181"/>
<path d="M82.6231 32.6536C82.6231 31.9072 82.596 31.1609 82.6231 30.4146C82.6842 29.1052 83.2948 28.1486 84.5771 27.7618C86.4225 27.2055 88.2951 27.158 90.1608 27.694C91.2939 28.0196 91.9859 28.8542 92.0809 29.9736C92.2369 31.819 92.3455 33.6916 92.2302 35.537C92.1148 37.4367 91.5585 37.9524 89.7198 38.1288C88.3765 38.2645 86.9992 38.2645 85.6558 38.1627C83.8375 38.027 82.6774 36.704 82.6163 34.8857C82.5892 34.1394 82.6163 33.3931 82.6163 32.6468L82.6231 32.6536Z" fill="#818181"/>
<path d="M74.047 109.605C74.047 109.015 74.0063 108.425 74.0538 107.835C74.1148 107.095 74.5762 106.878 75.2343 107.143C75.5735 107.278 75.8856 107.502 76.1842 107.726C80.662 111.023 85.4113 113.825 90.8661 115.135C93.1119 115.671 95.4458 115.834 97.7322 116.2C98.0104 116.248 98.2546 116.499 98.5124 116.655C98.2614 116.858 98.0443 117.15 97.7593 117.252C97.3319 117.408 96.857 117.482 96.3956 117.503C90.7576 117.72 85.1806 117.374 79.7732 115.61C78.5384 115.21 77.3511 114.66 76.157 114.144C74.6237 113.486 74.0538 112.218 74.047 110.63C74.047 110.291 74.047 109.945 74.047 109.605Z" fill="#818181"/>
<path d="M99.538 113.656C98.9477 113.595 98.2625 113.575 97.6044 113.432C97.3126 113.371 97.0684 113.052 96.8105 112.855C97.1091 112.672 97.3805 112.401 97.6993 112.319C98.5067 112.116 99.348 112.041 100.149 111.831C107.055 110.053 111.011 105.514 112.408 98.5941C112.517 98.0446 112.592 97.495 112.721 96.9522C113.019 95.7378 113.399 95.4528 114.6 95.4868C115.78 95.5207 116.574 96.0295 116.635 97.1015C116.703 98.2617 116.635 99.4626 116.405 100.602C115.611 104.578 113.379 107.631 110.054 109.877C107.462 111.627 104.681 112.971 101.567 113.486C100.929 113.595 100.278 113.595 99.5312 113.656H99.538Z" fill="#818181"/>
<path d="M92.4685 110.792C91.0913 110.588 89.9379 110.5 88.8455 110.215C88.3706 110.093 88.011 109.55 87.5972 109.204C88.0992 109.055 88.5877 108.811 89.0966 108.77C91.1591 108.607 93.2759 108.75 95.2706 108.322C99.796 107.359 102.944 104.591 104.633 100.228C105.081 99.0682 105.461 97.8876 105.922 96.7342C106.384 95.5876 107.049 95.2688 108.297 95.4994C109.24 95.6691 109.871 96.4289 109.797 97.5552C109.64 100.086 108.535 102.277 107.096 104.292C104.884 107.4 101.648 108.926 98.093 109.822C96.1865 110.304 94.2054 110.5 92.4618 110.792H92.4685Z" fill="#818181"/>
<path d="M93.6824 47.9733C92.7936 47.8919 91.8912 47.8376 91.0092 47.7155C89.8558 47.5459 89.1299 46.8267 89.0213 45.6869C88.9128 44.581 88.8856 43.4412 89.0213 42.3421C89.2181 40.7612 90.1136 40.0692 92.149 39.9064C93.3771 39.8114 94.6322 39.8657 95.8535 40.0217C97.6107 40.2456 98.3638 41.0937 98.4248 42.8645C98.4588 43.8822 98.3706 44.9134 98.2145 45.9244C98.011 47.2134 97.2307 47.7494 95.5482 47.8783C94.9307 47.9258 94.3066 47.8851 93.6892 47.8851V47.9733H93.6824Z" fill="#818181"/>
<path d="M70.5059 111.796C70.092 111.47 69.8817 111.375 69.7732 111.212C68.2941 108.885 66.6997 106.619 65.3835 104.204C63.9384 101.537 64.3454 98.8576 65.9873 96.3608C66.4487 95.662 66.9643 94.9971 67.4935 94.3458C67.6496 94.1558 67.9617 93.9115 68.1381 93.9522C68.3416 94.0065 68.5723 94.3254 68.6198 94.5629C68.7826 95.4109 68.864 96.2794 68.9794 97.1342C69.4882 100.974 70.0242 104.808 70.4923 108.648C70.6077 109.604 70.5127 110.581 70.5127 111.789L70.5059 111.796Z" fill="#818181"/>
<path d="M99.2942 28.9558C99.7827 28.9829 100.251 28.9965 100.712 29.044C102.062 29.1865 103.046 29.9124 103.263 31.2422C103.521 32.8231 103.589 34.4378 103.65 36.0458C103.677 36.8192 103.148 37.3756 102.388 37.4095C100.787 37.4773 99.1857 37.4841 97.5845 37.4095C96.7975 37.3688 96.2479 36.7582 96.1801 35.9983C96.0308 34.3428 95.8612 32.6602 95.9697 31.0116C96.0647 29.6004 96.7907 29.1254 98.2087 29.0304C98.5818 29.0033 98.9482 28.9829 99.301 28.9626L99.2942 28.9558Z" fill="#818181"/>
<path d="M100.881 43.8477C100.881 43.2236 100.854 42.5994 100.881 41.982C100.949 40.7743 101.512 40.2587 102.713 40.2315C103.242 40.2247 103.771 40.2315 104.293 40.2315C106.383 40.2315 107.068 40.7675 107.34 42.7961C107.502 44.0241 107.523 45.2725 107.57 46.5073C107.611 47.43 107.15 48.0407 106.227 48.0746C104.938 48.1289 103.635 48.1356 102.353 48.0067C101.417 47.9118 100.955 47.1179 100.881 45.8085C100.84 45.1572 100.881 44.5059 100.874 43.8477H100.881Z" fill="#818181"/>
<path d="M109.552 44.4118C109.633 43.4891 109.68 42.5596 109.809 41.6436C109.85 41.3655 110.033 41.033 110.257 40.877C111.37 40.0696 114.206 40.8905 114.511 42.2135C114.945 44.0997 115.169 46.0401 115.386 47.9737C115.475 48.7743 114.959 49.2492 114.131 49.2492C113.392 49.2492 112.639 49.256 111.906 49.1542C110.352 48.9303 109.748 48.1705 109.64 46.3725C109.599 45.7212 109.64 45.0699 109.64 44.4186H109.558L109.552 44.4118Z" fill="#818181"/>
<path d="M110.943 38.5567C108.283 38.4142 107.204 37.7697 106.634 35.2526C106.438 34.3773 106.187 33.5089 106.112 32.6201C106.024 31.6228 106.519 31.1546 107.523 31.0529C110.183 30.7951 111.587 31.7178 112.395 34.2891C112.578 34.8794 112.72 35.4832 112.863 36.0871C113.277 37.8579 112.734 38.5499 110.95 38.5567H110.943Z" fill="#818181"/>
<path d="M44.0801 88.0277C41.8615 88.0277 40.5249 86.7115 40.5249 84.5133C40.5249 82.4575 42.2346 80.7139 44.2293 80.7478C46.2919 80.7817 47.7913 82.3151 47.798 84.3776C47.798 86.5215 46.2647 88.0345 44.0801 88.0345V88.0277Z" fill="#818181"/>
<path d="M89.8229 66.4324C87.6925 66.4459 85.9557 64.7159 85.976 62.599C85.9964 60.5637 87.7536 58.7522 89.7551 58.7182C91.7565 58.6843 93.602 60.5501 93.6087 62.6126C93.6087 64.6684 91.8854 66.412 89.8297 66.4324H89.8229Z" fill="#818181"/>
</g>
<defs>
<filter id="filter0_dd_11511_122441" x="0.156094" y="0.895729" width="147.688" height="147.688" filterUnits="userSpaceOnUse" color-interpolation-filters="sRGB">
<feFlood flood-opacity="0" result="BackgroundImageFix"/>
<feColorMatrix in="SourceAlpha" type="matrix" values="0 0 0 0 0 0 0 0 0 0 0 0 0 0 0 0 0 0 127 0" result="hardAlpha"/>
<feOffset dy="2.61464"/>
<feGaussianBlur stdDeviation="3.92195"/>
<feColorMatrix type="matrix" values="0 0 0 0 0.2471 0 0 0 0 0.2471 0 0 0 0 0.2667 0 0 0 0.15 0"/>
<feBlend mode="normal" in2="BackgroundImageFix" result="effect1_dropShadow_11511_122441"/>
<feColorMatrix in="SourceAlpha" type="matrix" values="0 0 0 0 0 0 0 0 0 0 0 0 0 0 0 0 0 0 127 0" result="hardAlpha"/>
<feOffset/>
<feColorMatrix type="matrix" values="0 0 0 0 0.2471 0 0 0 0 0.2471 0 0 0 0 0.2667 0 0 0 0.05 0"/>
<feBlend mode="normal" in2="effect1_dropShadow_11511_122441" result="effect2_dropShadow_11511_122441"/>
<feBlend mode="normal" in="SourceGraphic" in2="effect2_dropShadow_11511_122441" result="shape"/>
</filter>
</defs>
</svg>
