<svg width="148" height="149" viewBox="0 0 148 149" fill="none" xmlns="http://www.w3.org/2000/svg">
<g filter="url(#filter0_dd_11511_122122)">
<rect x="8" y="6" width="132" height="132" rx="18.3024" fill="white"/>
<path d="M91.3759 57.5415H95.2776L89.4062 44.2834H85.7128L79.8603 57.5415H83.6862L84.7279 54.9656H90.3342L91.3759 57.5415ZM85.8265 52.2004L87.5311 47.9578L89.2357 52.2004H85.8265Z" fill="#1A6058" style="mix-blend-mode:multiply"/>
<rect x="47.8083" y="30.3083" width="53.0916" height="82.6044" rx="3.46249" stroke="#C09C1D" stroke-width="4.61666"/>
<rect x="53.1934" y="74.1667" width="26.9305" height="3.84721" rx="1.92361" fill="#1A6058"/>
<rect x="53.1934" y="89.5564" width="26.9305" height="3.84721" rx="1.92361" fill="#1A6058"/>
<rect x="53.1934" y="81.8601" width="26.9305" height="3.84721" rx="1.92361" fill="#1A6058"/>
<path d="M70.4353 56.9006C70.427 56.9054 70.4186 56.9104 70.4103 56.9157C70.2191 57.0317 70.0223 57.1394 69.8202 57.2379C69.8043 57.245 69.7887 57.2525 69.7728 57.2598C69.6923 57.2982 69.6109 57.3352 69.529 57.3705C69.5034 57.3815 69.4775 57.3932 69.4516 57.4041C69.3573 57.4435 69.2625 57.4815 69.1661 57.5172C69.151 57.5226 69.1362 57.5274 69.1212 57.5333C69.0371 57.5637 68.9519 57.5925 68.8663 57.6197C68.829 57.632 68.7918 57.6431 68.7545 57.6543C68.6866 57.675 68.618 57.6942 68.5493 57.7128C68.5146 57.722 68.4798 57.7322 68.4445 57.7416C68.35 57.7652 68.2546 57.7873 68.1584 57.8079C68.121 57.8157 68.0836 57.823 68.0458 57.8301C67.9761 57.8436 67.9062 57.8557 67.8355 57.8678C67.7977 57.8741 67.7603 57.8804 67.7227 57.886C67.6219 57.901 67.5207 57.9144 67.4184 57.9248C67.395 57.9275 67.3717 57.929 67.3485 57.9311C67.2608 57.9392 67.1728 57.9463 67.0843 57.9511C67.0527 57.953 67.0216 57.9551 66.9903 57.9561C66.8808 57.9611 66.771 57.9645 66.6603 57.9645C66.5497 57.9645 66.4397 57.9609 66.3306 57.9561C66.299 57.9549 66.2679 57.9528 66.2362 57.9511C66.1479 57.9461 66.0603 57.9392 65.9726 57.9311C65.9492 57.929 65.9256 57.9275 65.9027 57.9248C65.8006 57.9144 65.6996 57.9008 65.5986 57.886C65.5606 57.8804 65.5228 57.8743 65.4852 57.8678C65.4149 57.856 65.345 57.8436 65.2753 57.8305C65.2375 57.823 65.1999 57.8159 65.1619 57.8079C65.0661 57.7877 64.9707 57.7652 64.8764 57.7416C64.8407 57.7326 64.8058 57.7222 64.7701 57.7126C64.7019 57.694 64.6343 57.6752 64.5673 57.6545C64.5293 57.6433 64.4915 57.6318 64.4541 57.6199C64.3694 57.5928 64.2857 57.5642 64.2024 57.5343C64.1857 57.528 64.1686 57.5224 64.1519 57.5164C64.0573 57.4807 63.9634 57.4433 63.8703 57.4041C63.844 57.3932 63.8173 57.3815 63.791 57.3703C63.7098 57.3352 63.629 57.2987 63.5495 57.2605C63.533 57.2529 63.5165 57.2452 63.5005 57.2375C63.3999 57.1887 63.3003 57.1375 63.2022 57.0841C63.202 57.0839 63.2014 57.0835 63.201 57.0835C63.1031 57.0296 63.0071 56.9739 62.9119 56.9163C62.9029 56.9106 62.8941 56.9052 62.8852 56.8998C60.796 55.6185 59.3986 53.3085 59.3986 50.6764C59.3978 46.6581 62.6558 43.3887 66.6602 43.3887C70.6648 43.3887 73.9229 46.6581 73.9229 50.6764C73.9229 53.3089 72.525 55.6194 70.4351 56.9009L70.4353 56.9006Z" fill="#1A6058"/>
<path d="M53.9651 65.0268C55.3014 61.1483 58.154 58.7142 62.4449 57.7898C62.5424 57.8482 62.6416 57.9042 62.7411 57.9587C62.7474 57.962 62.7536 57.9653 62.7599 57.9685C62.8626 58.0242 62.9657 58.077 63.0705 58.1279C63.087 58.1361 63.1037 58.1444 63.1202 58.1526C63.2304 58.2056 63.341 58.2559 63.4529 58.3039C63.4696 58.3108 63.4865 58.3174 63.5032 58.3245C63.5956 58.363 63.6883 58.3997 63.782 58.4348C63.8158 58.4473 63.8499 58.4602 63.8837 58.4725C63.9878 58.5099 64.0922 58.5462 64.1976 58.579C64.2251 58.5877 64.2529 58.5955 64.2809 58.6038C64.3679 58.6301 64.4554 58.655 64.543 58.679C64.5856 58.69 64.6284 58.7015 64.6712 58.7119C64.7618 58.7345 64.8528 58.7556 64.9446 58.7754C64.9832 58.7837 65.0225 58.7915 65.0613 58.7996C65.1567 58.8184 65.2525 58.8355 65.3485 58.8512C65.3894 58.8578 65.4301 58.8643 65.4714 58.8699C65.5737 58.8845 65.6764 58.8981 65.7793 58.9092C65.7991 58.9115 65.8187 58.9142 65.8382 58.9159C65.954 58.9275 66.07 58.9359 66.1871 58.943C66.2201 58.9445 66.2529 58.9459 66.2859 58.9478C66.4101 58.9534 66.5338 58.9574 66.6584 58.9574C66.7828 58.9574 66.9068 58.9532 67.031 58.9478C67.0636 58.9459 67.0968 58.9445 67.1297 58.943C67.2464 58.9361 67.3629 58.9273 67.4787 58.9159C67.4981 58.914 67.518 58.9113 67.5376 58.9092C67.6405 58.8981 67.7432 58.8845 67.8455 58.8699C67.8868 58.8639 67.9275 58.8576 67.9684 58.8512C68.0644 58.8355 68.1604 58.8186 68.2556 58.7996C68.2944 58.7915 68.3335 58.7837 68.3721 58.7754C68.4639 58.756 68.5549 58.7345 68.6459 58.7119C68.6887 58.7015 68.7313 58.69 68.7737 58.679C68.8615 58.655 68.9494 58.6301 69.0364 58.6038C69.064 58.5955 69.0917 58.5877 69.1191 58.5792C69.2247 58.546 69.3295 58.5097 69.4336 58.4723C69.4674 58.46 69.5011 58.4477 69.5344 58.435C69.6284 58.3997 69.7215 58.3625 69.8146 58.3239C69.831 58.317 69.8475 58.3108 69.864 58.3039C69.9763 58.2561 70.0871 58.2054 70.1974 58.1526C70.2138 58.1444 70.2299 58.1365 70.2464 58.1283C70.3514 58.0774 70.4549 58.024 70.5582 57.9683C70.5643 57.9647 70.5701 57.962 70.5762 57.9587C70.6762 57.9042 70.7755 57.8482 70.8734 57.7898C75.1762 58.7161 78.0324 61.1611 79.3639 65.0578C80.144 67.3418 80.1514 69.4817 80.112 70.3617H53.2063C53.167 69.4756 53.176 67.3153 53.965 65.0267L53.9651 65.0268Z" fill="#1A6058"/>
</g>
<defs>
<filter id="filter0_dd_11511_122122" x="0.156094" y="0.770729" width="147.688" height="147.688" filterUnits="userSpaceOnUse" color-interpolation-filters="sRGB">
<feFlood flood-opacity="0" result="BackgroundImageFix"/>
<feColorMatrix in="SourceAlpha" type="matrix" values="0 0 0 0 0 0 0 0 0 0 0 0 0 0 0 0 0 0 127 0" result="hardAlpha"/>
<feOffset dy="2.61464"/>
<feGaussianBlur stdDeviation="3.92195"/>
<feColorMatrix type="matrix" values="0 0 0 0 0.2471 0 0 0 0 0.2471 0 0 0 0 0.2667 0 0 0 0.15 0"/>
<feBlend mode="normal" in2="BackgroundImageFix" result="effect1_dropShadow_11511_122122"/>
<feColorMatrix in="SourceAlpha" type="matrix" values="0 0 0 0 0 0 0 0 0 0 0 0 0 0 0 0 0 0 127 0" result="hardAlpha"/>
<feOffset/>
<feColorMatrix type="matrix" values="0 0 0 0 0.2471 0 0 0 0 0.2471 0 0 0 0 0.2667 0 0 0 0.05 0"/>
<feBlend mode="normal" in2="effect1_dropShadow_11511_122122" result="effect2_dropShadow_11511_122122"/>
<feBlend mode="normal" in="SourceGraphic" in2="effect2_dropShadow_11511_122122" result="shape"/>
</filter>
</defs>
</svg>
