<svg width="148" height="149" viewBox="0 0 148 149" fill="none" xmlns="http://www.w3.org/2000/svg">
<g filter="url(#filter0_dd_11511_122094)">
<rect x="8" y="6.125" width="132" height="132" rx="18.3024" fill="white"/>
<path d="M80.8106 118.942C80.6676 118.659 80.4076 118.801 80.2068 118.795C77.7735 118.732 75.4055 118.247 73.0634 117.64C70.4385 116.959 67.9382 115.932 65.5489 114.655C62.9483 113.263 60.5575 111.574 58.3295 109.623C55.8338 107.436 53.697 104.955 51.872 102.207C49.3322 98.382 47.6274 94.2118 46.6236 89.7132C45.8039 86.0434 45.7826 82.3523 45.9347 78.6551C46.035 76.2203 46.5704 73.8189 47.2684 71.4692C48.3832 67.7157 50.0485 64.2284 52.2659 60.9982C53.8704 58.6606 55.7137 56.5254 57.8003 54.6182C60.3462 52.2929 63.1749 50.3416 66.2713 48.8238C69.3237 47.3273 72.522 46.2354 75.8785 45.6164C78.5187 45.1297 81.1771 44.8286 83.8523 44.9548C86.2506 45.0689 88.6505 45.2909 90.9881 45.9206C91.0793 45.9449 91.1873 45.9069 91.2877 45.8977C91.7074 46.1426 92.1728 46.2065 92.6443 46.2491C94.2427 46.8437 95.8745 47.3395 97.4471 48.0163C99.7648 49.0124 101.973 50.2002 104.029 51.6435C106.011 53.0351 107.859 54.6 109.535 56.3611C112.444 59.4195 114.739 62.8916 116.473 66.7302C117.679 69.4008 118.544 72.1794 119.083 75.072C119.332 76.4119 119.408 77.7685 119.667 79.1023C119.686 79.2057 119.7 79.2969 119.819 79.3243V80.3874C119.569 81.3987 119.566 82.4116 119.819 83.423V84.6366C119.591 84.9088 119.539 85.2282 119.508 85.575C119.423 86.5635 119.391 87.5688 119.181 88.5345C118.719 90.6546 118.169 92.7473 117.425 94.8034C115.747 99.4466 113.136 103.48 109.85 107.112C108.534 108.564 107.034 109.814 105.506 111.041C102.601 113.371 99.3709 115.111 95.9247 116.45C92.9591 117.601 89.8885 118.358 86.7039 118.681C86.0134 118.751 85.2636 118.562 84.6066 118.942H80.8121H80.8106ZM82.6767 115.65C101.432 115.793 115.653 100.424 116.467 83.9477C116.955 74.0805 113.811 65.4573 106.933 58.3656C100.467 51.6998 92.4222 48.3083 83.1603 48.182C74.0885 48.0589 66.1314 51.2085 59.5355 57.4516C52.5549 64.0581 48.99 72.3087 48.9839 81.8885C48.9779 90.9283 52.1899 98.8382 58.5227 105.369C65.1231 112.176 73.2094 115.554 82.6751 115.648L82.6767 115.65Z" fill="#AE1E42"/>
<path d="M119.82 83.4223C119.567 82.411 119.57 81.3981 119.82 80.3867V83.4223Z" fill="#BD5A61"/>
<path d="M91.541 45.7298C89.8102 45.3298 88.0734 45.0013 86.2971 44.8432C84.9542 44.723 83.6006 44.5329 82.2684 44.5938C79.5735 44.7169 76.8861 44.9147 74.2323 45.5488C71.2575 46.2591 68.4014 47.2446 65.6927 48.6422C62.9278 50.0688 60.3713 51.7995 58.0338 53.877C56.1175 55.5803 54.4142 57.4509 52.8644 59.4813C52.5025 59.9543 52.0204 59.8843 51.6462 59.4767C50.8356 58.5946 50.0478 57.6912 49.2677 56.7818C48.5331 55.9255 47.8244 55.048 47.0974 54.1857C47.0229 54.0975 46.8921 53.9926 46.7948 53.9986C44.0496 54.1872 41.4186 53.3857 38.7328 53.0694C38.021 52.9858 37.3093 52.9097 36.5443 52.8245C36.415 52.9386 36.4971 53.1515 36.4956 53.3371C36.4895 57.1316 36.4987 60.9245 36.4835 64.719C36.4819 65.1875 36.6143 65.3639 37.0888 65.5388C40.024 66.6155 41.4505 69.1736 41.154 71.9948C40.903 74.3916 39.6848 76.3109 37.2925 77.2401C36.7222 77.4622 36.4287 77.7314 36.4637 78.4492C36.5413 79.9853 36.4835 81.5274 36.4439 83.0665C36.4363 83.4011 36.6188 83.4634 36.8363 83.582C38.8256 84.6694 40.4376 86.2663 42.2596 87.5803C42.506 87.7568 42.544 87.9438 42.544 88.2069C42.5394 92.6326 42.5334 97.0597 42.5501 101.485C42.5516 101.958 42.4117 102.082 41.9494 102.079C37.5739 102.062 33.1984 102.056 28.823 102.083C28.2146 102.088 28.1979 101.815 28.1994 101.356C28.2101 97.1571 28.242 92.958 28.1812 88.7605C28.166 87.7126 28.7774 87.1454 29.4465 86.6739C30.0229 86.2678 30.5263 85.7629 31.0404 85.3219C31.7582 84.7059 32.4471 84.0657 33.2654 83.5836C33.4813 83.4558 33.6836 83.4224 33.3566 83.1592C33.2547 83.0771 33.3262 82.7745 33.3262 82.5722C33.3262 81.0803 33.314 79.5868 33.3338 78.0948C33.3384 77.7222 33.2517 77.5732 32.8699 77.4165C31.7126 76.9436 30.6723 76.3109 29.886 75.26C27.7219 72.3674 28.2998 68.0634 31.4038 66.1927C31.8297 65.9357 32.2297 65.6331 32.7087 65.5099C33.2593 65.3684 33.3384 65.0308 33.3368 64.5244C33.3171 60.7299 33.3338 56.9369 33.3171 53.1424C33.3155 52.6618 33.3612 52.3455 33.9482 52.4519C34.1566 52.49 34.3315 52.4246 34.4912 52.2664C35.7398 51.0284 36.9275 49.7357 38.0743 48.4035C38.8286 47.5259 39.6848 46.7427 40.4544 45.8743C41.741 44.4234 43.1478 43.0775 44.4709 41.6585C46.9012 39.0549 49.2981 36.4192 51.7253 33.814C54.1587 31.2027 56.6574 28.6508 59.033 25.9878C59.6702 25.273 60.2192 25.2137 61.0374 25.3947C61.7629 25.5559 62.5263 25.4692 63.2776 25.5604C64.8137 25.7475 66.3695 25.7597 67.9116 25.8965C70.4454 26.1231 72.9821 26.3254 75.5189 26.517C77.3333 26.6539 79.1476 26.803 80.9605 26.9642C83.4957 27.1892 86.0325 27.3778 88.5677 27.5801C90.4323 27.7276 92.2938 27.8995 94.1598 28.0288C96.3651 28.1808 98.5642 28.4303 100.78 28.6386C100.671 29.0112 100.356 29.1846 100.119 29.4249C97.2548 32.3358 94.388 35.2436 91.5334 38.1636C90.9174 38.7933 91.4193 39.502 91.5242 40.1377C91.8436 42.0768 92.2679 44.0006 92.6512 45.9291C92.2603 45.9762 91.9151 45.7709 91.541 45.7253V45.7298ZM93.7568 31.3929C93.039 31.183 92.4656 31.1206 91.8984 31.0796C89.3859 30.9016 86.8781 30.6917 84.3717 30.456C82.1604 30.2461 79.9354 30.1762 77.7241 29.9693C77.0762 29.9085 76.4299 29.8857 75.7835 29.8294C73.7258 29.65 71.6742 29.4112 69.6165 29.2378C68.0227 29.1025 66.4121 29.1177 64.8335 28.8926C63.9924 28.7724 63.1469 28.8485 62.3043 28.6629C61.7781 28.5474 61.1074 28.3938 60.6283 28.9869C59.0832 30.9077 57.2642 32.5776 55.6354 34.4239C54.3229 35.9113 52.945 37.3409 51.5854 38.7857C48.9985 41.5369 46.4054 44.2805 43.8139 47.0271C42.9653 47.9259 42.1151 48.8247 41.2711 49.7281C41.1555 49.8528 40.9471 49.9806 41.0095 50.154C41.0901 50.3775 41.3425 50.3273 41.5433 50.3319C42.2885 50.3517 43.0216 50.56 43.75 50.5798C44.2124 50.5935 44.7827 51.0923 45.2268 50.4277C47.5628 46.9374 50.4083 43.92 53.7404 41.3635C57.027 38.8404 60.5934 36.8314 64.4928 35.4003C68.1185 34.0695 71.8734 33.3836 75.6938 33.0445C78.4024 32.8042 81.1202 33.0125 83.8075 33.3654C85.8074 33.627 87.8073 33.9859 89.7251 34.6733C89.9608 34.757 90.2513 34.7706 90.4961 34.5303C91.5714 33.4734 92.6664 32.4377 93.7538 31.3929H93.7568ZM78.2229 39.3332C76.515 39.3195 74.8056 39.4564 73.1357 39.7377C70.2461 40.2259 67.4326 41.0076 64.7194 42.1817C60.9447 43.8151 57.6384 46.1192 54.6849 48.9358C53.4256 50.1357 52.2987 51.474 51.266 52.893C50.86 53.4511 50.6988 53.7447 51.333 54.2116C51.6539 54.4473 51.8287 55.08 52.1785 55.0967C52.6089 55.118 52.7336 54.4762 53.0545 54.172C54.0036 53.2747 54.8902 52.3151 55.8955 51.4725C57.103 50.4596 58.2756 49.4103 59.5805 48.5175C62.1477 46.761 64.8669 45.3009 67.7672 44.1679C72.094 42.4783 76.582 41.6099 81.2084 41.3711C82.822 41.2874 84.4234 41.4958 86.0294 41.5597C86.6378 41.584 87.2765 41.5871 87.8818 41.7467C88.1206 41.8091 88.4248 41.9749 88.5343 41.6905C88.6544 41.3802 88.4658 41.0517 88.2012 40.8388C88.075 40.7369 87.8833 40.711 87.7176 40.6654C84.609 39.8138 81.4411 39.3879 78.2214 39.3316L78.2229 39.3332ZM31.4586 93.9207C31.4586 95.3868 31.4723 96.8544 31.4495 98.3205C31.4434 98.7403 31.5544 98.8893 31.997 98.8863C34.2463 98.8665 36.4971 98.865 38.748 98.8863C39.2027 98.8908 39.3594 98.7752 39.3548 98.2962C39.3335 95.4644 39.3426 92.6326 39.3472 89.8008C39.3472 89.5392 39.3229 89.3202 39.0826 89.1392C38.0089 88.3316 36.9671 87.4815 35.8736 86.7013C35.4219 86.3789 34.8881 86.2861 34.3573 86.6754C33.5133 87.2929 32.8106 88.0761 31.9848 88.7012C31.5529 89.0282 31.4449 89.343 31.451 89.8251C31.4708 91.1908 31.4586 92.555 31.4586 93.9207ZM31.7841 71.3788C31.7719 73.1917 33.0783 74.5026 34.8896 74.6015C36.4941 74.6897 38.021 73.0563 38.0073 71.3925C37.9952 69.9842 36.9093 68.1729 34.517 68.3706C33.1224 68.4862 31.7841 69.8397 31.7856 71.3773L31.7841 71.3788Z" fill="#AE1E42"/>
<path d="M91.5408 45.73C91.915 45.7756 92.2602 45.9794 92.6511 45.9338C92.648 46.0387 92.6465 46.1436 92.6435 46.2486C92.172 46.206 91.7066 46.1421 91.2869 45.8973C91.372 45.8425 91.4557 45.7863 91.5408 45.7315V45.73Z" fill="#FDFAF7"/>
<path d="M31.7833 71.3785C31.7833 69.8409 33.1217 68.4874 34.5148 68.3718C36.9071 68.1726 37.9929 69.9839 38.0051 71.3937C38.0203 73.0575 36.4934 74.6894 34.8874 74.6027C33.0761 74.5038 31.7697 73.1913 31.7818 71.38L31.7833 71.3785Z" fill="#FFFEFE"/>
<path d="M54.2288 82.7533C54.466 64.4393 67.6106 54.0854 79.4732 52.7227C88.3777 51.7007 96.2831 54.0809 102.9 60.2114C109.101 65.9556 112.234 73.1233 112.218 81.5883C112.203 89.6594 109.222 96.5534 103.504 102.202C97.886 107.751 90.9662 110.534 83.143 110.527C75.0354 110.519 67.9985 107.444 62.3531 101.58C56.9176 95.9329 54.2926 89.0785 54.2288 82.7518V82.7533ZM58.7578 81.7936C58.8171 88.1021 60.995 93.5893 65.3157 98.1746C70.6417 103.826 77.2573 106.488 84.9908 105.97C96.8351 105.18 107.481 95.25 107.706 81.8682C107.94 67.992 96.6967 57.0009 83.2373 56.9705C69.901 56.9416 58.4324 67.9768 58.7578 81.7936Z" fill="#E1C89D"/>
<path d="M73.0925 88.4463C73.7039 88.1573 73.859 87.3254 74.5936 87.184C74.6316 87.146 74.6681 87.1095 74.7061 87.0714C74.9738 86.7505 75.208 86.3886 75.649 86.273C75.7509 86.2821 75.8528 86.2897 75.9547 86.2973C77.6139 88.0904 79.3857 89.7512 81.9058 90.1846C83.3247 90.4294 84.7558 90.3245 85.8584 89.2113C87.0006 88.0569 86.5732 86.3034 85.1223 85.619C83.2989 84.7582 81.3202 84.5195 79.4101 84.0024C76.5752 83.2343 74.1495 81.8397 73.3738 78.7904C72.7153 76.1989 72.8461 73.5785 74.5251 71.311C75.6004 69.8585 77.1775 69.092 78.8747 68.5886C80.3712 68.143 80.7864 67.4784 80.4123 65.9424C80.2556 65.3021 80.4229 64.6953 80.5218 64.0794C80.575 63.7508 80.8625 63.8375 81.0723 63.836C82.5643 63.8299 84.0562 63.8436 85.5482 63.8254C85.9771 63.8193 86.1291 63.9714 86.117 64.3972C86.0926 65.2306 86.1048 66.0656 86.1078 66.9005C86.1109 67.845 86.3405 68.1902 87.2698 68.3864C89.2742 68.8061 90.9791 69.7658 92.5136 71.095C93.6771 72.1033 93.6953 72.4349 92.5364 73.4204C91.7867 74.0576 91.0475 74.7055 90.3206 75.3686C89.4598 76.1564 89.4507 76.1792 88.6933 75.2864C87.6774 74.0895 86.3573 73.4006 84.8897 72.9641C83.784 72.6356 82.6875 72.8683 81.6411 73.2287C80.6419 73.5724 80.315 74.196 80.3423 75.3655C80.3636 76.2491 80.8381 76.8818 81.7613 77.1997C82.9521 77.6103 84.1977 77.8095 85.4098 78.1304C87.4979 78.684 89.6408 79.122 91.4004 80.5166C92.9851 81.7728 93.8459 83.3667 94.0482 85.4137C94.1911 86.8509 94.1866 88.2273 93.6649 89.5687C92.7068 92.0294 90.7875 93.4924 88.3982 94.3487C85.6896 95.3205 86.1337 95.027 86.1215 97.62C86.1165 98.7748 85.5314 99.3522 84.3665 99.3522C83.2791 99.3522 82.1917 99.334 81.1043 99.3613C80.6419 99.3735 80.4883 99.2214 80.4929 98.7561C80.5005 97.988 80.3545 97.2367 80.4746 96.4459C80.645 95.3266 80.4032 95.0787 79.296 94.8232C76.7471 94.2346 74.551 93.0194 72.6971 91.1777C72.6256 91.1062 72.5511 91.0378 72.4842 90.9617C71.5777 89.92 71.634 89.52 72.7974 88.7748C72.9252 88.6926 73.0758 88.644 73.0803 88.4569L73.0879 88.4493L73.0925 88.4463Z" fill="#E1C89D"/>
<path d="M75.9566 86.2986C75.8547 86.291 75.7528 86.2819 75.6509 86.2742C75.6676 86.1754 75.6843 86.0583 75.8136 86.0705C75.9353 86.0811 75.9414 86.2012 75.9566 86.2986Z" fill="#FDFCF9"/>
<path d="M74.7032 87.0713C74.666 87.1084 74.6304 87.1455 74.5933 87.1812C74.6304 87.1441 74.666 87.1069 74.7032 87.0713Z" fill="#FDFCF9"/>
<path d="M73.0849 88.453C73.0622 88.4288 73.041 88.4046 73.0183 88.3804C73.0425 88.4031 73.0667 88.4243 73.0925 88.447L73.0864 88.4545L73.0849 88.453Z" fill="#FDFCF9"/>
</g>
<defs>
<filter id="filter0_dd_11511_122094" x="0.156094" y="0.895729" width="147.688" height="147.688" filterUnits="userSpaceOnUse" color-interpolation-filters="sRGB">
<feFlood flood-opacity="0" result="BackgroundImageFix"/>
<feColorMatrix in="SourceAlpha" type="matrix" values="0 0 0 0 0 0 0 0 0 0 0 0 0 0 0 0 0 0 127 0" result="hardAlpha"/>
<feOffset dy="2.61464"/>
<feGaussianBlur stdDeviation="3.92195"/>
<feColorMatrix type="matrix" values="0 0 0 0 0.2471 0 0 0 0 0.2471 0 0 0 0 0.2667 0 0 0 0.15 0"/>
<feBlend mode="normal" in2="BackgroundImageFix" result="effect1_dropShadow_11511_122094"/>
<feColorMatrix in="SourceAlpha" type="matrix" values="0 0 0 0 0 0 0 0 0 0 0 0 0 0 0 0 0 0 127 0" result="hardAlpha"/>
<feOffset/>
<feColorMatrix type="matrix" values="0 0 0 0 0.2471 0 0 0 0 0.2471 0 0 0 0 0.2667 0 0 0 0.05 0"/>
<feBlend mode="normal" in2="effect1_dropShadow_11511_122094" result="effect2_dropShadow_11511_122094"/>
<feBlend mode="normal" in="SourceGraphic" in2="effect2_dropShadow_11511_122094" result="shape"/>
</filter>
</defs>
</svg>
