<svg width="148" height="148" viewBox="0 0 148 148" fill="none" xmlns="http://www.w3.org/2000/svg">
<g filter="url(#filter0_dd_11511_122066)">
<rect x="8" y="5.375" width="132" height="132" rx="18.3024" fill="white"/>
<path d="M48.2945 38.375C37.4527 38.375 28.6423 47.2478 28.6423 58.1672C28.6423 69.0866 37.4525 77.9582 48.2945 77.9582C59.1365 77.9582 67.9466 69.0858 67.9466 58.1672C67.9466 47.2486 59.1365 38.375 48.2945 38.375ZM48.3015 80.8792C32.1525 80.8863 17.9103 91.5674 13.2774 107.147C13.0771 107.821 13.578 108.5 14.2772 108.5H82.3134C83.0127 108.5 83.5141 107.821 83.3132 107.147C78.681 91.5723 64.4471 80.8921 48.3046 80.8792H48.3015Z" fill="#AE1E42"/>
<path fill-rule="evenodd" clip-rule="evenodd" d="M126.198 77.016H132.954C133.887 77.016 134.644 76.2991 134.644 75.4156C134.644 74.5321 133.887 73.8152 132.954 73.8152H126.198C125.265 73.8152 124.508 74.5321 124.508 75.4156C124.508 76.2991 125.265 77.016 126.198 77.016Z" fill="#AE1E42"/>
<path fill-rule="evenodd" clip-rule="evenodd" d="M126.953 63.5093L133.71 60.3078C134.545 59.9145 134.882 58.9509 134.465 58.1615C134.05 57.371 133.033 57.0511 132.199 57.4461L125.442 60.6475C124.607 61.0409 124.27 62.0044 124.687 62.7939C125.102 63.5843 126.119 63.9042 126.953 63.5093Z" fill="#AE1E42"/>
<path fill-rule="evenodd" clip-rule="evenodd" d="M125.442 90.4344L132.199 93.9027C133.033 94.3305 134.05 93.9839 134.465 93.1276C134.882 92.2725 134.545 91.2287 133.71 90.8024L126.953 87.3342C126.119 86.9063 125.102 87.2529 124.687 88.1092C124.27 88.9644 124.607 90.0082 125.442 90.4344Z" fill="#AE1E42"/>
<path fill-rule="evenodd" clip-rule="evenodd" d="M119.706 47.1406C118.823 47.1406 118.106 47.8857 118.106 48.8034V102.026C118.106 102.943 118.823 103.688 119.706 103.688C120.59 103.688 121.307 102.943 121.307 102.026V48.8034C121.307 47.8857 120.59 47.1406 119.706 47.1406Z" fill="#AE1E42"/>
<path fill-rule="evenodd" clip-rule="evenodd" d="M72.229 87.1509H81.298V102.035C81.298 102.948 80.5431 103.688 79.6128 103.688H76.2431C75.3127 103.688 74.5579 102.948 74.5579 102.035V93.6732C74.5579 92.3897 74.2527 91.1234 73.6682 89.9755L72.229 87.1509Z" fill="#AE1E42"/>
<path fill-rule="evenodd" clip-rule="evenodd" d="M70.8916 86.3938C71.2113 85.8699 71.7746 85.5513 72.381 85.5513H81.1451C82.1132 85.5513 82.898 86.3492 82.898 87.3334V102.371C82.898 104.262 81.3984 105.823 79.5166 105.823H76.2601C74.3783 105.823 72.8788 104.262 72.8788 102.371V93.9228C72.8788 92.9008 72.6463 91.8922 72.2012 90.9783C72.2012 90.9783 72.2012 90.9783 72.2012 90.9783C72.2012 90.9782 72.2011 90.978 72.201 90.9779L70.8104 88.1247C70.5412 87.5723 70.5719 86.9176 70.8916 86.3938ZM73.7718 90.187C74.3366 91.3467 74.6316 92.6261 74.6316 93.9228V102.371C74.6316 103.292 75.3611 104.041 76.2601 104.041H79.5166C80.4156 104.041 81.1451 103.292 81.1451 102.371V87.3334H72.381L73.7718 90.187Z" fill="white"/>
<path fill-rule="evenodd" clip-rule="evenodd" d="M114.373 51.4092V99.4214L84.4988 84.3988V66.4318L114.373 51.4092Z" fill="#AE1E42"/>
<path fill-rule="evenodd" clip-rule="evenodd" d="M84.4988 88.218V94.0862H86.0995C86.9826 94.0862 87.6996 93.3089 87.6996 92.3515V89.9533L84.4988 88.218Z" fill="#920729"/>
<path fill-rule="evenodd" clip-rule="evenodd" d="M82.3644 67.4137V83.9506H70.7881C69.4719 83.9506 68.21 83.4285 67.2804 82.4971C66.3496 81.5679 65.8269 80.306 65.8269 78.9893V72.3745C65.8269 71.0577 66.3496 69.7958 67.2804 68.8666C68.2101 67.9353 69.472 67.4131 70.7881 67.4131L82.3644 67.4137Z" fill="#AE1E42"/>
</g>
<defs>
<filter id="filter0_dd_11511_122066" x="0.156094" y="0.145729" width="147.688" height="147.688" filterUnits="userSpaceOnUse" color-interpolation-filters="sRGB">
<feFlood flood-opacity="0" result="BackgroundImageFix"/>
<feColorMatrix in="SourceAlpha" type="matrix" values="0 0 0 0 0 0 0 0 0 0 0 0 0 0 0 0 0 0 127 0" result="hardAlpha"/>
<feOffset dy="2.61464"/>
<feGaussianBlur stdDeviation="3.92195"/>
<feColorMatrix type="matrix" values="0 0 0 0 0.2471 0 0 0 0 0.2471 0 0 0 0 0.2667 0 0 0 0.15 0"/>
<feBlend mode="normal" in2="BackgroundImageFix" result="effect1_dropShadow_11511_122066"/>
<feColorMatrix in="SourceAlpha" type="matrix" values="0 0 0 0 0 0 0 0 0 0 0 0 0 0 0 0 0 0 127 0" result="hardAlpha"/>
<feOffset/>
<feColorMatrix type="matrix" values="0 0 0 0 0.2471 0 0 0 0 0.2471 0 0 0 0 0.2667 0 0 0 0.05 0"/>
<feBlend mode="normal" in2="effect1_dropShadow_11511_122066" result="effect2_dropShadow_11511_122066"/>
<feBlend mode="normal" in="SourceGraphic" in2="effect2_dropShadow_11511_122066" result="shape"/>
</filter>
</defs>
</svg>
