<svg width="148" height="148" viewBox="0 0 148 148" fill="none" xmlns="http://www.w3.org/2000/svg">
<g filter="url(#filter0_dd_11511_122023)">
<rect x="8" y="5.5" width="132" height="132" rx="18.3024" fill="white"/>
<path d="M97.3128 73.8888H92.2654L89.0434 63.7426C87.4328 58.5619 82.5995 55 77.1229 55H48.5567C43.0799 55 38.3546 58.4543 36.6362 63.7426L33.4142 73.8888H28.4738C26.3262 73.8888 24.5005 75.6159 24.5005 77.8822V80.1492C24.5005 82.3078 26.2189 84.1427 28.4738 84.1427H29.8701C29.118 87.8123 28.6888 91.4819 28.6888 95.2601V114.257C28.6888 116.415 30.4072 118.25 32.6621 118.25H39.213C41.3606 118.25 43.1863 116.523 43.1863 114.257V108.104H82.8139V114.257C82.8139 116.415 84.5324 118.25 86.7872 118.25H93.3381C95.4858 118.25 97.3115 116.523 97.3115 114.257L97.3122 95.1525C97.3122 91.3744 96.883 87.7047 96.1308 84.0351H97.5272C99.6748 84.0351 101.5 82.308 101.5 80.0417V77.7747C101.285 75.7237 99.4598 73.889 97.3122 73.889L97.3128 73.8888ZM40.3951 77.9898L44.1542 66.2249C44.7984 64.2825 46.5168 62.9867 48.5574 62.9867H77.1237C79.1643 62.9867 80.8828 64.2817 81.5269 66.2249L85.286 77.9898C85.501 78.5296 85.0711 79.0694 84.5339 79.0694H41.1476C40.6105 79.0694 40.1812 78.5296 40.3955 77.9898H40.3951ZM48.6644 97.3103H40.7172C39.4288 97.3103 38.2474 96.2306 38.2474 94.8279V91.0498C38.2474 89.5387 39.5359 88.4591 41.0394 88.6752L48.4497 89.8625C49.416 89.9702 50.1681 90.7261 50.3823 91.805L50.9194 94.3956C51.3494 95.9067 50.2752 97.3101 48.6646 97.3101L48.6644 97.3103ZM87.4329 94.9357C87.4329 96.2307 86.3587 97.418 84.9631 97.418H77.0159C75.5125 97.418 74.3311 96.0146 74.6533 94.5035L75.1904 91.9129C75.4054 90.9416 76.1568 90.1857 77.1231 89.9704L84.5333 88.7831C86.0368 88.567 87.3253 89.6467 87.3253 91.1577L87.3261 94.9358L87.4329 94.9357Z" fill="#818181"/>
<path d="M125.098 26.125H100.005C98.5805 26.125 97.3752 27.3117 97.3752 28.7142V53.4174C97.3752 54.82 98.5806 56.0066 100.005 56.0066H109.429V116.956C109.429 117.711 109.977 118.25 110.743 118.25H114.469C115.236 118.25 115.783 117.71 115.783 116.956L115.784 56.0066H124.988C126.413 56.0066 127.618 54.82 127.618 53.4174V28.7142C127.728 27.3116 126.523 26.125 125.098 26.125ZM122.907 39.3941C122.907 40.0413 122.359 40.4732 121.811 40.4732H121.591C121.811 41.4439 121.92 42.4146 121.92 43.2777V48.2404C121.92 48.8875 121.372 49.3194 120.824 49.3194H119.07C118.413 49.3194 117.974 48.7799 117.974 48.2404V46.7302H107.565V48.2404C107.565 48.8875 107.017 49.3194 106.469 49.3194H104.716C104.058 49.3194 103.619 48.7799 103.619 48.2404V43.2777C103.619 42.307 103.729 41.444 103.948 40.4732H103.729C103.071 40.4732 102.633 39.9337 102.633 39.3941L102.636 38.7463C102.636 38.0991 103.184 37.6672 103.732 37.6672H105.046L105.923 35.078C106.361 33.6754 107.677 32.7048 109.211 32.7048H116.881C118.415 32.7048 119.729 33.6755 120.168 35.078L121.045 37.6672H122.36C123.017 37.6672 123.456 38.2067 123.456 38.7463L123.455 39.3941H122.907Z" fill="#818181"/>
<rect x="98.7505" y="30.25" width="24.75" height="20.625" fill="#818181"/>
<rect x="101.5" y="46.5" width="22" height="5" fill="white"/>
<path d="M120.336 30.25H104.691C102.94 30.25 101.5 31.58 101.5 33.1709V47.6453C101.5 49.2623 102.912 50.5663 104.663 50.5663H108.532L111.751 50.249C112.034 50.6402 112.514 50.875 113.022 50.875C113.53 50.875 113.982 50.6403 114.265 50.249L116.468 50.5663H120.337C122.088 50.5663 123.5 49.2623 123.5 47.6453V33.1709C123.528 31.58 122.087 30.25 120.336 30.25ZM117.851 38.6217L112.344 44.0985C112.062 44.3854 111.666 44.5418 111.243 44.5418C110.819 44.5418 110.424 44.3592 110.141 44.0985L107.204 41.2296C106.64 40.6558 106.668 39.7692 107.261 39.2476C107.882 38.726 108.842 38.7782 109.379 39.3258L111.214 41.1254L115.62 36.7438C116.185 36.196 117.145 36.1701 117.738 36.6916C118.36 37.1872 118.388 38.074 117.851 38.6217Z" fill="white"/>
</g>
<defs>
<filter id="filter0_dd_11511_122023" x="0.156094" y="0.270729" width="147.688" height="147.688" filterUnits="userSpaceOnUse" color-interpolation-filters="sRGB">
<feFlood flood-opacity="0" result="BackgroundImageFix"/>
<feColorMatrix in="SourceAlpha" type="matrix" values="0 0 0 0 0 0 0 0 0 0 0 0 0 0 0 0 0 0 127 0" result="hardAlpha"/>
<feOffset dy="2.61464"/>
<feGaussianBlur stdDeviation="3.92195"/>
<feColorMatrix type="matrix" values="0 0 0 0 0.2471 0 0 0 0 0.2471 0 0 0 0 0.2667 0 0 0 0.15 0"/>
<feBlend mode="normal" in2="BackgroundImageFix" result="effect1_dropShadow_11511_122023"/>
<feColorMatrix in="SourceAlpha" type="matrix" values="0 0 0 0 0 0 0 0 0 0 0 0 0 0 0 0 0 0 127 0" result="hardAlpha"/>
<feOffset/>
<feColorMatrix type="matrix" values="0 0 0 0 0.2471 0 0 0 0 0.2471 0 0 0 0 0.2667 0 0 0 0.05 0"/>
<feBlend mode="normal" in2="effect1_dropShadow_11511_122023" result="effect2_dropShadow_11511_122023"/>
<feBlend mode="normal" in="SourceGraphic" in2="effect2_dropShadow_11511_122023" result="shape"/>
</filter>
</defs>
</svg>
