<svg width="148" height="148" viewBox="0 0 148 148" fill="none" xmlns="http://www.w3.org/2000/svg">
<g filter="url(#filter0_dd_11511_122475)">
<rect x="8" y="5.25" width="132" height="132" rx="18.3024" fill="white"/>
<path d="M71.3158 85.6869C70.8192 83.6634 71.0671 81.5043 71.9372 79.6153L75.1674 72.5987C71.4398 73.0034 67.5883 73.2736 63.4879 73.5437C63.364 78.2667 59.7602 82.0445 55.4122 82.0445H49.8213C45.4722 82.0445 41.8694 78.2665 41.7456 73.5437C34.0425 73.139 26.9599 72.4641 20.375 71.25V92.8393C20.375 96.8874 23.3572 100.125 27.0839 100.125H78.1498C79.7653 100.125 81.132 99.5857 82.25 98.6407C79.7653 97.8313 77.653 96.2125 75.7889 94.3225C73.8007 92.0288 72.186 89.0602 71.3158 85.6869Z" fill="#BC7A2A"/>
<path d="M50.5189 59.6914H56.1061C60.5761 59.6914 64.1764 62.9572 64.3012 67.0117C69.7647 66.7862 74.7308 66.4484 79.077 65.8851L81.0639 62.2807C82.1811 60.1406 84.5405 58.7895 87.1482 58.564H87.6444H90.5V53.2705C90.5 49.8915 87.5198 47.1891 83.9193 47.1891L69.0197 47.1899V42.7975C69.0197 38.0671 64.7984 34.125 59.4588 34.125H47.1663C41.9514 34.125 37.6054 37.9541 37.6054 42.7975V47.1899H22.9544C19.2293 47.1899 16.25 49.8931 16.25 53.2713V62.845C16.25 63.7461 16.871 64.4217 17.8644 64.6472C24.3212 65.7738 32.3917 66.7873 42.449 67.125C42.449 62.9572 46.049 59.6914 50.5189 59.6914ZM45.8014 42.9098C45.8014 42.2342 46.4224 41.6709 47.1672 41.6709H59.4597C60.2046 41.6709 60.8256 42.2342 60.8256 42.9098V46.7389L45.8012 46.7397L45.8014 42.9098Z" fill="#C47F2D"/>
<path d="M47.788 67.125C46.221 67.125 45.125 67.9606 45.125 68.9003V73.5997C45.125 74.6443 46.3784 75.375 47.788 75.375H54.837C56.404 75.375 57.5 74.5394 57.5 73.5997V68.9003C57.5 67.8557 56.2466 67.125 54.837 67.125H47.788Z" fill="#BC7A2A"/>
<path d="M135.573 82.6447L126.989 65.4485C126.737 64.8114 126.105 64.4293 125.475 64.4293L113.735 64.4302C113.103 62.7741 111.967 61.373 110.453 60.4818V58.3165C110.453 56.2783 108.811 54.75 106.918 54.75C104.898 54.75 103.384 56.4062 103.384 58.3165V60.6088C101.869 61.5009 100.732 62.9012 100.102 64.5573L88.4877 64.4302C87.8563 64.4302 87.225 64.9393 86.9732 65.4493L78.3888 82.6446C78.1361 83.1538 78.0102 83.7908 78.2629 84.3008C79.7774 89.6506 83.8174 93.09 88.6145 93.09C93.4116 93.09 97.5775 89.6506 98.9661 84.3008C99.092 83.7917 99.092 83.1546 98.8402 82.6446L92.1498 69.2699H100.229C100.86 70.9261 101.996 72.1994 103.511 73.0914V93.0899C103.511 97.4205 100.355 100.987 96.0631 101.497L89.4987 102.261C88.7414 102.388 88.236 103.025 88.236 103.662V106.974C88.236 107.738 88.8673 108.375 89.6246 108.375H124.591C125.349 108.375 125.98 107.738 125.98 106.974V103.662C125.98 102.898 125.475 102.261 124.717 102.261L118.027 101.497C113.735 100.988 110.579 97.4205 110.579 93.0899L110.578 73.2195C112.093 72.3274 113.23 71.0542 113.86 69.398H121.939L115.249 82.7727C114.996 83.2818 114.87 83.9189 115.123 84.4289C116.637 89.7787 120.677 93.218 125.475 93.218C130.272 93.218 134.438 89.7787 135.826 84.4289C135.951 83.7918 135.826 83.1547 135.573 82.6447ZM94.1682 81.8806H83.0594L88.6139 70.7991L94.1682 81.8806ZM119.794 81.8806L125.348 70.7991L130.903 81.8806H119.794Z" fill="#5B3230" fill-opacity="0.84"/>
</g>
<defs>
<filter id="filter0_dd_11511_122475" x="0.156094" y="0.0207293" width="147.688" height="147.688" filterUnits="userSpaceOnUse" color-interpolation-filters="sRGB">
<feFlood flood-opacity="0" result="BackgroundImageFix"/>
<feColorMatrix in="SourceAlpha" type="matrix" values="0 0 0 0 0 0 0 0 0 0 0 0 0 0 0 0 0 0 127 0" result="hardAlpha"/>
<feOffset dy="2.61464"/>
<feGaussianBlur stdDeviation="3.92195"/>
<feColorMatrix type="matrix" values="0 0 0 0 0.2471 0 0 0 0 0.2471 0 0 0 0 0.2667 0 0 0 0.15 0"/>
<feBlend mode="normal" in2="BackgroundImageFix" result="effect1_dropShadow_11511_122475"/>
<feColorMatrix in="SourceAlpha" type="matrix" values="0 0 0 0 0 0 0 0 0 0 0 0 0 0 0 0 0 0 127 0" result="hardAlpha"/>
<feOffset/>
<feColorMatrix type="matrix" values="0 0 0 0 0.2471 0 0 0 0 0.2471 0 0 0 0 0.2667 0 0 0 0.05 0"/>
<feBlend mode="normal" in2="effect1_dropShadow_11511_122475" result="effect2_dropShadow_11511_122475"/>
<feBlend mode="normal" in="SourceGraphic" in2="effect2_dropShadow_11511_122475" result="shape"/>
</filter>
</defs>
</svg>
