<svg width="148" height="148" viewBox="0 0 148 148" fill="none" xmlns="http://www.w3.org/2000/svg">
<g filter="url(#filter0_dd_11511_122504)">
<rect x="8" y="5.375" width="132" height="132" rx="18.3024" fill="white"/>
<path fill-rule="evenodd" clip-rule="evenodd" d="M87.8275 47.8787H46.2123V58.3903C46.2123 59.7027 47.2904 60.7821 48.5995 60.7821H85.4392C86.7491 60.7821 87.8264 59.7019 87.8264 58.3903L87.8256 47.8787H87.8275ZM27.8339 77.8292V102.093C27.8339 105.562 30.667 108.402 34.1307 108.402H78.679C77.4942 105.264 76.8496 101.879 76.8496 98.3722V88.4925C74.9276 91.9467 71.2461 94.2825 67.0214 94.2825C61.25 94.2825 56.4927 89.9235 55.8503 84.3128C47.8816 83.768 34.6458 82.2383 27.8339 77.8292ZM117.094 97.4476C117.094 105.893 110.259 112.742 101.83 112.742C93.4004 112.742 86.565 105.893 86.565 97.4476C86.565 89.0019 93.4004 82.1532 101.83 82.1532C110.259 82.1532 117.094 89.0011 117.094 97.4476ZM102.482 71.7987C102.05 71.6129 101.609 71.6129 101.176 71.7987L81.1695 80.389C80.5462 80.6566 80.1643 81.2369 80.1643 81.9159V98.3716C80.1643 111.254 89.3706 121.199 101.828 123.375C114.286 121.199 123.492 111.255 123.492 98.3716V81.9166C123.492 81.2376 123.109 80.6573 122.487 80.3897L102.482 71.7987ZM83.8173 44.5549V41.1265C83.8173 37.4127 80.7855 34.375 77.0789 34.375H56.9617C53.2551 34.375 50.2233 37.4127 50.2233 41.1265V44.5549H56.189V41.1265C56.189 40.7129 56.5495 40.3516 56.9624 40.3516H77.0795C77.4924 40.3516 77.8522 40.7114 77.8522 41.1265V44.5549H83.8173ZM59.0904 83.0159C59.0904 78.6415 62.6269 75.0708 67.0201 75.0708C71.4131 75.0708 74.9498 78.6415 74.9498 83.0159C74.9498 87.4036 71.3992 90.9611 67.0201 90.9611C62.641 90.9611 59.0904 87.4043 59.0904 83.0159ZM108.78 70.8882L103.79 68.7455C102.523 68.2014 101.137 68.2014 99.8713 68.7455L79.8652 77.3358C78.9425 77.7325 78.1588 78.3916 77.6216 79.2418C77.5973 79.1725 77.3162 78.4322 77.2993 78.4381C75.5479 74.4973 71.6051 71.7493 67.0222 71.7493C61.5047 71.7493 56.9159 75.7328 55.9599 80.9839C44.7439 80.2267 34.7501 78.2831 29.7957 75.1431C26.6682 73.1605 24 70.4673 24 66.4925L24.0007 51.1118C24.0007 49.3313 25.4504 47.8795 27.2268 47.8795H42.8978V58.3911C42.8978 61.5379 45.4614 64.105 48.6006 64.105H85.4403C88.581 64.105 91.1432 61.5363 91.1432 58.3911V47.8795H106.814C108.591 47.8795 110.04 49.332 110.04 51.1118V66.4917C110.042 68.172 109.565 69.623 108.78 70.8882Z" fill="#BC955C"/>
<path d="M109.02 100.821C109.02 102.093 108.566 103.205 107.656 104.159C106.762 105.098 105.48 105.718 103.81 106.021V108.542H100.657V106.135C99.5394 106.074 98.466 105.9 97.4374 105.612C96.4237 105.325 95.5815 104.969 94.9106 104.545L96.6101 100.639C97.3554 101.078 98.1902 101.434 99.1145 101.707C100.039 101.964 100.926 102.093 101.775 102.093C102.506 102.093 103.028 102.025 103.341 101.888C103.654 101.737 103.81 101.517 103.81 101.23C103.81 100.897 103.602 100.647 103.184 100.48C102.782 100.314 102.111 100.132 101.172 99.9355C99.9642 99.6781 98.958 99.4056 98.153 99.118C97.348 98.8152 96.6473 98.3308 96.0511 97.6647C95.4548 96.9834 95.1566 96.0676 95.1566 94.917C95.1566 93.5848 95.6262 92.4418 96.5654 91.4881C97.5194 90.5344 98.8834 89.9288 100.657 89.6715V87.1963H103.81V89.626C105.599 89.7926 107.112 90.2316 108.35 90.9431L106.762 94.8262C105.226 94.039 103.773 93.6454 102.402 93.6454C101.045 93.6454 100.367 93.9784 100.367 94.6445C100.367 94.9624 100.568 95.2046 100.97 95.3712C101.373 95.5226 102.036 95.6891 102.961 95.8707C104.153 96.0978 105.159 96.3628 105.979 96.6655C106.799 96.9532 107.507 97.43 108.104 98.0961C108.715 98.7622 109.02 99.6706 109.02 100.821Z" fill="#104C42"/>
</g>
<defs>
<filter id="filter0_dd_11511_122504" x="0.156094" y="0.145729" width="147.688" height="147.688" filterUnits="userSpaceOnUse" color-interpolation-filters="sRGB">
<feFlood flood-opacity="0" result="BackgroundImageFix"/>
<feColorMatrix in="SourceAlpha" type="matrix" values="0 0 0 0 0 0 0 0 0 0 0 0 0 0 0 0 0 0 127 0" result="hardAlpha"/>
<feOffset dy="2.61464"/>
<feGaussianBlur stdDeviation="3.92195"/>
<feColorMatrix type="matrix" values="0 0 0 0 0.2471 0 0 0 0 0.2471 0 0 0 0 0.2667 0 0 0 0.15 0"/>
<feBlend mode="normal" in2="BackgroundImageFix" result="effect1_dropShadow_11511_122504"/>
<feColorMatrix in="SourceAlpha" type="matrix" values="0 0 0 0 0 0 0 0 0 0 0 0 0 0 0 0 0 0 127 0" result="hardAlpha"/>
<feOffset/>
<feColorMatrix type="matrix" values="0 0 0 0 0.2471 0 0 0 0 0.2471 0 0 0 0 0.2667 0 0 0 0.05 0"/>
<feBlend mode="normal" in2="effect1_dropShadow_11511_122504" result="effect2_dropShadow_11511_122504"/>
<feBlend mode="normal" in="SourceGraphic" in2="effect2_dropShadow_11511_122504" result="shape"/>
</filter>
</defs>
</svg>
