<svg width="148" height="148" viewBox="0 0 148 148" fill="none" xmlns="http://www.w3.org/2000/svg">
<g filter="url(#filter0_dd_11511_122499)">
<rect x="8" y="5.25" width="132" height="132" rx="18.3024" fill="white"/>
<path fill-rule="evenodd" clip-rule="evenodd" d="M91.3013 25.875C97.9835 25.875 104.392 28.4962 109.116 33.1624C113.842 37.8285 116.496 44.157 116.496 50.7565C116.496 57.3561 113.842 63.6846 109.118 68.3515C104.393 73.0176 97.985 75.6396 91.3029 75.6396C84.6215 75.6396 78.2132 73.0184 73.4887 68.3515C68.7634 63.6853 66.1094 57.3569 66.1094 50.7573C66.1086 44.1585 68.7626 37.8293 73.4879 33.1631C78.2124 28.4962 84.62 25.875 91.3013 25.875ZM30.8527 67.7426V105.577C30.8505 106.503 30.0917 107.252 29.1546 107.255H22.0747C21.1368 107.253 20.378 106.503 20.375 105.577V67.7426C20.378 66.8164 21.1368 66.0669 22.0747 66.0647H29.1546C30.0917 66.0669 30.8505 66.8171 30.8527 67.7426ZM34.6438 70.2897V101.482C38.5869 100.355 42.8241 100.846 46.3957 102.846L61.3206 110.655C64.5335 112.476 68.3435 112.973 71.9247 112.039L117.845 99.8813C120.486 99.1593 122.541 97.107 123.243 94.4909C123.944 91.8748 123.188 89.0872 121.256 87.1678C119.324 85.2491 116.506 84.4863 113.852 85.1653L86.4149 92.4268C86.1833 93.4392 85.7952 94.4116 85.2657 95.308C83.8684 97.6604 81.5859 99.3717 78.9161 100.068C76.2463 100.765 73.4057 100.391 71.0149 99.0263L54.4798 89.5313C53.5977 89.0046 53.3051 87.8771 53.8218 86.9962C54.3385 86.116 55.4741 85.8055 56.3751 86.2994L72.9063 95.7966C74.4277 96.6649 76.2349 96.9048 77.9346 96.4651C79.6343 96.0253 81.0896 94.9409 81.9852 93.4479C83.1095 91.5122 83.4179 89.2178 82.8433 87.0592C82.2687 84.9014 80.8564 83.0535 78.913 81.9154L53.1756 67.1022C49.7642 65.6449 45.8949 65.6412 42.4804 67.0925L34.6446 70.2873L34.6438 70.2897ZM96.8252 43.5049C95.9498 42.3194 94.6548 41.5024 93.1972 41.2164V40.4417C93.1972 39.4078 92.3481 38.5699 91.3012 38.5699C90.2543 38.5699 89.406 39.4078 89.406 40.4417V41.2937C87.5581 41.7654 86.0608 43.0994 85.3975 44.8665C84.7334 46.6343 84.9876 48.6102 86.0766 50.158C87.1664 51.7052 88.9532 52.6285 90.8614 52.63H91.7413C92.8506 52.6552 93.7365 53.5503 93.7365 54.646C93.7365 55.7423 92.8505 56.6374 91.7413 56.6625H90.5026C89.8423 56.67 89.2211 56.3535 88.8436 55.818C88.2299 54.9824 87.0469 54.7952 86.2001 55.4013C85.354 56.0067 85.1645 57.1758 85.7782 58.0115C86.6536 59.1977 87.9486 60.0148 89.4062 60.3V61.0807C89.4062 62.1146 90.2546 62.9525 91.3015 62.9525C92.3484 62.9525 93.1974 62.1146 93.1974 61.0807V60.2287C95.0445 59.757 96.5419 58.4222 97.2059 56.6552C97.8692 54.8881 97.6158 52.9122 96.5268 51.3644C95.437 49.8164 93.6502 48.8932 91.7415 48.8924H90.8615C89.753 48.8671 88.8671 47.9721 88.8671 46.8758C88.8671 45.7802 89.7531 44.8851 90.8615 44.8598H92.101C92.7613 44.8524 93.3825 45.1688 93.76 45.7044C94.373 46.54 95.5567 46.7265 96.4029 46.1211C97.2497 45.515 97.4385 44.3466 96.8255 43.5103L96.8252 43.5049ZM91.3013 30.744C85.9255 30.744 80.7701 32.8536 76.9692 36.6075C73.1675 40.3615 71.0324 45.454 71.0324 50.7634C71.0324 56.0728 73.1675 61.1645 76.9692 64.9185C80.7701 68.6732 85.9257 70.782 91.3013 70.782C96.677 70.782 101.833 68.6732 105.634 64.9185C109.435 61.1645 111.571 56.0726 111.571 50.7634C111.571 45.4542 109.435 40.3615 105.634 36.6075C101.833 32.8536 96.6771 30.744 91.3013 30.744ZM91.3013 34.487C86.9319 34.487 82.7413 36.2006 79.651 39.2526C76.5614 42.3039 74.825 46.4426 74.825 50.7583C74.825 55.0738 76.5608 59.2126 79.6502 62.2647C82.7397 65.3161 86.9301 67.0311 91.2998 67.0311C95.67 67.0311 99.8606 65.3167 102.95 62.2655C106.04 59.2134 107.776 55.0747 107.776 50.759C107.776 46.4435 106.041 42.3047 102.951 39.2526C99.862 36.2012 95.671 34.487 91.3013 34.487Z" fill="#C09C1D"/>
</g>
<defs>
<filter id="filter0_dd_11511_122499" x="0.156094" y="0.0207293" width="147.688" height="147.688" filterUnits="userSpaceOnUse" color-interpolation-filters="sRGB">
<feFlood flood-opacity="0" result="BackgroundImageFix"/>
<feColorMatrix in="SourceAlpha" type="matrix" values="0 0 0 0 0 0 0 0 0 0 0 0 0 0 0 0 0 0 127 0" result="hardAlpha"/>
<feOffset dy="2.61464"/>
<feGaussianBlur stdDeviation="3.92195"/>
<feColorMatrix type="matrix" values="0 0 0 0 0.2471 0 0 0 0 0.2471 0 0 0 0 0.2667 0 0 0 0.15 0"/>
<feBlend mode="normal" in2="BackgroundImageFix" result="effect1_dropShadow_11511_122499"/>
<feColorMatrix in="SourceAlpha" type="matrix" values="0 0 0 0 0 0 0 0 0 0 0 0 0 0 0 0 0 0 127 0" result="hardAlpha"/>
<feOffset/>
<feColorMatrix type="matrix" values="0 0 0 0 0.2471 0 0 0 0 0.2471 0 0 0 0 0.2667 0 0 0 0.05 0"/>
<feBlend mode="normal" in2="effect1_dropShadow_11511_122499" result="effect2_dropShadow_11511_122499"/>
<feBlend mode="normal" in="SourceGraphic" in2="effect2_dropShadow_11511_122499" result="shape"/>
</filter>
</defs>
</svg>
