<svg width="148" height="148" viewBox="0 0 148 148" fill="none" xmlns="http://www.w3.org/2000/svg">
<g filter="url(#filter0_dd_11511_122035)">
<rect x="8" y="5.5" width="132" height="132" rx="18.3024" fill="white"/>
<path fill-rule="evenodd" clip-rule="evenodd" d="M46.1106 68.7463V108.566C46.1106 109.643 47.0223 110.516 48.146 110.516H125.485C126.608 110.516 127.519 109.643 127.519 108.566V68.7463C131.114 67.2404 133.625 63.8002 133.625 59.8058V57.859C133.625 57.5044 133.527 57.1531 133.328 56.837L118.402 33.4325C118.032 32.8552 117.376 32.5 116.664 32.5H56.9667C56.2546 32.5 55.5991 32.8552 55.2284 33.4325L40.3025 56.837C40.0054 57.204 40.0054 57.8551 40.0054 57.8551V59.8057C40.0054 63.8003 42.517 67.2405 46.111 68.7462L46.1106 68.7463ZM77.6573 64.0575C76.0089 67.3109 72.524 69.5573 68.4989 69.5573C64.473 69.5573 60.9888 67.3108 59.3405 64.0575C57.6915 67.3109 54.2073 69.5573 50.1821 69.5573V106.615H56.2877V75.4084C56.2877 74.3322 57.1995 73.4584 58.3224 73.4584H74.6045C75.7275 73.4584 76.6392 74.3322 76.6392 75.4084V106.615H123.45V69.5573C119.424 69.5573 115.94 67.3108 114.292 64.0575C112.643 67.3109 109.159 69.5573 105.133 69.5573C101.107 69.5573 97.6231 67.3108 95.9747 64.0575C94.3264 67.3109 90.8415 69.5573 86.8164 69.5573C82.7905 69.5573 79.3063 67.3108 77.658 64.0575H77.6573ZM72.5691 106.615V77.3596H60.3579V106.615H72.5691ZM117.344 75.4087C117.344 74.3325 116.432 73.4588 115.309 73.4588H84.7806C83.6569 73.4588 82.7451 74.3325 82.7451 75.4087V92.9621C82.7451 94.0383 83.6569 94.912 84.7806 94.912H115.309C116.432 94.912 117.344 94.0383 117.344 92.9621V75.4087ZM113.274 77.3593V91.0122H86.8157V77.3593H113.274ZM74.6045 59.8059H62.3933C62.3933 63.0358 65.1286 65.6571 68.4989 65.6571C71.8692 65.6571 74.6045 63.0358 74.6045 59.8059ZM111.238 59.8059H99.0268C99.0268 63.0358 101.762 65.6571 105.132 65.6571C108.503 65.6571 111.238 63.0358 111.238 59.8059ZM61.3745 55.9054H74.9131L78.3073 36.4011H69.8535L61.3745 55.9054ZM98.7163 55.9054H112.254L103.776 36.4011H95.3213L98.7163 55.9054Z" fill="#1A6058"/>
<path d="M39.3551 97.671H33.5039V91.0037C35.1045 89.9549 36.152 88.3122 36.3819 86.4896C36.6117 84.6672 36.0018 82.8393 34.7065 81.4673C33.4109 80.0953 31.5537 79.3101 29.6031 79.3101C27.6525 79.3101 25.7953 80.0953 24.4997 81.4673C23.2044 82.8393 22.5945 84.6673 22.8243 86.4896C23.0542 88.3123 24.1016 89.9549 25.7022 91.0037V97.671H19.8511C18.2996 97.671 16.8113 98.2511 15.7139 99.2836C14.6165 100.316 14 101.716 14 103.176V106.846H45.2065V103.176C45.2065 101.716 44.5901 100.316 43.4926 99.2836C42.3952 98.2511 40.9069 97.671 39.3554 97.671H39.3551ZM43.2559 110.516L15.9504 110.517V108.681H43.2551L43.2559 110.516Z" fill="#1A6058"/>
</g>
<defs>
<filter id="filter0_dd_11511_122035" x="0.156094" y="0.270729" width="147.688" height="147.688" filterUnits="userSpaceOnUse" color-interpolation-filters="sRGB">
<feFlood flood-opacity="0" result="BackgroundImageFix"/>
<feColorMatrix in="SourceAlpha" type="matrix" values="0 0 0 0 0 0 0 0 0 0 0 0 0 0 0 0 0 0 127 0" result="hardAlpha"/>
<feOffset dy="2.61464"/>
<feGaussianBlur stdDeviation="3.92195"/>
<feColorMatrix type="matrix" values="0 0 0 0 0.2471 0 0 0 0 0.2471 0 0 0 0 0.2667 0 0 0 0.15 0"/>
<feBlend mode="normal" in2="BackgroundImageFix" result="effect1_dropShadow_11511_122035"/>
<feColorMatrix in="SourceAlpha" type="matrix" values="0 0 0 0 0 0 0 0 0 0 0 0 0 0 0 0 0 0 127 0" result="hardAlpha"/>
<feOffset/>
<feColorMatrix type="matrix" values="0 0 0 0 0.2471 0 0 0 0 0.2471 0 0 0 0 0.2667 0 0 0 0.05 0"/>
<feBlend mode="normal" in2="effect1_dropShadow_11511_122035" result="effect2_dropShadow_11511_122035"/>
<feBlend mode="normal" in="SourceGraphic" in2="effect2_dropShadow_11511_122035" result="shape"/>
</filter>
</defs>
</svg>
