<svg width="148" height="148" viewBox="0 0 148 148" fill="none" xmlns="http://www.w3.org/2000/svg">
<g filter="url(#filter0_dd_11511_122042)">
<rect x="8" y="5.5" width="132" height="132" rx="18.3024" fill="white"/>
<path d="M114.499 37.2222H35.3265C34.0749 37.2222 33.0925 38.198 33.0925 39.4398V119.276C33.0925 120.518 34.0755 121.494 35.3265 121.494H45.7815C47.0325 121.494 48.0155 120.518 48.0155 119.276V79.6241H101.81L101.809 119.276C101.809 120.518 102.792 121.494 104.043 121.494H114.498C115.749 121.494 116.732 120.518 116.732 119.276V39.4398C116.732 38.198 115.75 37.2222 114.499 37.2222ZM48.0155 75.1887V54.2539C48.0155 53.012 48.9985 52.0362 50.2495 52.0362H99.5756C100.827 52.0362 101.81 53.012 101.81 54.2539V75.1887H48.0155Z" fill="#88185B"/>
<path d="M93.9426 66.1152H55.8816C54.6595 66.1152 53.6992 67.1747 53.6992 68.523C53.6992 69.8713 54.6595 70.9308 55.8816 70.9308H93.9426C95.1647 70.9308 96.125 69.8713 96.125 68.523C96.1244 67.1747 95.1647 66.1152 93.942 66.1152H93.9426Z" fill="#88185B"/>
<path d="M93.9426 57.688H55.8816C54.6595 57.688 53.6992 58.4826 53.6992 59.4938C53.6992 60.505 54.6595 61.2996 55.8816 61.2996H93.9426C95.1647 61.2996 96.125 60.505 96.125 59.4938C96.1244 58.4826 95.1647 57.688 93.942 57.688H93.9426Z" fill="#88185B"/>
<path d="M95.1963 96.4945H91.9797L88.5843 87.1197C88.1374 85.7807 86.9763 84.7985 85.5465 84.7089C81.7938 84.3521 78.0413 84.1733 74.3778 84.1733C70.7143 84.1733 66.8726 84.3521 63.2091 84.7089C61.7793 84.798 60.6183 85.7801 60.1714 87.1197L56.7759 96.4945H53.5593C52.9336 96.4945 52.4873 96.941 52.4873 97.5657V100.066C52.4873 100.691 52.9342 101.137 53.5593 101.137L55.0788 101.137C54.7217 102.03 54.5428 103.013 54.5428 103.995V113.101C54.5428 113.904 55.0788 114.53 55.7045 114.797V119.797C55.7045 120.779 56.5085 121.494 57.4023 121.494H61.0658C62.0487 121.494 62.7636 120.69 62.7636 119.797V114.797H85.7265V119.797C85.7265 120.779 86.5305 121.494 87.4243 121.494H91.0878C92.0707 121.494 92.7856 120.69 92.7856 119.797V114.797C93.2325 114.619 93.5005 114.351 93.7685 113.994C93.9474 113.726 94.0365 113.459 94.0365 113.101L94.0353 103.994C94.0353 103.012 93.8564 102.03 93.4993 101.137H95.0181C95.6439 101.137 96.0901 100.69 96.0901 100.066V97.5657C96.269 97.0301 95.7329 96.4945 95.1963 96.4945ZM64.1026 88.9949C67.498 88.7271 70.9827 88.5484 74.3775 88.5484C77.7729 88.5484 81.2576 88.7271 84.6524 88.9949L87.9582 98.1019L60.7974 98.1012L64.1026 88.9949ZM67.0511 107.655C67.0511 108.548 66.3362 109.351 65.3533 109.351H61.3327C60.439 109.351 59.6349 108.637 59.6349 107.655V106.494C59.6349 105.601 60.3498 104.797 61.3327 104.797H65.4431C66.3369 104.797 67.141 105.512 67.141 106.494L67.1403 107.655H67.0511ZM89.0312 107.655C89.0312 108.548 88.3163 109.351 87.3334 109.351H83.2229C82.3292 109.351 81.5251 108.637 81.5251 107.655V106.494C81.5251 105.601 82.24 104.797 83.2229 104.797H87.3334C88.2271 104.797 89.0312 105.512 89.0312 106.494V107.655Z" fill="#88185B"/>
<path d="M93.7007 37.222C93.7007 47.8602 85.2887 56.4841 74.9121 56.4841C64.5355 56.4841 56.1235 47.8602 56.1235 37.222C56.1235 26.5839 64.5355 17.96 74.9121 17.96C85.2887 17.96 93.7007 26.5839 93.7007 37.222Z" fill="#88185B"/>
<path d="M69.4575 36.0591L75.147 43.2415L85.2157 31.1284L82.5959 28.7949L75.2104 37.6799L72.1299 33.7911L69.4575 36.0591Z" fill="white"/>
<path d="M84.02 37.8235C84.02 42.8112 79.9343 46.8689 74.9123 46.8689C69.8903 46.8689 65.8046 42.8112 65.8046 37.8235C65.8046 32.8358 69.8903 28.778 74.9123 28.778V25.1831C67.8943 25.1831 62.1846 30.8535 62.1846 37.8239C62.1846 44.7942 67.894 50.4646 74.9123 50.4646C81.9307 50.4646 87.64 44.7942 87.64 37.8239L84.02 37.8235Z" fill="white"/>
</g>
<defs>
<filter id="filter0_dd_11511_122042" x="0.156094" y="0.270729" width="147.688" height="147.688" filterUnits="userSpaceOnUse" color-interpolation-filters="sRGB">
<feFlood flood-opacity="0" result="BackgroundImageFix"/>
<feColorMatrix in="SourceAlpha" type="matrix" values="0 0 0 0 0 0 0 0 0 0 0 0 0 0 0 0 0 0 127 0" result="hardAlpha"/>
<feOffset dy="2.61464"/>
<feGaussianBlur stdDeviation="3.92195"/>
<feColorMatrix type="matrix" values="0 0 0 0 0.2471 0 0 0 0 0.2471 0 0 0 0 0.2667 0 0 0 0.15 0"/>
<feBlend mode="normal" in2="BackgroundImageFix" result="effect1_dropShadow_11511_122042"/>
<feColorMatrix in="SourceAlpha" type="matrix" values="0 0 0 0 0 0 0 0 0 0 0 0 0 0 0 0 0 0 127 0" result="hardAlpha"/>
<feOffset/>
<feColorMatrix type="matrix" values="0 0 0 0 0.2471 0 0 0 0 0.2471 0 0 0 0 0.2667 0 0 0 0.05 0"/>
<feBlend mode="normal" in2="effect1_dropShadow_11511_122042" result="effect2_dropShadow_11511_122042"/>
<feBlend mode="normal" in="SourceGraphic" in2="effect2_dropShadow_11511_122042" result="shape"/>
</filter>
</defs>
</svg>
