<svg width="148" height="148" viewBox="0 0 148 148" fill="none" xmlns="http://www.w3.org/2000/svg">
<g filter="url(#filter0_dd_11511_122082)">
<rect x="8" y="5.25" width="132" height="132" rx="18.3024" fill="white"/>
<path fill-rule="evenodd" clip-rule="evenodd" d="M84.7055 30.0405L84.7019 30.0407L84.6567 30.0431H84.6078C83.9566 30.0431 83.3201 30.0596 82.6975 30.0922V54.244C82.6975 57.8777 79.7663 60.8195 76.1546 60.8195C74.3457 60.8195 72.7093 60.0811 71.5276 58.896L71.5262 58.8947L71.5249 58.8933C70.3457 57.7059 69.6109 56.0615 69.6109 54.2439V33.8376C62.2994 38.0785 57.855 45.2355 55.19 51.7966C53.7127 55.4339 52.8095 58.8239 52.2765 61.3047C52.0104 62.5431 51.8376 63.55 51.732 64.2413C51.6792 64.5869 51.6432 64.8532 51.6208 65.0299C51.6096 65.1182 51.6018 65.184 51.597 65.2261C51.5956 65.2381 51.5945 65.2482 51.5936 65.2563C51.5929 65.2623 51.5923 65.2673 51.5919 65.2711L51.591 65.2795L51.4152 66.9753H42.2798V70.1499H127.735V66.9752L119.189 66.9747L118.963 65.3447C116.434 47.1526 108.115 38.4096 100.408 34.1517L100.41 54.2451C100.41 56.062 99.6749 57.7085 98.4912 58.8967L98.4899 58.898C97.3083 60.0818 95.6724 60.8208 93.8661 60.8208C90.2503 60.8208 87.3225 57.8776 87.3225 54.2454V30.1408C86.719 30.0865 86.204 30.0586 85.7938 30.045C85.4241 30.0328 85.1403 30.0323 84.9547 30.0345C84.8619 30.0356 84.7937 30.0374 84.7517 30.0388C84.7307 30.0395 84.7162 30.0401 84.7084 30.0404L84.7055 30.0405ZM48.0857 63.1918C48.2018 62.4819 48.3671 61.5717 48.5961 60.5062C49.163 57.8678 50.124 54.257 51.704 50.3669C54.8472 42.6283 60.5505 33.5248 70.7366 29.0306L73.376 27.866V54.2439C73.376 55.0165 73.6844 55.7107 74.1883 56.2191C74.6942 56.7258 75.3853 57.036 76.1546 57.036C77.6879 57.036 78.9323 55.7871 78.9323 54.244V26.6343L80.6222 26.4595C81.8934 26.3281 83.2065 26.2609 84.5664 26.2596C84.5837 26.2589 84.6046 26.2581 84.6292 26.2573C84.6962 26.2552 84.7902 26.2527 84.9095 26.2513C85.148 26.2484 85.4882 26.2494 85.9175 26.2636C86.7757 26.2919 87.993 26.3732 89.469 26.5831L91.0877 26.8134V54.2454C91.0877 55.7884 92.3301 57.0373 93.8661 57.0373C94.631 57.0373 95.3226 56.7279 95.8301 56.2201C96.3357 55.7126 96.6446 55.018 96.6446 54.2454L96.6427 28.2222L99.2799 29.3813C108.559 33.4595 119.133 42.714 122.447 63.1914L131.5 63.1919V73.9334H38.5146V63.1918H48.0857ZM23.1348 72.935C23.1472 72.9398 23.1638 72.9462 23.1846 72.9542C23.1965 72.9588 23.2098 72.9639 23.2244 72.9696C23.3047 73.0005 23.4259 73.047 23.587 73.1081C23.909 73.2304 24.3902 73.4112 25.0215 73.6433C26.284 74.1076 28.1463 74.7771 30.5352 75.5939C35.3135 77.2277 42.196 79.4499 50.5968 81.7977C67.4069 86.4954 90.2563 91.6843 114.47 93.6788L117.809 93.9539L110.002 104.743C110.075 105.015 110.153 105.334 110.226 105.689C110.456 106.807 110.653 108.381 110.426 110.015C110.196 111.669 109.511 113.489 107.886 114.876C106.267 116.258 103.962 117 100.905 117H100.396L100.182 116.875L21.7438 96.6752L21.5479 96.5714C19.0418 95.2443 17.4052 93.7446 16.5892 92.0517C15.7386 90.2871 15.911 88.5905 16.4634 87.2246C16.9933 85.9144 17.8751 84.8828 18.5508 84.2167C18.8988 83.8736 19.2177 83.6026 19.4534 83.4145C19.5718 83.32 19.6707 83.2452 19.7437 83.1916C19.7802 83.1647 19.8103 83.1431 19.8333 83.1268C19.8448 83.1187 19.8545 83.1119 19.8623 83.1064L19.8726 83.0993L19.8785 83.0952C19.8785 83.0952 19.8801 83.0941 20.9406 84.6572L19.8801 83.0941L20.5404 82.6417L21.1212 82.7628L20.3319 71.8397L23.1348 72.935ZM21.4274 86.6907C21.3512 86.7598 21.2706 86.8356 21.1876 86.9174C20.6936 87.4045 20.2089 88.0127 19.9515 88.6491C19.7166 89.23 19.681 89.7867 19.9777 90.4024C20.299 91.0689 21.1231 92.0364 23.113 93.122L53.0117 100.822C52.9711 100.569 52.9388 100.306 52.9174 100.035C52.7634 98.0823 53.1892 95.8213 54.8212 93.6523L21.4274 86.6907ZM59.1465 94.554C56.891 96.4644 56.5623 98.3601 56.6708 99.7361C56.7348 100.547 56.9617 101.257 57.1793 101.77C57.2 101.819 57.2205 101.866 57.2406 101.911L95.6849 111.811C95.0903 110.173 95.0558 108.224 96.1382 106.172C96.503 105.48 96.9853 104.794 97.5943 104.114C97.6046 104.098 97.6166 104.08 97.6301 104.06C97.6743 103.995 97.7358 103.906 97.8136 103.799C97.9687 103.586 98.1917 103.295 98.4742 102.971C98.526 102.911 98.5804 102.85 98.6373 102.787L59.1465 94.554ZM103.753 99.9892L24.9541 83.5619L24.5148 77.4841C25.7423 77.9298 27.3579 78.5041 29.3224 79.1758C34.1577 80.829 41.1088 83.0732 49.588 85.4428C65.7697 89.965 87.5534 94.9545 110.837 97.1554L108.127 100.901L106.388 100.538C105.963 100.333 105.525 100.184 105.075 100.091C104.618 99.9977 104.176 99.9686 103.753 99.9892ZM104.045 103.768C101.343 105.415 100.042 106.849 99.465 107.944C98.903 109.009 98.968 109.857 99.2457 110.577C99.5546 111.379 100.168 112.104 100.797 112.669C101.043 112.89 101.274 113.071 101.459 113.206C103.581 113.124 104.771 112.571 105.448 111.993C106.176 111.372 106.555 110.515 106.697 109.491C106.842 108.447 106.721 107.343 106.539 106.453C106.449 106.018 106.35 105.656 106.275 105.409C106.261 105.363 106.248 105.321 106.236 105.284C105.396 104.189 104.726 103.881 104.323 103.798C104.232 103.78 104.14 103.77 104.045 103.768Z" fill="#818181"/>
</g>
<defs>
<filter id="filter0_dd_11511_122082" x="0.156094" y="0.0207293" width="147.688" height="147.688" filterUnits="userSpaceOnUse" color-interpolation-filters="sRGB">
<feFlood flood-opacity="0" result="BackgroundImageFix"/>
<feColorMatrix in="SourceAlpha" type="matrix" values="0 0 0 0 0 0 0 0 0 0 0 0 0 0 0 0 0 0 127 0" result="hardAlpha"/>
<feOffset dy="2.61464"/>
<feGaussianBlur stdDeviation="3.92195"/>
<feColorMatrix type="matrix" values="0 0 0 0 0.2471 0 0 0 0 0.2471 0 0 0 0 0.2667 0 0 0 0.15 0"/>
<feBlend mode="normal" in2="BackgroundImageFix" result="effect1_dropShadow_11511_122082"/>
<feColorMatrix in="SourceAlpha" type="matrix" values="0 0 0 0 0 0 0 0 0 0 0 0 0 0 0 0 0 0 127 0" result="hardAlpha"/>
<feOffset/>
<feColorMatrix type="matrix" values="0 0 0 0 0.2471 0 0 0 0 0.2471 0 0 0 0 0.2667 0 0 0 0.05 0"/>
<feBlend mode="normal" in2="effect1_dropShadow_11511_122082" result="effect2_dropShadow_11511_122082"/>
<feBlend mode="normal" in="SourceGraphic" in2="effect2_dropShadow_11511_122082" result="shape"/>
</filter>
</defs>
</svg>
