<svg width="38" height="40" viewBox="0 0 38 40" fill="none" xmlns="http://www.w3.org/2000/svg">
<path d="M14.0033 12.0533L10.4045 15.455C11.2495 16.3205 11.7106 17.4811 11.6863 18.6812C11.662 19.8814 11.1544 21.0229 10.2751 21.8547C9.39574 22.6865 8.21675 23.1403 6.99746 23.1164C5.77817 23.0925 4.61846 22.5929 3.77345 21.7273L0.167969 25.1274C1.03987 26.0212 2.08211 26.7373 3.23517 27.2347C4.38822 27.7321 5.62951 28.0011 6.88817 28.0263C8.14683 28.0515 9.3982 27.8324 10.5708 27.3815C11.7435 26.9307 12.8144 26.2569 13.7226 25.3987C14.6307 24.5405 15.3581 23.5146 15.8635 22.3796C16.3688 21.2446 16.642 20.0228 16.6676 18.7838C16.6932 17.5449 16.4707 16.3132 16.0126 15.1589C15.5546 14.0046 14.8701 12.9505 13.9982 12.0566L14.0033 12.0533Z" fill="black"/>
<path d="M0 3.25296V8.05604H9.06828L3.70463 12.96L7.07141 16.4378L15.8153 8.05604V3.25296H0Z" fill="black"/>
<path d="M37.1993 3.28107C36.9295 2.63327 36.5315 2.04472 36.0285 1.54965C35.5256 1.05457 34.9277 0.662848 34.2696 0.397239C33.6287 0.140771 32.9443 0.00603553 32.2525 0.000151882C31.5653 -0.00500955 30.8837 0.121427 30.2456 0.372419C29.5875 0.637732 28.9896 1.02937 28.4869 1.5245C27.9842 2.01962 27.5867 2.60832 27.3175 3.25625C26.791 4.53314 26.791 5.9618 27.3175 7.23869C27.5825 7.8868 27.9795 8.47465 28.484 8.96601L32.2441 12.6672L36.021 8.94781C36.5305 8.45587 36.9311 7.86552 37.1976 7.21387C37.7131 5.95202 37.7131 4.54292 37.1976 3.28107H37.1993Z" fill="#B4191E"/>
<path d="M31.0575 4.24407C30.8271 4.46555 30.6696 4.75007 30.6055 5.06072C30.5413 5.37138 30.5735 5.69384 30.6978 5.98628C30.7802 6.18532 30.9026 6.36596 31.0575 6.51739C31.2119 6.66969 31.3952 6.79056 31.5971 6.87311C31.895 6.99316 32.2224 7.02344 32.5378 6.96011C32.8532 6.89678 33.1424 6.74269 33.3687 6.51739C33.5229 6.36791 33.6442 6.18882 33.7251 5.99125C33.8044 5.8001 33.845 5.5955 33.8444 5.389C33.8405 5.06943 33.7415 4.758 33.5595 4.49331C33.3776 4.22862 33.1207 4.02231 32.8208 3.89993C32.4277 3.74107 31.9868 3.74107 31.5937 3.89993C31.3924 3.97926 31.2098 4.09867 31.0575 4.25069V4.24407ZM30.3112 3.51443C30.5644 3.26133 30.8676 3.06199 31.2021 2.92873C31.523 2.80278 31.8651 2.73766 32.2106 2.7368C32.5566 2.73752 32.8991 2.80439 33.2191 2.93369C33.5518 3.06787 33.8541 3.26584 34.1083 3.51609C34.3625 3.76633 34.5636 4.06385 34.6999 4.39132C34.8292 4.70696 34.8971 5.04372 34.9 5.38404C34.9025 5.72392 34.838 6.06107 34.71 6.37675C34.5735 6.70454 34.3721 7.00235 34.1176 7.25287C33.8631 7.50338 33.5605 7.70161 33.2275 7.83604C32.9026 7.9665 32.5548 8.03338 32.2039 8.03293C31.855 8.03312 31.5094 7.96799 31.1853 7.841C30.6871 7.64265 30.2607 7.30196 29.9612 6.86285C29.6616 6.42374 29.5025 5.90636 29.5044 5.37742C29.5075 5.03342 29.5771 4.69315 29.7095 4.37478C29.8435 4.04699 30.0443 3.74968 30.2995 3.50119" fill="white"/>
<path d="M22.8783 3.25296H17.9988V6.99384H20.4377V28.0278H25.319V3.25296H22.8783Z" fill="black"/>
<path d="M32.2543 13.918H29.8154H27.3748V17.6589H29.8154V28.0278H34.6949V13.918H32.2543Z" fill="black"/>
<path d="M34.6948 29.9918H0.173096V40H34.6948V29.9918Z" fill="#B4191E"/>
<path d="M4.66933 35.3275C4.66197 35.5642 4.70298 35.8 4.78992 36.0208C4.87687 36.2416 5.00798 36.443 5.17549 36.613C5.34299 36.783 5.54347 36.9181 5.76503 37.0104C5.9866 37.1027 6.22475 37.1503 6.46534 37.1503C6.70593 37.1503 6.94407 37.1027 7.16563 37.0104C7.3872 36.9181 7.58768 36.783 7.75518 36.613C7.92268 36.443 8.05379 36.2416 8.14074 36.0208C8.22769 35.8 8.26871 35.5642 8.26135 35.3275C8.26269 35.0933 8.21521 34.8613 8.12183 34.6458C8.0296 34.4365 7.8972 34.2466 7.73187 34.0866C7.39266 33.7564 6.93483 33.5712 6.45777 33.5712C5.9807 33.5712 5.52289 33.7564 5.18367 34.0866C5.02076 34.2472 4.89065 34.437 4.80043 34.6458C4.70758 34.8614 4.66067 35.0934 4.6626 35.3275H4.66933ZM3.50112 35.3275C3.49717 34.937 3.57558 34.55 3.7314 34.1908C4.03282 33.4926 4.59907 32.9376 5.30974 32.6439C5.6743 32.4932 6.06573 32.4155 6.46113 32.4155C6.85654 32.4155 7.24797 32.4932 7.61252 32.6439C7.96437 32.7916 8.28483 33.0032 8.55717 33.2676C8.82912 33.5319 9.04658 33.8453 9.19758 34.1908C9.35069 34.5497 9.42957 34.935 9.42957 35.3242C9.42957 35.7134 9.35069 36.0987 9.19758 36.4575C9.04723 36.8073 8.8298 37.1252 8.55717 37.394C8.28687 37.6625 7.96601 37.8766 7.61252 38.0244C7.0699 38.2499 6.47109 38.3104 5.89322 38.1981C5.31535 38.0858 4.78488 37.8057 4.37013 37.394C4.10011 37.1245 3.885 36.8066 3.73643 36.4575C3.58176 36.1004 3.50338 35.7157 3.50616 35.3275" fill="white"/>
<path d="M10.5088 33.2741C10.7885 32.9957 11.1231 32.7767 11.4921 32.6305C12.2081 32.3459 13.0083 32.3459 13.7243 32.6305C14.0933 32.7767 14.428 32.9957 14.7076 33.2741L15.1177 33.6762L14.2992 34.4952L13.8756 34.0931C13.7062 33.9246 13.5037 33.7918 13.2806 33.7027C12.8493 33.531 12.3671 33.531 11.9359 33.7027C11.713 33.7914 11.511 33.9243 11.3425 34.0931C11.169 34.2528 11.0335 34.4483 10.9458 34.6656C10.7693 35.0897 10.7693 35.5651 10.9458 35.9892C11.082 36.3141 11.3125 36.5922 11.6085 36.7888C11.9045 36.9854 12.2528 37.0917 12.6099 37.0944C12.8449 37.0951 13.0779 37.0507 13.2957 36.9637C13.5162 36.877 13.7148 36.7437 13.8773 36.5733L14.3008 36.1712L15.1194 36.9902L14.7093 37.3922C14.4301 37.6712 14.0953 37.8903 13.726 38.0358C13.0104 38.3226 12.2093 38.3226 11.4938 38.0358C11.1245 37.8903 10.7897 37.6712 10.5105 37.3922C10.2289 37.1198 10.0085 36.7924 9.86335 36.431C9.58103 35.7249 9.58103 34.9398 9.86335 34.2338C10.0089 33.8726 10.2293 33.5452 10.5105 33.2725" fill="white"/>
<path d="M21.5672 31.6842V35.3242C21.5654 35.7129 21.6437 36.0979 21.7974 36.4559C21.9482 36.8049 22.1656 37.1222 22.4379 37.3907C22.71 37.6601 23.0333 37.8743 23.3892 38.0211C23.752 38.1736 24.1428 38.2514 24.5373 38.2494H25.1189V37.0912H24.5406C24.3043 37.0928 24.07 37.048 23.8514 36.9597C23.6328 36.8713 23.4342 36.7411 23.2672 36.5765C23.1001 36.4119 22.968 36.2163 22.8784 36.0011C22.7889 35.7858 22.7437 35.5551 22.7454 35.3225V34.7385H25.1222V33.5803H22.7421V31.6842H21.5672Z" fill="white"/>
<path d="M19.6863 36.0309C19.5952 36.2466 19.4615 36.4423 19.293 36.6067C19.0283 36.8579 18.6951 37.0279 18.334 37.0961C17.9729 37.1642 17.5995 37.1276 17.2592 36.9905C17.0389 36.9009 16.838 36.7706 16.6675 36.6067C16.497 36.439 16.3619 36.2399 16.2699 36.0207C16.1779 35.8015 16.1308 35.5666 16.1313 35.3294C16.1294 35.0905 16.1781 34.8539 16.2741 34.6345C16.3662 34.4213 16.4998 34.2279 16.6675 34.0653C16.8377 33.901 17.0386 33.7707 17.2592 33.6815C17.7214 33.4961 18.2391 33.4961 18.7013 33.6815C18.9222 33.7701 19.1232 33.9005 19.293 34.0653C19.4606 34.2279 19.5943 34.4213 19.6863 34.6345C19.7824 34.8539 19.831 35.0905 19.8292 35.3294C19.8307 35.5704 19.7821 35.8091 19.6863 36.0309V36.0309ZM19.9216 32.4952V33.0379C19.6926 32.8579 19.4399 32.7093 19.1703 32.5961C18.6111 32.3661 17.9954 32.3037 17.4004 32.4167C16.8053 32.5297 16.2574 32.8132 15.8254 33.2315C15.5486 33.5009 15.3267 33.8198 15.1715 34.1712C15.0143 34.5378 14.9333 34.9316 14.9333 35.3294C14.9333 35.7272 15.0143 36.121 15.1715 36.4876C15.3264 36.843 15.5483 37.1663 15.8254 37.4406C16.2569 37.8596 16.8045 38.144 17.3995 38.2582C17.9944 38.3724 18.6104 38.3113 19.1703 38.0825C19.4407 37.9688 19.6936 37.8185 19.9216 37.6358V38.2198H21.0596V32.4952H19.9216Z" fill="white"/>
<path d="M29.3545 34.7088C29.0419 34.7088 28.7124 34.7088 28.3712 34.7088H26.7256C26.7685 34.5873 26.8249 34.4707 26.8937 34.3614L26.9088 34.3365C26.929 34.3068 26.9509 34.2786 26.9727 34.2489C27.1383 34.0254 27.3549 33.8436 27.6052 33.7179C27.8555 33.5923 28.1323 33.5265 28.4132 33.5258H28.4721C28.5242 33.5258 28.5763 33.5258 28.6284 33.5374C28.9612 33.5779 29.2758 33.7098 29.536 33.9179L29.5915 33.9643C29.6319 33.999 29.6688 34.0354 29.7058 34.0718C29.7428 34.1082 29.7983 34.1727 29.8403 34.2273L29.852 34.2455C29.9561 34.3888 30.0377 34.5466 30.0941 34.7138H29.3629L29.3545 34.7088ZM31.3699 35.2912C31.3699 35.2598 31.3699 35.23 31.3699 35.1969C31.3597 34.8401 31.2822 34.4884 31.1413 34.1595C30.8414 33.4606 30.2763 32.9044 29.5663 32.6092C29.2209 32.4651 28.8505 32.3881 28.4754 32.3826H28.4065C28.0124 32.3794 27.622 32.4571 27.2602 32.6109C26.9993 32.7234 26.7555 32.871 26.5357 33.0493C26.1784 33.3397 25.8947 33.7078 25.707 34.1248C25.707 34.1363 25.6953 34.1446 25.6902 34.1562C25.6852 34.1678 25.6902 34.1562 25.6902 34.1562L25.6751 34.2009C25.5274 34.5442 25.4525 34.9135 25.4549 35.2862C25.4549 35.3077 25.4549 35.3276 25.4549 35.3475C25.4549 35.4252 25.4549 35.503 25.4667 35.5807C25.4667 35.5807 25.4667 35.5973 25.4667 35.6039C25.5237 36.1231 25.7218 36.6175 26.04 37.0353C26.3583 37.4531 26.785 37.7788 27.2753 37.9781C27.5787 38.1057 27.9023 38.1801 28.2317 38.1982H28.267C28.3141 38.1982 28.3594 38.1982 28.4065 38.1982C29.0924 38.1985 29.7571 37.9646 30.2874 37.5364L29.5461 36.6496C29.2258 36.9098 28.8235 37.0525 28.4082 37.0533C28.3249 37.0526 28.2417 37.046 28.1594 37.0334L28.0855 37.0235C28.0128 37.0105 27.941 36.9934 27.8703 36.9722L27.7997 36.9457C27.7409 36.9242 27.6837 36.901 27.6316 36.8746L27.5846 36.8514C27.5068 36.811 27.4321 36.7651 27.361 36.7141C27.0635 36.5032 26.8417 36.2049 26.7273 35.862H31.3665V35.2945L31.3699 35.2912Z" fill="white"/>
<path d="M3.21552 31.6842H2.04053V38.2527H3.21552V31.6842Z" fill="white"/>
<path d="M32.8272 31.6842H31.6523V38.2527H32.8272V31.6842Z" fill="white"/>
</svg>
