<svg width="88" height="72" viewBox="0 0 88 72" fill="none" xmlns="http://www.w3.org/2000/svg">
<path d="M1.27534 53.4188C0.402065 54.0952 0.242434 55.3514 0.918795 56.2247L11.9407 70.4555C12.6171 71.3288 13.8733 71.4884 14.7466 70.812C15.6199 70.1357 15.7795 68.8795 15.1031 68.0062L5.30586 55.3565L17.9555 45.5593C18.8288 44.8829 18.9884 43.6267 18.3121 42.7534C17.6357 41.8801 16.3795 41.7205 15.5062 42.3969L1.27534 53.4188ZM83.513 1.22752C84.7113 11.6926 82.1554 26.8288 70.6787 38.2179C59.2504 49.559 38.5812 57.5688 2.75212 53.016L2.24788 56.984C38.8188 61.6312 60.8996 53.5577 73.4963 41.0571C86.0446 28.6045 88.7887 12.1408 87.487 0.772479L83.513 1.22752Z" fill="#DFDFDF"/>
</svg>
