<svg width="11" height="20" viewBox="0 0 11 20" fill="none" xmlns="http://www.w3.org/2000/svg">
<path d="M8.67856 4.5885V14.8849C8.67856 16.8636 7.07406 18.4662 5.0931 18.4662C3.11213 18.4662 1.50763 16.8636 1.50763 14.8849V3.69317C1.50763 2.4576 2.51156 1.45482 3.74855 1.45482C4.98553 1.45482 5.98946 2.4576 5.98946 3.69317V13.0942C5.98946 13.5866 5.5861 13.9895 5.0931 13.9895C4.6001 13.9895 4.19673 13.5866 4.19673 13.0942V4.5885H2.85218V13.0942C2.85218 14.3298 3.85611 15.3326 5.0931 15.3326C6.33008 15.3326 7.33401 14.3298 7.33401 13.0942V3.69317C7.33401 1.71447 5.72952 0.111816 3.74855 0.111816C1.76758 0.111816 0.163086 1.71447 0.163086 3.69317V14.8849C0.163086 17.6067 2.36815 19.8092 5.0931 19.8092C7.81805 19.8092 10.0231 17.6067 10.0231 14.8849V4.5885H8.67856Z" fill="white"/>
</svg>
