<svg width="28" height="20" viewBox="0 0 28 20" fill="none" xmlns="http://www.w3.org/2000/svg">
<path d="M21.8782 20H17.3527H16.134H15.8709V14.041H17.8562C18.3596 14.041 18.6571 13.4794 18.3596 13.075L14.4978 7.82926C14.2517 7.49228 13.7425 7.49228 13.4965 7.82926L9.63465 13.075C9.33715 13.4794 9.62893 14.041 10.1381 14.041H12.1234V20H11.8602H10.6416H5.39518C2.3915 19.8371 0 17.0795 0 14.0915C0 12.0303 1.13854 10.2331 2.82632 9.26144C2.67184 8.85145 2.59174 8.41337 2.59174 7.95282C2.59174 5.84667 4.3253 4.1449 6.47078 4.1449C6.93421 4.1449 7.38047 4.22353 7.79812 4.37518C9.03964 1.79163 11.7172 0 14.8296 0C18.8574 0.0056164 22.1757 3.03286 22.5533 6.89132C25.6486 7.41365 28 10.2275 28 13.412C28 16.8155 25.2996 19.7641 21.8782 20Z" fill="black"/>
</svg>
