<svg xmlns="http://www.w3.org/2000/svg" width="20" height="20" viewBox="0 0 20 20">
    <path fill="#00B140" fill-rule="evenodd" d="M17.378 12.924c0 .57-.464 1.033-1.034 1.033h-1.902v-3.594H5.24v3.594H3.338c-.57 0-1.033-.463-1.033-1.033v-4.75c0-.57.463-1.034 1.033-1.034h13.006c.57 0 1.034.464 1.034 1.033v4.751zm-9.833 4.771h4.592v-5.028H7.545v5.028zM6.43 4.835h6.82v-2.53h-6.82v2.53zm9.913 0h-.788V0H4.126v4.835h-.788A3.342 3.342 0 0 0 0 8.173v4.751a3.342 3.342 0 0 0 3.338 3.338H5.24V20h9.202v-3.738h1.902a3.342 3.342 0 0 0 3.338-3.338v-4.75a3.342 3.342 0 0 0-3.338-3.339z"/>
</svg>
