<svg xmlns="http://www.w3.org/2000/svg" xmlns:xlink="http://www.w3.org/1999/xlink" width="262" height="40" viewBox="0 0 262 40">
    <defs>
        <path id="prefix__a" d="M0 39.72L261.349 39.72 261.349 0.075 0 0.075z"/>
    </defs>
    <g fill="none" fill-rule="evenodd">
        <path fill="#FFF" d="M176.921 14.44l-.682 1.667h1.365l-.683-1.667zm1.557 3.82l-.47-1.154h-2.174l-.47 1.153h-1.153l2.204-5.178h1.043l2.203 5.178h-1.183z"/>
        <g transform="translate(0 .205)">
            <path fill="#FFF" d="M183.954 17.904c-.365.159-.782.239-1.253.239-.401 0-.767-.066-1.097-.199-.33-.132-.615-.316-.852-.55-.238-.236-.423-.515-.555-.838-.132-.323-.198-.676-.198-1.058v-.014c0-.367.067-.711.202-1.032.134-.32.322-.603.562-.845.24-.242.524-.433.852-.573.328-.14.688-.209 1.08-.209.23 0 .439.016.627.048.189.032.364.077.525.136.162.058.314.132.456.22.142.088.279.189.411.301l-.712.86c-.098-.084-.196-.157-.294-.22-.098-.065-.2-.118-.305-.163-.105-.043-.22-.078-.341-.102-.123-.025-.257-.037-.404-.037-.206 0-.398.043-.577.129-.179.086-.336.201-.47.346-.135.145-.24.314-.316.508-.076.194-.114.4-.114.622v.014c0 .236.038.453.114.652.076.199.184.372.323.519.14.147.304.261.492.342.189.081.398.122.628.122.421 0 .777-.104 1.066-.31v-.74h-1.139v-.978h2.233v2.233c-.265.226-.58.418-.944.577M186.132 18.054L186.132 12.913 190.002 12.913 190.002 13.919 187.248 13.919 187.248 14.962 189.672 14.962 189.672 15.969 187.248 15.969 187.248 17.048 190.039 17.048 190.039 18.054zM194.813 18.054L192.323 14.786 192.323 18.054 191.207 18.054 191.207 12.913 192.25 12.913 194.659 16.079 194.659 12.913 195.775 12.913 195.775 18.054zM201.21 17.607c-.142.112-.297.209-.466.29-.169.08-.354.142-.554.183-.201.042-.427.063-.676.063-.377 0-.727-.07-1.05-.206-.324-.137-.603-.324-.838-.562-.235-.237-.419-.518-.55-.84-.133-.324-.2-.67-.2-1.036v-.015c0-.367.067-.711.2-1.032.131-.32.315-.602.55-.845.235-.242.517-.433.845-.573.328-.14.69-.209 1.087-.209.24 0 .459.02.657.059.198.039.378.093.54.161.162.069.31.152.448.25.137.098.264.206.382.323l-.72.83c-.2-.18-.405-.323-.613-.426-.208-.103-.442-.154-.702-.154-.215 0-.415.042-.598.125-.184.083-.342.198-.474.345-.132.147-.235.317-.308.51-.074.194-.11.4-.11.621v.015c0 .22.036.428.11.624.073.196.175.367.304.514.13.147.287.263.47.35.184.085.386.128.606.128.294 0 .543-.054.746-.162.203-.107.405-.255.606-.44l.72.726c-.132.143-.27.27-.412.383"/>
            <mask id="prefix__b" fill="#fff">
                <use xlink:href="#prefix__a"/>
            </mask>
            <path fill="#FFF" d="M202.577 18.054L203.708 18.054 203.708 12.913 202.577 12.913zM207.262 14.235l-.682 1.667h1.365l-.683-1.667zm1.557 3.82l-.47-1.154h-2.174l-.47 1.154h-1.153l2.203-5.179h1.044l2.203 5.179h-1.183zM216.62 15.484c0-.225-.039-.434-.114-.625-.076-.19-.182-.354-.316-.492-.135-.137-.298-.243-.488-.32-.192-.075-.402-.113-.632-.113h-.874v3.1h.874c.23 0 .44-.037.632-.11.19-.074.353-.18.488-.316.134-.137.24-.3.316-.485.075-.186.113-.394.113-.624v-.015zm.984 1.013c-.133.314-.32.586-.562.816-.243.23-.532.411-.867.543-.335.132-.704.198-1.105.198h-2.005v-5.14h2.005c.401 0 .77.064 1.105.194.335.13.624.31.867.54.242.23.43.5.562.811.132.311.198.648.198 1.01v.015c0 .362-.066.7-.198 1.013zM218.926 18.054L220.057 18.054 220.057 12.913 218.926 12.913zM225.135 17.904c-.364.159-.782.239-1.252.239-.401 0-.767-.066-1.098-.199-.33-.132-.614-.316-.852-.55-.237-.236-.422-.515-.554-.838-.132-.323-.199-.676-.199-1.058v-.014c0-.367.068-.711.202-1.032.135-.32.322-.603.562-.845.24-.242.524-.433.852-.573.328-.14.688-.209 1.08-.209.23 0 .44.016.628.048s.363.077.525.136c.162.058.313.132.455.22.142.088.28.189.412.301l-.713.86c-.098-.084-.196-.157-.293-.22-.098-.065-.2-.118-.305-.163-.106-.043-.22-.078-.342-.102-.122-.025-.257-.037-.404-.037-.205 0-.398.043-.576.129-.18.086-.336.201-.47.346-.135.145-.24.314-.316.508-.076.194-.114.4-.114.622v.014c0 .236.038.453.114.652.076.199.183.372.323.519.14.147.303.261.492.342.188.081.398.122.628.122.421 0 .776-.104 1.065-.31v-.74h-1.138v-.978h2.232v2.233c-.264.226-.579.418-.944.577M227.35 18.054L228.481 18.054 228.481 12.913 227.35 12.913zM232.065 13.956L232.065 18.055 230.934 18.055 230.934 13.956 229.37 13.956 229.37 12.913 233.63 12.913 233.63 13.956zM236.208 14.235l-.683 1.667h1.366l-.683-1.667zm1.557 3.82l-.47-1.154h-2.174l-.47 1.154h-1.153l2.203-5.179h1.043l2.203 5.179h-1.182zM239.784 18.054L239.784 12.913 240.916 12.913 240.916 17.034 243.479 17.034 243.479 18.054zM250.162 15.484c0-.225-.038-.434-.113-.625-.076-.19-.182-.354-.316-.492-.135-.137-.298-.243-.489-.32-.19-.075-.401-.113-.631-.113h-.874v3.1h.874c.23 0 .44-.037.631-.11.191-.074.354-.18.489-.316.134-.137.24-.3.316-.485.075-.186.113-.394.113-.624v-.015zm.985 1.013c-.133.314-.32.586-.562.816-.243.23-.532.411-.867.543-.335.132-.704.198-1.105.198h-2.005v-5.14h2.005c.401 0 .77.064 1.105.194.335.13.624.31.867.54.242.23.43.5.562.811.132.311.198.648.198 1.01v.015c0 .362-.066.7-.198 1.013zM252.432 18.054L252.432 12.913 256.303 12.913 256.303 13.919 253.548 13.919 253.548 14.962 255.972 14.962 255.972 15.969 253.548 15.969 253.548 17.048 256.339 17.048 256.339 18.054zM174.703 26.868L175.834 26.868 175.834 21.727 174.703 21.727zM180.807 26.868L178.317 23.6 178.317 26.868 177.2 26.868 177.2 21.727 178.244 21.727 180.652 24.893 180.652 21.727 181.769 21.727 181.769 26.868zM186.734 26.868L184.244 23.6 184.244 26.868 183.128 26.868 183.128 21.727 184.171 21.727 186.58 24.893 186.58 21.727 187.696 21.727 187.696 26.868zM193.08 24.298c0-.22-.038-.429-.114-.625-.076-.195-.184-.367-.323-.514-.14-.147-.305-.263-.496-.349-.191-.085-.4-.128-.624-.128-.23 0-.44.042-.629.125-.188.083-.35.198-.484.345-.135.147-.24.317-.316.51-.076.194-.114.4-.114.621v.015c0 .22.038.428.114.624.076.196.184.367.323.514.14.147.304.263.492.349.189.086.398.129.628.129.225 0 .434-.042.625-.125.19-.083.353-.198.488-.346.135-.146.24-.317.316-.51.076-.193.114-.4.114-.62v-.015zm.976 1.032c-.137.32-.326.602-.569.844-.242.243-.531.434-.866.573-.336.14-.702.21-1.098.21-.397 0-.762-.07-1.095-.21-.333-.14-.62-.328-.863-.565-.242-.238-.43-.517-.565-.838-.135-.32-.202-.664-.202-1.031v-.015c0-.367.068-.711.206-1.032.136-.32.326-.602.568-.845.243-.242.532-.433.867-.573.336-.14.702-.21 1.098-.21.397 0 .762.07 1.094.21.334.14.621.328.863.566.243.237.431.516.566.837.135.32.202.665.202 1.032v.015c0 .367-.069.711-.206 1.032zM197.715 26.905L196.716 26.905 194.637 21.727 195.886 21.727 197.23 25.348 198.574 21.727 199.794 21.727zM202.011 23.05l-.683 1.666h1.366l-.683-1.667zm1.557 3.818l-.47-1.153h-2.174l-.47 1.153h-1.153l2.203-5.178h1.043l2.204 5.178h-1.183zM209.422 26.42c-.142.113-.297.21-.467.29-.168.081-.353.143-.554.184-.2.042-.426.063-.676.063-.377 0-.727-.07-1.05-.206-.324-.137-.602-.324-.837-.562-.235-.237-.42-.518-.551-.841-.132-.323-.198-.668-.198-1.036v-.014c0-.367.066-.711.198-1.032.132-.32.316-.603.55-.845.236-.242.517-.433.845-.573.328-.14.69-.21 1.087-.21.24 0 .46.02.657.06.199.039.379.093.54.161.162.069.311.152.449.25.136.098.264.206.382.323l-.72.83c-.201-.18-.406-.323-.614-.426-.208-.103-.442-.154-.701-.154-.216 0-.415.042-.599.125-.183.083-.341.198-.474.345-.132.147-.234.317-.308.51-.073.194-.11.4-.11.621v.015c0 .22.037.428.11.624.074.196.175.367.305.514.13.147.286.263.47.35.184.085.385.128.606.128.294 0 .542-.054.745-.162.204-.108.406-.255.606-.44l.72.726c-.132.143-.27.27-.411.382M210.788 26.868L211.919 26.868 211.919 21.727 210.788 21.727zM215.364 21.323l.83-1.3.962.419-.94.881h-.852zm1.946 2.975c0-.22-.038-.429-.114-.625-.076-.195-.183-.367-.323-.514-.14-.146-.305-.263-.496-.349-.19-.085-.4-.128-.624-.128-.23 0-.44.042-.628.125-.189.083-.35.198-.485.345-.135.147-.24.317-.316.51-.076.194-.113.4-.113.621v.015c0 .22.037.428.113.624.076.196.184.367.323.514.14.147.304.264.492.35.189.085.398.128.628.128.226 0 .434-.042.625-.125.19-.084.353-.199.488-.346.135-.146.24-.316.316-.51.076-.193.114-.4.114-.62v-.015zm.977 1.032c-.137.32-.327.602-.57.844-.242.243-.53.434-.866.573-.336.14-.701.21-1.098.21-.397 0-.761-.07-1.095-.21-.332-.14-.62-.328-.862-.565-.243-.238-.431-.517-.566-.838-.135-.32-.202-.664-.202-1.032v-.014c0-.367.069-.711.206-1.032.137-.32.326-.603.569-.845.242-.242.53-.433.867-.573.335-.14.7-.21 1.097-.21s.762.07 1.095.21c.333.14.62.328.863.566.242.237.43.517.566.837.134.321.202.665.202 1.032v.015c0 .367-.07.71-.206 1.032zM223.186 26.868L220.696 23.6 220.696 26.868 219.579 26.868 219.579 21.727 220.623 21.727 223.031 24.893 223.031 21.727 224.148 21.727 224.148 26.868zM230.582 23.527c0-.255-.082-.449-.246-.58-.164-.133-.388-.199-.672-.199h-.874v1.572h.896c.284 0 .504-.075.66-.224.157-.15.236-.335.236-.555v-.014zm.984.778c-.108.225-.256.414-.444.566-.189.151-.41.265-.662.341-.252.076-.522.114-.811.114h-.86v1.542h-1.13v-5.14h2.1c.309 0 .584.042.827.127.242.086.448.207.617.364.168.157.298.344.389.562.09.218.136.46.136.723v.015c0 .299-.054.561-.162.786zM234.298 21.36l.83-1.3.962.418-.94.882h-.852zm2.59 4.289c-.106.29-.257.53-.452.724-.197.193-.434.338-.713.433-.279.096-.59.143-.932.143-.691 0-1.235-.19-1.631-.573-.397-.382-.595-.952-.595-1.711v-2.938h1.131v2.909c0 .42.098.738.294.95.195.214.467.32.815.32.348 0 .62-.103.815-.308.196-.206.294-.514.294-.926v-2.945h1.131v2.901c0 .392-.053.732-.158 1.021zM241.592 25.304c0-.171-.066-.307-.199-.408-.132-.1-.345-.15-.639-.15h-1.307v1.13h1.344c.25 0 .445-.044.588-.135.142-.09.213-.231.213-.422v-.015zm-.287-2.057c0-.171-.064-.302-.19-.393-.128-.09-.312-.135-.552-.135h-1.116v1.087h1.043c.25 0 .448-.043.595-.129.147-.085.22-.224.22-.415v-.015zm1.267 2.828c-.09.176-.22.323-.388.441-.169.117-.372.205-.61.264-.236.06-.499.088-.787.088h-2.442v-5.141h2.383c.528 0 .942.12 1.242.36.301.24.452.563.452.97v.014c0 .147-.019.277-.055.39-.037.112-.085.214-.146.304-.06.09-.131.17-.212.239-.08.069-.167.127-.259.176.297.113.531.266.702.46.17.193.256.46.256.804v.014c0 .235-.045.441-.136.617zM243.795 26.868L243.795 21.727 244.926 21.727 244.926 25.847 247.489 25.847 247.489 26.868zM248.385 26.868L249.516 26.868 249.516 21.727 248.385 21.727zM254.966 26.42c-.142.113-.297.21-.466.29-.17.081-.354.143-.555.184-.2.042-.426.063-.675.063-.378 0-.728-.07-1.05-.206-.324-.137-.603-.324-.838-.562-.235-.237-.419-.518-.551-.841-.132-.323-.198-.668-.198-1.036v-.014c0-.367.066-.711.198-1.032.132-.32.316-.603.551-.845.235-.242.516-.433.845-.573.328-.14.69-.21 1.087-.21.24 0 .459.02.657.06.198.039.378.093.54.161.161.069.31.152.448.25.137.098.264.206.382.323l-.72.83c-.2-.18-.405-.323-.614-.426-.208-.103-.441-.154-.701-.154-.215 0-.415.042-.598.125-.184.083-.342.198-.474.345-.132.147-.235.317-.308.51-.074.194-.111.4-.111.621v.015c0 .22.037.428.11.624.074.196.175.367.305.514.13.147.287.263.47.35.184.085.386.128.606.128.294 0 .542-.054.746-.162.203-.108.405-.255.606-.44l.72.726c-.133.143-.27.27-.412.382M258.609 23.05l-.683 1.666h1.366l-.683-1.667zm1.557 3.818l-.47-1.153h-2.174l-.47 1.153H255.9l2.203-5.178h1.043l2.204 5.178h-1.183zM166.294 34.53L166.726 34.53 166.726 5.256 166.294 5.256zM52.793 22.024c.208.317.495.46.9.47.551.014.903-.527.903-.527l9.131-11.699c.754-.786 1.498-.15 1.498-.15.721.753.183 1.443.183 1.443l-2.042 2.613v.014c-.175.18-.284.426-.284.698 0 .249.091.476.24.652v.004l2.055 2.604 6.472-8.232-2.586-3.296-.477-.621c-.42-.604-1.358-.744-1.358-.744h-3.875c-1.028 0-1.588.711-1.588.711L51.112 19.891l1.681 2.133zM52.333 14.885l-2.596-3.33c-.529-.85.242-1.459.242-1.459.97-.566 1.532.307 1.532.307l2.148 2.758 2.543-3.275-2.932-3.771c-.7-1.002-1.766-.862-1.766-.862h-3.502c-1.12 0-1.602.697-1.602.697l-3.095 3.929 6.471 8.267 2.557-3.261z" mask="url(#prefix__b)"/>
            <path fill="#FFF" d="M62.34 17.723s-.299-.462-.875-.454c-.599.01-.84.408-.84.408L51.4 29.523c-.747.822-1.552.162-1.552.162-.722-.755-.13-1.455-.13-1.455l2.07-2.657v-.014c.175-.18.283-.426.283-.698 0-.249-.09-.476-.24-.652v-.004l-2.055-2.604-6.493 8.324 3.62 4.583 5.689.015 11.442-14.634-1.695-2.166zM62.816 24.861l2.618 3.37c.604.835-.157 1.454-.157 1.454-1.006.675-1.62-.334-1.62-.334l-2.191-2.783-2.543 3.275 3.667 4.694 5.646-.015 3.62-4.64-6.486-8.285-2.554 3.264zM71.808 21.298c-.762 0-1.38-.625-1.38-1.393s.618-1.393 1.38-1.393c.76 0 1.38.625 1.38 1.393s-.62 1.393-1.38 1.393m0-3.984c-1.448 0-2.626 1.162-2.626 2.591 0 1.429 1.178 2.591 2.626 2.591s2.625-1.162 2.625-2.59c0-1.43-1.177-2.592-2.625-2.592M57.56 1.273c.762 0 1.382.625 1.382 1.393 0 .769-.62 1.394-1.381 1.394s-1.381-.625-1.381-1.394c0-.768.62-1.393 1.38-1.393m0 3.985c1.449 0 2.626-1.163 2.626-2.592 0-1.428-1.177-2.591-2.625-2.591s-2.625 1.163-2.625 2.591c0 1.43 1.177 2.592 2.625 2.592M41.895 19.895c0-.768.62-1.393 1.381-1.393.762 0 1.38.625 1.38 1.393 0 .769-.618 1.393-1.38 1.393-.761 0-1.38-.624-1.38-1.393m4.006 0c0-1.428-1.179-2.591-2.626-2.591-1.447 0-2.625 1.163-2.625 2.59 0 1.43 1.178 2.592 2.625 2.592s2.626-1.163 2.626-2.591M57.564 38.522c-.761 0-1.38-.625-1.38-1.393 0-.769.619-1.393 1.38-1.393.761 0 1.381.624 1.381 1.393 0 .768-.62 1.393-1.38 1.393m0-3.984c-1.448 0-2.625 1.163-2.625 2.591 0 1.429 1.177 2.591 2.624 2.591 1.448 0 2.626-1.162 2.626-2.59 0-1.43-1.178-2.592-2.626-2.592M30.16 2.65H0v20.113C0 33.803 15.073 37.13 15.073 37.13h.014s15.074-3.327 15.074-14.366V2.65zm-.733.734v19.38c0 2.347-.74 4.515-2.196 6.443-1.186 1.57-2.851 2.993-4.948 4.228-3.211 1.89-6.472 2.76-7.203 2.94-.729-.178-3.964-1.04-7.172-2.922-2.105-1.236-3.777-2.66-4.968-4.232-1.464-1.93-2.207-4.103-2.207-6.458V3.384h28.694z" mask="url(#prefix__b)"/>
            <path fill="#FFF" d="M18.733 9.088V7.24h-1.9v1.724h-.742V7.241h-1.957v1.724h-.742V7.241h-1.93V9.09l.942 1.62c.032.057.05.121.05.186l.007 8.459h.914l-.009-3.038c0-.717.815-1.368 1.71-1.368.894 0 1.71.65 1.71 1.367l.01 3.039h.936l-.003-3.208-.002-.045v-1.59V12.82l-.002-1.923c0-.066.018-.132.051-.19l.957-1.618zM11.72 19.55l-.003-2.802-.338.202c-.124.075-.28.07-.4-.011l-.407-.279c.001.012.002.024.001.036l-.013 1.08c-.002.114-.056.219-.143.287.042.014.082.035.118.064.494.395.53.962.424 1.423h.76z" mask="url(#prefix__b)"/>
            <path fill="#FFF" d="M15.076 15.69c-.57 0-.969.405-.969.625l.01 3.039h1.936l-.009-3.038c0-.22-.4-.627-.968-.627" mask="url(#prefix__b)"/>
            <path fill="#FFF" d="M3.77 19.55c-.106-.233-.185-.517-.238-.852-.093-.585-.074-1.123-.073-1.146.005-.158.11-.294.26-.34l.812-.251-.916-.648c-.098-.07-.156-.183-.156-.303v-1.027c0-.139.076-.266.199-.33l.357-.186v-.35l-.325-.131c-.14-.057-.232-.193-.232-.343l-.001-1.236c0-.204.164-.37.367-.371l1.145-.011c-.02-.303-.026-.717.047-1.06.1-.464.363-.966.489-1.19l-.06-.43c-.016-.106.016-.214.086-.295.07-.081.173-.127.28-.127h.618c.07 0 .138.02.198.057l1.509.956h.693c.102 0 .198.042.268.115.07.073.108.172.103.273l-.053 1.189c-.004.1-.048.192-.12.257l.46.001c.102 0 .198.042.267.114l.21.218.16-.121.268-.565c.062-.13.192-.212.336-.212h.984v-.21l-.942-1.619c-.034-.057-.05-.12-.05-.186V6.87c0-.205.165-.37.37-.37h8.013c.206 0 .372.165.372.37v2.32c0 .066-.018.131-.052.189l-.956 1.618v.208h.976c.144 0 .274.083.336.212l.268.565.159.121.21-.218c.07-.072.166-.113.266-.114h.462c-.072-.066-.116-.158-.121-.258l-.053-1.19c-.004-.1.034-.199.103-.272.07-.073.167-.115.268-.115h.694l1.509-.956c.059-.038.127-.057.198-.057h.618c.107 0 .21.046.28.127.07.081.102.189.086.296l-.06.428c.126.225.389.727.488 1.191.074.343.068.757.048 1.06l1.145.01c.203.003.368.168.368.372l-.002 1.236c0 .15-.092.286-.232.343l-.325.132v.35l.357.185c.122.064.2.191.2.33v1.027c0 .12-.059.233-.157.303l-.916.648.81.25c.152.047.256.183.262.34.001.024.02.562-.073 1.147-.053.335-.133.619-.238.852h1.35l.016.003V5.217H2.427V19.55H3.77z" mask="url(#prefix__b)"/>
            <path fill="#FFF" d="M19.636 18.126c.036-.028.076-.05.118-.063-.088-.068-.14-.174-.143-.287l-.014-1.08c0-.012 0-.024.002-.036l-.408.279c-.12.081-.275.087-.4.012l-.319-.192.003 2.791h.736c-.105-.46-.069-1.027.425-1.424M24.563 27.216c-.206 0-.372-.166-.372-.37V24.42c0-.18-.108-.403-.276-.569-.141-.139-.386-.305-.762-.297-.57.01-.91.45-.958.885v2.405c0 .099-.04.193-.108.263-.07.07-.164.108-.263.108H19.62c-.204 0-.37-.166-.37-.37V24.42c0-.18-.11-.403-.277-.569-.141-.139-.387-.305-.762-.297-.248.004-.471.095-.644.255l1.813 9.245c2.55-1.131 5.571-2.975 7.202-5.839h-2.018zM18.668 33.285L16.12 20.293h-2.068L11.507 33.29c-.003.018-.008.034-.014.052 1.768.725 3.204 1.095 3.604 1.22.407-.127 1.833-.494 3.59-1.213-.008-.02-.014-.042-.019-.064M12.61 23.798c-.171-.152-.39-.238-.63-.242h-.02c-.363 0-.603.161-.742.297-.168.166-.276.389-.276.57v2.424c0 .204-.167.37-.371.37H8.366c-.099 0-.193-.039-.262-.108-.07-.07-.11-.164-.11-.262V24.44c-.047-.436-.388-.876-.957-.885h-.02c-.362 0-.603.161-.742.297-.168.166-.276.389-.276.57v2.424c0 .204-.166.37-.371.37H3.617c1.627 2.855 4.637 4.697 7.182 5.829l1.81-9.248z" mask="url(#prefix__b)"/>
            <path fill="#FFF" d="M27.751 20.293H16.876l.534 2.724c.239-.128.507-.2.788-.204.489-.009.952.173 1.294.51.313.307.499.718.499 1.098v2.053h1.463v-2.053-.034c.083-.883.808-1.56 1.687-1.574.494-.009.952.173 1.294.51.312.307.499.718.499 1.098v2.053h2.026c.507-1.113.807-2.365.807-3.773v-2.41l-.016.002M5.257 26.475v-2.053c0-.38.186-.79.498-1.098.342-.337.804-.516 1.294-.51.88.015 1.605.691 1.686 1.574l.002.034v2.053h1.462v-2.053c0-.38.186-.79.499-1.098.342-.337.804-.516 1.294-.51.274.005.537.073.772.196l.532-2.717H2.426V22.7c0 1.408.302 2.661.81 3.774h2.02zM6.129 18.787h.601c.046.075.073.16.086.249 0 .05.004.1.008.15 0 .131-.024.26-.05.365H4.667c-.304-.208-.455-1.032-.469-1.71l.922-.285c.156-.048.262-.192.262-.355v-.356c0-.12-.059-.233-.157-.302L4.2 15.818v-.61l.357-.186c.122-.065.2-.191.2-.33v-.824c0-.151-.092-.288-.232-.344l-.326-.132v-.617l.972-.01.462.758.003 1.055-.318 1.002c-.036.113-.015.236.055.332.07.095.181.151.3.151h.28c.182 0 .336-.131.366-.311.027-.164.115-.637.198-.851.064-.166.328-.521.495-.72.117-.141.115-.346-.004-.483l-1.277-1.464c-.024-.22-.07-.743.01-1.114.086-.4.365-.913.465-1.077.045-.073.063-.16.05-.246l-.018-.133h.082l1.51.957c.058.037.127.057.197.057h.414l-.024.554-.487.176c-.148.054-.245.195-.245.35l.003.383c.001.203.167.368.37.368l1.27.004.331.344c.131.136.343.152.493.037 0 0 .578-.46.603-.513l.206-.434h.74v1.351s-1.353.464-1.465.52c-.088.043-.138.462-.122.563.015.101.01.141.155.25 0 0 .395.31.516.353l.393-.377.522.036-.001 1.25-.498.299-1.556-1.065c-.162-.11-.381-.077-.502.077l-.244.313c-.118.15-.101.367.039.499l.89.834-.009.678-.893.397c-.134.06-.22.193-.22.34v.15c0 .206.166.372.37.372h1.075c.185.23.113.556.035.764H7.71c-.085-.088-.128-.244-.145-.419-.002-.047-.004-.095-.01-.143-.006-.235.024-.479.056-.618l.577-.738c.047-.06.074-.134.078-.21l.017-.355c.006-.126-.053-.247-.157-.32-.104-.074-.237-.09-.354-.04l-.93.379c-.121.05-.208.16-.227.29l-.055.37-.54.163c-.156.047-.263.192-.263.355v.15c0 .206.165.372.37.372M24.042 18.787h-.601c-.047.075-.073.16-.085.249-.002.05-.005.1-.01.15.002.131.025.26.05.365h2.108c.304-.208.455-1.032.469-1.71l-.922-.285c-.156-.048-.262-.192-.262-.355v-.356c0-.12.059-.233.157-.302l1.025-.725v-.61l-.358-.186c-.122-.065-.2-.191-.2-.33v-.824c0-.151.092-.288.232-.344l.326-.132v-.617l-.972-.01-.462.758-.003 1.055.318 1.002c.035.113.015.236-.055.332-.07.095-.181.151-.3.151h-.28c-.182 0-.336-.131-.366-.311-.026-.164-.115-.637-.198-.851-.064-.166-.328-.521-.495-.72-.117-.141-.115-.346.005-.483l1.275-1.464c.025-.22.07-.743-.009-1.114-.086-.4-.365-.913-.465-1.077-.045-.073-.063-.16-.051-.246l.02-.133h-.083l-1.508.957c-.06.037-.129.057-.2.057h-.413l.025.554.486.176c.148.054.245.195.245.35l-.003.383c-.001.203-.167.368-.37.368l-1.27.004-.331.344c-.131.136-.343.152-.493.037 0 0-.578-.46-.603-.513l-.206-.434h-.74v1.351s1.354.464 1.465.52c.09.043.138.462.122.563-.015.101-.01.141-.156.25 0 0-.395.31-.514.353l-.394-.377-.522.036.001 1.25.498.299 1.557-1.065c.161-.11.38-.077.5.077l.245.313c.118.15.101.367-.04.499l-.89.834.01.678.893.397c.134.06.22.193.22.34v.15c0 .206-.166.372-.37.372h-1.075c-.185.23-.113.556-.035.764h2.476c.085-.088.128-.244.145-.419.002-.047.004-.095.01-.143.006-.235-.024-.479-.056-.618l-.576-.738c-.048-.06-.075-.134-.08-.21l-.016-.355c-.006-.126.053-.247.157-.32.104-.074.237-.09.354-.04l.93.379c.121.05.208.16.227.29l.055.37.54.163c.156.047.263.192.263.355v.15c0 .206-.166.372-.37.372M82.373 15.498v-.014c0-1.41 1.035-2.658 2.577-2.658.867 0 1.403.25 1.916.684l-.374.44c-.397-.346-.838-.588-1.564-.588-1.138 0-1.953.962-1.953 2.107v.015c0 1.226.785 2.136 2.033 2.136.588 0 1.132-.228 1.484-.514V15.83h-1.564v-.522h2.122v2.049c-.478.426-1.198.786-2.064.786-1.615 0-2.613-1.175-2.613-2.644M93.59 15.498v-.014c0-1.167-.852-2.122-2.026-2.122-1.175 0-2.013.94-2.013 2.107v.015c0 1.167.852 2.122 2.027 2.122 1.174 0 2.012-.94 2.012-2.108m-4.64 0v-.014c0-1.417 1.064-2.658 2.628-2.658 1.563 0 2.614 1.226 2.614 2.643v.015c0 1.417-1.065 2.658-2.628 2.658-1.565 0-2.615-1.227-2.615-2.644M98.464 15.719h-1.623v1.813h1.726c.778 0 1.263-.345 1.263-.917v-.016c0-.557-.47-.88-1.366-.88zm1.079-1.447c0-.506-.404-.837-1.138-.837h-1.564v1.77h1.52c.698 0 1.182-.316 1.182-.918v-.015zm-3.274-1.358h2.187c.587 0 1.05.17 1.344.455.213.221.33.492.33.823v.014c0 .668-.41 1.013-.814 1.19.61.184 1.1.536 1.1 1.24v.015c0 .881-.74 1.402-1.864 1.402h-2.283v-5.14zM102.49 18.053L103.07 18.053 103.07 12.914 102.49 12.914zM105.418 12.914L109.132 12.914 109.132 13.443 105.997 13.443 105.997 15.198 108.803 15.198 108.803 15.727 105.997 15.727 105.997 17.525 109.17 17.525 109.17 18.053 105.418 18.053zM113.252 15.535c.77 0 1.321-.396 1.321-1.057v-.015c0-.63-.484-1.013-1.314-1.013h-1.586v2.085h1.579zm-2.158-2.62h2.21c.63 0 1.137.19 1.46.513.25.25.397.61.397 1.014v.014c0 .851-.588 1.35-1.395 1.498l1.578 2.1h-.712l-1.49-1.998h-1.469v1.997h-.579v-5.139zM117.251 12.914L117.794 12.914 121.032 17.033 121.032 12.914 121.597 12.914 121.597 18.053 121.135 18.053 117.816 13.84 117.816 18.053 117.251 18.053zM128.313 15.498v-.014c0-1.167-.851-2.122-2.026-2.122-1.175 0-2.012.94-2.012 2.107v.015c0 1.167.851 2.122 2.027 2.122 1.174 0 2.011-.94 2.011-2.108m-4.64 0v-.014c0-1.417 1.065-2.658 2.629-2.658 1.563 0 2.613 1.226 2.613 2.643v.015c0 1.417-1.065 2.658-2.628 2.658-1.564 0-2.614-1.227-2.614-2.644M134.246 13.45v4.067h1.204c1.3 0 2.128-.88 2.128-2.019v-.014c0-1.138-.829-2.034-2.128-2.034h-1.204zm-.58-.536h1.784c1.615 0 2.73 1.109 2.73 2.555v.015c0 1.446-1.115 2.57-2.73 2.57h-1.784v-5.14zM140.023 12.914L143.738 12.914 143.738 13.443 140.603 13.443 140.603 15.198 143.408 15.198 143.408 15.727 140.603 15.727 140.603 17.525 143.775 17.525 143.775 18.053 140.023 18.053zM148.393 12.914L148.973 12.914 148.973 17.518 151.866 17.518 151.866 18.053 148.393 18.053zM156.859 16.167l-1.169-2.614-1.174 2.614h2.343zm-1.432-3.29h.543l2.342 5.176h-.624l-.602-1.358h-2.797l-.61 1.358h-.594l2.342-5.175zM82.263 24.309v-.014c0-1.461 1.101-2.658 2.68-2.658.969 0 1.548.323 2.026.793l-.72.83c-.396-.36-.8-.58-1.313-.58-.868 0-1.49.72-1.49 1.6v.015c0 .88.608 1.615 1.49 1.615.586 0 .947-.235 1.35-.602l.72.727c-.53.565-1.116.917-2.108.917-1.512 0-2.635-1.167-2.635-2.643M87.938 26.864L89.069 26.864 89.069 21.725 87.938 21.725zM90.374 24.662v-2.937h1.13v2.907c0 .837.419 1.27 1.109 1.27s1.108-.418 1.108-1.232v-2.945h1.131v2.9c0 1.557-.873 2.32-2.254 2.32-1.38 0-2.224-.771-2.224-2.283M98.142 25.844c.926 0 1.55-.624 1.55-1.535v-.015c0-.91-.624-1.549-1.55-1.549h-.873v3.099h.873zm-2.004-4.119h2.004c1.615 0 2.731 1.109 2.731 2.555v.014c0 1.447-1.116 2.57-2.73 2.57h-2.005v-5.139zM104.568 24.713l-.683-1.666-.684 1.666h1.367zm-1.19-3.025h1.043l2.202 5.176h-1.182l-.47-1.152h-2.173l-.47 1.152h-1.153l2.203-5.176zM109.445 25.844c.926 0 1.55-.624 1.55-1.535v-.015c0-.91-.624-1.549-1.55-1.549h-.873v3.099h.873zm-2.004-4.119h2.004c1.615 0 2.732 1.109 2.732 2.555v.014c0 1.447-1.117 2.57-2.732 2.57h-2.004v-5.139zM117.463 25.844c.925 0 1.549-.624 1.549-1.535v-.015c0-.91-.624-1.549-1.55-1.549h-.873v3.099h.874zm-2.005-4.119h2.005c1.615 0 2.731 1.109 2.731 2.555v.014c0 1.447-1.116 2.57-2.731 2.57h-2.005v-5.139zM121.267 21.725L125.143 21.725 125.143 22.731 122.39 22.731 122.39 23.774 124.812 23.774 124.812 24.779 122.39 24.779 122.39 25.858 125.18 25.858 125.18 26.864 121.267 26.864zM128.462 21.725L129.68 21.725 131.031 23.899 132.382 21.725 133.6 21.725 133.6 26.864 132.478 26.864 132.478 23.509 131.031 25.704 131.002 25.704 129.57 23.531 129.57 26.864 128.462 26.864zM137.1 20.022l.961.419-.939.88h-.852l.83-1.3zm-2.152 1.703h3.877v1.006h-2.753v1.042h2.422v1.006h-2.422v1.08h2.79v1.005h-3.914v-5.139zM141.38 24.251L139.663 21.725 140.983 21.725 142.062 23.392 143.15 21.725 144.434 21.725 142.716 24.236 144.508 26.864 143.187 26.864 142.033 25.102 140.874 26.864 139.588 26.864zM145.374 26.864L146.505 26.864 146.505 21.725 145.374 21.725zM147.599 24.309v-.014c0-1.461 1.101-2.658 2.68-2.658.968 0 1.549.323 2.026.793l-.72.83c-.397-.36-.8-.58-1.314-.58-.866 0-1.49.72-1.49 1.6v.015c0 .88.609 1.615 1.49 1.615.587 0 .947-.235 1.35-.602l.72.727c-.529.565-1.116.917-2.107.917-1.512 0-2.635-1.167-2.635-2.643M157.155 24.309v-.014c0-.882-.647-1.616-1.556-1.616-.91 0-1.542.72-1.542 1.601v.015c0 .88.646 1.615 1.556 1.615s1.542-.719 1.542-1.601m-4.28 0v-.014c0-1.461 1.152-2.658 2.738-2.658s2.724 1.182 2.724 2.643v.015c0 1.461-1.153 2.657-2.738 2.657-1.586 0-2.725-1.182-2.725-2.643" mask="url(#prefix__b)"/>
        </g>
    </g>
</svg>
