<svg xmlns="http://www.w3.org/2000/svg" width="24" height="24" viewBox="0 0 24 24">
  <g id="Group_793" data-name="Group 793" transform="translate(-1814 -749)">
    <path id="round-warning-24px" d="M4.358,20.052h14.22a1.888,1.888,0,0,0,1.634-2.833L13.1,4.934a1.888,1.888,0,0,0-3.267,0L2.725,17.219a1.888,1.888,0,0,0,1.634,2.833Zm7.11-6.61a.947.947,0,0,1-.944-.944V10.609a.944.944,0,1,1,1.888,0V12.5A.947.947,0,0,1,11.469,13.442Zm.944,3.777H10.524V15.331h1.888Z" transform="translate(1814.531 749.008)" fill="#ff6565"/>
    <rect id="Rectangle_762" data-name="Rectangle 762" width="24" height="24" transform="translate(1814 749)" fill="none"/>
  </g>
</svg>
