<?xml version="1.0" encoding="UTF-8"?>
<svg xmlns="http://www.w3.org/2000/svg" xmlns:xlink="http://www.w3.org/1999/xlink" viewBox="0 0 16 16" width="16px" height="16px">
<g id="surface66580597">
<path style=" stroke:none;fill-rule:nonzero;fill:rgb(54.509807%,7.058824%,19.607843%);fill-opacity:1;" d="M 8 15.5 C 3.863281 15.5 0.5 12.136719 0.5 8 C 0.5 3.863281 3.863281 0.5 8 0.5 C 12.136719 0.5 15.5 3.863281 15.5 8 C 15.5 12.136719 12.136719 15.5 8 15.5 Z M 8 15.5 "/>
<path style=" stroke:none;fill-rule:nonzero;fill:rgb(0%,0%,0%);fill-opacity:1;" d="M 8 0.601562 C 12.082031 0.601562 15.398438 3.917969 15.398438 8 C 15.398438 12.082031 12.082031 15.398438 8 15.398438 C 3.917969 15.398438 0.601562 12.082031 0.601562 8 C 0.601562 3.917969 3.917969 0.601562 8 0.601562 M 8 0.398438 C 3.800781 0.398438 0.398438 3.800781 0.398438 8 C 0.398438 12.199219 3.800781 15.601562 8 15.601562 C 12.199219 15.601562 15.601562 12.199219 15.601562 8 C 15.601562 3.800781 12.199219 0.398438 8 0.398438 Z M 8 0.398438 "/>
<path style=" stroke:none;fill-rule:nonzero;fill:rgb(100%,100%,100%);fill-opacity:1;" d="M 4 7.199219 L 12 7.199219 L 12 8.800781 L 4 8.800781 Z M 4 7.199219 "/>
<path style=" stroke:none;fill-rule:nonzero;fill:rgb(100%,100%,100%);fill-opacity:1;" d="M 8.800781 4 L 8.800781 12 L 7.199219 12 L 7.199219 4 Z M 8.800781 4 "/>
</g>
</svg>
