<svg width="68" height="68" viewBox="0 0 68 68" fill="none" xmlns="http://www.w3.org/2000/svg">
<path d="M45.4941 36.7381C46.7981 36.4773 48.6768 36.1006 50.5555 35.7384C50.937 35.666 51.4296 35.3375 51.6615 35.8398C51.7291 35.9895 51.2751 36.4483 50.9902 36.6753C50.1064 37.3756 49.5703 38.2063 49.6282 39.3944C49.6862 40.6162 49.0777 41.4083 48.0103 42.0506C46.0302 43.2435 44.0839 44.5137 42.239 45.9094C40.964 46.8705 39.945 48.1552 39.6697 49.8117C39.5731 50.4009 39.7035 51.0336 39.7663 51.6421C39.8001 51.9705 39.9064 52.2892 39.9691 52.6128C40.1671 53.6802 40.0174 53.825 38.9936 53.5449C37.7765 53.2165 36.4774 54.2307 36.6754 55.4043C36.7382 55.7907 36.9796 56.206 37.2598 56.4813C37.8055 57.0222 38.4382 57.4762 39.0274 57.9785C39.3606 58.2634 39.8098 58.5918 39.4958 59.0748C39.2012 59.5336 38.6845 59.4708 38.245 59.239C35.8012 57.9302 33.8791 56.1915 33.6086 53.2213C33.3913 50.8017 33.2174 48.3773 33.0725 45.9529C32.8745 42.7316 32.72 39.5103 32.551 36.2841C32.4544 34.3861 32.3529 32.4881 32.2757 30.5853C32.1646 27.9097 32.0728 25.239 31.9666 22.5634C31.9183 21.2787 32.1115 20.8151 33.3092 20.4529C34.5407 20.081 35.8399 19.9168 37.11 19.6946C37.3177 19.6608 37.5544 19.8009 37.7765 19.8637C37.6993 20.1052 37.6799 20.3901 37.535 20.5785C37.1921 21.0373 36.7961 21.4623 36.4049 21.8824C34.0819 24.3841 34.2703 29.035 35.9558 31.3628C36.4725 32.0776 36.97 32.8165 37.5447 33.4878C39.4717 35.7432 42.0217 36.6029 45.4941 36.7285V36.7381Z" fill="#818181"/>
<path d="M10.4172 51.4877C9.57686 51.4877 8.73652 51.4877 7.90101 51.4877C6.30726 51.4877 5.16266 50.686 4.37545 49.3771C3.29363 47.5709 3.00385 45.5763 3.16323 43.5044C3.33226 41.3166 3.8442 39.2303 4.89704 37.2936C5.85812 35.5212 7.37942 34.4394 9.31124 34.111C10.5573 33.8985 11.8661 34.0289 13.1459 34.0289C14.87 34.0289 16.5942 34.0337 18.3135 34.0675C18.8592 34.0771 19.4146 34.1351 19.9556 34.2414C21.5783 34.5698 22.3558 35.497 22.4476 37.3661C22.6166 40.9013 22.7519 44.4365 22.8533 47.9717C22.9016 49.7345 22.3848 50.3962 20.622 50.6763C18.6902 50.9806 16.7343 51.1592 14.7831 51.3283C13.3343 51.4538 11.8757 51.478 10.422 51.5456V51.4925L10.4172 51.4877ZM13.0735 47.9331C13.5516 47.8655 14.0394 47.8414 14.5078 47.7303C17.2027 47.0928 18.9558 44.4655 18.4101 41.9686C17.5601 38.1002 12.745 36.7189 9.71209 38.9743C8.26323 40.0513 7.46152 41.5195 7.703 43.3306C8.08454 46.1607 10.1902 47.88 13.0735 47.9331Z" fill="#818181"/>
<path d="M13.7932 64.8027C12.4554 64.8123 11.1321 64.6819 10.1517 63.6919C9.56252 63.0978 9.04093 62.3396 8.75598 61.562C8.1378 59.862 7.63553 58.1186 7.18638 56.3654C6.79519 54.8538 7.35059 54.2211 8.88638 54.1149C12.3154 53.8734 15.7395 53.5933 19.1685 53.3518C20.3759 53.2649 21.5881 53.2359 22.8003 53.1779C23.4716 53.149 23.998 53.4484 24.2443 54.0376C24.9494 55.7279 25.6932 57.4086 26.2293 59.1569C26.6591 60.5478 25.9975 61.6924 24.6742 62.2913C21.8344 63.576 18.8546 64.3245 15.7588 64.6336C15.102 64.6964 14.4452 64.7495 13.7835 64.8123L13.7932 64.8027Z" fill="#818181"/>
<path d="M3.68465 8.3838C3.64601 6.40852 4.32698 5.43295 6.28295 5.06107C9.33039 4.48153 12.3923 3.9696 15.4639 3.50113C18.6418 3.01817 21.8244 2.59317 25.0168 2.20681C27.0693 1.95567 29.1364 1.78664 31.1986 1.64175C32.604 1.54033 34.019 1.54033 35.4293 1.5017C35.6273 1.49687 35.8301 1.49204 36.0233 1.52102C37.4673 1.70937 38.0179 2.67528 37.477 4.04687C37.2741 4.5588 36.8829 4.77613 36.3758 4.88238C33.7244 5.43295 31.0682 5.97386 28.4216 6.55823C21.8389 8.01192 15.2611 9.47528 8.68323 10.9531C7.7801 11.156 6.90113 11.4602 6.00283 11.6679C4.89687 11.919 4.12897 11.4071 3.9213 10.2963C3.80539 9.66846 3.76192 9.02613 3.68948 8.39346L3.68465 8.3838Z" fill="#818181"/>
<path d="M6.40911 20.9403C5.54463 20.8148 5.14377 20.5733 4.96025 19.7812C4.76707 18.9457 4.61252 18.0909 4.5594 17.2361C4.48213 15.9611 4.95059 15.2511 6.18696 14.8116C7.70343 14.2707 9.2344 13.754 10.7895 13.3483C18.9804 11.2185 27.181 9.11277 35.3864 7.03607C36.0046 6.88152 36.7 6.86704 37.3327 6.96363C38.1102 7.07954 38.458 7.66874 38.5014 8.58635C38.5352 9.3784 38.2648 9.87584 37.5307 10.1318C34.7006 11.1267 31.856 12.0878 29.021 13.0682C22.3708 15.3719 15.7205 17.6756 9.07019 19.9793C8.18156 20.2883 7.29775 20.6168 6.41394 20.9355L6.40911 20.9403Z" fill="#818181"/>
<path d="M60.2009 41.8824C58.0035 41.7133 55.8061 41.5588 53.6086 41.356C53.116 41.3125 52.6234 41.1241 52.1549 40.9358C51.6816 40.7426 51.5126 40.3514 51.7009 39.8491C51.7541 39.7042 51.8072 39.5594 51.8651 39.4145C52.6041 37.5599 52.6668 37.5358 54.6808 37.4923C55.0575 37.4827 55.666 37.3233 55.7481 37.0866C55.8737 36.7196 55.6418 36.227 55.5501 35.7923C55.5404 35.7344 55.4825 35.6764 55.4342 35.6329C54.4634 34.7636 54.589 33.7639 55.1009 32.7352C56.0813 30.7792 56.5257 28.6881 56.5063 26.5244C56.487 24.2835 55.5404 22.429 53.8597 20.9511C53.4444 20.5889 53.0049 20.2508 52.633 19.8452C52.4785 19.6761 52.4061 19.3525 52.4495 19.1304C52.4737 19.0193 52.8504 18.9131 53.0629 18.9179C55.2458 18.9855 57.4288 19.0531 59.6069 19.1883C60.0609 19.2173 60.5583 19.4346 60.9302 19.7051C62.2776 20.6807 62.8186 22.6173 62.2776 24.1917C61.5725 26.2395 60.8529 28.2775 60.2058 30.3446C59.9015 31.3153 60.0561 32.2909 60.7129 33.1071C61.5918 34.1889 62.5433 35.2079 63.3836 36.3187C63.6927 36.7244 63.8617 37.2943 63.939 37.8111C64.0597 38.5741 64.0694 39.3517 64.0742 40.1292C64.0791 41.1 63.4367 41.7375 62.4563 41.7616C61.7078 41.781 60.9543 41.7616 60.2009 41.7616L60.1913 41.8775L60.2009 41.8824Z" fill="#818181"/>
<path d="M45.968 35.0233C43.0124 34.975 40.6169 34.1926 38.8396 32.0435C35.9612 28.5613 36.6567 21.2687 43.4422 19.8537C46.3109 19.2548 49.0783 19.5301 51.5172 21.3219C53.2751 22.6162 54.0913 24.4321 54.2942 26.6006C54.7047 30.9954 51.2999 34.1636 47.6149 34.8446C46.9919 34.9605 46.3496 34.9798 45.9632 35.0233H45.968ZM50.5658 27.4361C50.5658 24.6687 48.378 22.5775 45.4609 22.5582C42.7661 22.5389 40.4189 24.7412 40.3803 27.3153C40.3416 29.9233 42.7129 32.1352 45.5334 32.1256C48.5857 32.1111 50.5658 30.271 50.5658 27.4361Z" fill="#818181"/>
<path d="M10.0507 26.9436C10.1232 26.1081 10.1473 25.2677 10.2777 24.4467C10.3936 23.7223 10.7752 23.08 11.4465 22.7564C14.3056 21.38 17.1695 19.9987 20.2797 19.2646C21.1394 19.0618 21.7093 19.4288 21.8928 20.2788C21.9845 20.7086 22.028 21.1481 22.0521 21.5876C22.1874 23.9444 22.284 26.3061 22.4482 28.6629C22.5593 30.3001 21.9749 31.0922 20.1831 31.2371C17.6573 31.4399 15.1266 31.5655 12.5959 31.6524C11.007 31.7103 10.4081 31.1115 10.2439 29.5226C10.2004 29.0831 10.1473 28.6436 10.1232 28.2041C10.1039 27.7839 10.1232 27.3638 10.1232 26.9436H10.0459H10.0507Z" fill="#818181"/>
<path d="M63.3495 48.8754C62.0697 48.6291 60.9734 48.3828 59.8626 48.2137C57.7038 47.8853 55.545 47.5762 53.3475 47.8612C52.0967 48.0254 51.1211 48.6725 50.1938 49.4308C49.0637 50.3532 47.9771 51.3288 46.8663 52.2754C46.6296 52.4734 46.3688 52.6424 46.108 52.8066C45.3788 53.2751 44.5674 53.6808 43.7609 53.1592C42.8288 52.5555 42.1044 51.7152 42.2251 50.4836C42.2637 50.0876 42.4183 49.6336 42.6742 49.3438C44.1955 47.6052 45.8811 46.0646 47.9046 44.9007C49.4211 44.0313 51.0777 43.8575 52.7535 43.7657C56.168 43.587 59.5342 43.9782 62.8714 44.6833C62.9776 44.7075 63.0839 44.7413 63.1901 44.7703C65.349 45.3063 65.1509 46.7794 64.2865 48.3683C64.1271 48.6581 63.6007 48.7498 63.3543 48.8802L63.3495 48.8754Z" fill="#818181"/>
<path d="M30.4598 41.9882C30.793 44.8135 29.378 46.924 27.6538 48.9041C27.4317 49.1601 27.0453 49.276 26.7362 49.4595C26.5913 49.1311 26.3547 48.8124 26.3209 48.4743C26.1905 47.0689 26.1084 45.6587 26.0359 44.2436C25.8959 41.6163 25.7558 38.9939 25.6544 36.3666C25.5916 34.8356 25.8717 33.3723 26.8087 32.1021C27.2916 31.4453 27.7504 30.7595 28.2962 30.1558C28.5135 29.9143 28.9385 29.726 29.2524 29.7501C29.4408 29.7646 29.6967 30.2138 29.7498 30.4987C29.9237 31.4984 30.0831 32.503 30.1314 33.5124C30.2231 35.391 30.228 37.2697 30.2859 39.1484C30.3149 40.095 30.397 41.0416 30.455 41.993L30.4598 41.9882Z" fill="#818181"/>
<path d="M32.1307 15.5804C32.1307 15.45 32.1307 15.3148 32.1307 15.1844C32.15 13.6582 32.2321 13.5085 33.7051 13.1511C36.2069 12.5426 38.7086 11.9196 41.3068 11.8713C42.4804 11.8471 42.8137 12.19 42.7895 13.3636C42.775 14.0687 42.6929 14.769 42.6205 15.4741C42.5336 16.271 42.0603 16.7781 41.2972 16.9423C39.7711 17.2707 38.2401 17.5895 36.7043 17.8358C35.6853 18 34.6517 18.0773 33.6182 18.1159C32.464 18.1594 32.1114 17.7875 32.0824 16.6381C32.0728 16.2855 32.0824 15.9329 32.0824 15.5756H32.1307V15.5804Z" fill="#818181"/>
<path d="M29.3683 20.6126C29.3683 21.9166 29.3973 23.2254 29.349 24.5294C29.3345 24.9544 29.2138 25.4373 28.9772 25.7754C28.161 26.9248 27.282 28.0356 26.3885 29.1271C26.2195 29.3348 25.8186 29.5425 25.6206 29.4748C25.4226 29.4072 25.3212 29.0016 25.2149 28.7263C25.1425 28.5427 25.1135 28.3399 25.1087 28.1419C25.0121 24.8723 24.9348 21.5979 24.8286 18.3283C24.7996 17.5169 25.099 16.8939 25.7462 16.4592C26.2919 16.0873 26.8522 15.7155 27.4558 15.4595C28.5183 15.0055 29.3201 15.5416 29.349 16.6959C29.378 17.9998 29.3539 19.3087 29.3539 20.6126H29.3683Z" fill="#818181"/>
<path d="M46.1023 58.5921C43.7358 58.5196 41.5432 57.9836 39.6114 56.5782C39.3989 56.4236 39.1526 56.2691 39.027 56.0517C38.9015 55.8344 38.7807 55.4432 38.887 55.3032C39.0367 55.11 39.3989 55.0037 39.6694 55.0037C39.935 55.0037 40.2199 55.1583 40.4711 55.2887C43.8228 57.066 46.8461 56.2884 49.6086 54.0185C50.5214 53.2699 51.2506 52.2992 52.0572 51.4202C52.5305 50.9035 53.0134 50.4785 53.8006 50.5171C55.008 50.575 55.5441 51.2077 55.1094 52.3475C54.839 53.0574 54.414 53.7336 53.9407 54.3324C52.4966 56.1725 50.787 57.6938 48.4447 58.2733C47.6816 58.4617 46.8799 58.4907 46.0975 58.5921H46.1023Z" fill="#818181"/>
<path d="M40.6208 6.07111C40.6208 5.53986 40.6015 5.00861 40.6208 4.47736C40.6643 3.54525 41.099 2.86429 42.0117 2.589C43.3254 2.19298 44.6583 2.15917 45.9865 2.54071C46.793 2.77253 47.2856 3.36656 47.3532 4.16344C47.4643 5.47707 47.5416 6.81003 47.4595 8.12366C47.3774 9.47593 46.9813 9.84298 45.6725 9.96855C44.7163 10.0651 43.7359 10.0651 42.7796 9.9927C41.4853 9.89611 40.6595 8.95434 40.616 7.66003C40.5967 7.12878 40.616 6.59753 40.616 6.06628L40.6208 6.07111Z" fill="#818181"/>
<path d="M34.5164 60.8475C34.5164 60.4273 34.4875 60.0071 34.5213 59.587C34.5647 59.0605 34.8931 58.906 35.3616 59.0943C35.6031 59.1909 35.8252 59.3503 36.0377 59.5097C39.2252 61.8568 42.6059 63.8514 46.4889 64.7835C48.0875 65.1651 49.7488 65.281 51.3764 65.5418C51.5744 65.5756 51.7483 65.7543 51.9318 65.8654C51.7531 66.0103 51.5985 66.2179 51.3957 66.2904C51.0914 66.4014 50.7534 66.4546 50.425 66.4691C46.4116 66.6236 42.4417 66.3773 38.5926 65.1216C37.7136 64.8367 36.8684 64.4455 36.0184 64.0784C34.927 63.61 34.5213 62.7068 34.5164 61.5767C34.5164 61.3352 34.5164 61.0889 34.5164 60.8475Z" fill="#818181"/>
<path d="M52.6612 63.7308C52.241 63.6873 51.7533 63.6728 51.2848 63.5714C51.0771 63.528 50.9032 63.301 50.7197 63.1609C50.9322 63.0305 51.1254 62.8373 51.3524 62.7794C51.9271 62.6345 52.526 62.5814 53.0959 62.4317C58.0123 61.1663 60.828 57.9353 61.8229 53.0092C61.9001 52.618 61.9533 52.2268 62.045 51.8405C62.2575 50.976 62.528 50.7731 63.3828 50.7973C64.2231 50.8214 64.7882 51.1836 64.8317 51.9467C64.88 52.7726 64.8317 53.6274 64.6675 54.4388C64.1024 57.2689 62.5135 59.4422 60.147 61.0407C58.3021 62.2868 56.322 63.243 54.1052 63.6101C53.6513 63.6873 53.1876 63.6873 52.6564 63.7308H52.6612Z" fill="#818181"/>
<path d="M47.6292 61.6926C46.6488 61.5477 45.8278 61.485 45.0503 61.2821C44.7122 61.1952 44.4562 60.8088 44.1616 60.5625C44.519 60.4563 44.8667 60.2824 45.229 60.2534C46.6971 60.1375 48.2039 60.2389 49.6238 59.9347C52.8451 59.2489 55.0861 57.2784 56.2886 54.173C56.6074 53.3472 56.8778 52.5068 57.2062 51.6858C57.5346 50.8696 58.0079 50.6426 58.8966 50.8068C59.5679 50.9276 60.017 51.4685 59.9639 52.2702C59.8528 54.0716 59.0656 55.6316 58.0417 57.0659C56.4673 59.2779 54.1636 60.3645 51.6329 61.002C50.2758 61.3449 48.8656 61.485 47.6244 61.6926H47.6292Z" fill="#818181"/>
<path d="M48.4932 16.976C47.8605 16.918 47.2182 16.8794 46.5903 16.7925C45.7693 16.6717 45.2525 16.1598 45.1753 15.3484C45.098 14.5612 45.0787 13.7498 45.1753 12.9675C45.3153 11.8422 45.9528 11.3496 47.4017 11.2336C48.2758 11.166 49.1693 11.2047 50.0386 11.3157C51.2895 11.4751 51.8255 12.0788 51.869 13.3393C51.8932 14.0638 51.8304 14.7979 51.7193 15.5175C51.5744 16.4351 51.019 16.8166 49.8213 16.9084C49.3818 16.9422 48.9375 16.9132 48.498 16.9132V16.976H48.4932Z" fill="#818181"/>
<path d="M31.9951 62.408C31.7005 62.1762 31.5507 62.1086 31.4735 61.9927C30.4206 60.3362 29.2857 58.7231 28.3488 57.0038C27.3201 55.1058 27.6098 53.1981 28.7786 51.4208C29.107 50.9234 29.474 50.4501 29.8507 49.9864C29.9618 49.8512 30.184 49.6773 30.3096 49.7063C30.4544 49.745 30.6186 49.9719 30.6525 50.141C30.7684 50.7447 30.8263 51.3629 30.9084 51.9714C31.2706 54.7049 31.6522 57.4336 31.9854 60.1671C32.0675 60.8481 31.9999 61.5435 31.9999 62.4032L31.9951 62.408Z" fill="#818181"/>
<path d="M52.4877 3.43848C52.8354 3.45779 53.1686 3.46745 53.497 3.50126C54.4581 3.60268 55.1584 4.11944 55.313 5.06603C55.4965 6.19132 55.5448 7.34075 55.5882 8.48535C55.6076 9.03592 55.2309 9.43194 54.6899 9.45609C53.5502 9.50439 52.4104 9.50922 51.2706 9.45609C50.7104 9.42711 50.3192 8.99245 50.2709 8.45154C50.1647 7.27314 50.0439 6.07541 50.1212 4.90183C50.1888 3.89728 50.7056 3.55922 51.7149 3.4916C51.9806 3.47228 52.2414 3.45779 52.4925 3.44331L52.4877 3.43848Z" fill="#818181"/>
<path d="M53.6176 14.0394C53.6176 13.5951 53.5982 13.1508 53.6176 12.7113C53.6659 11.8516 54.0667 11.4846 54.9215 11.4653C55.2982 11.4605 55.6749 11.4653 56.0468 11.4653C57.5343 11.4653 58.0221 11.8468 58.2153 13.2908C58.3312 14.165 58.3457 15.0536 58.3795 15.9326C58.4085 16.5894 58.0801 17.0241 57.4232 17.0482C56.5056 17.0869 55.5784 17.0917 54.6656 16.9999C53.9991 16.9323 53.6707 16.3673 53.6176 15.4352C53.5886 14.9715 53.6176 14.5079 53.6127 14.0394H53.6176Z" fill="#818181"/>
<path d="M59.7896 14.4408C59.8475 13.784 59.8813 13.1224 59.9731 12.4704C60.002 12.2724 60.1324 12.0357 60.2918 11.9246C61.0839 11.3499 63.1026 11.9343 63.3199 12.876C63.629 14.2187 63.7884 15.5999 63.943 16.9763C64.0057 17.5462 63.6387 17.8843 63.0495 17.8843C62.5231 17.8843 61.987 17.8891 61.4654 17.8167C60.3594 17.6573 59.9296 17.1164 59.8523 15.8366C59.8234 15.3729 59.8523 14.9093 59.8523 14.4456H59.7944L59.7896 14.4408Z" fill="#818181"/>
<path d="M60.7798 10.2725C58.8866 10.1711 58.1187 9.71226 57.713 7.92049C57.5729 7.29748 57.3943 6.6793 57.3411 6.04663C57.2783 5.33669 57.6309 5.00345 58.3457 4.93101C60.2389 4.74748 61.2386 5.4043 61.8133 7.2347C61.9437 7.65487 62.0451 8.0847 62.1465 8.51453C62.4411 9.77504 62.0548 10.2677 60.7846 10.2725H60.7798Z" fill="#818181"/>
<path d="M13.185 45.4891C11.6057 45.4891 10.6543 44.5522 10.6543 42.9874C10.6543 41.524 11.8713 40.2828 13.2912 40.307C14.7594 40.3311 15.8267 41.4226 15.8316 42.8908C15.8316 44.4169 14.7401 45.4939 13.185 45.4939V45.4891Z" fill="#818181"/>
<path d="M45.7458 30.117C44.2293 30.1267 42.993 28.8951 43.0075 27.3883C43.0219 25.9394 44.2728 24.65 45.6975 24.6258C47.1222 24.6017 48.4359 25.9298 48.4407 27.398C48.4407 28.8613 47.214 30.1025 45.7506 30.117H45.7458Z" fill="#818181"/>
</svg>
