<svg width="46" height="47" viewBox="0 0 46 47" fill="none" xmlns="http://www.w3.org/2000/svg">
<g filter="url(#filter0_dd_334_19691)">
<path fill-rule="evenodd" clip-rule="evenodd" d="M42.4757 8.48581C42.4675 4.9038 39.5571 2.00718 35.9751 2.01604L9.4864 2.08155C5.90439 2.09041 3.00718 5.00139 3.01532 8.58341L3.07938 36.7878C3.08752 40.3698 5.99791 43.2664 9.57992 43.2576L36.0686 43.1921C39.6507 43.1832 42.5479 40.2722 42.5397 36.6902L42.4757 8.48581Z" fill="white"/>
</g>
<path d="M34.1 9.75195H14.9707C14.6423 9.75195 14.376 9.98933 14.376 10.2822V24.3016C14.0103 24.3661 13.6553 24.4905 13.3312 24.6756C13.3294 24.6766 13.3275 24.6777 13.3256 24.6788C12.2296 25.3199 11.7179 26.511 12.0523 27.6427L12.8836 30.4557H12.4686C10.7972 30.4557 9.4375 31.6679 9.4375 33.1578V34.0949C9.4375 34.3877 9.70383 34.6251 10.0323 34.6251H10.2153V35.4605C10.2153 36.2534 10.939 36.8985 11.8284 36.8985H18.1125C19.002 36.8985 19.7256 36.2534 19.7256 35.4605V34.6251H19.9087C20.2371 34.6251 20.5035 34.3877 20.5035 34.0949C20.5035 34.0949 20.5022 33.1173 20.5017 33.097H34.1C34.4284 33.097 34.6948 32.8597 34.6948 32.5668V10.2822C34.6948 9.98933 34.4284 9.75195 34.1 9.75195V9.75195ZM13.2026 27.3725C12.9957 26.6724 13.299 25.9641 13.9754 25.567C14.3905 25.331 14.8883 25.257 15.3553 25.3449C16.3657 25.539 16.9997 26.4871 16.7377 27.3742L15.8273 30.4555H14.1137L13.2026 27.3725ZM10.627 33.1578C10.627 32.2525 11.4532 31.516 12.4686 31.516L17.4726 31.5162C18.4784 31.5162 19.314 32.2653 19.314 33.1578V33.5646H10.627V33.1578ZM18.5361 35.4604C18.5361 35.6686 18.3461 35.838 18.1125 35.838H11.8284C11.5949 35.838 11.4048 35.6686 11.4048 35.4604V34.625H18.5361V35.4604ZM33.5052 32.0366H20.2306C19.744 31.088 18.6445 30.4556 17.4723 30.4556H17.0577L17.8887 27.6426C18.3249 26.1663 17.2535 24.5996 15.5655 24.2999V10.8124H33.5052V32.0366Z" fill="#BC955C"/>
<path d="M29.7991 25.4238H24.0141C23.274 25.4238 22.6719 25.9606 22.6719 26.6204V28.8537C22.6719 29.5135 23.274 30.0502 24.0141 30.0502H29.7991C30.5392 30.0502 31.1414 29.5135 31.1414 28.8537V26.6204C31.1414 25.9606 30.5393 25.4238 29.7991 25.4238ZM29.9519 28.8536C29.9519 28.9287 29.8834 28.9898 29.7992 28.9898H24.0141C23.9299 28.9898 23.8615 28.9287 23.8615 28.8536V26.6203C23.8615 26.5453 23.9299 26.4842 24.0141 26.4842H29.7992C29.8834 26.4842 29.9519 26.5453 29.9519 26.6203V28.8536Z" fill="#BC955C"/>
<path d="M21.8233 15.1014H30.5475C30.876 15.1014 31.1423 14.8641 31.1423 14.5712C31.1423 14.2784 30.876 14.041 30.5475 14.041H21.8233C21.4948 14.041 21.2285 14.2784 21.2285 14.5712C21.2285 14.8641 21.4948 15.1014 21.8233 15.1014Z" fill="#BC955C"/>
<path d="M19.1319 18.8534H30.5478C30.8762 18.8534 31.1425 18.616 31.1425 18.3232C31.1425 18.0303 30.8762 17.793 30.5478 17.793H19.1319C18.8034 17.793 18.5371 18.0303 18.5371 18.3232C18.5371 18.616 18.8034 18.8534 19.1319 18.8534Z" fill="#BC955C"/>
<path d="M18.8194 22.6053H30.548C30.8764 22.6053 31.1428 22.368 31.1428 22.0751C31.1428 21.7823 30.8764 21.5449 30.548 21.5449H18.8194C18.4909 21.5449 18.2246 21.7823 18.2246 22.0751C18.2246 22.368 18.4909 22.6053 18.8194 22.6053Z" fill="#BC955C"/>
<path d="M18.5814 14.7738C18.7854 15.2179 19.5214 15.1922 19.6936 14.7416C19.8686 14.284 19.2898 13.8704 18.8253 14.1164C18.5756 14.2487 18.4698 14.5351 18.5814 14.7738Z" fill="#BC955C"/>
<defs>
<filter id="filter0_dd_334_19691" x="0.235983" y="0.16253" width="45.0827" height="46.8015" filterUnits="userSpaceOnUse" color-interpolation-filters="sRGB">
<feFlood flood-opacity="0" result="BackgroundImageFix"/>
<feColorMatrix in="SourceAlpha" type="matrix" values="0 0 0 0 0 0 0 0 0 0 0 0 0 0 0 0 0 0 127 0" result="hardAlpha"/>
<feOffset dy="0.926547"/>
<feGaussianBlur stdDeviation="1.38982"/>
<feColorMatrix type="matrix" values="0 0 0 0 0.2471 0 0 0 0 0.2471 0 0 0 0 0.2667 0 0 0 0.15 0"/>
<feBlend mode="normal" in2="BackgroundImageFix" result="effect1_dropShadow_334_19691"/>
<feColorMatrix in="SourceAlpha" type="matrix" values="0 0 0 0 0 0 0 0 0 0 0 0 0 0 0 0 0 0 127 0" result="hardAlpha"/>
<feOffset/>
<feColorMatrix type="matrix" values="0 0 0 0 0.2471 0 0 0 0 0.2471 0 0 0 0 0.2667 0 0 0 0.05 0"/>
<feBlend mode="normal" in2="effect1_dropShadow_334_19691" result="effect2_dropShadow_334_19691"/>
<feBlend mode="normal" in="SourceGraphic" in2="effect2_dropShadow_334_19691" result="shape"/>
</filter>
</defs>
</svg>
