<svg width="24" height="24" viewBox="0 0 24 24" fill="none" xmlns="http://www.w3.org/2000/svg">
<path d="M12 0C5.38293 0 0 5.38293 0 12C0 18.6171 5.38293 24 12 24C18.6171 24 24 18.6171 24 12C24 5.38293 18.6171 0 12 0Z" fill="#00AE42"/>
<path d="M17.5979 9.44165L11.0978 15.9415C10.9028 16.1365 10.6469 16.2347 10.3909 16.2347C10.1349 16.2347 9.87891 16.1365 9.6839 15.9415L6.43396 12.6916C6.04285 12.3007 6.04285 11.6686 6.43396 11.2776C6.82489 10.8865 7.45679 10.8865 7.8479 11.2776L10.3909 13.8206L16.184 8.02771C16.5749 7.6366 17.2068 7.6366 17.5979 8.02771C17.9888 8.41864 17.9888 9.05054 17.5979 9.44165Z" fill="white"/>
</svg>