<svg width="28" height="28" viewBox="0 0 28 28" fill="none" xmlns="http://www.w3.org/2000/svg">
<g filter="url(#filter0_d_2224_857)">
<mask id="path-1-outside-1_2224_857" maskUnits="userSpaceOnUse" x="4.21387" y="0.322266" width="19" height="19" fill="black">
<rect fill="white" x="4.21387" y="0.322266" width="19" height="19"/>
<path fill-rule="evenodd" clip-rule="evenodd" d="M6.21383 15.3247L8.65505 17.7659L13.9357 12.4853L19.2165 17.7661L21.6578 15.3249L16.3769 10.0441L21.6575 4.76344L19.2163 2.32222L13.9357 7.60284L8.65528 2.32243L6.21406 4.76364L11.4945 10.0441L6.21383 15.3247Z"/>
</mask>
<path fill-rule="evenodd" clip-rule="evenodd" d="M6.21383 15.3247L8.65505 17.7659L13.9357 12.4853L19.2165 17.7661L21.6578 15.3249L16.3769 10.0441L21.6575 4.76344L19.2163 2.32222L13.9357 7.60284L8.65528 2.32243L6.21406 4.76364L11.4945 10.0441L6.21383 15.3247Z" fill="white"/>
<path d="M8.65509 17.766L7.94798 18.4731L8.65509 19.1802L9.36219 18.4731L8.65509 17.766ZM6.21387 15.3247L5.50676 14.6176L4.79965 15.3247L5.50676 16.0319L6.21387 15.3247ZM13.9357 12.4853L14.6428 11.7782L13.9357 11.0711L13.2286 11.7782L13.9357 12.4853ZM19.2166 17.7662L18.5095 18.4733L19.2166 19.1804L19.9237 18.4733L19.2166 17.7662ZM21.6578 15.325L22.3649 16.0321L23.072 15.325L22.3649 14.6178L21.6578 15.325ZM16.3769 10.0441L15.6698 9.337L14.9627 10.0441L15.6698 10.7512L16.3769 10.0441ZM21.6576 4.76348L22.3647 5.47059L23.0718 4.76348L22.3647 4.05638L21.6576 4.76348ZM19.2163 2.32227L19.9235 1.61516L19.2163 0.908052L18.5092 1.61516L19.2163 2.32227ZM13.9357 7.60288L13.2286 8.30999L13.9357 9.0171L14.6428 8.30999L13.9357 7.60288ZM8.65532 2.32247L9.36242 1.61537L8.65532 0.90826L7.94821 1.61537L8.65532 2.32247ZM6.2141 4.76369L5.50699 4.05659L4.79988 4.76369L5.50699 5.4708L6.2141 4.76369ZM11.4945 10.0441L12.2016 10.7512L12.9087 10.0441L12.2016 9.337L11.4945 10.0441ZM9.36219 17.0589L6.92097 14.6176L5.50676 16.0319L7.94798 18.4731L9.36219 17.0589ZM13.2286 11.7782L7.94798 17.0589L9.36219 18.4731L14.6428 13.1924L13.2286 11.7782ZM19.9237 17.0591L14.6428 11.7782L13.2286 13.1924L18.5095 18.4733L19.9237 17.0591ZM20.9507 14.6178L18.5095 17.0591L19.9237 18.4733L22.3649 16.0321L20.9507 14.6178ZM15.6698 10.7512L20.9507 16.0321L22.3649 14.6178L17.0841 9.337L15.6698 10.7512ZM20.9505 4.05638L15.6698 9.337L17.0841 10.7512L22.3647 5.47059L20.9505 4.05638ZM18.5092 3.02937L20.9505 5.47059L22.3647 4.05638L19.9235 1.61516L18.5092 3.02937ZM14.6428 8.30999L19.9235 3.02937L18.5092 1.61516L13.2286 6.89578L14.6428 8.30999ZM7.94821 3.02958L13.2286 8.30999L14.6428 6.89578L9.36242 1.61537L7.94821 3.02958ZM6.9212 5.4708L9.36242 3.02958L7.94821 1.61537L5.50699 4.05659L6.9212 5.4708ZM12.2016 9.337L6.9212 4.05659L5.50699 5.4708L10.7874 10.7512L12.2016 9.337ZM6.92097 16.0319L12.2016 10.7512L10.7874 9.337L5.50676 14.6176L6.92097 16.0319Z" fill="#5F5F5F" mask="url(#path-1-outside-1_2224_857)"/>
</g>
<defs>
<filter id="filter0_d_2224_857" x="0.799683" y="0.908203" width="26.2723" height="26.272" filterUnits="userSpaceOnUse" color-interpolation-filters="sRGB">
<feFlood flood-opacity="0" result="BackgroundImageFix"/>
<feColorMatrix in="SourceAlpha" type="matrix" values="0 0 0 0 0 0 0 0 0 0 0 0 0 0 0 0 0 0 127 0" result="hardAlpha"/>
<feOffset dy="4"/>
<feGaussianBlur stdDeviation="2"/>
<feComposite in2="hardAlpha" operator="out"/>
<feColorMatrix type="matrix" values="0 0 0 0 0 0 0 0 0 0 0 0 0 0 0 0 0 0 0.25 0"/>
<feBlend mode="normal" in2="BackgroundImageFix" result="effect1_dropShadow_2224_857"/>
<feBlend mode="normal" in="SourceGraphic" in2="effect1_dropShadow_2224_857" result="shape"/>
</filter>
</defs>
</svg>
