<svg width="65" height="65" viewBox="0 0 65 65" fill="none" xmlns="http://www.w3.org/2000/svg">
<path d="M56.3423 37.4228V18.9292C56.3423 13.6523 52.05 9.35995 46.773 9.35995H44.2589L44.2594 6.4603C44.2594 5.29309 43.313 4.34668 42.1458 4.34668C40.9786 4.34668 40.0322 5.29309 40.0322 6.4603V9.36043H24.9771V6.4603C24.9771 5.29309 24.0307 4.34668 22.8635 4.34668C21.6963 4.34668 20.7499 5.29309 20.7499 6.4603V9.36043H18.2358C12.9588 9.36043 8.6665 13.6528 8.6665 18.9297V47.4684C8.6665 52.7453 12.9588 57.0377 18.2358 57.0377H36.7293C39.2624 60.9375 43.6491 63.5285 48.6369 63.5285C56.4648 63.5285 62.8332 57.1599 62.8332 49.3323C62.8336 44.344 60.2426 39.9578 56.3418 37.4242L56.3423 37.4228ZM48.637 59.3006C43.1392 59.3006 38.6666 54.829 38.6666 49.3312C38.6666 43.8333 43.1397 39.3608 48.637 39.3608C54.1348 39.3608 58.6064 43.8338 58.6064 49.3312C58.6069 54.829 54.1348 59.3006 48.637 59.3006ZM18.2359 13.5872H46.7746C49.72 13.5872 52.1166 15.9834 52.1166 18.9292L52.1162 21.057H12.8946V18.9287C12.8946 15.9833 15.2913 13.5871 18.2366 13.5871L18.2359 13.5872ZM18.2359 52.8087C15.2905 52.8087 12.8939 50.4125 12.8939 47.4667V25.2846H52.1154V35.5824C51.0001 35.2998 49.839 35.1332 48.6374 35.1332C40.8085 35.1332 34.4399 41.5019 34.4399 49.3307C34.4399 50.5324 34.6064 51.6934 34.889 52.8088L18.2359 52.8087Z" fill="#8B1232"/>
<path d="M47.9408 51.3271C48.4168 51.455 52.8696 53.1539 53.2639 53.0601C54.1382 53.0591 54.9553 52.5133 55.26 51.6409C55.6441 50.5398 55.0619 49.3343 53.9597 48.9494L50.7502 47.8298L50.7497 44.7037C50.7497 43.5365 49.8033 42.5901 48.6361 42.5901C47.4689 42.5901 46.5225 43.5365 46.5225 44.7037V49.3315C46.5225 50.2302 47.0914 51.0313 47.9406 51.3271L47.9408 51.3271Z" fill="#8B1232"/>
</svg>
