<svg width="25" height="25" viewBox="0 0 25 25" fill="none" xmlns="http://www.w3.org/2000/svg">
<path d="M16.7258 13.5067C17.2052 13.4108 17.8959 13.2723 18.5866 13.1391C18.7269 13.1125 18.908 12.9917 18.9932 13.1764C19.0181 13.2314 18.8512 13.4001 18.7464 13.4836C18.4215 13.741 18.2244 14.0464 18.2457 14.4832C18.267 14.9324 18.0433 15.2236 17.6509 15.4598C16.9229 15.8983 16.2073 16.3653 15.5291 16.8785C15.0603 17.2318 14.6857 17.7041 14.5845 18.3131C14.549 18.5297 14.5969 18.7623 14.62 18.9861C14.6324 19.1068 14.6715 19.224 14.6946 19.343C14.7673 19.7354 14.7123 19.7886 14.3359 19.6856C13.8884 19.5649 13.4108 19.9378 13.4836 20.3692C13.5067 20.5113 13.5955 20.664 13.6985 20.7652C13.8991 20.964 14.1317 21.1309 14.3483 21.3156C14.4708 21.4204 14.636 21.5411 14.5205 21.7187C14.4122 21.8873 14.2222 21.8643 14.0607 21.779C13.1622 21.2979 12.4556 20.6586 12.3561 19.5667C12.2762 18.6771 12.2123 17.7858 12.159 16.8944C12.0862 15.7101 12.0294 14.5258 11.9673 13.3398C11.9318 12.642 11.8945 11.9442 11.8661 11.2446C11.8252 10.2609 11.7915 9.27903 11.7524 8.29537C11.7347 7.82306 11.8057 7.65261 12.246 7.51944C12.6988 7.38272 13.1764 7.32235 13.6434 7.24068C13.7198 7.22825 13.8068 7.27974 13.8884 7.30282C13.86 7.3916 13.8529 7.49636 13.7997 7.56561C13.6736 7.73429 13.528 7.89054 13.3842 8.04501C12.5301 8.96475 12.5994 10.6746 13.2191 11.5305C13.409 11.7932 13.5919 12.0649 13.8032 12.3117C14.5117 13.1409 15.4492 13.4569 16.7258 13.5031V13.5067Z" fill="#818181"/>
<path d="M3.8298 18.9293C3.52086 18.9293 3.21191 18.9293 2.90473 18.9293C2.3188 18.9293 1.89799 18.6346 1.60857 18.1534C1.21084 17.4893 1.10431 16.756 1.1629 15.9943C1.22505 15.19 1.41326 14.4229 1.80033 13.7109C2.15367 13.0593 2.71297 12.6616 3.4232 12.5408C3.8813 12.4627 4.36247 12.5106 4.833 12.5106C5.46688 12.5106 6.10076 12.5124 6.73286 12.5249C6.9335 12.5284 7.13769 12.5497 7.33655 12.5888C7.93314 12.7095 8.21901 13.0504 8.25274 13.7376C8.31489 15.0373 8.36461 16.337 8.40189 17.6367C8.41965 18.2848 8.22966 18.528 7.58158 18.631C6.87135 18.7429 6.15225 18.8086 5.43492 18.8707C4.90225 18.9169 4.36603 18.9258 3.83158 18.9506V18.9311L3.8298 18.9293ZM4.80637 17.6225C4.98215 17.5977 5.16148 17.5888 5.33371 17.5479C6.32448 17.3136 6.96901 16.3477 6.76837 15.4297C6.45587 14.0075 4.68563 13.4996 3.57057 14.3288C3.0379 14.7248 2.74316 15.2646 2.83194 15.9304C2.97221 16.9709 3.74635 17.603 4.80637 17.6225Z" fill="#818181"/>
<path d="M5.0711 23.8245C4.57927 23.8281 4.09276 23.7802 3.73232 23.4162C3.5157 23.1978 3.32394 22.919 3.21918 22.6331C2.99191 22.0081 2.80725 21.3672 2.64212 20.7226C2.4983 20.1669 2.70249 19.9343 3.26712 19.8952C4.52778 19.8064 5.78665 19.7035 7.04731 19.6147C7.4912 19.5827 7.93687 19.5721 8.38253 19.5508C8.62934 19.5401 8.82288 19.6502 8.91343 19.8668C9.17266 20.4883 9.4461 21.1062 9.64319 21.7489C9.80121 22.2603 9.55796 22.6811 9.07146 22.9013C8.02742 23.3736 6.9319 23.6488 5.79376 23.7624C5.55228 23.7855 5.3108 23.805 5.06755 23.8281L5.0711 23.8245Z" fill="#818181"/>
<path d="M1.35457 3.08231C1.34037 2.3561 1.59072 1.99744 2.30983 1.86072C3.43021 1.64765 4.55592 1.45944 5.68518 1.28721C6.85351 1.10965 8.02361 0.953402 9.19726 0.811356C9.95187 0.719027 10.7118 0.656882 11.47 0.603615C11.9867 0.566328 12.5069 0.566328 13.0254 0.552123C13.0982 0.550348 13.1728 0.548572 13.2438 0.559226C13.7747 0.628473 13.9771 0.983587 13.7782 1.48785C13.7036 1.67606 13.5598 1.75596 13.3734 1.79502C12.3986 1.99744 11.422 2.1963 10.449 2.41114C8.02893 2.94559 5.61061 3.48359 3.19228 4.02691C2.86025 4.10148 2.5371 4.21335 2.20684 4.28969C1.80024 4.38202 1.51792 4.19381 1.44157 3.78543C1.39896 3.55461 1.38298 3.31846 1.35635 3.08586L1.35457 3.08231Z" fill="#818181"/>
<path d="M2.35637 7.69869C2.03854 7.65252 1.89117 7.56374 1.8237 7.27255C1.75268 6.96538 1.69586 6.6511 1.67633 6.33683C1.64792 5.86808 1.82015 5.60707 2.27469 5.44549C2.83222 5.24663 3.39508 5.05664 3.96681 4.90749C6.97817 4.12447 9.99309 3.35032 13.0098 2.58683C13.2371 2.53001 13.4927 2.52468 13.7253 2.56019C14.0112 2.60281 14.139 2.81943 14.155 3.15678C14.1674 3.44798 14.068 3.63086 13.7981 3.72497C12.7576 4.09073 11.7118 4.44407 10.6696 4.80451C8.22462 5.65146 5.77967 6.4984 3.33471 7.34535C3.008 7.45899 2.68308 7.57972 2.35815 7.69691L2.35637 7.69869Z" fill="#818181"/>
<path d="M22.1327 15.398C21.3248 15.3358 20.517 15.279 19.7091 15.2044C19.528 15.1884 19.3469 15.1192 19.1746 15.05C19.0006 14.9789 18.9385 14.8351 19.0077 14.6504C19.0273 14.5972 19.0468 14.5439 19.0681 14.4906C19.3398 13.8088 19.3628 13.8 20.1032 13.784C20.2417 13.7804 20.4655 13.7218 20.4956 13.6348C20.5418 13.4999 20.4566 13.3188 20.4228 13.159C20.4193 13.1377 20.398 13.1164 20.3802 13.1004C20.0233 12.7808 20.0695 12.4132 20.2577 12.035C20.6182 11.3159 20.7815 10.5471 20.7744 9.75166C20.7673 8.92779 20.4193 8.24598 19.8014 7.70265C19.6487 7.56948 19.4871 7.44519 19.3504 7.29605C19.2936 7.2339 19.267 7.11494 19.2829 7.03326C19.2918 6.99242 19.4303 6.95336 19.5084 6.95514C20.311 6.97999 21.1135 7.00485 21.9143 7.05457C22.0812 7.06522 22.2641 7.14512 22.4008 7.24455C22.8962 7.60322 23.0951 8.31522 22.8962 8.89406C22.637 9.6469 22.3724 10.3962 22.1345 11.1561C22.0226 11.513 22.0795 11.8717 22.3209 12.1718C22.6441 12.5695 22.9939 12.9441 23.3028 13.3525C23.4165 13.5017 23.4786 13.7112 23.507 13.9012C23.5514 14.1817 23.5549 14.4676 23.5567 14.7534C23.5585 15.1103 23.3224 15.3447 22.9619 15.3536C22.6867 15.3607 22.4097 15.3536 22.1327 15.3536L22.1292 15.3962L22.1327 15.398Z" fill="#818181"/>
<path d="M16.9001 12.8762C15.8134 12.8585 14.9328 12.5708 14.2793 11.7807C13.2211 10.5005 13.4768 7.81941 15.9715 7.29917C17.0261 7.079 18.0435 7.1802 18.9402 7.83894C19.5865 8.31479 19.8866 8.98241 19.9612 9.77964C20.1121 11.3954 18.8603 12.5602 17.5055 12.8105C17.2765 12.8531 17.0404 12.8602 16.8983 12.8762H16.9001ZM18.5904 10.0868C18.5904 9.06941 17.7861 8.30059 16.7136 8.29349C15.7229 8.28638 14.86 9.09604 14.8457 10.0424C14.8315 11.0012 15.7033 11.8144 16.7403 11.8109C17.8624 11.8056 18.5904 11.1291 18.5904 10.0868Z" fill="#818181"/>
<path d="M3.69513 9.90575C3.72177 9.59857 3.73065 9.28962 3.77859 8.98778C3.8212 8.72144 3.96147 8.48529 4.20827 8.36633C5.25941 7.86029 6.31232 7.35248 7.45579 7.08259C7.77184 7.00802 7.98136 7.14296 8.04883 7.45546C8.08256 7.61349 8.09854 7.77506 8.10742 7.93664C8.15714 8.80312 8.19265 9.67137 8.25302 10.5378C8.29386 11.1398 8.07901 11.431 7.42028 11.4842C6.49166 11.5588 5.56126 11.605 4.63086 11.6369C4.0467 11.6582 3.82653 11.4381 3.76616 10.8539C3.75018 10.6923 3.73065 10.5307 3.72177 10.3692C3.71467 10.2147 3.72177 10.0602 3.72177 9.90575H3.69336H3.69513Z" fill="#818181"/>
<path d="M23.2902 17.9688C22.8197 17.8783 22.4166 17.7877 22.0083 17.7256C21.2146 17.6049 20.4209 17.4912 19.613 17.596C19.1531 17.6563 18.7945 17.8943 18.4536 18.173C18.0381 18.5122 17.6386 18.8708 17.2302 19.2188C17.1432 19.2916 17.0473 19.3538 16.9514 19.4142C16.6833 19.5864 16.385 19.7355 16.0885 19.5438C15.7458 19.3218 15.4795 19.0129 15.5239 18.5601C15.5381 18.4145 15.5949 18.2476 15.689 18.1411C16.2483 17.5019 16.868 16.9355 17.612 16.5076C18.1695 16.188 18.7785 16.124 19.3946 16.0903C20.65 16.0246 21.8875 16.1684 23.1144 16.4277C23.1535 16.4365 23.1926 16.449 23.2316 16.4596C24.0253 16.6567 23.9525 17.1983 23.6347 17.7824C23.5761 17.8889 23.3826 17.9227 23.292 17.9706L23.2902 17.9688Z" fill="#818181"/>
<path d="M11.1985 15.4368C11.321 16.4755 10.8008 17.2515 10.1669 17.9794C10.0852 18.0735 9.94316 18.1162 9.82952 18.1836C9.77626 18.0629 9.68925 17.9457 9.67683 17.8214C9.62889 17.3047 9.5987 16.7863 9.57207 16.266C9.52058 15.3001 9.46908 14.336 9.4318 13.3701C9.40871 12.8072 9.5117 12.2692 9.85616 11.8022C10.0337 11.5608 10.2024 11.3086 10.403 11.0867C10.4829 10.9979 10.6392 10.9287 10.7546 10.9375C10.8238 10.9429 10.9179 11.108 10.9375 11.2127C11.0014 11.5803 11.06 11.9496 11.0777 12.3207C11.1115 13.0114 11.1133 13.7021 11.1346 14.3928C11.1452 14.7408 11.1754 15.0888 11.1967 15.4386L11.1985 15.4368Z" fill="#818181"/>
<path d="M11.8128 5.72808C11.8128 5.68014 11.8128 5.63043 11.8128 5.58249C11.8199 5.02141 11.8501 4.96636 12.3916 4.83497C13.3114 4.61125 14.2311 4.3822 15.1864 4.36445C15.6178 4.35557 15.7403 4.48163 15.7315 4.9131C15.7261 5.17233 15.696 5.42979 15.6693 5.68902C15.6374 5.98199 15.4634 6.16842 15.1828 6.22879C14.6217 6.34953 14.0589 6.46672 13.4943 6.55727C13.1196 6.61764 12.7396 6.64605 12.3597 6.66026C11.9353 6.67624 11.8057 6.53952 11.795 6.11693C11.7915 5.98732 11.795 5.8577 11.795 5.72631H11.8128V5.72808Z" fill="#818181"/>
<path d="M10.7972 7.57821C10.7972 8.05761 10.8078 8.53879 10.7901 9.01819C10.7848 9.17444 10.7404 9.352 10.6534 9.47629C10.3533 9.89887 10.0301 10.3073 9.70165 10.7085C9.63951 10.7849 9.49214 10.8612 9.41934 10.8364C9.34654 10.8115 9.30925 10.6624 9.27019 10.5612C9.24356 10.4937 9.2329 10.4191 9.23113 10.3463C9.19562 9.14426 9.16721 7.94042 9.12815 6.73836C9.11749 6.44007 9.22758 6.21102 9.4655 6.05122C9.66614 5.9145 9.87211 5.77778 10.0941 5.68367C10.4847 5.51677 10.7794 5.71386 10.7901 6.13822C10.8007 6.61762 10.7919 7.0988 10.7919 7.57821H10.7972Z" fill="#818181"/>
<path d="M16.9494 21.5412C16.0794 21.5145 15.2733 21.3175 14.5631 20.8008C14.4849 20.744 14.3944 20.6871 14.3482 20.6072C14.3021 20.5273 14.2577 20.3835 14.2967 20.332C14.3518 20.261 14.4849 20.2219 14.5844 20.2219C14.682 20.2219 14.7868 20.2788 14.8791 20.3267C16.1114 20.9801 17.2229 20.6942 18.2385 19.8597C18.5741 19.5845 18.8422 19.2276 19.1387 18.9045C19.3127 18.7145 19.4903 18.5582 19.7797 18.5724C20.2236 18.5937 20.4207 18.8263 20.2609 19.2454C20.1614 19.5064 20.0052 19.755 19.8312 19.9751C19.3003 20.6516 18.6717 21.2109 17.8106 21.424C17.53 21.4932 17.2353 21.5039 16.9477 21.5412H16.9494Z" fill="#818181"/>
<path d="M14.9341 2.23201C14.9341 2.0367 14.927 1.84139 14.9341 1.64607C14.9501 1.30339 15.1099 1.05303 15.4455 0.951825C15.9284 0.806229 16.4185 0.7938 16.9068 0.93407C17.2033 1.0193 17.3844 1.23769 17.4093 1.53066C17.4501 2.01362 17.4785 2.50367 17.4483 2.98663C17.4182 3.48379 17.2726 3.61873 16.7914 3.66489C16.4398 3.7004 16.0794 3.7004 15.7278 3.67377C15.252 3.63826 14.9483 3.29202 14.9324 2.81617C14.9253 2.62086 14.9324 2.42555 14.9324 2.23023L14.9341 2.23201Z" fill="#818181"/>
<path d="M12.6898 22.3704C12.6898 22.2159 12.6791 22.0614 12.6916 21.9069C12.7076 21.7134 12.8283 21.6566 13.0005 21.7258C13.0893 21.7613 13.171 21.8199 13.2491 21.8785C14.421 22.7414 15.6639 23.4748 17.0914 23.8174C17.6791 23.9577 18.2899 24.0003 18.8883 24.0962C18.9611 24.1086 19.025 24.1743 19.0925 24.2152C19.0268 24.2684 18.97 24.3448 18.8954 24.3714C18.7835 24.4123 18.6593 24.4318 18.5385 24.4371C17.063 24.4939 15.6035 24.4034 14.1884 23.9417C13.8652 23.837 13.5545 23.6931 13.242 23.5582C12.8407 23.386 12.6916 23.0539 12.6898 22.6385C12.6898 22.5497 12.6898 22.4591 12.6898 22.3704Z" fill="#818181"/>
<path d="M19.3608 23.4305C19.2063 23.4145 19.0269 23.4092 18.8547 23.3719C18.7784 23.3559 18.7144 23.2724 18.647 23.2209C18.7251 23.173 18.7961 23.102 18.8796 23.0807C19.0909 23.0274 19.311 23.0079 19.5206 22.9528C21.3281 22.4876 22.3632 21.2998 22.729 19.4887C22.7574 19.3449 22.7769 19.2011 22.8107 19.059C22.8888 18.7412 22.9882 18.6666 23.3025 18.6755C23.6115 18.6844 23.8192 18.8175 23.8352 19.0981C23.8529 19.4017 23.8352 19.716 23.7748 20.0143C23.5671 21.0548 22.9829 21.8538 22.1129 22.4415C21.4346 22.8996 20.7066 23.2511 19.8916 23.3861C19.7247 23.4145 19.5543 23.4145 19.359 23.4305H19.3608Z" fill="#818181"/>
<path d="M17.5107 22.6812C17.1503 22.6279 16.8484 22.6048 16.5625 22.5302C16.4383 22.4983 16.3441 22.3562 16.2358 22.2657C16.3672 22.2266 16.4951 22.1627 16.6282 22.152C17.168 22.1094 17.722 22.1467 18.244 22.0348C19.4283 21.7827 20.2522 21.0583 20.6943 19.9166C20.8115 19.613 20.9109 19.304 21.0316 19.0022C21.1524 18.7021 21.3264 18.6187 21.6531 18.679C21.8999 18.7234 22.065 18.9223 22.0455 19.217C22.0047 19.8793 21.7152 20.4528 21.3388 20.9802C20.76 21.7934 19.913 22.1929 18.9826 22.4272C18.4837 22.5533 17.9652 22.6048 17.5089 22.6812H17.5107Z" fill="#818181"/>
<path d="M17.8283 6.24113C17.5957 6.21982 17.3596 6.20561 17.1288 6.17365C16.8269 6.12926 16.6369 5.94105 16.6085 5.64276C16.5801 5.35334 16.573 5.05505 16.6085 4.7674C16.66 4.3537 16.8944 4.17259 17.4271 4.12997C17.7484 4.10512 18.0769 4.11932 18.3965 4.16016C18.8564 4.21875 19.0535 4.4407 19.0695 4.90412C19.0783 5.17046 19.0552 5.44034 19.0144 5.7049C18.9611 6.04226 18.757 6.18253 18.3166 6.21627C18.155 6.2287 17.9917 6.21804 17.8301 6.21804V6.24113H17.8283Z" fill="#818181"/>
<path d="M11.763 22.9441C11.6547 22.8589 11.5996 22.834 11.5712 22.7914C11.1841 22.1824 10.7669 21.5894 10.4224 20.9573C10.0442 20.2595 10.1507 19.5581 10.5804 18.9047C10.7012 18.7218 10.8361 18.5478 10.9746 18.3774C11.0154 18.3276 11.0971 18.2637 11.1433 18.2744C11.1966 18.2886 11.2569 18.372 11.2694 18.4342C11.312 18.6561 11.3333 18.8834 11.3635 19.1071C11.4966 20.1121 11.6369 21.1153 11.7594 22.1203C11.7896 22.3706 11.7647 22.6263 11.7647 22.9423L11.763 22.9441Z" fill="#818181"/>
<path d="M19.297 1.26416C19.4249 1.27126 19.5474 1.27481 19.6681 1.28724C20.0214 1.32453 20.2789 1.51452 20.3357 1.86253C20.4032 2.27623 20.4209 2.69882 20.4369 3.11963C20.444 3.32204 20.3055 3.46764 20.1067 3.47652C19.6876 3.49427 19.2686 3.49605 18.8496 3.47652C18.6436 3.46586 18.4998 3.30606 18.482 3.1072C18.443 2.67396 18.3986 2.23362 18.427 1.80216C18.4518 1.43284 18.6418 1.30855 19.0129 1.28369C19.1106 1.27659 19.2065 1.27126 19.2988 1.26594L19.297 1.26416Z" fill="#818181"/>
<path d="M19.7123 5.16152C19.7123 4.99817 19.7052 4.83482 19.7123 4.67324C19.7301 4.35719 19.8775 4.22225 20.1917 4.21514C20.3302 4.21337 20.4687 4.21514 20.6054 4.21514C21.1523 4.21514 21.3316 4.35541 21.4027 4.88631C21.4453 5.20769 21.4506 5.53439 21.463 5.85755C21.4737 6.09902 21.3529 6.25882 21.1115 6.2677C20.7741 6.28191 20.4332 6.28368 20.0976 6.24995C19.8526 6.22509 19.7319 6.01735 19.7123 5.67466C19.7017 5.50421 19.7123 5.33375 19.7105 5.16152H19.7123Z" fill="#818181"/>
<path d="M21.9814 5.30913C22.0028 5.06765 22.0152 4.8244 22.0489 4.5847C22.0596 4.5119 22.1075 4.4249 22.1661 4.38406C22.4573 4.17277 23.1995 4.38761 23.2794 4.73385C23.393 5.22746 23.4516 5.73527 23.5084 6.24131C23.5315 6.45082 23.3966 6.57511 23.18 6.57511C22.9864 6.57511 22.7893 6.57689 22.5976 6.55025C22.191 6.49166 22.0329 6.2928 22.0045 5.82227C21.9939 5.65182 22.0045 5.48136 22.0045 5.31091H21.9832L21.9814 5.30913Z" fill="#818181"/>
<path d="M22.3454 3.77668C21.6494 3.73939 21.3671 3.57071 21.218 2.91198C21.1665 2.68293 21.1008 2.45565 21.0812 2.22306C21.0582 1.96205 21.1878 1.83953 21.4506 1.8129C22.1466 1.74543 22.5141 1.9869 22.7254 2.65984C22.7734 2.81432 22.8106 2.97234 22.8479 3.13037C22.9562 3.59379 22.8142 3.7749 22.3472 3.77668H22.3454Z" fill="#818181"/>
<path d="M4.84739 16.7239C4.26678 16.7239 3.91699 16.3795 3.91699 15.8042C3.91699 15.2662 4.36444 14.8099 4.88645 14.8187C5.42623 14.8276 5.81863 15.2289 5.8204 15.7687C5.8204 16.3297 5.41912 16.7257 4.84739 16.7257V16.7239Z" fill="#818181"/>
<path d="M16.8183 11.0724C16.2608 11.076 15.8062 10.6232 15.8116 10.0692C15.8169 9.53654 16.2768 9.06246 16.8006 9.05359C17.3244 9.04471 17.8073 9.53299 17.8091 10.0728C17.8091 10.6108 17.3581 11.0671 16.8201 11.0724H16.8183Z" fill="#818181"/>
</svg>
