<svg width="19" height="16" viewBox="0 0 19 16" fill="none" xmlns="http://www.w3.org/2000/svg">
<path d="M0.578125 0.53125L1.69923 14.0815C1.7988 15.1753 2.70175 16 3.7997 16H15.2942C16.3921 16 17.2951 15.1753 17.3953 14.0753L18.5158 0.53125H0.578125ZM6.03128 12.4844C6.03128 13.4112 4.62503 13.415 4.62503 12.4844V2.64062C4.62503 1.71377 6.03128 1.70997 6.03128 2.64062V12.4844ZM10.25 12.4844C10.25 13.4112 8.84378 13.415 8.84378 12.4844V2.64062C8.84378 1.71377 10.25 1.70997 10.25 2.64062V12.4844ZM14.4688 12.4844C14.4688 13.4112 13.0625 13.415 13.0625 12.4844V2.64062C13.0625 2.25198 13.377 1.9375 13.7657 1.9375C14.1543 1.9375 14.4688 2.25198 14.4688 2.64062V12.4844Z" fill="#1A202C"/>
</svg>