<?xml version="1.0" encoding="UTF-8"?>
<svg xmlns="http://www.w3.org/2000/svg" x="0px" y="0px"
width="100" height="100"
viewBox="0 0 172 172"
style=" fill:#000000;"><g fill="none" fill-rule="nonzero" stroke="none" stroke-width="1" stroke-linecap="butt" stroke-linejoin="miter" stroke-miterlimit="10" stroke-dasharray="" stroke-dashoffset="0" font-family="none" font-weight="none" font-size="none" text-anchor="none" style="mix-blend-mode: normal"><path d="M0,172v-172h172v172z" fill="none"></path><g fill="#2ecc71"><path d="M110.7164,75.6628l-17.8364,16.78204v-66.64484h-6.88h-6.88v66.64484l-17.8364,-16.78204l-9.718,9.7352l34.4344,33.27684l34.4344,-33.27684zM139.32,120.4v22.36h-106.64v-24.08h10.32v13.76h86v-12.04z"></path><path d="M84.8046,119.91324c0.33368,0.32164 0.76368,0.48332 1.1954,0.48332c0.43172,0 0.86172,-0.16168 1.1954,-0.48332l34.4344,-33.27856c0.33196,-0.32164 0.52116,-0.76024 0.5246,-1.2212c0.00344,-0.46096 -0.17716,-0.903 -0.50224,-1.2298l-9.718,-9.7352c-0.65704,-0.65876 -1.72,-0.67424 -2.39596,-0.03784l-14.9382,14.05584v-62.66648c0,-0.94944 -0.77056,-1.72 -1.72,-1.72h-13.76c-0.94944,0 -1.72,0.77056 -1.72,1.72v62.66648l-14.9382,-14.05584c-0.67596,-0.6364 -1.73892,-0.62092 -2.39596,0.03784l-9.718,9.7352c-0.32508,0.3268 -0.5074,0.76884 -0.50224,1.2298c0.00516,0.46096 0.19264,0.90128 0.5246,1.2212zM61.32144,78.06048l16.62036,15.63824c0.50052,0.46956 1.23324,0.59684 1.86104,0.32508c0.62952,-0.27176 1.03716,-0.89268 1.03716,-1.57724v-64.92656h10.32v64.92656c0,0.68628 0.40764,1.3072 1.03888,1.57896c0.62608,0.27004 1.36052,0.14276 1.86104,-0.32508l16.62036,-15.63824l7.30312,7.31516l-31.9834,30.90668l-31.98168,-30.9084z"></path><path d="M139.32,118.68h-10.32c-0.94944,0 -1.72,0.77056 -1.72,1.72v10.32h-82.56v-12.04c0,-0.94944 -0.77056,-1.72 -1.72,-1.72h-10.32c-0.94944,0 -1.72,0.77056 -1.72,1.72v24.08c0,0.94944 0.77056,1.72 1.72,1.72h106.64c0.94944,0 1.72,-0.77056 1.72,-1.72v-22.36c0,-0.94944 -0.77056,-1.72 -1.72,-1.72zM137.6,141.04h-103.2v-20.64h6.88v12.04c0,0.94944 0.77056,1.72 1.72,1.72h86c0.94944,0 1.72,-0.77056 1.72,-1.72v-10.32h6.88z"></path><path d="M50.74,125.56c-0.47472,0 -0.86,0.38528 -0.86,0.86c0,0.47472 0.38528,0.86 0.86,0.86h53.32c0.47472,0 0.86,-0.38528 0.86,-0.86c0,-0.47472 -0.38528,-0.86 -0.86,-0.86zM109.22,125.56c-0.47472,0 -0.86,0.38528 -0.86,0.86c0,0.47472 0.38528,0.86 0.86,0.86h5.16c0.47472,0 0.86,-0.38528 0.86,-0.86c0,-0.47472 -0.38528,-0.86 -0.86,-0.86zM117.82,125.56c-0.47472,0 -0.86,0.38528 -0.86,0.86c0,0.47472 0.38528,0.86 0.86,0.86h3.44c0.47472,0 0.86,-0.38528 0.86,-0.86c0,-0.47472 -0.38528,-0.86 -0.86,-0.86z"></path></g></g></svg>