<svg xmlns="http://www.w3.org/2000/svg" x="0px" y="0px"
width="128" height="128"
viewBox="0 0 172 172"
style=" fill:#000000;"><g fill="none" fill-rule="nonzero" stroke="none" stroke-width="1" stroke-linecap="butt" stroke-linejoin="miter" stroke-miterlimit="10" stroke-dasharray="" stroke-dashoffset="0" font-family="none" font-weight="none" font-size="none" text-anchor="none" style="mix-blend-mode: normal"><path d="M0,172v-172h172v172z" fill="none"></path><g><path d="M169.34609,86c0,-46.02344 -37.32266,-83.34609 -83.34609,-83.34609c-46.02344,0 -83.34609,37.32266 -83.34609,83.34609c0,46.02344 37.32266,83.34609 83.34609,83.34609c46.02344,0 83.34609,-37.32266 83.34609,-83.34609z" fill="#bc955c"></path><path d="M108.575,123.45703c-0.47031,-0.67187 -1.34375,-0.94062 -2.11641,-0.57109c-8.26406,3.89688 -17.63672,8.02891 -19.48437,8.39844c-0.03359,-0.03359 -0.13437,-0.10078 -0.20156,-0.23516c-0.23516,-0.33594 -0.36953,-0.77266 -0.36953,-1.34375c0,-4.66953 3.52734,-18.87969 10.48125,-42.22734c5.87891,-19.61875 6.55078,-23.68359 6.55078,-25.02734c0,-2.08281 -0.80625,-3.82969 -2.31797,-5.07266c-1.44453,-1.17578 -3.42656,-1.78047 -5.94609,-1.78047c-4.19922,0 -9.03672,1.57891 -14.81484,4.87109c-5.61016,3.15781 -11.89219,8.53281 -18.61094,15.95703c-0.5375,0.57109 -0.57109,1.44453 -0.13437,2.08281c0.43672,0.63828 1.27656,0.87344 2.01563,0.60469c2.35156,-0.97422 14.24375,-5.84531 15.99063,-6.92031c1.41094,-0.87344 2.65391,-1.34375 3.66172,-1.34375c0.03359,0 0.06719,0 0.10078,0c0,0.06719 0.03359,0.16797 0.03359,0.30234c0,1.00781 -0.20156,2.25078 -0.63828,3.59453c-10.11172,32.7875 -15.05,52.91016 -15.05,61.47656c0,3.02344 0.83984,5.44219 2.48594,7.22266c1.67969,1.81406 3.96406,2.72109 6.75234,2.72109c2.98984,0 6.61797,-1.24297 11.11953,-3.82969c4.33359,-2.48594 10.98516,-7.96172 20.29062,-16.69609c0.57109,-0.60469 0.67188,-1.51172 0.20156,-2.18359zM108.23906,28.42031c-1.64609,-1.67969 -3.7625,-2.55312 -6.28203,-2.55312c-3.12422,0 -5.87891,1.24297 -8.12969,3.69531c-2.21719,2.41875 -3.32578,5.34141 -3.32578,8.76797c0,2.6875 0.83984,4.93828 2.45234,6.65156c1.64609,1.74688 3.72891,2.62031 6.21484,2.62031c3.02344,0 5.71094,-1.31016 8.0625,-3.89687c2.31797,-2.55313 3.49375,-5.50938 3.49375,-8.86875c0,-2.58672 -0.83984,-4.73672 -2.48594,-6.41641z" fill="#ffffff"></path></g></g></svg>