<svg width="14" height="21" viewBox="0 0 14 21" fill="none" xmlns="http://www.w3.org/2000/svg">
<path d="M6.00358 6.95832C6.00157 6.95947 5.99956 6.96068 5.99755 6.96194C5.95151 6.98988 5.90412 7.01581 5.85548 7.03953C5.85166 7.04124 5.84789 7.04304 5.84407 7.0448C5.82467 7.05405 5.80507 7.06295 5.78537 7.07144C5.77919 7.0741 5.77296 7.07692 5.76673 7.07953C5.74402 7.08903 5.7212 7.09817 5.69798 7.10677C5.69436 7.10807 5.6908 7.10923 5.68718 7.11064C5.66693 7.11797 5.64642 7.12491 5.62582 7.13144C5.61682 7.13441 5.60788 7.13707 5.59888 7.13978C5.58255 7.14476 5.56602 7.14938 5.54948 7.15386C5.54114 7.15607 5.53275 7.15853 5.52426 7.16079C5.50149 7.16647 5.47852 7.1718 5.45536 7.17677C5.44636 7.17863 5.43737 7.18039 5.42827 7.1821C5.41149 7.18536 5.39465 7.18828 5.37761 7.19119C5.36852 7.1927 5.35952 7.19421 5.35048 7.19557C5.3262 7.19918 5.30183 7.2024 5.27721 7.20491C5.27158 7.20557 5.26595 7.20592 5.26037 7.20642C5.23927 7.20838 5.21806 7.21009 5.19675 7.21124C5.18916 7.2117 5.18167 7.2122 5.17414 7.21245C5.14775 7.21366 5.12132 7.21446 5.09469 7.21446C5.06805 7.21446 5.04157 7.21361 5.01528 7.21245C5.0077 7.21215 5.00021 7.21165 4.99257 7.21124C4.97131 7.21004 4.95021 7.20838 4.9291 7.20642C4.92347 7.20592 4.91779 7.20557 4.91226 7.20491C4.88769 7.2024 4.86337 7.19913 4.83904 7.19557C4.8299 7.19421 4.8208 7.19275 4.81176 7.19119C4.79482 7.18833 4.77799 7.18536 4.7612 7.1822C4.7521 7.18039 4.74306 7.17868 4.73391 7.17677C4.71085 7.1719 4.68788 7.16647 4.66516 7.16079C4.65657 7.15863 4.64818 7.15612 4.63959 7.1538C4.62315 7.14933 4.60687 7.14481 4.59074 7.13983C4.58159 7.13712 4.5725 7.13436 4.5635 7.13149C4.5431 7.12496 4.52295 7.11807 4.5029 7.11089C4.49887 7.10938 4.49475 7.10802 4.49073 7.10657C4.46797 7.09797 4.44536 7.08898 4.42294 7.07953C4.41661 7.07692 4.41018 7.0741 4.40385 7.07139C4.3843 7.06295 4.36485 7.05415 4.3457 7.04495C4.34173 7.04314 4.33776 7.04129 4.33389 7.03943C4.30967 7.02767 4.2857 7.01535 4.26208 7.00249C4.26203 7.00244 4.26188 7.00234 4.26178 7.00234C4.23821 6.98937 4.21509 6.97596 4.19218 6.96209C4.19002 6.96073 4.1879 6.95942 4.18574 6.95812C3.68275 6.64961 3.3463 6.09345 3.3463 5.45973C3.3461 4.49225 4.13051 3.70508 5.09465 3.70508C6.05882 3.70508 6.84326 4.49226 6.84326 5.45973C6.84326 6.09354 6.50671 6.64985 6.00353 6.95837L6.00358 6.95832Z" fill="#1A6058"/>
<path d="M2.03809 8.9148C2.35982 7.98098 3.04664 7.39493 4.07976 7.17236C4.10323 7.18643 4.1271 7.1999 4.15107 7.21302C4.15258 7.21382 4.15409 7.21463 4.15559 7.21538C4.18032 7.2288 4.20514 7.24151 4.23037 7.25378C4.23434 7.25574 4.23836 7.25775 4.24233 7.25971C4.26887 7.27247 4.2955 7.28458 4.32244 7.29614C4.32646 7.2978 4.33053 7.29941 4.33455 7.30111C4.35681 7.31036 4.37912 7.3192 4.40169 7.32765C4.40983 7.33066 4.41802 7.33378 4.42616 7.33674C4.45124 7.34574 4.47636 7.35448 4.50174 7.36237C4.50838 7.36448 4.51506 7.36634 4.52179 7.36835C4.54275 7.37469 4.5638 7.38067 4.58491 7.38644C4.59516 7.38911 4.60547 7.39187 4.61577 7.39438C4.63758 7.39981 4.65949 7.40489 4.6816 7.40966C4.6909 7.41167 4.70034 7.41353 4.70969 7.41549C4.73266 7.42001 4.75572 7.42413 4.77884 7.4279C4.78869 7.42951 4.79849 7.43107 4.80844 7.43243C4.83307 7.43594 4.85779 7.43921 4.88256 7.44187C4.88734 7.44243 4.89206 7.44308 4.89674 7.44348C4.92463 7.4463 4.95257 7.44831 4.98076 7.45002C4.9887 7.45037 4.99659 7.45072 5.00453 7.45117C5.03443 7.45253 5.06423 7.45348 5.09423 7.45348C5.12419 7.45348 5.15404 7.45248 5.18394 7.45117C5.19178 7.45072 5.19977 7.45037 5.20771 7.45002C5.2358 7.44836 5.26384 7.44625 5.29173 7.44348C5.29641 7.44303 5.30118 7.44238 5.3059 7.44187C5.33068 7.43921 5.3554 7.43594 5.38003 7.43243C5.38998 7.43097 5.39978 7.42946 5.40963 7.4279C5.43275 7.42413 5.45586 7.42006 5.47878 7.41549C5.48812 7.41353 5.49752 7.41167 5.50682 7.40966C5.52893 7.40499 5.55084 7.39981 5.57275 7.39438C5.58305 7.39187 5.59331 7.38911 5.60351 7.38644C5.62466 7.38067 5.64582 7.37468 5.66678 7.36835C5.67341 7.36634 5.6801 7.36448 5.68668 7.36242C5.71211 7.35443 5.73733 7.34569 5.76241 7.33669C5.77055 7.33373 5.77864 7.33076 5.78668 7.3277C5.8093 7.31921 5.83171 7.31026 5.85412 7.30096C5.85809 7.29931 5.86206 7.2978 5.86603 7.29614C5.89307 7.28463 5.91975 7.27242 5.94629 7.25971C5.95026 7.25775 5.95413 7.25584 5.9581 7.25388C5.98338 7.24161 6.0083 7.22875 6.03318 7.21533C6.03463 7.21448 6.03604 7.21382 6.0375 7.21302C6.06157 7.1999 6.08549 7.18644 6.10906 7.17236C7.14504 7.39539 7.83271 7.98407 8.15331 8.92226C8.34111 9.47218 8.34291 9.98739 8.33341 10.1993H1.85539C1.84594 9.98593 1.8481 9.4658 2.03806 8.91477L2.03809 8.9148Z" fill="#1A6058"/>
<path d="M10.9448 7.77881L10.7579 7.26807H9.46735L9.27582 7.77881H8.29994L9.66343 4.58213H10.6393L11.9572 7.77881H10.9448ZM9.73184 6.57492H10.5071L10.124 5.53065L9.73184 6.57492Z" fill="#1A6058" style="mix-blend-mode:multiply"/>
<rect x="0.55577" y="0.55577" width="12.7827" height="19.8885" rx="0.833656" stroke="#C09C1D" stroke-width="1.11154"/>
<rect x="1.85254" y="11.1152" width="6.48399" height="0.926284" rx="0.463142" fill="#1A6058"/>
<rect x="1.85254" y="14.8208" width="6.48399" height="0.926284" rx="0.463142" fill="#1A6058"/>
<rect x="1.85254" y="12.9678" width="6.48399" height="0.926284" rx="0.463142" fill="#1A6058"/>
</svg>
