<svg width="45" height="46" viewBox="0 0 45 46" fill="none" xmlns="http://www.w3.org/2000/svg">
<g filter="url(#filter0_dd_334_19707)">
<path fill-rule="evenodd" clip-rule="evenodd" d="M42.0639 7.93613C42.0566 4.88638 39.5785 2.41992 36.5287 2.42715L8.1125 2.4945C5.06274 2.50173 2.59629 4.9799 2.60352 8.02965L2.67087 36.4459C2.67809 39.4956 5.15627 41.9621 8.20602 41.9549L36.6222 41.8875C39.672 41.8803 42.1384 39.4021 42.1312 36.3524L42.0639 7.93613Z" fill="white"/>
</g>
<path d="M36.8389 24.3724H7.64961C6.35139 24.3724 5.29297 23.3139 5.29297 22.0075V15.2848C5.29297 13.9783 6.35139 12.9199 7.65788 12.9199H36.8471C38.1536 12.9199 39.212 13.9783 39.212 15.2848V22.0157C39.2038 23.3139 38.1453 24.3724 36.8389 24.3724Z" fill="#CC132C"/>
<path d="M8.15316 26.0586H6.9707V32.7564H8.15316V26.0586Z" fill="#221E20"/>
<path d="M9.61709 29.7713C9.61709 30.0193 9.6667 30.2509 9.75766 30.4741C9.84862 30.6974 9.98092 30.8876 10.1463 31.053C10.3117 31.2183 10.5019 31.3424 10.7251 31.4333C10.9484 31.5243 11.1799 31.5739 11.428 31.5739C11.676 31.5739 11.9076 31.5243 12.1308 31.4333C12.3541 31.3424 12.5443 31.2101 12.7097 31.053C12.875 30.8876 12.9991 30.6974 13.09 30.4741C13.181 30.2509 13.2306 30.0193 13.2306 29.7713C13.2306 29.5232 13.181 29.2917 13.09 29.0767C12.9991 28.8617 12.8668 28.6715 12.7097 28.5061C12.5443 28.3408 12.3541 28.2167 12.1308 28.1175C11.9076 28.0265 11.676 27.9769 11.428 27.9769C11.1799 27.9769 10.9484 28.0265 10.7251 28.1175C10.5019 28.2084 10.3117 28.3408 10.1463 28.5061C9.98092 28.6715 9.85689 28.8617 9.75766 29.0767C9.65843 29.2999 9.61709 29.5315 9.61709 29.7713ZM8.45117 29.7713C8.45117 29.3578 8.52559 28.9692 8.6827 28.6136C8.83981 28.2581 9.04653 27.9438 9.31941 27.671C9.59228 27.3981 9.9065 27.1914 10.2703 27.0343C10.6342 26.8772 11.0145 26.8027 11.4197 26.8027C11.8332 26.8027 12.2218 26.8772 12.5774 27.0343C12.9329 27.1914 13.2554 27.3981 13.5283 27.671C13.8012 27.9438 14.0161 28.2581 14.1733 28.6136C14.3304 28.9692 14.4048 29.3578 14.4048 29.7713C14.4048 30.1765 14.3304 30.5651 14.1733 30.9207C14.0161 31.2845 13.8012 31.5987 13.5283 31.8716C13.2554 32.1445 12.9412 32.3594 12.5774 32.5166C12.2218 32.6737 11.8332 32.7481 11.4197 32.7481C11.0145 32.7481 10.6259 32.6737 10.2703 32.5166C9.9065 32.3594 9.59228 32.1445 9.31941 31.8716C9.04653 31.5987 8.83981 31.2762 8.6827 30.9207C8.52559 30.5651 8.45117 30.1847 8.45117 29.7713Z" fill="#221E20"/>
<path d="M15.4796 27.6807C15.769 27.3913 16.0997 27.1681 16.4636 27.0275C16.8274 26.8787 17.2078 26.8125 17.5881 26.8125C17.9685 26.8125 18.3406 26.8869 18.7044 27.0275C19.0683 27.1763 19.399 27.3913 19.6884 27.6807L20.1019 28.0942L19.2833 28.9293L18.8615 28.5159C18.6879 28.3422 18.4894 28.2099 18.2662 28.119C18.0429 28.028 17.8197 27.9867 17.5881 27.9867C17.3566 27.9867 17.1333 28.028 16.9101 28.119C16.6868 28.2099 16.4884 28.3422 16.3147 28.5159C16.1411 28.6813 16.0088 28.8797 15.9178 29.103C15.8269 29.3262 15.7855 29.5495 15.7855 29.781C15.7855 30.0126 15.8269 30.2358 15.9178 30.4591C16.0088 30.6824 16.1411 30.8808 16.3147 31.0545C16.6703 31.41 17.092 31.5837 17.5881 31.5837C17.8279 31.5837 18.0595 31.5423 18.2745 31.4514C18.4977 31.3604 18.6879 31.2281 18.8615 31.0545L19.2833 30.641L20.1019 31.4762L19.6884 31.8896C19.399 32.179 19.0683 32.4023 18.7044 32.5429C18.3406 32.6917 17.9602 32.7578 17.5881 32.7578C17.2078 32.7578 16.8357 32.6834 16.4636 32.5429C16.0997 32.394 15.769 32.179 15.4796 31.8896C15.1902 31.6002 14.9752 31.2694 14.8263 30.9056C14.6857 30.5418 14.6113 30.1697 14.6113 29.7893C14.6113 29.4089 14.6857 29.0286 14.8263 28.673C14.9669 28.3009 15.1819 27.9701 15.4796 27.6807Z" fill="#221E20"/>
<path d="M26.584 26.059V29.7718C26.584 30.177 26.6584 30.5656 26.8155 30.9294C26.9726 31.2933 27.1876 31.6075 27.4605 31.8804C27.7334 32.1532 28.0559 32.3682 28.4114 32.5253C28.7752 32.6824 29.1556 32.7569 29.5608 32.7569H30.1479V31.5744H29.5608C29.3127 31.5744 29.0812 31.5248 28.8579 31.4338C28.6347 31.3429 28.4445 31.2106 28.2791 31.0535C28.1137 30.8881 27.9897 30.6979 27.8987 30.4746C27.8078 30.2514 27.7582 30.0199 27.7582 29.7718V29.1764H30.1479V27.994H27.7582V26.0508H26.584V26.059Z" fill="#221E20"/>
<path d="M37.8875 26.0586H36.7051V32.7564H37.8875V26.0586Z" fill="#221E20"/>
<path d="M24.6906 30.49C24.5914 30.7132 24.4674 30.9117 24.2937 31.077C24.1283 31.2424 23.9299 31.3747 23.6984 31.4657C23.4668 31.5566 23.227 31.6063 22.979 31.6063C22.7226 31.6063 22.4828 31.5566 22.2513 31.4657C22.028 31.3747 21.8296 31.2424 21.6559 31.077C21.4906 30.9117 21.3583 30.7132 21.259 30.49C21.1598 30.2667 21.1185 30.0269 21.1185 29.7706C21.1185 29.5225 21.1681 29.2827 21.259 29.0594C21.3583 28.8362 21.4823 28.646 21.6559 28.4806C21.8213 28.3152 22.0198 28.1829 22.2513 28.092C22.4746 28.001 22.7226 27.9514 22.979 27.9514C23.2353 27.9514 23.4751 28.001 23.6984 28.092C23.9299 28.1829 24.1201 28.3152 24.2937 28.4806C24.4591 28.646 24.5914 28.8444 24.6906 29.0594C24.7899 29.2827 24.8312 29.5142 24.8312 29.7706C24.8395 30.0269 24.7899 30.2667 24.6906 30.49ZM24.9304 26.8847V27.4387C24.7072 27.2568 24.4508 27.108 24.178 26.9839C23.8059 26.8268 23.4089 26.7441 22.9872 26.7441C22.5655 26.7441 22.1686 26.8268 21.7965 26.9839C21.4244 27.141 21.0937 27.356 20.8208 27.6289C20.5396 27.9018 20.3246 28.2243 20.1675 28.5881C20.0104 28.9519 19.9277 29.3488 19.9277 29.7706C19.9277 30.184 20.0104 30.5726 20.1675 30.9447C20.3246 31.3168 20.5479 31.6393 20.8208 31.9205C21.1019 32.2016 21.4244 32.4166 21.7965 32.5737C22.1686 32.7308 22.5655 32.8135 22.9872 32.8135C23.4172 32.8135 23.8141 32.7308 24.178 32.5737C24.4508 32.458 24.7072 32.3008 24.9304 32.1189V32.7143H26.0715V26.8847H24.9304Z" fill="#221E20"/>
<path d="M34.3984 29.1432C34.0842 29.1432 33.7535 29.1349 33.4144 29.1349C33.0754 29.1349 32.7447 29.1349 32.4387 29.1349C32.1328 29.1349 31.9095 29.1349 31.7524 29.1349C31.7937 29.0109 31.8516 28.8951 31.9178 28.7793C31.926 28.7711 31.926 28.7628 31.9343 28.7545C31.9508 28.7215 31.9756 28.6966 32.0005 28.6636C32.3312 28.217 32.8521 27.9276 33.4475 27.9276C33.464 27.9276 33.4889 27.9276 33.5054 27.9276C33.555 27.9276 33.6129 27.9359 33.6625 27.9359C34.0015 27.9772 34.3157 28.1178 34.5721 28.3245C34.5886 28.3411 34.6052 28.3576 34.63 28.3742C34.6713 28.4072 34.7044 28.4486 34.7457 28.4817C34.7953 28.5313 34.8367 28.5809 34.878 28.6388C34.8863 28.647 34.8863 28.647 34.8946 28.6553C34.9938 28.7959 35.0765 28.9612 35.1344 29.1349C34.9607 29.1514 34.7127 29.1432 34.3984 29.1432ZM36.416 29.7303C36.416 29.6972 36.416 29.6641 36.4078 29.631C36.3995 29.2589 36.3251 28.9034 36.1763 28.5726C36.0191 28.2088 35.8041 27.8946 35.5395 27.63C35.2749 27.3653 34.9525 27.1504 34.5969 26.9932C34.2579 26.8444 33.8858 26.77 33.4971 26.7617C33.4806 26.7617 33.4558 26.7617 33.4392 26.7617C33.0258 26.7617 32.6454 26.8361 32.2899 26.9932C32.0253 27.109 31.7772 27.2579 31.5622 27.4398C31.2066 27.7375 30.9172 28.1096 30.727 28.5395C30.7188 28.5478 30.7188 28.5643 30.7105 28.5726C30.7022 28.5891 30.7022 28.6057 30.694 28.614C30.5451 28.9612 30.4707 29.3251 30.4707 29.722C30.4707 29.7468 30.4707 29.7633 30.4707 29.7799C30.4707 29.8626 30.479 29.937 30.479 30.0197C30.479 30.0279 30.479 30.0362 30.479 30.0445C30.512 30.3256 30.5782 30.5985 30.6857 30.8548C30.8345 31.2187 31.0495 31.5411 31.3307 31.8223C31.6118 32.1034 31.9343 32.3184 32.2981 32.4673C32.662 32.6161 33.0423 32.6905 33.2573 32.6905L33.2904 32.6823C33.34 32.6823 33.3814 32.6905 33.431 32.6905C34.1173 32.6905 34.7871 32.4507 35.3163 32.0125L34.5721 31.1112C34.2496 31.3758 33.8444 31.5246 33.431 31.5246C33.3483 31.5246 33.2656 31.5163 33.1829 31.5081C33.1581 31.5081 33.1333 31.4998 33.1085 31.4998C33.0341 31.4833 32.9596 31.4667 32.8935 31.4502C32.8687 31.4419 32.8439 31.4337 32.8191 31.4254C32.7612 31.4006 32.7033 31.384 32.6454 31.351C32.6289 31.3427 32.6124 31.3344 32.5958 31.3262C32.5214 31.2848 32.447 31.2352 32.3726 31.1856C32.0666 30.9623 31.8516 30.6729 31.7358 30.3173H36.3912V29.7303C36.416 29.7385 36.416 29.7385 36.416 29.7303Z" fill="#221E20"/>
<path d="M8.75712 17.328L7.55812 18.3534L6.92969 17.2867L8.40982 16.7657L6.92969 16.2448L7.55812 15.1533L8.75712 16.1786L8.46771 14.6406H9.6915L9.40209 16.1786L10.5928 15.1533L11.2213 16.2365L9.74112 16.7575L11.2213 17.2784L10.5928 18.3451L9.40209 17.328L9.6915 18.866H8.46771L8.75712 17.328Z" fill="white"/>
<path d="M12.0234 18.7585V18.7337C12.0234 16.4349 13.487 14.5 15.8023 14.5C18.1176 14.5 19.5564 16.4101 19.5564 18.7089V18.7337C19.5564 21.0324 18.1011 22.9674 15.7775 22.9674C13.454 22.9674 12.0234 21.0655 12.0234 18.7585ZM17.2907 18.7585V18.7337C17.2907 17.4437 16.6706 16.5011 15.7775 16.5011C14.8845 16.5011 14.2891 17.4107 14.2891 18.7089V18.7337C14.2891 20.0402 14.8927 20.9663 15.8023 20.9663C16.7119 20.9663 17.2907 20.0484 17.2907 18.7585Z" fill="white"/>
<path d="M20.0195 21.5292L21.4418 20.107C22.0206 20.7023 22.6408 21.0331 23.385 21.0331C24.0217 21.0331 24.4351 20.7106 24.4351 20.2062V20.1814C24.4351 19.6604 23.9555 19.3462 23.1121 19.3462H22.1612L21.8387 18.172L23.7075 16.4852H20.5901V14.666H26.461V16.2785L24.5178 17.9405C25.6837 18.1968 26.6264 18.8501 26.6264 20.231V20.2558C26.6264 21.9096 25.3034 22.968 23.4842 22.968C21.9131 22.968 20.8051 22.3974 20.0195 21.5292Z" fill="white"/>
<path d="M28.9257 16.716L27.553 17.0302L27.123 15.2855L29.5045 14.6074H31.1417V22.8019H28.9174V16.716H28.9257Z" fill="white"/>
<path d="M33.828 16.716L32.4554 17.0302L32.0254 15.2855L34.4068 14.6074H36.0524V22.8019H33.828V16.716Z" fill="white"/>
<defs>
<filter id="filter0_dd_334_19707" x="0.236909" y="0.849997" width="44.2606" height="44.2606" filterUnits="userSpaceOnUse" color-interpolation-filters="sRGB">
<feFlood flood-opacity="0" result="BackgroundImageFix"/>
<feColorMatrix in="SourceAlpha" type="matrix" values="0 0 0 0 0 0 0 0 0 0 0 0 0 0 0 0 0 0 127 0" result="hardAlpha"/>
<feOffset dy="0.788869"/>
<feGaussianBlur stdDeviation="1.1833"/>
<feColorMatrix type="matrix" values="0 0 0 0 0.2471 0 0 0 0 0.2471 0 0 0 0 0.2667 0 0 0 0.15 0"/>
<feBlend mode="normal" in2="BackgroundImageFix" result="effect1_dropShadow_334_19707"/>
<feColorMatrix in="SourceAlpha" type="matrix" values="0 0 0 0 0 0 0 0 0 0 0 0 0 0 0 0 0 0 127 0" result="hardAlpha"/>
<feOffset/>
<feColorMatrix type="matrix" values="0 0 0 0 0.2471 0 0 0 0 0.2471 0 0 0 0 0.2667 0 0 0 0.05 0"/>
<feBlend mode="normal" in2="effect1_dropShadow_334_19707" result="effect2_dropShadow_334_19707"/>
<feBlend mode="normal" in="SourceGraphic" in2="effect2_dropShadow_334_19707" result="shape"/>
</filter>
</defs>
</svg>
