<svg width="20" height="20" viewBox="0 0 20 20" fill="none" xmlns="http://www.w3.org/2000/svg">
<path fill-rule="evenodd" clip-rule="evenodd" d="M13.9414 13.1793L18.7815 17.9055C19.158 18.2732 19.1592 18.8682 18.7784 19.2402C18.4 19.6095 17.7812 19.6043 17.4115 19.2433L12.5715 14.517C9.53146 16.8273 5.13422 16.6181 2.33993 13.8895C-0.686227 10.9346 -0.686227 6.14344 2.33993 3.18858C5.36624 0.233608 10.2726 0.233608 13.2987 3.18858C16.093 5.91714 16.3072 10.2108 13.9413 13.1794L13.9414 13.1793ZM11.929 12.552C14.1987 10.3356 14.1987 6.74259 11.929 4.52607C9.65928 2.30974 5.97967 2.30974 3.70975 4.52607C1.44003 6.7424 1.44003 10.3355 3.70975 12.552C5.97948 14.7683 9.65909 14.7683 11.929 12.552Z" fill="#838383"/>
</svg>
