<svg width="24" height="24" viewBox="0 0 24 24" fill="none" xmlns="http://www.w3.org/2000/svg">
<path fill-rule="evenodd" clip-rule="evenodd" d="M17.4127 15.4971L23.2745 21.3592C23.7306 21.8152 23.732 22.5532 23.2708 23.0146C22.8126 23.4727 22.0631 23.4662 21.6154 23.0184L15.7535 17.1563C12.0718 20.0218 6.74623 19.7623 3.36204 16.378C-0.30297 12.7128 -0.30297 6.77013 3.36204 3.10509C7.02723 -0.560095 12.9694 -0.560095 16.6343 3.10509C20.0185 6.48945 20.2779 11.8151 17.4126 15.4972L17.4127 15.4971ZM14.9755 14.7189C17.7243 11.9699 17.7243 7.51328 14.9755 4.76404C12.2266 2.01502 7.77016 2.01502 5.02104 4.76404C2.27216 7.51305 2.27216 11.9697 5.02104 14.7189C7.76993 17.4679 12.2263 17.4679 14.9755 14.7189Z" fill="white"/>
</svg>
