<svg width="26" height="26" viewBox="0 0 26 26" fill="none" xmlns="http://www.w3.org/2000/svg">
<path fill-rule="evenodd" clip-rule="evenodd" d="M18.4947 16.8042L24.9302 23.2409C25.4308 23.7416 25.4324 24.5519 24.926 25.0586C24.423 25.5615 23.6002 25.5544 23.1087 25.0628L16.6732 18.6261C12.6312 21.7724 6.78457 21.4875 3.06923 17.7715C-0.954392 13.7471 -0.954392 7.222 3.06923 3.19775C7.09306 -0.826658 13.6167 -0.826658 17.6402 3.19775C21.3555 6.9138 21.6403 12.7614 18.4946 16.8044L18.4947 16.8042ZM15.819 15.9498C18.8369 12.9314 18.8369 8.03798 15.819 5.01929C12.8012 2.00084 7.90868 2.00084 4.89057 5.01929C1.87272 8.03773 1.87272 12.9312 4.89057 15.9498C7.90843 18.9683 12.8009 18.9683 15.819 15.9498Z" fill="#BC955C"/>
</svg>
