<svg width="28" height="28" viewBox="0 0 28 28" fill="none" xmlns="http://www.w3.org/2000/svg">
<path d="M16.0497 14.5564L15.4597 15.6054C16.0176 16.59 16.0689 17.8375 15.4789 18.8865C14.6003 20.4487 12.6372 20.9746 11.0953 20.0608C9.55341 19.147 9.01548 17.1388 9.89411 15.5766C10.4841 14.5276 11.5578 13.9468 12.6718 13.9531L13.2618 12.9041C11.5851 12.6551 9.85769 13.4418 8.96885 15.0222C7.79649 17.1066 8.51373 19.7842 10.5711 21.0035C12.6284 22.2228 15.2459 21.5216 16.4183 19.4372C17.3007 17.847 17.0982 15.9225 16.0497 14.5564Z" fill="#8B1232"/>
<path d="M19.5083 9.34144C19.7011 9.45567 19.9473 9.3897 20.0572 9.19443L20.19 8.95828C20.2998 8.76301 20.2323 8.51109 20.0396 8.39686L18.7129 7.61055L19.027 7.05198C19.1369 6.8567 19.0694 6.60478 18.8766 6.49055L18.6436 6.35242C18.4508 6.23819 18.2046 6.30416 18.0947 6.49944L13.2444 15.1233C12.3246 14.8567 11.3121 15.2436 10.8192 16.1201C10.2343 17.16 10.5903 18.5033 11.6212 19.1143C12.6477 19.7227 13.9609 19.3747 14.5484 18.3302C15.0439 17.4492 14.866 16.3629 14.1767 15.6758L16.455 11.625L17.7817 12.4113C17.9745 12.5256 18.2207 12.4596 18.3306 12.2643L18.4634 12.0282C18.5732 11.8329 18.5057 11.581 18.313 11.4668L16.9863 10.6804L17.3311 10.0674L18.0751 10.5083C18.223 10.596 18.413 10.5451 18.4973 10.3953L18.7246 9.99108C18.8089 9.84122 18.7568 9.64688 18.6089 9.55922L17.8649 9.11825L18.1842 8.55059L19.5083 9.34144Z" fill="#B18147"/>
</svg>
