<svg width="23" height="44" viewBox="0 0 23 44" fill="none" xmlns="http://www.w3.org/2000/svg">
<path d="M15.6359 22.0128V25.1757C18.1867 26.6551 19.8957 29.4099 19.8957 32.56C19.8957 37.2661 16.0823 41.0922 11.3635 41.0922C6.64464 41.0922 2.8313 37.2788 2.8313 32.56C2.8313 29.4099 4.55304 26.6551 7.09101 25.1757V22.0128C2.94609 23.6962 0 27.7774 0 32.5472C0 38.822 5.0887 43.9235 11.3762 43.9235C17.651 43.9235 22.7525 38.8348 22.7525 32.5472C22.7397 27.7774 19.8064 23.6962 15.6359 22.0128Z" fill="#8B1232"/>
<path d="M16.8348 5.59884C17.4214 5.59884 17.8933 5.12696 17.8933 4.54029V3.82609C17.8933 3.23942 17.4214 2.76754 16.8348 2.76754H12.7791V1.0713C12.7791 0.484638 12.3072 0 11.7078 0H10.9936C10.4197 0 9.94782 0.471884 9.94782 1.0713V27.0504C7.49913 27.6754 5.68811 29.9072 5.68811 32.56C5.68811 35.6974 8.23884 38.2481 11.3762 38.2481C14.5136 38.2481 17.0643 35.6974 17.0643 32.56C17.0643 29.9072 15.2533 27.6881 12.8046 27.0504V14.8452H16.8348C17.4214 14.8452 17.8933 14.3733 17.8933 13.7867V13.0725C17.8933 12.4858 17.4214 12.0139 16.8348 12.0139H12.7791V10.1519H15.0493C15.4956 10.1519 15.8655 9.78203 15.8655 9.33565V8.12406C15.8655 7.67768 15.4956 7.30783 15.0493 7.30783H12.7791V5.59884H16.8348Z" fill="#B18147"/>
</svg>
