<svg width="24" height="25" viewBox="0 0 24 25" fill="none" xmlns="http://www.w3.org/2000/svg">
<path fill-rule="evenodd" clip-rule="evenodd" d="M17.6588 16.1232L23.5901 22.0557C24.0516 22.5172 24.053 23.264 23.5863 23.731C23.1227 24.1945 22.3644 24.1879 21.9113 23.7348L15.98 17.8023C12.2545 20.7022 6.86583 20.4396 3.4415 17.0147C-0.26696 13.3055 -0.26696 7.29147 3.4415 3.58243C7.15016 -0.126759 13.1628 -0.126759 16.8711 3.58243C20.2954 7.00741 20.558 12.397 17.6586 16.1233L17.6588 16.1232ZM15.1926 15.3357C17.9741 12.5537 17.9741 8.04354 15.1926 5.26129C12.4112 2.47927 7.9019 2.47927 5.12018 5.26129C2.33871 8.0433 2.33871 12.5534 5.12018 15.3357C7.90166 18.1177 12.4109 18.1177 15.1926 15.3357Z" fill="white"/>
</svg>
