<svg width="60" height="55" viewBox="0 0 60 55" fill="none" xmlns="http://www.w3.org/2000/svg">
<path d="M34.4587 55C34.3651 54.8339 34.1948 54.9169 34.0634 54.9134C32.4702 54.8767 30.9197 54.5918 29.3863 54.2353C27.6676 53.8351 26.0305 53.2321 24.4662 52.4817C22.7634 51.6643 21.198 50.6719 19.7392 49.5257C18.1052 48.2411 16.7061 46.7841 15.5112 45.1699C13.8482 42.9231 12.732 40.4736 12.0748 37.8312C11.5381 35.6756 11.5241 33.5075 11.6237 31.3358C11.6894 29.9056 12.0399 28.495 12.497 27.1148C13.2269 24.9101 14.3173 22.8617 15.7691 20.9643C16.8196 19.5913 18.0265 18.337 19.3927 17.2168C21.0596 15.8509 22.9118 14.7048 24.9391 13.8132C26.9377 12.9342 29.0318 12.2928 31.2294 11.9292C32.9581 11.6433 34.6987 11.4665 36.4503 11.5406C38.0206 11.6076 39.5919 11.738 41.1224 12.1079C41.1822 12.1222 41.2529 12.0998 41.3186 12.0945C41.5934 12.2383 41.8981 12.2758 42.2068 12.3008C43.2534 12.6501 44.3218 12.9413 45.3514 13.3389C46.869 13.924 48.3149 14.6217 49.6611 15.4694C50.9586 16.2868 52.1685 17.2061 53.2658 18.2405C55.1707 20.037 56.6734 22.0765 57.8085 24.3312C58.5982 25.8999 59.1648 27.532 59.5173 29.2311C59.6806 30.0182 59.7304 30.815 59.8997 31.5984C59.9126 31.6592 59.9216 31.7128 59.9992 31.7289V32.3533C59.8359 32.9474 59.8339 33.5423 59.9992 34.1364V34.8493C59.8499 35.0092 59.816 35.1968 59.7961 35.4004C59.7403 35.9811 59.7194 36.5716 59.582 37.1389C59.2793 38.3842 58.9188 39.6134 58.4319 40.8211C57.3336 43.5485 55.6238 45.9176 53.472 48.0508C52.6106 48.904 51.6288 49.6383 50.628 50.3592C48.7261 51.7278 46.6111 52.7497 44.3547 53.5359C42.4129 54.2121 40.4025 54.657 38.3173 54.8464C37.8652 54.8875 37.3743 54.7767 36.9442 55H34.4597H34.4587ZM35.6805 53.066C47.9604 53.1499 57.2718 44.1229 57.8046 34.4446C58.1242 28.6487 56.0659 23.5835 51.5621 19.4179C47.329 15.5025 42.0614 13.5104 35.9972 13.4362C30.0574 13.3639 24.8475 15.214 20.5289 18.8811C15.9583 22.7617 13.6242 27.608 13.6202 33.235C13.6162 38.545 15.7193 43.1911 19.8657 47.0271C24.1873 51.0256 29.4818 53.0097 35.6795 53.0651L35.6805 53.066Z" fill="#AE1E42"/>
<path d="M60.0002 34.1363C59.8349 33.5423 59.8369 32.9473 60.0002 32.3533V34.1363Z" fill="#BD5A61"/>
<path d="M41.485 11.9956C40.3518 11.7607 39.2146 11.5677 38.0516 11.4748C37.1723 11.4043 36.2861 11.2926 35.4138 11.3283C33.6493 11.4007 31.8897 11.5168 30.1521 11.8893C28.2044 12.3065 26.3343 12.8854 24.5609 13.7064C22.7506 14.5443 21.0767 15.5609 19.5462 16.7812C18.2915 17.7817 17.1762 18.8805 16.1615 20.0731C15.9245 20.3509 15.6089 20.3098 15.3639 20.0704C14.8332 19.5523 14.3174 19.0217 13.8065 18.4875C13.3256 17.9845 12.8616 17.4691 12.3856 16.9625C12.3368 16.9107 12.2512 16.8491 12.1874 16.8527C10.3901 16.9634 8.66737 16.4927 6.90884 16.3068C6.44282 16.2577 5.9768 16.213 5.47593 16.163C5.39128 16.23 5.44506 16.3551 5.44406 16.4641C5.44008 18.6929 5.44605 20.9209 5.43609 23.1497C5.4351 23.4249 5.52173 23.5285 5.83241 23.6312C7.75425 24.2637 8.68828 25.7663 8.49411 27.4234C8.3298 28.8313 7.53219 29.9587 5.96584 30.5045C5.59243 30.6349 5.40025 30.793 5.42315 31.2147C5.47393 32.1169 5.43609 33.0228 5.4102 33.9268C5.40523 34.1233 5.52472 34.16 5.66711 34.2296C6.96958 34.8684 8.0251 35.8064 9.21803 36.5782C9.37935 36.6818 9.40424 36.7917 9.40424 36.9463C9.40125 39.5458 9.39727 42.1463 9.40822 44.7459C9.40922 45.0237 9.31761 45.0961 9.0149 45.0943C6.15006 45.0845 3.28523 45.0809 0.420397 45.097C0.0220889 45.0996 0.0111354 44.9397 0.0121312 44.67C0.0191016 42.2035 0.0400128 39.737 0.00018194 37.2714C-0.00977577 36.6559 0.390524 36.3227 0.828663 36.0458C1.20606 35.8073 1.53566 35.5107 1.87223 35.2516C2.34223 34.8898 2.79332 34.5137 3.32904 34.2305C3.47044 34.1555 3.60288 34.1358 3.38879 33.9813C3.32207 33.9331 3.36887 33.7553 3.36887 33.6365C3.36887 32.7601 3.36091 31.8829 3.37385 31.0065C3.37684 30.7877 3.32008 30.7001 3.07014 30.6081C2.31236 30.3303 1.63125 29.9587 1.11644 29.3414C-0.300541 27.6423 0.077852 25.1141 2.11022 24.0154C2.38904 23.8644 2.65092 23.6866 2.96459 23.6142C3.32506 23.5312 3.37684 23.3329 3.37584 23.0354C3.3629 20.8065 3.37385 18.5786 3.3629 16.3497C3.3619 16.0674 3.39178 15.8816 3.77614 15.9442C3.91257 15.9665 4.02708 15.9281 4.13164 15.8352C4.94916 15.108 5.72686 14.3487 6.47767 13.5661C6.97157 13.0507 7.53219 12.5906 8.03605 12.0805C8.87847 11.2283 9.79956 10.4377 10.6659 9.60421C12.2571 8.07484 13.8265 6.5267 15.4157 4.99644C17.0089 3.46259 18.645 1.96359 20.2004 0.399379C20.6176 -0.0204845 20.9771 -0.0553242 21.5128 0.0509816C21.9878 0.145674 22.4877 0.0947546 22.9796 0.148354C23.9853 0.258233 25.004 0.26538 26.0137 0.345779C27.6727 0.478885 29.3336 0.597697 30.9945 0.710256C32.1825 0.790656 33.3704 0.878202 34.5574 0.972894C36.2174 1.10511 37.8783 1.21588 39.5383 1.33469C40.7591 1.42134 41.9779 1.52229 43.1997 1.59822C44.6436 1.68756 46.0835 1.83406 47.5343 1.95645C47.4626 2.17531 47.2565 2.27715 47.1011 2.4183C45.2261 4.12812 43.3491 5.83616 41.48 7.55135C41.0767 7.92119 41.4053 8.33748 41.474 8.71089C41.6831 9.84988 41.961 10.9799 42.2119 12.1127C41.956 12.1404 41.7299 12.0198 41.485 11.993V11.9956ZM42.9358 3.57426C42.4658 3.45098 42.0904 3.41436 41.719 3.39024C40.074 3.28572 38.432 3.16244 36.7909 3.02397C35.3431 2.90069 33.8863 2.8596 32.4384 2.73811C32.0142 2.70237 31.591 2.68897 31.1678 2.65592C29.8205 2.55051 28.4772 2.41026 27.13 2.30842C26.0864 2.22891 25.0319 2.23784 23.9983 2.10563C23.4476 2.03506 22.8939 2.07973 22.3423 1.97074C21.9978 1.90285 21.5586 1.81262 21.245 2.16102C20.2332 3.28929 19.0423 4.27016 17.9758 5.35466C17.1165 6.22833 16.2143 7.06806 15.3241 7.91672C13.6303 9.53275 11.9325 11.1443 10.2357 12.7577C9.68007 13.2856 9.12343 13.8136 8.57078 14.3442C8.4951 14.4175 8.35868 14.4925 8.39951 14.5943C8.45228 14.7257 8.61758 14.6962 8.74902 14.6989C9.23695 14.7105 9.71691 14.8329 10.1939 14.8445C10.4966 14.8525 10.87 15.1455 11.1608 14.7551C12.6903 12.705 14.5534 10.9326 16.7351 9.43091C18.887 7.94888 21.222 6.7688 23.7752 5.92818C26.1491 5.14651 28.6077 4.74363 31.1091 4.54441C32.8825 4.40327 34.662 4.52565 36.4215 4.7329C37.7309 4.88656 39.0404 5.09738 40.296 5.50117C40.4504 5.5503 40.6406 5.55834 40.8009 5.41719C41.5049 4.79633 42.2219 4.18798 42.9338 3.57426H42.9358ZM32.765 8.23832C31.6468 8.23028 30.5275 8.31068 29.4342 8.47594C27.5422 8.7627 25.7 9.22187 23.9236 9.91152C21.4521 10.871 19.2873 12.2243 17.3535 13.8788C16.529 14.5836 15.7911 15.3697 15.115 16.2032C14.8491 16.5311 14.7436 16.7035 15.1588 16.9777C15.3689 17.1162 15.4834 17.4878 15.7124 17.4976C15.9943 17.5102 16.0759 17.1332 16.286 16.9545C16.9074 16.4274 17.4879 15.8638 18.1461 15.3688C18.9368 14.7739 19.7045 14.1575 20.5589 13.6331C22.2397 12.6013 24.0202 11.7437 25.9191 11.0782C28.7521 10.0857 31.6906 9.57563 34.7197 9.43538C35.7762 9.38624 36.8248 9.50863 37.8763 9.54615C38.2746 9.56044 38.6928 9.56223 39.0892 9.65603C39.2455 9.69265 39.4447 9.79003 39.5163 9.62297C39.595 9.44073 39.4715 9.24778 39.2983 9.12271C39.2156 9.06286 39.0902 9.04767 38.9816 9.02087C36.9463 8.52061 34.8721 8.27048 32.764 8.23742L32.765 8.23832ZM2.14607 40.3025C2.14607 41.1636 2.15503 42.0257 2.14009 42.8869C2.13611 43.1334 2.2088 43.221 2.49857 43.2192C3.97132 43.2076 5.44506 43.2067 6.9188 43.2192C7.21653 43.2219 7.3191 43.154 7.31611 42.8726C7.30217 41.2092 7.30814 39.5458 7.31113 37.8825C7.31113 37.7288 7.2952 37.6002 7.13787 37.4939C6.43485 37.0195 5.75275 36.5201 5.03679 36.0619C4.74105 35.8725 4.39153 35.818 4.04401 36.0467C3.49135 36.4094 3.03131 36.8694 2.4906 37.2366C2.20781 37.4286 2.13711 37.6136 2.14109 37.8968C2.15403 38.699 2.14607 39.5003 2.14607 40.3025ZM2.35916 27.0616C2.3512 28.1264 3.20656 28.8965 4.39253 28.9546C5.44307 29.0064 6.44282 28.0469 6.43386 27.0696C6.42589 26.2424 5.71491 25.1785 4.14856 25.2946C3.23544 25.3625 2.35916 26.1575 2.36016 27.0607L2.35916 27.0616Z" fill="#AE1E42"/>
<path d="M41.4851 11.9961C41.7301 12.0229 41.9561 12.1426 42.2121 12.1158C42.2101 12.1774 42.2091 12.2391 42.2071 12.3007C41.8984 12.2757 41.5937 12.2382 41.3188 12.0944C41.3746 12.0622 41.4294 12.0291 41.4851 11.997V11.9961Z" fill="#FDFAF7"/>
<path d="M2.35896 27.0623C2.35896 26.1592 3.23524 25.3641 4.14737 25.2962C5.71371 25.1792 6.42469 26.2432 6.43266 27.0713C6.44262 28.0486 5.44286 29.0071 4.39133 28.9562C3.20537 28.8981 2.35 28.1272 2.35797 27.0632L2.35896 27.0623Z" fill="#FFFEFE"/>
<path d="M17.0547 33.7434C17.21 22.986 25.8165 16.9042 33.5835 16.1038C39.4137 15.5035 44.5897 16.9015 48.9223 20.5025C52.9821 23.8766 55.0334 28.0869 55.0234 33.0591C55.0135 37.8 53.0618 41.8495 49.3177 45.1673C45.6393 48.427 41.1085 50.0618 35.9863 50.0573C30.6778 50.0529 26.0704 48.2466 22.3741 44.8019C18.8152 41.485 17.0965 37.4597 17.0547 33.7434ZM20.0201 33.1797C20.0589 36.8853 21.4849 40.1084 24.3139 42.8017C27.801 46.1213 32.1326 47.6847 37.1961 47.3809C44.9512 46.9164 51.9216 41.0839 52.069 33.2235C52.2223 25.0728 44.8606 18.6167 36.048 18.5989C27.3161 18.5819 19.807 25.0639 20.0201 33.1797Z" fill="#E1C89D"/>
<path d="M29.4062 37.0869C29.8065 36.9172 29.908 36.4285 30.389 36.3455C30.4139 36.3231 30.4378 36.3017 30.4627 36.2794C30.6379 36.0909 30.7913 35.8782 31.0801 35.8104C31.1468 35.8157 31.2135 35.8202 31.2802 35.8246C32.3666 36.8779 33.5267 37.8534 35.1767 38.108C36.1057 38.2518 37.0427 38.1902 37.7647 37.5363C38.5125 36.8582 38.2327 35.8282 37.2827 35.4262C36.0888 34.9206 34.7933 34.7803 33.5426 34.4766C31.6865 34.0255 30.0982 33.2063 29.5904 31.4152C29.1592 29.893 29.2448 28.3538 30.3442 27.0218C31.0482 26.1687 32.0808 25.7184 33.1921 25.4228C34.1719 25.161 34.4438 24.7706 34.1988 23.8684C34.0962 23.4923 34.2058 23.1358 34.2705 22.774C34.3054 22.5811 34.4936 22.632 34.631 22.6311C35.6078 22.6275 36.5847 22.6356 37.5615 22.6249C37.8423 22.6213 37.9419 22.7106 37.9339 22.9607C37.918 23.4503 37.926 23.9407 37.928 24.4312C37.93 24.9859 38.0803 25.1887 38.6887 25.3039C40.0012 25.5505 41.1174 26.1142 42.1222 26.895C42.8839 27.4872 42.8959 27.682 42.1371 28.2609C41.6462 28.6352 41.1622 29.0157 40.6863 29.4052C40.1226 29.8679 40.1167 29.8813 39.6208 29.357C38.9556 28.6539 38.0913 28.2492 37.1304 27.9929C36.4064 27.7999 35.6885 27.9366 35.0034 28.1483C34.3492 28.3502 34.1351 28.7165 34.153 29.4034C34.1669 29.9224 34.4776 30.2941 35.0821 30.4808C35.8617 30.722 36.6773 30.839 37.4709 31.0275C38.8381 31.3527 40.2411 31.6099 41.3933 32.4291C42.4308 33.167 42.9944 34.1032 43.1269 35.3056C43.2205 36.1498 43.2175 36.9583 42.876 37.7462C42.2486 39.1916 40.992 40.051 39.4276 40.5539C37.6541 41.1248 37.9449 40.9523 37.9369 42.4755C37.9336 43.1538 37.5506 43.493 36.7878 43.493C36.0758 43.493 35.3639 43.4822 34.6519 43.4983C34.3492 43.5055 34.2486 43.4161 34.2516 43.1428C34.2566 42.6916 34.161 42.2503 34.2396 41.7858C34.3512 41.1283 34.1928 40.9827 33.4679 40.8326C31.799 40.4869 30.3611 39.7731 29.1473 38.6913C29.1005 38.6493 29.0517 38.6091 29.0079 38.5645C28.4144 37.9525 28.4512 37.7176 29.213 37.2799C29.2966 37.2316 29.3952 37.203 29.3982 37.0932L29.4032 37.0887L29.4062 37.0869Z" fill="#E1C89D"/>
<path d="M31.2812 35.8257C31.2145 35.8212 31.1478 35.8158 31.0811 35.8114C31.092 35.7533 31.103 35.6845 31.1876 35.6917C31.2673 35.6979 31.2712 35.7685 31.2812 35.8257Z" fill="#FDFCF9"/>
<path d="M30.4606 36.2795C30.4363 36.3013 30.413 36.3232 30.3887 36.3441C30.413 36.3223 30.4363 36.3005 30.4606 36.2795Z" fill="#FDFCF9"/>
<path d="M29.3992 37.0894C29.3849 37.0758 29.3717 37.0622 29.3574 37.0486C29.3726 37.0614 29.3878 37.0733 29.4039 37.086L29.4001 37.0903L29.3992 37.0894Z" fill="#FDFCF9"/>
</svg>
