<svg width="132" height="133" viewBox="0 0 132 133" fill="none" xmlns="http://www.w3.org/2000/svg">
<path d="M24.6434 31.8361V104.717C24.6434 108.108 27.4211 110.867 30.8347 110.867H85.0435C88.4579 110.867 91.2356 108.108 91.2356 104.717L91.2349 42.2624H105.29C106.432 42.2624 107.358 41.3425 107.358 40.2083V32.1978C107.358 29.5085 106.304 26.9806 104.39 25.0807C102.477 23.1801 99.9316 22.1333 97.2241 22.1333H34.768C29.3322 22.1333 24.886 26.3557 24.6445 31.7454C24.6431 31.7754 24.6423 31.8062 24.6423 31.8363L24.6434 31.8361ZM89.0431 26.2411C89.0298 26.2587 89.0173 26.2778 89.004 26.2954C88.9789 26.3299 88.9545 26.3644 88.9301 26.3988C88.8703 26.4832 88.812 26.5683 88.7543 26.6548C88.7292 26.6923 88.7049 26.7297 88.6805 26.7671C88.6155 26.8683 88.552 26.971 88.4899 27.0744C88.4781 27.0935 88.4663 27.1126 88.4545 27.1324C88.3828 27.2549 88.3142 27.3789 88.2477 27.5051C88.2285 27.541 88.2108 27.5769 88.1923 27.6136C88.1443 27.7068 88.0978 27.8007 88.0527 27.896C88.0328 27.9386 88.0128 27.9811 87.9929 28.0237C87.9471 28.1242 87.9028 28.2254 87.8607 28.3274C87.8474 28.3597 87.8334 28.3912 87.8201 28.4235C87.7661 28.5563 87.7152 28.6898 87.6672 28.8255C87.6554 28.8585 87.645 28.8915 87.6332 28.9252C87.597 29.0309 87.5623 29.1365 87.5298 29.2436C87.5158 29.2891 87.5025 29.3346 87.4892 29.3801C87.4589 29.4835 87.4308 29.5869 87.4042 29.6911C87.3939 29.7307 87.3836 29.7703 87.3732 29.8107C87.3385 29.953 87.3068 30.0953 87.2787 30.2398C87.2743 30.2633 87.2706 30.2868 87.2661 30.3095C87.2432 30.432 87.2218 30.5552 87.2034 30.68C87.1967 30.7262 87.1901 30.7731 87.1834 30.8201C87.1687 30.9272 87.1561 31.035 87.145 31.1436C87.1406 31.1883 87.1354 31.2331 87.131 31.2786C87.1177 31.4289 87.1066 31.5793 87.0992 31.7312C87.0911 31.8874 87.0881 32.0415 87.0881 32.1977V40.2083C87.0881 40.2706 87.0911 40.3315 87.0963 40.3924L87.0985 104.716C87.0985 105.842 86.176 106.757 85.0423 106.757H30.8336C29.6999 106.757 28.7782 105.841 28.7782 104.716V31.8853C28.9421 28.7171 31.5647 26.2412 34.7672 26.2412L89.0431 26.2411ZM103.222 32.1978V38.1544H91.2352V31.8986C91.3925 28.7245 94.0174 26.2413 97.2243 26.2413C98.827 26.2413 100.334 26.8604 101.466 27.9857C102.598 29.1103 103.222 30.6066 103.222 32.1978Z" fill="#C09C1D"/>
<path d="M43.6909 49.0974H70.1628C71.3046 49.0974 72.2309 48.1776 72.2309 47.0433C72.2309 45.9091 71.3047 44.9893 70.1628 44.9893H43.6909C42.549 44.9893 41.6228 45.9091 41.6228 47.0433C41.6228 48.1776 42.549 49.0974 43.6909 49.0974Z" fill="#C09C1D"/>
<path d="M36.8713 77.1482H78.2326C79.3744 77.1482 80.3007 76.2283 80.3007 75.0941C80.3007 73.96 79.3745 73.04 78.2326 73.04H36.8713C35.7295 73.04 34.8032 73.9599 34.8032 75.0941C34.8032 76.2282 35.7294 77.1482 36.8713 77.1482Z" fill="#C09C1D"/>
<path d="M36.8713 64.8221H78.2326C79.3744 64.8221 80.3007 63.9022 80.3007 62.768C80.3007 61.6339 79.3745 60.7139 78.2326 60.7139H36.8713C35.7295 60.7139 34.8032 61.6338 34.8032 62.768C34.8032 63.9021 35.7294 64.8221 36.8713 64.8221Z" fill="#C09C1D"/>
<path d="M77.7043 93.1443C77.126 93.3218 76.6555 93.7421 76.4162 94.2945C76.0027 95.2503 75.3727 96.3037 74.9015 96.8767C73.9524 95.8577 72.2596 93.3959 70.8652 90.9553C70.4013 90.144 69.4456 89.7442 68.5366 89.9841C67.6577 90.2159 67.038 90.9884 67.0003 91.8832C66.7573 92.867 64.2425 96.2692 61.5711 99.2226C60.8082 100.066 60.8776 101.365 61.727 102.123C62.1221 102.476 62.6162 102.65 63.1088 102.65C63.6753 102.65 64.2388 102.42 64.6473 101.969C64.71 101.899 66.2041 100.246 67.7219 98.3086C68.3416 97.5178 68.8512 96.8268 69.2692 96.2194C69.3261 96.3059 69.3837 96.3925 69.442 96.4798C71.8098 100.013 72.9953 100.805 73.8423 101.113C76.1229 101.943 77.9516 99.9613 79.1231 98.0422L81.4443 99.4998C82.4104 100.106 83.6873 99.8197 84.2974 98.8609C84.9075 97.9021 84.6194 96.6331 83.6541 96.0271L79.4214 93.3702C78.9096 93.0489 78.2819 92.9667 77.7043 93.1443Z" fill="#C09C1D"/>
<path d="M45.5019 36.7836C45.5497 36.8602 45.6261 36.8986 45.7312 36.8986C45.865 36.9082 45.9605 36.7644 45.9605 36.7644L48.2249 33.8405C48.416 33.6488 48.5976 33.8021 48.5976 33.8021C48.7791 33.9939 48.6453 34.1568 48.6453 34.1568L48.139 34.8087V34.8183C48.0912 34.8662 48.0721 34.9238 48.0721 34.9909C48.0721 35.0484 48.0912 35.1059 48.1294 35.1538L48.6358 35.8057L50.2409 33.7542L49.6008 32.9298L49.4861 32.7764C49.381 32.623 49.1517 32.5942 49.1517 32.5942H48.1867C47.9288 32.5942 47.795 32.7764 47.795 32.7764L45.0911 36.2563L45.5019 36.7836Z" fill="#9F2241"/>
<path d="M45.3876 35.0001L44.7475 34.1661C44.6137 33.9552 44.8048 33.8018 44.8048 33.8018C45.0437 33.658 45.187 33.8785 45.187 33.8785L45.7221 34.5687L46.3526 33.7443L45.6265 32.8048C45.4545 32.5556 45.187 32.5939 45.187 32.5939H44.3175C44.0405 32.5939 43.9162 32.7665 43.9162 32.7665L43.1423 33.7443L44.7475 35.815L45.3876 35.0001Z" fill="#9F2241"/>
<path d="M47.8814 35.7098C47.8814 35.7098 47.8049 35.5947 47.6616 35.5947C47.5087 35.5947 47.4514 35.7002 47.4514 35.7002L45.1583 38.6624C44.9768 38.8637 44.7666 38.7008 44.7666 38.7008C44.5851 38.509 44.7379 38.3365 44.7379 38.3365L45.2539 37.675V37.6654C45.3017 37.6175 45.3208 37.56 45.3208 37.4929C45.3208 37.4353 45.3017 37.3778 45.2634 37.3299L44.757 36.678L43.1423 38.7583L44.0405 39.8991L45.4545 39.9087L48.3018 36.2562L47.8814 35.7098Z" fill="#9F2241"/>
<path d="M47.996 37.4838L48.6457 38.3274C48.7986 38.5383 48.6075 38.6917 48.6075 38.6917C48.3591 38.8643 48.2062 38.6054 48.2062 38.6054L47.6616 37.9056L47.031 38.7301L47.9482 39.8996L49.3528 39.89L50.2509 38.7301L48.6362 36.6689L47.996 37.4838Z" fill="#9F2241"/>
<path d="M50.2312 36.601C50.0402 36.601 49.8873 36.4476 49.8873 36.2559C49.8873 36.0642 50.0402 35.9108 50.2312 35.9108C50.4223 35.9108 50.5752 36.0642 50.5752 36.2559C50.5752 36.4476 50.4223 36.601 50.2312 36.601ZM50.2312 35.604C49.8682 35.604 49.5815 35.8916 49.5815 36.2463C49.5815 36.601 49.8682 36.8886 50.2312 36.8886C50.5943 36.8886 50.881 36.601 50.881 36.2463C50.881 35.8916 50.5943 35.604 50.2312 35.604Z" fill="#9F2241"/>
<path d="M46.6866 31.597C46.8777 31.597 47.0305 31.7504 47.0305 31.9421C47.0305 32.1338 46.8777 32.2872 46.6866 32.2872C46.4955 32.2872 46.3426 32.1338 46.3426 31.9421C46.3426 31.7504 46.505 31.597 46.6866 31.597ZM46.6866 32.594C47.0496 32.594 47.3363 32.3064 47.3363 31.9517C47.3363 31.597 47.0496 31.2998 46.6866 31.2998C46.3235 31.2998 46.0369 31.5874 46.0369 31.9421C46.0369 32.2968 46.3235 32.594 46.6866 32.594Z" fill="#9F2241"/>
<path d="M42.7889 36.2463C42.7889 36.0546 42.9417 35.9012 43.1328 35.9012C43.3239 35.9012 43.4768 36.0546 43.4768 36.2463C43.4768 36.438 43.3239 36.5914 43.1328 36.5914C42.9417 36.5914 42.7889 36.438 42.7889 36.2463ZM43.7921 36.2463C43.7921 35.8916 43.5055 35.604 43.1424 35.604C42.7793 35.604 42.4927 35.8916 42.4927 36.2463C42.4927 36.601 42.7793 36.8886 43.1424 36.8886C43.4959 36.8982 43.7921 36.601 43.7921 36.2463Z" fill="#9F2241"/>
<path d="M46.6866 40.9062C46.4955 40.9062 46.3426 40.7528 46.3426 40.5611C46.3426 40.3693 46.4955 40.2159 46.6866 40.2159C46.8777 40.2159 47.0305 40.3693 47.0305 40.5611C47.0305 40.7432 46.8777 40.9062 46.6866 40.9062ZM46.6866 39.9092C46.3235 39.9092 46.0369 40.1968 46.0369 40.5515C46.0369 40.9062 46.3235 41.1938 46.6866 41.1938C47.0496 41.1938 47.3363 40.9062 47.3363 40.5515C47.3363 40.1968 47.0496 39.9092 46.6866 39.9092Z" fill="#9F2241"/>
<path d="M39.8746 31.9424H32.3647V36.9657C32.3647 39.7266 36.1101 40.5511 36.1101 40.5511H36.1197C36.1197 40.5511 39.865 39.7171 39.865 36.9657L39.8746 31.9424ZM39.6835 32.1245V36.9657C39.6835 37.5505 39.502 38.0969 39.1389 38.5763C38.8427 38.9693 38.4319 39.324 37.9064 39.6308C37.1133 40.1005 36.3012 40.321 36.1101 40.3594C35.9286 40.3114 35.126 40.1005 34.3234 39.6308C33.7979 39.324 33.3871 38.9693 33.0909 38.5763C32.7278 38.0969 32.5463 37.5505 32.5463 36.9657V32.1245H39.6835Z" fill="#BC955C"/>
<path d="M37.027 33.5524V33.0923H36.5588V33.5237H36.3773V33.0923H35.89V33.5237H35.7084V33.0923H35.2307V33.5524L35.4696 33.9551C35.4791 33.9742 35.4791 33.9838 35.4791 34.003V36.112H35.7084V35.3547C35.7084 35.1726 35.9091 35.0096 36.1288 35.0096C36.3581 35.0096 36.5492 35.1726 36.5492 35.3547V36.112H36.7881V35.3164C36.7881 35.3068 36.7881 35.3068 36.7881 35.3068V34.9137V34.9041V34.6165V34.4919V34.0126C36.7881 33.9934 36.7977 33.9838 36.8072 33.9647L37.027 33.5524Z" fill="#BC955C"/>
<path d="M35.2782 36.1599V35.4601L35.2018 35.5176C35.1731 35.5368 35.1349 35.5368 35.1062 35.508L35.0011 35.4409C35.0011 35.4505 35.0011 35.4505 35.0011 35.4505L34.9916 35.7189C34.9916 35.7477 34.9725 35.7764 34.9534 35.786C34.9629 35.7956 34.9725 35.7956 34.982 35.8052C35.1062 35.9011 35.1158 36.0449 35.0871 36.1599H35.2782Z" fill="#BC955C"/>
<path d="M36.1097 35.2021C35.9664 35.2021 35.8708 35.3076 35.8708 35.3555V36.1129H36.3486V35.3555C36.3581 35.298 36.253 35.2021 36.1097 35.2021Z" fill="#BC955C"/>
<path d="M33.3007 36.1598C33.2721 36.1022 33.253 36.0351 33.2434 35.9489C33.2148 35.7955 33.2243 35.6708 33.2243 35.6613C33.2243 35.6229 33.253 35.5942 33.2912 35.575L33.4918 35.5175L33.2625 35.3545C33.2339 35.3353 33.2243 35.3066 33.2243 35.2778V35.019C33.2243 34.9806 33.2434 34.9519 33.2721 34.9327L33.3581 34.8848V34.7985L33.2912 34.7697C33.253 34.7601 33.2243 34.7314 33.2243 34.6834V34.3767C33.2243 34.3287 33.2625 34.2808 33.3199 34.2808L33.6065 34.2712C33.5969 34.1945 33.5969 34.0891 33.616 34.0028C33.6447 33.8878 33.7116 33.7631 33.7403 33.7056L33.7211 33.6002C33.7116 33.5714 33.7307 33.5522 33.7403 33.5331C33.7594 33.5139 33.7785 33.5043 33.8071 33.5043H33.96C33.9791 33.5043 33.9982 33.5139 34.0078 33.5235L34.3804 33.7631H34.5619C34.5906 33.7631 34.6097 33.7727 34.6288 33.7919C34.6479 33.8111 34.6575 33.8302 34.6575 33.859L34.6384 34.1562C34.6384 34.1849 34.6288 34.2041 34.6097 34.2233H34.7244C34.753 34.2233 34.7721 34.2329 34.7913 34.252L34.839 34.3096L34.8772 34.2808L34.9441 34.1466C34.9632 34.1178 34.9919 34.0987 35.0301 34.0987H35.2785V34.0507L35.0397 33.6385C35.0301 33.6193 35.0301 33.6097 35.0301 33.5906V32.9962C35.0301 32.9483 35.0683 32.9003 35.1257 32.9003H35.6989H35.8805H36.3677H36.5588H37.1226C37.1703 32.9003 37.2181 32.9387 37.2181 32.9962V33.5714C37.2181 33.5906 37.2085 33.6002 37.199 33.6193L36.9601 34.022V34.0795H37.2085C37.2468 34.0795 37.2754 34.0987 37.2945 34.1274L37.3614 34.2616L37.3996 34.2904L37.4474 34.2329C37.4665 34.2137 37.4856 34.2041 37.5143 34.2041H37.6289C37.6098 34.1849 37.6003 34.1658 37.6003 34.137L37.5812 33.8398C37.5812 33.8111 37.5907 33.7919 37.6098 33.7727C37.6289 33.7535 37.6481 33.744 37.6767 33.744H37.8487L38.2213 33.5043C38.2404 33.4947 38.25 33.4851 38.2691 33.4851H38.422C38.4506 33.4851 38.4697 33.4947 38.4888 33.5139C38.508 33.5331 38.5175 33.5618 38.508 33.581L38.4888 33.6864C38.5175 33.744 38.5844 33.8686 38.6131 33.9836C38.6322 34.0699 38.6322 34.1753 38.6226 34.252L38.9092 34.2616C38.957 34.2616 39.0048 34.3 39.0048 34.3575V34.6643C39.0048 34.7026 38.9857 34.7314 38.9475 34.7505L38.8615 34.7793V34.8656L38.9475 34.9135C38.9761 34.9327 38.9952 34.9614 38.9952 34.9998V35.2586C38.9952 35.2874 38.9761 35.3161 38.957 35.3353L38.7277 35.4983L38.9284 35.5558C38.9666 35.5654 38.9857 35.6037 38.9952 35.6421C38.9952 35.6517 39.0048 35.7763 38.9761 35.9297C38.957 36.016 38.9475 36.0831 38.9188 36.1406H39.2532H39.2628V32.584H32.9568V36.1598H33.3007Z" fill="#BC955C"/>
<path d="M37.2468 35.8052C37.2564 35.7956 37.2659 35.7956 37.2755 35.786C37.2564 35.7669 37.2373 35.7477 37.2373 35.7189V35.4505C37.2373 35.4409 37.2373 35.4409 37.2373 35.4409L37.1417 35.5176C37.1131 35.5368 37.0749 35.5368 37.0366 35.5272L36.9602 35.4793V36.1791H37.1417C37.1226 36.0449 37.1226 35.9107 37.2468 35.8052Z" fill="#BC955C"/>
<path d="M38.4797 38.0777C38.4319 38.0777 38.3841 38.0394 38.3841 37.9819V37.3779C38.3841 37.33 38.3555 37.2725 38.3172 37.2341C38.279 37.1958 38.2217 37.1574 38.1262 37.167C37.9828 37.167 37.8969 37.2821 37.8873 37.3875V37.9915C37.8873 38.0202 37.8777 38.0394 37.8586 38.0586C37.8395 38.0777 37.8204 38.0873 37.7918 38.0873H37.2471C37.1994 38.0873 37.1516 38.049 37.1516 37.9915V37.3875C37.1516 37.3396 37.1229 37.2821 37.0847 37.2437C37.0465 37.2054 36.9892 37.167 36.8936 37.1766C36.8363 37.1766 36.779 37.2054 36.7312 37.2341L37.1803 39.5445C37.8109 39.2665 38.5657 38.7967 38.9765 38.0873L38.4797 38.0777Z" fill="#BC955C"/>
<path d="M37.0084 39.5923L36.3778 36.3521H35.8714L35.2312 39.5923C35.2312 39.6019 35.2312 39.6019 35.2217 39.6115C35.6612 39.7936 36.0147 39.8799 36.1198 39.9182C36.2249 39.8895 36.5784 39.7936 37.0179 39.6115C37.0179 39.6019 37.0179 39.6019 37.0084 39.5923Z" fill="#BC955C"/>
<path d="M35.4982 37.224C35.46 37.1857 35.4026 37.1665 35.3357 37.1665H35.3262C35.2306 37.1665 35.1733 37.2048 35.1447 37.2432C35.1064 37.2815 35.0778 37.3391 35.0778 37.387V37.9909C35.0778 38.0389 35.0396 38.0868 34.9822 38.0868H34.4376C34.409 38.0868 34.3899 38.0772 34.3707 38.0581C34.3516 38.0389 34.3421 38.0197 34.3421 37.9909V37.387C34.3325 37.2815 34.2465 37.1665 34.1032 37.1665H34.0937C33.9981 37.1665 33.9408 37.2048 33.9121 37.2432C33.8739 37.2815 33.8452 37.3391 33.8452 37.387V37.9909C33.8452 38.0389 33.807 38.0868 33.7497 38.0868H33.272C33.6733 38.7962 34.4185 39.2564 35.0587 39.544L35.4982 37.224Z" fill="#BC955C"/>
<path d="M39.2723 36.3521H36.5684L36.7021 37.0327C36.7594 37.0039 36.8263 36.9848 36.8932 36.9848C37.0174 36.9848 37.1321 37.0231 37.2181 37.1094C37.2945 37.1861 37.3423 37.2915 37.3423 37.3778V37.8859H37.7053V37.3778C37.7053 37.3682 37.7053 37.3682 37.7053 37.3682C37.7245 37.1477 37.906 36.9752 38.1257 36.9752C38.25 36.9752 38.3646 37.0135 38.4506 37.0998C38.527 37.1765 38.5748 37.2819 38.5748 37.3682V37.8763H39.0812C39.2054 37.5983 39.2818 37.2915 39.2818 36.9368L39.2723 36.3521Z" fill="#BC955C"/>
<path d="M33.6733 37.8949V37.3868C33.6733 37.2909 33.7211 37.195 33.7976 37.1184C33.8835 37.0321 33.9982 36.9937 34.1224 36.9937C34.3422 37.0033 34.5237 37.1663 34.5428 37.3868C34.5428 37.3964 34.5428 37.3964 34.5428 37.3964V37.9045H34.9059V37.3964C34.9059 37.3005 34.9536 37.2046 35.0301 37.1279C35.1161 37.0417 35.2307 37.0033 35.3549 37.0033C35.4218 37.0033 35.4887 37.0225 35.546 37.0512L35.6798 36.3706H32.9663V36.9554C32.9663 37.3101 33.0427 37.6264 33.167 37.8949H33.6733Z" fill="#BC955C"/>
<path d="M33.8931 35.9687H34.0459C34.0555 35.9878 34.0651 36.007 34.0651 36.0262C34.0651 36.0358 34.0651 36.0549 34.0651 36.0645C34.0651 36.0933 34.0555 36.1316 34.0555 36.1604H33.53C33.4536 36.1125 33.4153 35.9015 33.4153 35.7386L33.6447 35.6715C33.6829 35.6619 33.7115 35.6235 33.7115 35.5852V35.4989C33.7115 35.4702 33.6924 35.4414 33.6733 35.4222L33.4058 35.2305V35.0771L33.4918 35.0292C33.5204 35.01 33.5396 34.9812 33.5396 34.9429V34.7416C33.5396 34.7032 33.5204 34.6745 33.4822 34.6553L33.3962 34.6265V34.4732H33.6351L33.7498 34.6649V34.9237L33.6733 35.173C33.6638 35.2017 33.6638 35.2305 33.6924 35.2593C33.7115 35.288 33.7402 35.2976 33.7689 35.2976H33.8357C33.8835 35.2976 33.9217 35.2688 33.9313 35.2209C33.9408 35.1826 33.96 35.0579 33.9791 35.01C33.9982 34.9717 34.0651 34.8854 34.1033 34.8279C34.1319 34.7895 34.1319 34.7416 34.1033 34.7128L33.7975 34.3485C33.788 34.291 33.7784 34.1664 33.7975 34.0705C33.8166 33.9651 33.8931 33.8404 33.9122 33.8021C33.9217 33.7829 33.9313 33.7638 33.9217 33.7446L33.9122 33.7158H33.9313L34.3039 33.9555C34.323 33.9651 34.3326 33.9747 34.3517 33.9747H34.4663L34.4568 34.0801L34.3326 34.128C34.3039 34.1472 34.2753 34.176 34.2753 34.2143V34.3102C34.2753 34.3581 34.3135 34.4061 34.3708 34.4061H34.6861L34.7721 34.4923C34.8008 34.5307 34.8581 34.5307 34.8963 34.5019C34.8963 34.5019 35.0396 34.3869 35.0492 34.3773L35.0969 34.2718H35.288V34.4827V34.5978C35.288 34.5978 34.9536 34.7128 34.925 34.7224C34.9059 34.732 34.8867 34.8374 34.8963 34.8566C34.9059 34.8854 34.8963 34.895 34.9345 34.9141C34.9345 34.9141 35.0301 34.9908 35.0587 35.0004L35.1543 34.9046L35.2785 34.9237V35.2401L35.1543 35.3264L34.7625 35.0579C34.7243 35.0292 34.667 35.0388 34.6383 35.0771L34.581 35.1538C34.5523 35.1921 34.5523 35.2497 34.5906 35.2784L34.8103 35.4893V35.6619L34.581 35.7578C34.5428 35.7769 34.5237 35.8057 34.5237 35.844V35.8824C34.5237 35.9303 34.5619 35.9782 34.6192 35.9782H34.8867C34.9345 36.0358 34.9154 36.1125 34.8963 36.17H34.2848C34.2657 36.1508 34.2561 36.1125 34.2466 36.0645C34.2466 36.0549 34.2466 36.0358 34.2466 36.0262C34.2466 35.9687 34.2561 35.9111 34.2657 35.8728L34.409 35.6906C34.4186 35.6715 34.4281 35.6523 34.4281 35.6427L34.4377 35.5564C34.4377 35.5277 34.4186 35.4989 34.3995 35.4702C34.3804 35.4414 34.3421 35.451 34.3135 35.4606L34.0842 35.5564C34.0555 35.566 34.0364 35.5948 34.0268 35.6235L34.0077 35.7194L33.874 35.7578C33.8357 35.7673 33.8071 35.8057 33.8071 35.844V35.8824C33.7975 35.9303 33.8453 35.9687 33.8931 35.9687Z" fill="#BC955C"/>
<path d="M38.3456 35.9683H38.1927C38.1832 35.9875 38.1736 36.0067 38.1736 36.0259C38.1736 36.0355 38.1736 36.0546 38.1736 36.0642C38.1736 36.093 38.1832 36.1313 38.1832 36.1601H38.7087C38.7851 36.1121 38.8233 35.9012 38.8233 35.7383L38.594 35.6712C38.5558 35.6616 38.5271 35.6232 38.5271 35.5849V35.4986C38.5271 35.4698 38.5463 35.4411 38.5654 35.4219L38.8233 35.2398V35.0864L38.7373 35.0385C38.7087 35.0193 38.6896 34.9905 38.6896 34.9522V34.7509C38.6896 34.7125 38.7087 34.6838 38.7469 34.6646L38.8329 34.6358V34.4824H38.594L38.4794 34.6742V34.933L38.5558 35.1823C38.5654 35.211 38.5654 35.2398 38.5367 35.2685C38.5176 35.2973 38.4889 35.3069 38.4603 35.3069H38.3934C38.3456 35.3069 38.3074 35.2781 38.2978 35.2302C38.2883 35.1918 38.2692 35.0672 38.2501 35.0193C38.231 34.9809 38.1641 34.8947 38.1259 34.8371C38.0972 34.7988 38.0972 34.7509 38.1259 34.7221L38.4412 34.3578C38.4507 34.3003 38.4603 34.1757 38.4412 34.0798C38.422 33.9743 38.3456 33.8497 38.3265 33.8114C38.3169 33.7922 38.3074 33.773 38.3169 33.7539L38.3265 33.7251H38.3074L37.9348 33.9648C37.9157 33.9743 37.9061 33.9839 37.887 33.9839H37.7819L37.7914 34.1181L37.9157 34.1661C37.9539 34.1853 37.973 34.214 37.973 34.2524V34.3482C37.973 34.3962 37.9348 34.4441 37.8774 34.4441H37.5621L37.4761 34.5304C37.4475 34.5687 37.3902 34.5687 37.3519 34.54C37.3519 34.54 37.2086 34.4249 37.1991 34.4153L37.1513 34.3099H36.9602V34.5208V34.6358C36.9602 34.6358 37.2946 34.7509 37.3233 34.7604C37.3424 34.77 37.3615 34.8755 37.3519 34.8947C37.3424 34.9234 37.3519 34.933 37.3137 34.9522C37.3137 34.9522 37.2182 35.0289 37.1895 35.0385L37.094 34.9426H36.9602V35.2589L37.0844 35.3356L37.4761 35.0672C37.5144 35.0385 37.5717 35.048 37.6004 35.0864L37.6577 35.1631C37.6863 35.2014 37.6863 35.2589 37.6481 35.2877L37.4284 35.489V35.6616L37.6577 35.7574C37.6959 35.7766 37.715 35.8054 37.715 35.8437V35.8821C37.715 35.93 37.6768 35.9779 37.6195 35.9779H37.3519C37.3042 36.0355 37.3233 36.1121 37.3424 36.1697H37.9634C37.9825 36.1505 37.9921 36.1121 38.0016 36.0642C38.0016 36.0546 38.0016 36.0355 38.0016 36.0259C38.0016 35.9683 37.9921 35.9108 37.9825 35.8725L37.8392 35.6903C37.8297 35.6712 37.8201 35.652 37.8201 35.6424L37.8106 35.5465C37.8106 35.5178 37.8297 35.489 37.8488 35.4603C37.8774 35.4411 37.9061 35.4411 37.9348 35.4507L38.1641 35.5465C38.1927 35.5561 38.2118 35.5849 38.2214 35.6136L38.2405 35.7095L38.3743 35.7479C38.4125 35.7574 38.4412 35.7958 38.4412 35.8341V35.8725C38.4412 35.93 38.4029 35.9683 38.3456 35.9683Z" fill="#BC955C"/>
</svg>
