<svg width="54" height="54" viewBox="0 0 54 54" fill="none" xmlns="http://www.w3.org/2000/svg">
<g filter="url(#filter0_dd_1946_34715)">
<path fill-rule="evenodd" clip-rule="evenodd" d="M50.2397 8.89078C50.2311 5.26835 47.2876 2.33875 43.6651 2.34733L9.91299 2.42733C6.29056 2.43591 3.36096 5.37943 3.36954 9.00186L3.44954 42.754C3.45813 46.3764 6.40164 49.306 10.0241 49.2975L43.7762 49.2175C47.3986 49.2089 50.3282 46.2654 50.3197 42.6429L50.2397 8.89078Z" fill="white"/>
</g>
<path d="M39.2808 29.4455L37.4799 29.0146V28.6912C38.6504 27.87 39.4179 26.5101 39.4179 24.9733V22.6283C39.4179 20.1262 37.3856 18.0907 34.8875 18.0907C33.7664 18.0907 32.74 18.5015 31.9482 19.1796C31.0665 17.0171 28.945 15.4888 26.4728 15.4888C23.9974 15.4888 21.8738 17.021 20.9941 19.1877C20.201 18.5048 19.1709 18.0905 18.0453 18.0905C15.5472 18.0905 13.5149 20.126 13.5149 22.6281V22.784V24.9731C13.5149 26.5099 14.2824 27.8698 15.4528 28.691V29.0144L13.652 29.4453C11.5018 29.9598 10 31.8656 10 34.0798V35.9733C10 36.5333 10.4533 36.9872 11.0122 36.9872H15.6637C15.6565 37.1101 15.6515 37.2337 15.6515 37.3583V41.004C15.6515 41.5639 16.1048 42.0178 16.6638 42.0178H22.7483C23.3073 42.0178 23.7606 41.5639 23.7606 41.004C23.7606 40.444 23.3073 39.9901 22.7483 39.9901H21.7025V37.895C21.7025 37.335 21.2492 36.8811 20.6902 36.8811C20.1313 36.8811 19.678 37.335 19.678 37.895V39.9903H17.6761V37.3585C17.6761 35.4031 19.0021 33.7192 20.9005 33.2636L23.6783 32.5969L25.5372 36.833C25.6988 37.2011 26.0624 37.4388 26.4637 37.4388H26.4639C26.8653 37.4388 27.2289 37.2012 27.3905 36.8331L29.2475 32.6033L32.0165 33.2658C33.9167 33.7205 35.2438 35.4046 35.2438 37.3615V39.9903H33.2419V37.895C33.2419 37.335 32.7886 36.8811 32.2297 36.8811C31.6707 36.8811 31.2174 37.335 31.2174 37.895V39.9903H30.0703C29.5113 39.9903 29.058 40.4442 29.058 41.0042C29.058 41.5641 29.5113 42.018 30.0703 42.018H36.2561C36.8151 42.018 37.2684 41.5641 37.2684 41.0042V37.3615C37.2684 37.2359 37.2633 37.1114 37.256 36.9874H41.9206C42.4796 36.9874 42.9329 36.5335 42.9329 35.9735V34.08C42.9329 31.8658 41.4311 29.9599 39.2808 29.4455ZM34.8875 20.1182C36.2137 20.1182 37.3025 21.1555 37.3879 22.4626H35.9806C34.7975 22.4626 33.6332 22.1773 32.5867 21.6341C32.9716 20.7431 33.8582 20.1182 34.8875 20.1182ZM32.3816 24.8251C32.3828 24.7757 32.3853 24.7265 32.3853 24.6768V23.7739C33.5212 24.2447 34.7426 24.4903 35.9806 24.4903H37.3934V24.9732C37.3934 26.3571 36.2693 27.4831 34.8875 27.4831C33.5057 27.4831 32.3816 26.3571 32.3816 24.9731V24.8251ZM22.5848 21.4107C22.5848 19.2635 24.3288 17.5165 26.4728 17.5165C28.4064 17.5165 30.0148 18.9377 30.3118 20.7918L28.6077 19.789C28.1814 19.5382 27.6366 19.6324 27.3191 20.0121C26.4863 21.0075 25.2651 21.5784 23.9684 21.5784H22.5848V21.4107ZM18.0454 20.1182C19.0747 20.1182 19.9611 20.7432 20.3462 21.6339C19.2995 22.1772 18.1354 22.4625 16.9523 22.4625H15.5449C15.6304 21.1555 16.7192 20.1182 18.0454 20.1182ZM15.5395 24.4902H16.9523C18.1915 24.4902 19.4143 24.2441 20.5513 23.7723V24.973C20.5513 26.3569 19.4272 27.4829 18.0454 27.4829C16.6636 27.4829 15.5395 26.3571 15.5395 24.9731V24.4902ZM20.4288 31.2916C18.4373 31.7696 16.8722 33.1603 16.1273 34.9596H12.0245V34.0799C12.0245 32.808 12.8871 31.7131 14.1223 31.4176L16.7003 30.8007C17.1559 30.6917 17.4774 30.2839 17.4774 29.8146V29.4738C17.6637 29.4972 17.8529 29.5107 18.0454 29.5107C18.2364 29.5107 18.4244 29.4974 18.6092 29.4743V29.7635C18.6085 29.7787 18.6082 29.7938 18.6081 29.8089C18.6079 30.1415 18.7711 30.4674 19.071 30.6616C19.1839 30.7349 19.306 30.7826 19.4306 30.8064L20.9406 31.1688L20.4288 31.2916ZM23.2523 29.7177C22.9923 29.6029 22.7212 29.511 22.4418 29.444L20.6336 29.01V28.694C20.9599 28.4656 21.255 28.1956 21.5109 27.8913C21.9629 28.5888 22.5569 29.1852 23.2523 29.6396V29.7177ZM27.6487 31.2074L26.4642 33.9058L25.2769 31.2005V30.477C25.6633 30.5568 26.0632 30.5989 26.4728 30.5989C26.8753 30.5989 27.2685 30.558 27.6487 30.4809V31.2074ZM26.4728 28.5711C24.3288 28.5712 22.5848 26.8242 22.5848 24.6768V23.606H23.9684C25.5736 23.606 27.0998 23.0081 28.2696 21.9418L30.357 23.1701V24.8252C30.2789 26.9039 28.5671 28.5711 26.4728 28.5711ZM29.6732 29.721V29.6523C30.3742 29.1983 30.9735 28.6004 31.4291 27.8998C31.6833 28.2007 31.9758 28.4677 32.299 28.694V29.01L30.4906 29.444C30.2088 29.5117 29.9354 29.6047 29.6732 29.721ZM40.9083 34.9596H36.7915C36.0459 33.1603 34.4797 31.7704 32.487 31.2936L31.9787 31.172L33.4968 30.8076C33.6231 30.7841 33.7472 30.7358 33.8617 30.6616C34.161 30.4677 34.3238 30.1418 34.3238 29.8092C34.3238 29.8013 34.3237 29.7933 34.3235 29.7853V29.4743C34.5084 29.4974 34.6963 29.5107 34.8873 29.5107C35.0797 29.5107 35.269 29.4972 35.4553 29.4738V29.8146C35.4553 30.2839 35.7767 30.6917 36.2324 30.8007L38.8103 31.4176C40.0456 31.7132 40.9083 32.808 40.9083 34.0799V34.9596Z" fill="#1A6058"/>
<path d="M27.113 39.6744C26.942 39.4191 26.7069 39.2737 26.4663 39.2737C26.2247 39.2737 25.9897 39.4191 25.8195 39.6744C25.6485 39.931 25.5515 40.2836 25.5515 40.6459C25.5515 41.0068 25.6485 41.3594 25.8195 41.616C25.9897 41.8713 26.2248 42.0181 26.4663 42.0181C26.7069 42.0181 26.942 41.8713 27.113 41.616C27.2831 41.3594 27.3811 41.0068 27.3811 40.6459C27.3811 40.2836 27.2832 39.931 27.113 39.6744Z" fill="#1A6058"/>
<path d="M26.4663 10C25.9612 10 25.5515 10.4686 25.5515 11.0466V12.6126C25.5515 13.1906 25.9612 13.6592 26.4663 13.6592C26.9715 13.6592 27.3811 13.1906 27.3811 12.6126V11.0466C27.3811 10.4686 26.9716 10 26.4663 10Z" fill="#1A6058"/>
<path d="M23.3698 13.0367L22.1109 12.0931C21.642 11.7415 20.8822 11.7418 20.4136 12.0936C19.9451 12.4454 19.9456 13.0155 20.4145 13.3669L21.6735 14.3105C21.9078 14.4862 22.2148 14.574 22.5217 14.574C22.829 14.574 23.1363 14.4859 23.3707 14.31C23.839 13.9582 23.8387 13.3881 23.3698 13.0367Z" fill="#1A6058"/>
<path d="M32.5168 12.0935C32.0467 11.7414 31.2846 11.7416 30.815 12.0942L29.5625 13.0341C29.0928 13.3866 29.0932 13.9579 29.5633 14.31C29.7983 14.486 30.106 14.574 30.4138 14.574C30.722 14.574 31.0302 14.4858 31.2651 14.3094L32.5176 13.3694C32.9873 13.0169 32.987 12.4457 32.5168 12.0935Z" fill="#1A6058"/>
<defs>
<filter id="filter0_dd_1946_34715" x="0.558627" y="0.473411" width="52.572" height="52.572" filterUnits="userSpaceOnUse" color-interpolation-filters="sRGB">
<feFlood flood-opacity="0" result="BackgroundImageFix"/>
<feColorMatrix in="SourceAlpha" type="matrix" values="0 0 0 0 0 0 0 0 0 0 0 0 0 0 0 0 0 0 127 0" result="hardAlpha"/>
<feOffset dy="0.937001"/>
<feGaussianBlur stdDeviation="1.4055"/>
<feColorMatrix type="matrix" values="0 0 0 0 0.2471 0 0 0 0 0.2471 0 0 0 0 0.2667 0 0 0 0.15 0"/>
<feBlend mode="normal" in2="BackgroundImageFix" result="effect1_dropShadow_1946_34715"/>
<feColorMatrix in="SourceAlpha" type="matrix" values="0 0 0 0 0 0 0 0 0 0 0 0 0 0 0 0 0 0 127 0" result="hardAlpha"/>
<feOffset/>
<feColorMatrix type="matrix" values="0 0 0 0 0.2471 0 0 0 0 0.2471 0 0 0 0 0.2667 0 0 0 0.05 0"/>
<feBlend mode="normal" in2="effect1_dropShadow_1946_34715" result="effect2_dropShadow_1946_34715"/>
<feBlend mode="normal" in="SourceGraphic" in2="effect2_dropShadow_1946_34715" result="shape"/>
</filter>
</defs>
</svg>
