<svg width="82" height="75" viewBox="0 0 82 75" fill="none" xmlns="http://www.w3.org/2000/svg">
<g clip-path="url(#clip0_11481_122192)">
<rect width="82" height="75" fill="white"/>
<g filter="url(#filter0_dd_11481_122192)">
<path fill-rule="evenodd" clip-rule="evenodd" d="M81.2945 18.3024C81.2683 8.19426 73.0528 0.0177635 62.9447 0.0396758L18.3025 0.136451C8.19437 0.158363 0.0213161 8.37038 0.0475096 18.4785L0.14522 56.185C0.171413 66.2931 8.38691 74.4696 18.495 74.4477L63.1372 74.3509C73.2453 74.329 81.4184 66.117 81.3922 56.0089L81.2945 18.3024Z" fill="white"/>
</g>
<path d="M55.4824 38.8573H52.3469L50.3453 33.0924C49.3448 30.1488 46.3423 28.125 42.9402 28.125H25.1945C21.7922 28.125 18.8568 30.0877 17.7893 33.0924L15.7878 38.8573H12.7188C11.3846 38.8573 10.2505 39.8386 10.2505 41.1262V42.4143C10.2505 43.6408 11.318 44.6833 12.7188 44.6833H13.5862C13.119 46.7684 12.8523 48.8534 12.8523 51V61.7935C12.8523 63.0199 13.9198 64.0625 15.3206 64.0625H19.3901C20.7242 64.0625 21.8583 63.0812 21.8583 61.7935V58.2976H46.4755V61.7935C46.4755 63.0199 47.543 64.0625 48.9438 64.0625H53.0133C54.3474 64.0625 55.4815 63.0812 55.4815 61.7935L55.482 50.9389C55.482 48.7923 55.2154 46.7072 54.7481 44.6222H55.6156C56.9497 44.6222 58.0838 43.6409 58.0838 42.3532V41.0651C57.9503 39.8998 56.8162 38.8574 55.482 38.8574L55.4824 38.8573ZM20.1244 41.1874L22.4596 34.5028C22.8598 33.3991 23.9273 32.6629 25.195 32.6629H42.9407C44.2083 32.6629 45.2759 33.3987 45.676 34.5028L48.0112 41.1874C48.1448 41.4941 47.8777 41.8008 47.544 41.8008H20.5919C20.2582 41.8008 19.9916 41.4941 20.1247 41.1874H20.1244ZM25.2614 52.1649H20.3245C19.5241 52.1649 18.7903 51.5515 18.7903 50.7545V48.6078C18.7903 47.7493 19.5907 47.1359 20.5247 47.2586L25.128 47.9333C25.7283 47.9944 26.1955 48.4239 26.3286 49.0369L26.6623 50.5089C26.9294 51.3674 26.2621 52.1648 25.2615 52.1648L25.2614 52.1649ZM49.3449 50.8157C49.3449 51.5515 48.6776 52.2261 47.8106 52.2261H42.8737C41.9397 52.2261 41.2059 51.4288 41.406 50.5702L41.7397 49.0982C41.8732 48.5464 42.34 48.1169 42.9403 47.9946L47.5436 47.3199C48.4776 47.1972 49.278 47.8106 49.278 48.6691L49.2785 50.8158L49.3449 50.8157Z" fill="#818181"/>
<path d="M72.7427 11.7188H57.1548C56.2697 11.7188 55.521 12.393 55.521 13.1899V27.2258C55.521 28.0228 56.2698 28.6969 57.1548 28.6969H63.0088V63.3271C63.0088 63.7564 63.3492 64.0625 63.8255 64.0625H66.1397C66.6164 64.0625 66.9564 63.7559 66.9564 63.3271L66.9569 28.6969H72.6746C73.5596 28.6969 74.3084 28.0227 74.3084 27.2258V13.1899C74.3763 12.3929 73.6278 11.7188 72.7427 11.7188ZM71.3815 19.258C71.3815 19.6257 71.041 19.8711 70.7006 19.8711H70.5643C70.7006 20.4227 70.7685 20.9742 70.7685 21.4646V24.2843C70.7685 24.652 70.428 24.8974 70.0876 24.8974H68.9983C68.59 24.8974 68.3175 24.5908 68.3175 24.2843V23.4262H61.851V24.2843C61.851 24.652 61.5105 24.8974 61.1701 24.8974H60.0809C59.6725 24.8974 59.4 24.5908 59.4 24.2843V21.4646C59.4 20.9131 59.4679 20.4227 59.6041 19.8711H59.4679C59.0595 19.8711 58.787 19.5646 58.787 19.258L58.7889 18.8899C58.7889 18.5222 59.1293 18.2768 59.4698 18.2768H60.2865L60.8311 16.8057C61.1031 16.0088 61.9203 15.4573 62.8733 15.4573H67.638C68.591 15.4573 69.4077 16.0088 69.6802 16.8057L70.2249 18.2768H71.0415C71.4499 18.2768 71.7224 18.5834 71.7224 18.8899L71.722 19.258H71.3815Z" fill="#818181"/>
<rect x="56.3755" y="14.0625" width="15.375" height="11.7188" fill="#818181"/>
<rect x="58.0835" y="23.2954" width="13.6667" height="2.84091" fill="white"/>
<path d="M69.7849 14.0625H60.0658C58.9782 14.0625 58.0835 14.8182 58.0835 15.7221V23.9462C58.0835 24.8649 58.9607 25.6058 60.0483 25.6058H62.4518L64.4517 25.4256C64.6272 25.6478 64.9254 25.7812 65.2412 25.7812C65.5569 25.7812 65.8376 25.6479 66.0131 25.4256L67.3816 25.6058H69.7851C70.8727 25.6058 71.7499 24.8649 71.7499 23.9462V15.7221C71.7674 14.8182 70.8726 14.0625 69.7849 14.0625ZM68.2411 18.8191L64.8201 21.931C64.6446 22.094 64.399 22.1829 64.1359 22.1829C63.8728 22.1829 63.6272 22.0791 63.4517 21.931L61.6271 20.3009C61.2763 19.9749 61.2937 19.4711 61.6622 19.1748C62.0482 18.8784 62.6446 18.9081 62.978 19.2192L64.1183 20.2417L66.8551 17.7522C67.206 17.4409 67.8024 17.4262 68.1709 17.7225C68.5569 18.0041 68.5744 18.5079 68.2411 18.8191Z" fill="white"/>
</g>
<defs>
<filter id="filter0_dd_11481_122192" x="-7.79654" y="-5.18972" width="97.0325" height="90.096" filterUnits="userSpaceOnUse" color-interpolation-filters="sRGB">
<feFlood flood-opacity="0" result="BackgroundImageFix"/>
<feColorMatrix in="SourceAlpha" type="matrix" values="0 0 0 0 0 0 0 0 0 0 0 0 0 0 0 0 0 0 127 0" result="hardAlpha"/>
<feOffset dy="2.61464"/>
<feGaussianBlur stdDeviation="3.92195"/>
<feColorMatrix type="matrix" values="0 0 0 0 0.2471 0 0 0 0 0.2471 0 0 0 0 0.2667 0 0 0 0.15 0"/>
<feBlend mode="normal" in2="BackgroundImageFix" result="effect1_dropShadow_11481_122192"/>
<feColorMatrix in="SourceAlpha" type="matrix" values="0 0 0 0 0 0 0 0 0 0 0 0 0 0 0 0 0 0 127 0" result="hardAlpha"/>
<feOffset/>
<feColorMatrix type="matrix" values="0 0 0 0 0.2471 0 0 0 0 0.2471 0 0 0 0 0.2667 0 0 0 0.05 0"/>
<feBlend mode="normal" in2="effect1_dropShadow_11481_122192" result="effect2_dropShadow_11481_122192"/>
<feBlend mode="normal" in="SourceGraphic" in2="effect2_dropShadow_11481_122192" result="shape"/>
</filter>
<clipPath id="clip0_11481_122192">
<rect width="82" height="75" fill="white"/>
</clipPath>
</defs>
</svg>
