<svg width="56" height="36" viewBox="0 0 56 36" fill="none" xmlns="http://www.w3.org/2000/svg">
<path d="M48.7187 21.5625L43.103 16.2185L54.3345 16.2185L48.7187 21.5625Z" fill="white"/>
<ellipse cx="18.5303" cy="17.8955" rx="17.4388" ry="17.0331" fill="#691C32"/>
<path d="M18.441 19.1998C16.9831 19.1998 15.5579 18.7775 14.3456 17.9864C13.1334 17.1952 12.1886 16.0708 11.6307 14.7551C11.0727 13.4395 10.9267 11.9918 11.2112 10.5952C11.4956 9.19849 12.1977 7.91558 13.2286 6.90864C14.2595 5.9017 15.573 5.21597 17.0029 4.93815C18.4328 4.66034 19.915 4.80292 21.262 5.34788C22.6089 5.89283 23.7602 6.81567 24.5702 7.9997C25.3802 9.18373 25.8125 10.5758 25.8125 11.9998C25.8125 13.9094 25.0358 15.7407 23.6534 17.091C22.271 18.4412 20.396 19.1998 18.441 19.1998ZM18.441 7.19981C17.4691 7.19981 16.5189 7.48132 15.7108 8.00875C14.9026 8.53618 14.2727 9.28584 13.9008 10.1629C13.5288 11.04 13.4315 12.0051 13.6211 12.9362C13.8107 13.8673 14.2788 14.7226 14.9661 15.3939C15.6533 16.0652 16.529 16.5224 17.4823 16.7076C18.4356 16.8928 19.4237 16.7977 20.3216 16.4344C21.2196 16.0711 21.9871 15.4559 22.5271 14.6665C23.0671 13.8772 23.3553 12.9492 23.3553 11.9998C23.3553 10.7268 22.8376 9.50587 21.916 8.60569C20.9943 7.70552 19.7444 7.19981 18.441 7.19981Z" fill="white"/>
<path d="M18.4407 35.9998C15.7163 35.9981 13.0261 35.4063 10.5639 34.2671C8.10174 33.128 5.92878 31.4697 4.20148 29.4118L3.56262 28.6438L4.20148 27.8878C5.93024 25.8326 8.10384 24.1772 10.5659 23.0406C13.0281 21.904 15.7175 21.3145 18.4407 21.3145C21.164 21.3145 23.8534 21.904 26.3155 23.0406C28.7776 24.1772 30.9512 25.8326 32.68 27.8878L33.3188 28.6438L32.68 29.4118C30.9527 31.4697 28.7797 33.128 26.3175 34.2671C23.8553 35.4063 21.1652 35.9981 18.4407 35.9998ZM6.7815 28.6558C8.27574 30.2183 10.0829 31.464 12.0906 32.3157C14.0984 33.1674 16.264 33.6069 18.453 33.6069C20.642 33.6069 22.8076 33.1674 24.8154 32.3157C26.8232 31.464 28.6303 30.2183 30.1245 28.6558C28.6303 27.0934 26.8232 25.8477 24.8154 24.996C22.8076 24.1443 20.642 23.7048 18.453 23.7048C16.264 23.7048 14.0984 24.1443 12.0906 24.996C10.0829 25.8477 8.27574 27.0934 6.7815 28.6558Z" fill="white"/>
<path d="M18.441 36C14.2549 36.0027 10.1926 34.6133 6.92268 32.0605C3.65275 29.5077 1.37007 25.9436 0.450333 21.9548C-0.469405 17.966 0.0286096 13.7903 1.86241 10.1147C3.69621 6.43924 6.75652 3.48305 10.5396 1.73273C14.3228 -0.0175851 18.6033 -0.457732 22.6766 0.484737C26.75 1.42721 30.3735 3.69613 32.9507 6.91807C35.5279 10.14 36.9053 14.123 36.8561 18.2114C36.807 22.2998 35.3342 26.2501 32.6802 29.412C30.9529 31.4699 28.78 33.1281 26.3178 34.2673C23.8556 35.4064 21.1654 35.9982 18.441 36ZM18.441 2.40001C15.2821 2.40001 12.1942 3.31494 9.56769 5.02908C6.94118 6.74323 4.89407 9.17962 3.68522 12.0301C2.47638 14.8807 2.16009 18.0173 2.77635 21.0434C3.39262 24.0695 4.91376 26.8492 7.14742 29.0309C9.38107 31.2126 12.2269 32.6983 15.3251 33.3002C18.4233 33.9022 21.6346 33.5932 24.553 32.4125C27.4714 31.2318 29.9659 29.2323 31.7208 26.6669C33.4758 24.1015 34.4125 21.0854 34.4125 18C34.4125 13.8626 32.7298 9.89471 29.7346 6.96914C26.7393 4.04358 22.6769 2.40001 18.441 2.40001Z" fill="white"/>
<path d="M5.14775 28.6558C5.14775 28.6558 17.5195 42.1558 30.1125 29.9998L31.7342 28.6558C31.7342 28.6558 21.2176 17.9998 10.5412 24.3958L5.14775 28.6558Z" fill="white"/>
<path d="M18.4414 18C21.8341 18 24.5843 15.3137 24.5843 12C24.5843 8.68629 21.8341 6 18.4414 6C15.0488 6 12.2985 8.68629 12.2985 12C12.2985 15.3137 15.0488 18 18.4414 18Z" fill="white"/>
</svg>
