<svg width="41" height="28" viewBox="0 0 41 28" fill="none" xmlns="http://www.w3.org/2000/svg">
<path d="M35.8275 17.8168L31.3665 13.5716L40.2885 13.5716L35.8275 17.8168Z" fill="white"/>
<path d="M12.4136 27.4911C8.97966 27.4911 5.54335 27.4911 2.10941 27.4911C0.880468 27.4911 0.611046 27.2122 0.648859 26.0022C0.809567 20.9895 5.0305 16.5819 10.0526 16.303C11.9078 16.199 13.7914 16.1943 15.6325 16.4093C19.9314 16.908 23.597 20.6823 24.1382 24.9741C24.1925 25.4019 24.2445 25.832 24.2563 26.2621C24.2823 27.12 23.9255 27.4887 23.0723 27.4958C21.9922 27.5053 20.9122 27.4982 19.8345 27.4982C17.3601 27.4982 14.888 27.4982 12.4136 27.4982V27.4911ZM22.3515 25.6548C22.3633 25.5177 22.3751 25.461 22.3704 25.4042C22.0986 21.9278 18.7828 18.4938 15.2922 18.1748C13.8316 18.0401 12.3545 18.0471 10.8869 18.0684C7.55692 18.1157 5.09904 19.6802 3.45415 22.5351C2.90822 23.4805 2.54899 24.5109 2.51118 25.6571H22.3538L22.3515 25.6548Z" fill="white"/>
<path d="M19.5273 8.00536C19.5225 11.9072 16.3344 15.0812 12.4325 15.0694C8.56605 15.0576 5.39444 11.8671 5.40389 7.99827C5.41334 4.05148 8.57078 0.941313 12.5577 0.955493C16.3958 0.969673 19.532 4.14128 19.5273 8.00536ZM12.3923 13.226C15.3158 13.2803 17.6295 11.0163 17.7217 8.01245C17.8044 5.29932 15.415 2.81781 12.657 2.754C9.69809 2.68546 7.26621 4.99445 7.20949 7.925C7.15277 10.7917 9.48067 13.1716 12.3923 13.226Z" fill="white"/>
</svg>
