<svg width="58" height="37" viewBox="0 0 58 37" fill="none" xmlns="http://www.w3.org/2000/svg">
<path d="M28.8495 0.0128478C35.4075 0.0128478 41.9649 0.0128478 48.5229 0.0128478C49.8331 0.0128478 51.1445 -0.018973 52.4536 0.0175426C54.1585 0.065013 55.5389 0.739509 56.5799 1.97426C57.3311 2.86524 57.674 3.8835 57.67 5.00766C57.6637 6.85901 57.6677 8.71087 57.6677 10.5622C57.6677 16.099 57.6677 21.6364 57.6677 27.1732C57.6677 28.5467 57.6694 29.9202 57.6677 31.2942C57.6643 33.9218 55.5606 36.0611 52.6926 36.2551C51.3818 36.3438 50.0584 36.2734 48.7408 36.275C48.552 36.275 48.3632 36.2765 48.1738 36.2765C42.3842 36.2765 36.5945 36.2765 30.8049 36.2765C23.7267 36.2765 16.6485 36.2765 9.57033 36.2765C8.13975 36.2765 6.70974 36.2776 5.27915 36.2744C3.20002 36.2703 1.15853 34.9818 0.395893 33.2129C0.123239 32.5817 -0.00225109 31.9343 3.05438e-05 31.2567C0.00744584 29.2405 0.00174177 27.2238 0.00174177 25.2071C0.00174177 19.9733 0.00174177 14.7401 0.00174177 9.50639C0.00174177 7.98577 3.05438e-05 6.46464 0.00117136 4.94402C0.0040234 2.20796 2.40886 0.0112828 5.39495 0.0118045C12.8827 0.0133694 20.371 0.0128478 27.8587 0.0128478C28.189 0.0128478 28.5193 0.0128478 28.8495 0.0128478ZM28.8387 3.30551C27.2324 3.30551 25.6267 3.30551 24.0205 3.30551C17.9086 3.30551 11.7972 3.30551 5.68528 3.30656C5.48678 3.30656 5.28201 3.30186 5.09092 3.34203C4.10925 3.54913 3.60558 4.1532 3.60501 5.11356C3.6033 8.35615 3.60444 11.5987 3.60444 14.8413C3.60444 20.1006 3.60444 25.3599 3.60444 30.6197C3.60444 30.8545 3.59873 31.0892 3.60729 31.324C3.62155 31.7261 3.74476 32.0934 4.04479 32.3991C4.45206 32.8138 4.96714 32.9818 5.56835 32.9807C8.0867 32.9765 10.6051 32.9781 13.124 32.9781C16.8755 32.9781 20.6277 32.9797 24.3793 32.9802C27.7053 32.9802 31.0308 32.9797 34.3568 32.9792C40.3073 32.9786 46.2584 32.9797 52.2089 32.9755C53.2071 32.975 53.9401 32.3605 54.0479 31.4565C54.0695 31.276 54.0678 31.0923 54.0678 30.9103C54.069 25.277 54.069 19.6437 54.0695 14.0109C54.0695 11.0724 54.0559 8.1334 54.077 5.19494C54.0861 3.89968 53.1164 3.28204 52.0121 3.29612C49.5918 3.3269 47.1705 3.30604 44.7497 3.30604C39.446 3.30604 34.1424 3.30604 28.8387 3.30604V3.30551Z" fill="#1A6058"/>
<path d="M15.7626 28.0328C13.3772 28.0328 10.9911 28.0333 8.6057 28.0328C7.85276 28.0328 7.26524 27.6201 7.23786 26.9352C7.19508 25.8611 7.17854 24.7761 7.29319 23.7088C7.41069 22.6175 8.12199 21.7656 9.00955 21.0593C10.4972 19.8757 12.266 19.2821 14.2008 19.0593C15.9685 18.8553 17.71 18.9638 19.4064 19.4756C20.9379 19.9372 22.3012 20.6457 23.3194 21.8282C23.948 22.5585 24.3102 23.3828 24.3278 24.3165C24.3432 25.1162 24.341 25.9159 24.3278 26.7156C24.317 27.4016 23.9331 27.8658 23.2829 28.0077C23.1562 28.0354 23.0193 28.0338 22.8876 28.0338C20.5124 28.0354 18.1372 28.0348 15.762 28.0348V28.0338L15.7626 28.0328Z" fill="#C09C1D"/>
<path d="M39.16 13.2006C36.6251 13.2006 34.0902 13.2006 31.5548 13.2006C30.5434 13.2006 29.738 12.4781 29.73 11.561C29.7221 10.6507 30.4898 9.9105 31.5012 9.90424C33.3441 9.89277 35.1871 9.90998 37.0301 9.91155C37.9508 9.91207 38.8714 9.90268 39.792 9.90164C42.1376 9.89955 44.4831 9.8959 46.8286 9.90112C47.7829 9.9032 48.5267 10.4916 48.6539 11.3195C48.7771 12.1218 48.2289 12.9022 47.3562 13.1427C47.1782 13.1917 46.9809 13.1985 46.7927 13.199C44.2486 13.2026 41.704 13.2011 39.16 13.2011V13.2006Z" fill="#C09C1D"/>
<path d="M39.1932 16.5021C41.7583 16.5021 44.3235 16.5001 46.8891 16.5032C47.7784 16.5042 48.5057 17.0843 48.65 17.8918C48.7875 18.6618 48.2741 19.4458 47.4533 19.6952C47.2679 19.7515 47.0643 19.7849 46.8692 19.7854C41.7675 19.7906 36.6652 19.7906 31.5634 19.7896C30.5356 19.7896 29.7313 19.0697 29.7324 18.1594C29.7336 17.21 30.511 16.5027 31.5554 16.5021C34.1017 16.5021 36.648 16.5021 39.1943 16.5021H39.1932Z" fill="#C09C1D"/>
<path d="M39.1785 26.3773C36.631 26.3773 34.0836 26.3779 31.5361 26.3773C30.5271 26.3773 29.7388 25.6643 29.7354 24.754C29.7319 23.8171 30.5311 23.081 31.5504 23.081C35.7977 23.081 40.0449 23.081 44.2922 23.081C45.1466 23.081 46.0017 23.08 46.8562 23.081C47.8595 23.0826 48.6586 23.8176 48.6638 24.7399C48.6683 25.6371 47.892 26.3716 46.9018 26.3753C45.0109 26.3815 43.12 26.3711 41.2291 26.3685C40.5452 26.3674 39.8618 26.3685 39.1779 26.3685C39.1779 26.3716 39.1779 26.3747 39.1779 26.3784L39.1785 26.3773Z" fill="#C09C1D"/>
<path d="M20.1655 12.3C20.2185 14.4492 18.1873 16.3516 15.7015 16.312C13.2841 16.2734 11.3538 14.4852 11.355 12.2368C11.3561 10.0892 13.3617 8.19038 15.8874 8.25246C18.1565 8.30827 20.2237 10.0542 20.1655 12.3005V12.3Z" fill="#C09C1D"/>
</svg>
