<svg width="46" height="46" viewBox="0 0 46 46" fill="none" xmlns="http://www.w3.org/2000/svg">
<g filter="url(#filter0_dd_334_19715)">
<path fill-rule="evenodd" clip-rule="evenodd" d="M42.7729 7.80722C42.7656 4.75747 40.2875 2.29102 37.2377 2.29824L8.82148 2.36559C5.77173 2.37282 3.30527 4.851 3.3125 7.90075L3.38184 37.1565C3.38906 40.2063 5.86724 42.6728 8.91699 42.6655L37.3332 42.5982C40.383 42.5909 42.8494 40.1128 42.8422 37.063L42.7729 7.80722Z" fill="white"/>
</g>
<path d="M16.4485 34.1601L15.7157 33.0391C15.5601 32.801 15.2563 32.745 15.037 32.914C14.8179 33.083 14.7663 33.413 14.9219 33.6511L15.6547 34.7721C15.7496 34.9173 15.8996 34.9947 16.052 34.9947C16.1495 34.9947 16.2478 34.963 16.3334 34.8971C16.5525 34.7281 16.6041 34.3981 16.4485 34.1601Z" fill="#1A6058"/>
<path d="M22.0744 34.4187L21.2993 30.687C20.9224 28.8724 19.8759 27.3034 18.3527 26.2688L16.6977 25.1448C16.0341 24.6941 15.1421 24.7911 14.5874 25.3624V19.6042C14.5874 18.8484 14.0773 18.2062 13.3468 18.0424C12.8754 17.9366 12.3891 18.0512 12.0125 18.3564C11.6359 18.6617 11.4199 19.1164 11.4199 19.6042V27.0137C11.4199 27.9844 11.714 28.9159 12.2703 29.7075L13.114 30.908C13.2063 31.0393 13.3521 31.1093 13.5002 31.1093C13.5949 31.1093 13.6905 31.0806 13.7737 31.021C13.9867 30.8682 14.0368 30.5699 13.8855 30.3547L13.0419 29.1542C12.5998 28.5252 12.3661 27.785 12.3661 27.0137V19.6042C12.3661 19.4079 12.4531 19.2248 12.6047 19.1019C12.7562 18.979 12.9519 18.9329 13.1418 18.9755C13.4359 19.0414 13.6412 19.2999 13.6412 19.6042V25.4828C13.6412 26.315 13.9439 27.1078 14.4938 27.7246C14.5174 27.7532 14.5416 27.7814 14.5672 27.8088C14.8814 28.1451 15.2508 28.5413 15.5987 28.9148L16.0858 29.4384C16.0873 29.4401 16.089 29.4415 16.0906 29.4432C16.5073 29.8908 16.8146 30.2213 16.821 30.2282C16.9998 30.4206 17.2993 30.4301 17.4897 30.2494C17.6802 30.0688 17.6896 29.7664 17.5107 29.574C17.5021 29.5647 16.9483 28.969 16.3158 28.29L15.231 27.1239C15.2283 27.1209 15.2258 27.1178 15.223 27.1148C14.9687 26.8075 14.9719 26.362 15.2385 26.058C15.4743 25.7891 15.8747 25.7375 16.1698 25.9379L17.8247 27.062C19.1422 27.9568 20.0473 29.3139 20.3732 30.8833L21.1484 34.615C21.1952 34.8402 21.3919 34.9948 21.611 34.9948C21.6431 34.9948 21.6758 34.9914 21.7086 34.9845C21.9643 34.9303 22.1281 34.6769 22.0744 34.4187Z" fill="#1A6058"/>
<path d="M14.7546 31.7884L14.7518 31.7825C14.6154 31.49 14.3498 31.4221 14.1587 31.6308C13.9676 31.8395 13.9232 32.2457 14.0596 32.5381L14.0623 32.544C14.1453 32.7219 14.276 32.8168 14.4088 32.8168C14.4943 32.8168 14.5805 32.7775 14.6554 32.6957C14.8465 32.487 14.8909 32.0808 14.7546 31.7884Z" fill="#1A6058"/>
<path d="M34.7166 18.3564C34.34 18.0511 33.8535 17.9367 33.3823 18.0423C32.6518 18.2061 32.1416 18.8483 32.1416 19.6041V25.3623C31.587 24.791 30.6949 24.6941 30.0314 25.1448L28.3764 26.2688C26.8532 27.3033 25.8067 28.8724 25.4298 30.687L24.6547 34.4187C24.6011 34.677 24.7648 34.9303 25.0206 34.9845C25.0533 34.9914 25.086 34.9948 25.1182 34.9948C25.3373 34.9948 25.5339 34.8401 25.5807 34.6149L26.3558 30.8832C26.6818 29.3138 27.5869 27.9567 28.9044 27.0619L30.5593 25.9379C30.8543 25.7375 31.2547 25.7891 31.4906 26.0579C31.7569 26.3616 31.7605 26.8064 31.5071 27.1137C31.504 27.117 31.5011 27.1204 31.4981 27.1238C31.4981 27.1238 29.227 29.5647 29.2184 29.5739C29.0396 29.7663 29.049 30.0687 29.2394 30.2494C29.4299 30.4301 29.7293 30.4206 29.9081 30.2282C29.9146 30.2213 31.8477 28.1451 32.1619 27.8088C32.1875 27.7814 32.2117 27.7532 32.2353 27.7246C32.7851 27.1078 33.0879 26.3149 33.0879 25.4828V19.604C33.0879 19.2998 33.2932 19.0412 33.5873 18.9754C33.7772 18.9328 33.9728 18.9789 34.1245 19.1017C34.2761 19.2246 34.363 19.4077 34.363 19.604V27.0136C34.363 27.785 34.1293 28.5252 33.6873 29.1542L30.113 34.2402C29.9617 34.4553 30.0118 34.7537 30.2249 34.9065C30.308 34.9661 30.4036 34.9947 30.4983 34.9947C30.6464 34.9947 30.7923 34.9247 30.8845 34.7934L34.4588 29.7075C35.0151 28.9159 35.3092 27.9844 35.3092 27.0137V19.604C35.3091 19.1163 35.0931 18.6616 34.7166 18.3564Z" fill="#1A6058"/>
<path d="M29.3397 19.8596L28.4999 19.6544V19.5004C29.0457 19.1093 29.4036 18.4617 29.4036 17.7298V16.613C29.4036 15.4214 28.4559 14.452 27.291 14.452C26.7682 14.452 26.2896 14.6477 25.9203 14.9706C25.5092 13.9407 24.5199 13.2129 23.3671 13.2129C22.2128 13.2129 21.2225 13.9426 20.8123 14.9745C20.4425 14.6492 19.9621 14.4519 19.4372 14.4519C18.2723 14.4519 17.3246 15.4213 17.3246 16.6129V16.6871V17.7297C17.3246 18.4616 17.6825 19.1092 18.2283 19.5003V19.6543L17.3885 19.8595C16.3858 20.1046 15.6855 21.0121 15.6855 22.0667V22.9684C15.6855 23.2351 15.8969 23.4512 16.1576 23.4512H18.3266C18.3233 23.5098 18.3209 23.5687 18.3209 23.628V25.3642C18.3209 25.6309 18.5323 25.847 18.793 25.847H21.6303C21.891 25.847 22.1023 25.6309 22.1023 25.3642C22.1023 25.0975 21.891 24.8814 21.6303 24.8814H21.1426V23.8836C21.1426 23.6169 20.9312 23.4007 20.6706 23.4007C20.4099 23.4007 20.1986 23.6169 20.1986 23.8836V24.8815H19.265V23.6281C19.265 22.6969 19.8834 21.8949 20.7686 21.6779L22.0639 21.3604L22.9308 23.3778C23.0062 23.5531 23.1757 23.6663 23.3629 23.6663H23.3629C23.5501 23.6663 23.7197 23.5532 23.795 23.3779L24.661 21.3635L25.9522 21.679C26.8383 21.8955 27.4571 22.6976 27.4571 23.6295V24.8815H26.5236V23.8836C26.5236 23.6169 26.3123 23.4007 26.0516 23.4007C25.7909 23.4007 25.5796 23.6169 25.5796 23.8836V24.8815H25.0446C24.784 24.8815 24.5726 25.0976 24.5726 25.3643C24.5726 25.631 24.784 25.8471 25.0446 25.8471H27.9292C28.1899 25.8471 28.4012 25.631 28.4012 25.3643V23.6295C28.4012 23.5697 28.3989 23.5104 28.3955 23.4513H30.5707C30.8313 23.4513 31.0427 23.2352 31.0427 22.9685V22.0668C31.0427 21.0122 30.3424 20.1046 29.3397 19.8596ZM27.291 15.4176C27.9094 15.4176 28.4171 15.9116 28.457 16.5341H27.8007C27.249 16.5341 26.7061 16.3982 26.2181 16.1395C26.3976 15.7152 26.811 15.4176 27.291 15.4176ZM26.1225 17.6592C26.123 17.6357 26.1242 17.6123 26.1242 17.5886V17.1586C26.6539 17.3828 27.2234 17.4998 27.8007 17.4998H28.4595V17.7297C28.4595 18.3888 27.9354 18.925 27.291 18.925C26.6466 18.925 26.1225 18.3888 26.1225 17.7297V17.6592ZM21.554 16.0331C21.554 15.0105 22.3673 14.1786 23.3671 14.1786C24.2688 14.1786 25.0188 14.8554 25.1573 15.7384L24.3626 15.2608C24.1638 15.1414 23.9098 15.1862 23.7617 15.3671C23.3734 15.8411 22.8039 16.113 22.1992 16.113H21.554V16.0331ZM19.4372 15.4176C19.9172 15.4176 20.3306 15.7152 20.5101 16.1395C20.0221 16.3982 19.4792 16.534 18.9275 16.534H18.2712C18.3111 15.9116 18.8188 15.4176 19.4372 15.4176ZM18.2687 17.4997H18.9275C19.5054 17.4997 20.0756 17.3825 20.6058 17.1578V17.7296C20.6058 18.3887 20.0816 18.9249 19.4372 18.9249C18.7929 18.9249 18.2687 18.3888 18.2687 17.7297V17.4997ZM20.5487 20.7388C19.62 20.9664 18.8902 21.6287 18.5428 22.4856H16.6296V22.0667C16.6296 21.4609 17.0319 20.9395 17.6079 20.7988L18.81 20.505C19.0225 20.4531 19.1724 20.2589 19.1724 20.0354V19.8731C19.2592 19.8842 19.3475 19.8907 19.4372 19.8907C19.5263 19.8907 19.614 19.8843 19.7002 19.8733V20.0111C19.6998 20.0183 19.6997 20.0255 19.6996 20.0327C19.6995 20.1911 19.7757 20.3463 19.9155 20.4388C19.9682 20.4737 20.0251 20.4964 20.0832 20.5077L20.7873 20.6803L20.5487 20.7388ZM21.8653 19.9893C21.7441 19.9346 21.6177 19.8908 21.4874 19.8589L20.6442 19.6522V19.5017C20.7963 19.393 20.9339 19.2644 21.0533 19.1194C21.2641 19.4516 21.541 19.7357 21.8653 19.952V19.9893ZM23.9154 20.6987L23.3631 21.9838L22.8094 20.6954V20.3509C22.9896 20.3889 23.1761 20.4089 23.3671 20.4089C23.5548 20.4089 23.7381 20.3894 23.9154 20.3527V20.6987ZM23.3671 19.4432C22.3673 19.4432 21.554 18.6112 21.554 17.5886V17.0786H22.1992C22.9478 17.0786 23.6595 16.7939 24.205 16.286L25.1784 16.8711V17.6592C25.1419 18.6492 24.3437 19.4432 23.3671 19.4432ZM24.8595 19.9908V19.9581C25.1864 19.7419 25.4658 19.4571 25.6783 19.1235C25.7968 19.2668 25.9332 19.394 26.0839 19.5017V19.6522L25.2407 19.8589C25.1093 19.8911 24.9818 19.9354 24.8595 19.9908ZM30.0986 22.4856H28.1789C27.8312 21.6287 27.1008 20.9668 26.1716 20.7397L25.9346 20.6818L26.6425 20.5083C26.7014 20.4971 26.7593 20.4741 26.8126 20.4388C26.9522 20.3464 27.0281 20.1912 27.0281 20.0328C27.0281 20.029 27.0281 20.0252 27.028 20.0215V19.8733C27.1142 19.8843 27.2018 19.8907 27.2909 19.8907C27.3806 19.8907 27.4689 19.8842 27.5557 19.8731V20.0354C27.5557 20.2589 27.7057 20.4531 27.9181 20.505L29.1203 20.7988C29.6963 20.9396 30.0986 21.4609 30.0986 22.0667V22.4856Z" fill="#1A6058"/>
<path d="M23.6656 24.7299C23.5859 24.6083 23.4763 24.5391 23.3641 24.5391C23.2514 24.5391 23.1418 24.6083 23.0625 24.7299C22.9827 24.8521 22.9375 25.02 22.9375 25.1926C22.9375 25.3644 22.9827 25.5324 23.0625 25.6546C23.1418 25.7761 23.2515 25.8461 23.3641 25.8461C23.4763 25.8461 23.5859 25.7761 23.6656 25.6546C23.745 25.5324 23.7907 25.3644 23.7907 25.1926C23.7907 25.02 23.745 24.8521 23.6656 24.7299Z" fill="#1A6058"/>
<path d="M23.3641 10.5977C23.1285 10.5977 22.9375 10.8208 22.9375 11.0961V11.8419C22.9375 12.1172 23.1285 12.3403 23.3641 12.3403C23.5996 12.3403 23.7907 12.1172 23.7907 11.8419V11.0961C23.7907 10.8208 23.5997 10.5977 23.3641 10.5977Z" fill="#1A6058"/>
<path d="M21.9212 12.0436L21.3341 11.5942C21.1154 11.4268 20.7611 11.4269 20.5426 11.5945C20.3242 11.762 20.3244 12.0335 20.543 12.2009L21.1302 12.6503C21.2394 12.7339 21.3826 12.7757 21.5257 12.7757C21.669 12.7757 21.8123 12.7338 21.9216 12.65C22.1399 12.4825 22.1398 12.211 21.9212 12.0436Z" fill="#1A6058"/>
<path d="M26.1863 11.5945C25.9671 11.4268 25.6117 11.4268 25.3928 11.5948L24.8087 12.0424C24.5897 12.2103 24.5898 12.4823 24.8091 12.65C24.9187 12.7338 25.0621 12.7757 25.2057 12.7757C25.3494 12.7757 25.4931 12.7337 25.6026 12.6497L26.1867 12.2021C26.4057 12.0342 26.4056 11.7621 26.1863 11.5945Z" fill="#1A6058"/>
<defs>
<filter id="filter0_dd_334_19715" x="0.945894" y="0.72109" width="44.2625" height="45.1004" filterUnits="userSpaceOnUse" color-interpolation-filters="sRGB">
<feFlood flood-opacity="0" result="BackgroundImageFix"/>
<feColorMatrix in="SourceAlpha" type="matrix" values="0 0 0 0 0 0 0 0 0 0 0 0 0 0 0 0 0 0 127 0" result="hardAlpha"/>
<feOffset dy="0.788869"/>
<feGaussianBlur stdDeviation="1.1833"/>
<feColorMatrix type="matrix" values="0 0 0 0 0.2471 0 0 0 0 0.2471 0 0 0 0 0.2667 0 0 0 0.15 0"/>
<feBlend mode="normal" in2="BackgroundImageFix" result="effect1_dropShadow_334_19715"/>
<feColorMatrix in="SourceAlpha" type="matrix" values="0 0 0 0 0 0 0 0 0 0 0 0 0 0 0 0 0 0 127 0" result="hardAlpha"/>
<feOffset/>
<feColorMatrix type="matrix" values="0 0 0 0 0.2471 0 0 0 0 0.2471 0 0 0 0 0.2667 0 0 0 0.05 0"/>
<feBlend mode="normal" in2="effect1_dropShadow_334_19715" result="effect2_dropShadow_334_19715"/>
<feBlend mode="normal" in="SourceGraphic" in2="effect2_dropShadow_334_19715" result="shape"/>
</filter>
</defs>
</svg>
