<svg width="53" height="53" viewBox="0 0 53 53" fill="none" xmlns="http://www.w3.org/2000/svg">
<g filter="url(#filter0_dd_1946_34711)">
<path fill-rule="evenodd" clip-rule="evenodd" d="M50.0155 8.55899C50.007 4.93656 47.0634 2.00696 43.441 2.01555L9.68887 2.09554C6.06644 2.10413 3.13684 5.04765 3.14542 8.67007L3.22542 42.4222C3.234 46.0447 6.17752 48.9743 9.79995 48.9657L43.5521 48.8857C47.1745 48.8771 50.1041 45.9336 50.0955 42.3111L50.0155 8.55899Z" fill="white"/>
</g>
<path d="M30.3957 8.00089C29.9906 8.03899 29.6817 8.37992 29.6834 8.78661V10.0144C29.3945 10.1172 29.1162 10.2372 28.8485 10.3704L27.9766 9.49861C27.6704 9.19605 27.1775 9.19605 26.8714 9.49861L24.4278 11.9298C24.2785 12.0772 24.1946 12.2784 24.1946 12.4883C24.1946 12.6983 24.2785 12.8994 24.4278 13.0471L25.2874 13.9066C25.1515 14.1837 25.0341 14.4703 24.9314 14.7661H23.7278C23.2939 14.7661 22.942 15.1177 22.942 15.5518V18.9896C22.942 19.4235 23.2939 19.7753 23.7278 19.7753H24.9314C25.0333 20.0675 25.1531 20.349 25.2874 20.6225L24.4278 21.4819C24.2785 21.6296 24.1946 21.8308 24.1946 22.0407C24.1946 22.2504 24.2785 22.4515 24.4278 22.5993L26.8714 25.0302C27.1776 25.333 27.6704 25.333 27.9766 25.0302L28.8238 24.1831C29.1009 24.3193 29.3876 24.4363 29.6834 24.5391V25.7548C29.6834 26.1886 30.0353 26.5405 30.4692 26.5405H33.9198C34.354 26.5405 34.7056 26.1886 34.7056 25.7548V24.5391C34.9995 24.439 35.2875 24.3291 35.5652 24.1954L36.4004 25.0301C36.7065 25.333 37.1994 25.333 37.5055 25.0301L39.9367 22.5992C40.2429 22.2964 40.2484 21.8036 39.9491 21.4942L39.1018 20.6224C39.2362 20.3489 39.3559 20.0672 39.4579 19.7753H40.6612C41.0953 19.7753 41.447 19.4234 41.4473 18.9896V15.5517C41.447 15.1176 41.0953 14.766 40.6612 14.766H39.4579C39.3551 14.4703 39.2378 14.1836 39.1018 13.9066L39.9491 13.0348C40.2484 12.7251 40.2429 12.2325 39.9367 11.9297L37.5055 9.49856C37.1993 9.19599 36.7065 9.19599 36.4004 9.49856L35.5408 10.358C35.2735 10.2254 34.9937 10.1168 34.7056 10.0143V8.78654C34.7056 8.3527 34.354 8.00082 33.9198 8.00082H30.4692C30.4448 7.99973 30.4201 7.9998 30.3957 8.00089ZM31.2553 9.57234H33.1339V10.5302C33.1336 10.8886 33.3762 11.2016 33.7232 11.2913C34.2879 11.434 34.8089 11.6651 35.3196 11.9665C35.6293 12.1496 36.024 12.0992 36.2775 11.8438L36.9529 11.1685L38.2789 12.4946L37.6159 13.1699C37.3706 13.4243 37.3254 13.811 37.5054 14.1152C37.8045 14.6184 38.0342 15.1591 38.1808 15.736C38.2655 16.0879 38.5799 16.3362 38.942 16.3376H39.8753V18.204H38.942C38.5835 18.2037 38.2705 18.4463 38.1808 18.7932C38.0345 19.3726 37.8064 19.9073 37.5054 20.4141C37.3254 20.718 37.3706 21.105 37.6159 21.3593L38.2789 22.0346L36.9529 23.3608L36.3019 22.7099C36.0456 22.4586 35.6512 22.4131 35.3442 22.5994C34.8476 22.8935 34.3057 23.1152 33.7232 23.2624C33.3762 23.352 33.1336 23.6653 33.1339 24.0238V24.969H31.2553V24.0238C31.2553 23.6653 31.013 23.352 30.6657 23.2624C30.0857 23.1158 29.5515 22.8883 29.0449 22.5871C28.7377 22.4007 28.3435 22.4462 28.087 22.6975L27.4239 23.3608L26.0979 22.0346L26.7609 21.3717C27.0161 21.1181 27.0668 20.7238 26.8837 20.4141C26.5833 19.9079 26.3541 19.3708 26.2083 18.7933C26.1187 18.4463 25.8054 18.2038 25.4469 18.204H24.5135V16.3377H25.4469C25.8089 16.3363 26.1233 16.088 26.2083 15.7361C26.3544 15.1611 26.5852 14.6179 26.8837 14.1152C27.0668 13.8056 27.0161 13.4112 26.7609 13.1577L26.0979 12.4948L27.4239 11.1686L28.1116 11.8439C28.3652 12.0993 28.7596 12.1497 29.0693 11.9667C29.5813 11.6641 30.0985 11.4347 30.6656 11.2914C31.0129 11.2018 31.2552 10.8888 31.2552 10.5303L31.2553 9.57234ZM32.2007 13.4646C30.1044 13.4646 28.3816 15.1729 28.3816 17.2708C28.3816 19.3684 30.1005 21.0893 32.2007 21.0893C34.3008 21.0893 36.0073 19.3646 36.0073 17.2708C36.0073 15.1766 34.297 13.4646 32.2007 13.4646ZM32.2007 15.036C33.4533 15.036 34.4357 16.0202 34.4357 17.2708C34.4357 18.521 33.4492 19.5175 32.2007 19.5175C30.9522 19.5175 29.9536 18.5172 29.9536 17.2708C29.9536 16.024 30.9484 15.036 32.2007 15.036ZM21.0389 26.0989C19.7964 26.0989 18.6195 26.4708 17.5882 27.0811C17.3953 27.1798 17.2514 27.3538 17.1908 27.5621C17.1305 27.7701 17.1587 27.9943 17.2689 28.1809C17.3794 28.3676 17.5619 28.5002 17.7735 28.5479C17.9851 28.5953 18.2069 28.5534 18.3864 28.4317C19.2085 27.945 20.1113 27.6703 21.0389 27.6703C22.519 27.6703 23.8695 28.2486 24.8822 29.193C25.0294 29.3287 25.2227 29.4035 25.4228 29.4016L29.1187 29.3772C29.5178 29.3772 29.6998 29.4865 29.8188 29.6104C29.9377 29.7343 29.9953 29.9097 29.9906 30.1015C29.9816 30.4849 29.8207 30.8626 29.1187 30.8626H23.8632C23.6529 30.8599 23.4501 30.9413 23.3002 31.089C23.1505 31.2367 23.0661 31.4381 23.0661 31.6486C23.0661 31.8588 23.1505 32.0605 23.3002 32.2083C23.4501 32.3557 23.6529 32.4374 23.8632 32.4344H29.1187C30.5659 32.4344 31.5352 31.2828 31.5625 30.1382C31.576 29.566 31.3803 28.9666 30.9486 28.5177C30.5166 28.0685 29.8667 27.8054 29.1187 27.8054H29.1066L25.6804 27.8301C24.4223 26.7623 22.809 26.0989 21.0389 26.0989ZM40.3543 26.1112C39.8234 26.1186 39.2834 26.2559 38.7949 26.5039L34.1164 28.8861C33.9217 28.9751 33.7721 29.1399 33.7016 29.3418C33.6312 29.5438 33.6463 29.7661 33.7433 29.9568C33.8403 30.1473 34.0111 30.2904 34.2158 30.3523C34.4206 30.4145 34.6421 30.3904 34.8285 30.2857L39.507 27.9038C40.2668 27.5177 41.0083 27.661 41.2999 28.1001C41.5927 28.5408 41.4477 29.1607 40.772 29.5614C40.7679 29.5652 40.7638 29.5693 40.7597 29.5734L30.8132 35.6143H19.9455L14.7757 26.676C14.5611 26.3005 14.0839 26.1689 13.7072 26.3811L10.3917 28.2965C10.3668 28.3075 10.3421 28.3198 10.3183 28.3335C9.99456 28.573 9.90466 29.0181 10.1094 29.3648L16.5929 40.5988C16.6959 40.7824 16.8684 40.917 17.0715 40.9724C17.2748 41.0277 17.4917 40.9992 17.6736 40.8934L20.9768 38.978C21.352 38.7637 21.4839 38.2862 21.2714 37.9099L20.854 37.1853H31.0334C31.1814 37.1845 31.3262 37.142 31.4509 37.0625L41.5692 30.9235L41.5813 30.9115C42.8805 30.1307 43.435 28.4658 42.613 27.2281C42.1997 26.6057 41.5684 26.2555 40.8815 26.1475C40.7096 26.1206 40.5314 26.1087 40.3543 26.1112ZM13.8059 28.1371L19.5159 38.0212L17.5635 39.1386L11.8655 29.2671L13.8059 28.1371Z" fill="#9F2241"/>
<defs>
<filter id="filter0_dd_1946_34711" x="0.334506" y="0.141624" width="52.572" height="52.572" filterUnits="userSpaceOnUse" color-interpolation-filters="sRGB">
<feFlood flood-opacity="0" result="BackgroundImageFix"/>
<feColorMatrix in="SourceAlpha" type="matrix" values="0 0 0 0 0 0 0 0 0 0 0 0 0 0 0 0 0 0 127 0" result="hardAlpha"/>
<feOffset dy="0.937001"/>
<feGaussianBlur stdDeviation="1.4055"/>
<feColorMatrix type="matrix" values="0 0 0 0 0.2471 0 0 0 0 0.2471 0 0 0 0 0.2667 0 0 0 0.15 0"/>
<feBlend mode="normal" in2="BackgroundImageFix" result="effect1_dropShadow_1946_34711"/>
<feColorMatrix in="SourceAlpha" type="matrix" values="0 0 0 0 0 0 0 0 0 0 0 0 0 0 0 0 0 0 127 0" result="hardAlpha"/>
<feOffset/>
<feColorMatrix type="matrix" values="0 0 0 0 0.2471 0 0 0 0 0.2471 0 0 0 0 0.2667 0 0 0 0.05 0"/>
<feBlend mode="normal" in2="effect1_dropShadow_1946_34711" result="effect2_dropShadow_1946_34711"/>
<feBlend mode="normal" in="SourceGraphic" in2="effect2_dropShadow_1946_34711" result="shape"/>
</filter>
</defs>
</svg>
