<svg width="87" height="83" viewBox="0 0 87 83" fill="none" xmlns="http://www.w3.org/2000/svg">
<g filter="url(#filter0_dd_9994_112139)">
<path fill-rule="evenodd" clip-rule="evenodd" d="M83.6906 8.84638C83.6816 5.22395 80.7378 2.29404 77.1154 2.30224L10.1635 2.45368C6.54111 2.46188 3.61184 5.40508 3.62084 9.02751L3.77804 72.3282C3.78703 75.9506 6.73089 78.8806 10.3533 78.8724L77.3051 78.7209C80.9276 78.7127 83.8568 75.7695 83.8478 72.1471L83.6906 8.84638Z" fill="white"/>
</g>
<path d="M66.7098 16.6739H27.8942C27.2278 16.6739 26.6874 17.1145 26.6874 17.6579V43.6766C25.9454 43.7964 25.2251 44.0273 24.5675 44.3707C24.5637 44.3727 24.56 44.3746 24.5561 44.3767C22.3322 45.5666 21.2938 47.7771 21.9724 49.8773L23.6592 55.098H22.8172C19.4257 55.098 16.6667 57.3477 16.6667 60.113V61.852C16.6667 62.3955 17.2071 62.836 17.8735 62.836H18.245V64.3864C18.245 65.8581 19.7133 67.0553 21.5181 67.0553H34.2693C36.0742 67.0553 37.5425 65.8581 37.5425 64.3864V62.836H37.914C38.5804 62.836 39.1208 62.3955 39.1208 61.852C39.1208 61.852 39.1183 60.0378 39.1173 60.0001H66.7098C67.3762 60.0001 67.9167 59.5596 67.9167 59.0161V17.6579C67.9167 17.1145 67.3762 16.6739 66.7098 16.6739V16.6739ZM24.3064 49.3759C23.8867 48.0767 24.5022 46.762 25.8746 46.025C26.7168 45.587 27.727 45.4498 28.6746 45.6129C30.7247 45.9731 32.0112 47.7327 31.4796 49.3791L29.6323 55.0978H26.1552L24.3064 49.3759ZM19.0803 60.1129C19.0803 58.4328 20.7568 57.0659 22.8172 57.0659L32.9708 57.0662C35.0118 57.0662 36.7073 58.4565 36.7073 60.1129V60.8679H19.0803V60.1129ZM35.1289 64.3862C35.1289 64.7726 34.7433 65.0871 34.2693 65.0871H21.5181C21.0442 65.0871 20.6586 64.7727 20.6586 64.3862V62.8358H35.1289V64.3862ZM65.503 58.032H38.5671C37.5797 56.2715 35.3487 55.0979 32.9703 55.0979H32.1289L33.8151 49.8772C34.7003 47.1373 32.5262 44.2298 29.1011 43.6734V18.6419H65.503V58.032Z" fill="#B39A3F"/>
<path d="M57.983 45.76H46.2445C44.7428 45.76 43.521 46.7562 43.521 47.9807V52.1255C43.521 53.35 44.7428 54.3462 46.2445 54.3462H57.983C59.4848 54.3462 60.7066 53.35 60.7066 52.1255V47.9807C60.7067 46.7562 59.4849 45.76 57.983 45.76ZM58.293 52.1254C58.293 52.2647 58.154 52.3781 57.9831 52.3781H46.2446C46.0737 52.3781 45.9348 52.2647 45.9348 52.1254V47.9806C45.9348 47.8413 46.0737 47.7279 46.2446 47.7279H57.9831C58.154 47.7279 58.293 47.8413 58.293 47.9806V52.1254Z" fill="#B39A3F"/>
<path d="M41.798 26.6007H59.5006C60.167 26.6007 60.7074 26.1602 60.7074 25.6167C60.7074 25.0732 60.167 24.6327 59.5006 24.6327H41.798C41.1316 24.6327 40.5912 25.0732 40.5912 25.6167C40.5912 26.1602 41.1316 26.6007 41.798 26.6007Z" fill="#B39A3F"/>
<path d="M36.3363 33.5653H59.5005C60.1669 33.5653 60.7074 33.1248 60.7074 32.5813C60.7074 32.0378 60.1669 31.5973 59.5005 31.5973H36.3363C35.6698 31.5973 35.1294 32.0378 35.1294 32.5813C35.1294 33.1248 35.6698 33.5653 36.3363 33.5653Z" fill="#B39A3F"/>
<path d="M35.7019 40.5301H59.5007C60.1672 40.5301 60.7076 40.0895 60.7076 39.5461C60.7076 39.0026 60.1672 38.5621 59.5007 38.5621H35.7019C35.0355 38.5621 34.4951 39.0026 34.4951 39.5461C34.4951 40.0895 35.0354 40.5301 35.7019 40.5301Z" fill="#B39A3F"/>
<path d="M35.221 25.9926C35.6349 26.8167 37.1282 26.769 37.4777 25.9328C37.8328 25.0836 36.6584 24.3159 35.7159 24.7725C35.2093 25.0181 34.9944 25.5496 35.221 25.9926Z" fill="#B39A3F"/>
<defs>
<filter id="filter0_dd_9994_112139" x="0.809813" y="0.428214" width="85.849" height="82.1922" filterUnits="userSpaceOnUse" color-interpolation-filters="sRGB">
<feFlood flood-opacity="0" result="BackgroundImageFix"/>
<feColorMatrix in="SourceAlpha" type="matrix" values="0 0 0 0 0 0 0 0 0 0 0 0 0 0 0 0 0 0 127 0" result="hardAlpha"/>
<feOffset dy="0.937001"/>
<feGaussianBlur stdDeviation="1.4055"/>
<feColorMatrix type="matrix" values="0 0 0 0 0.2471 0 0 0 0 0.2471 0 0 0 0 0.2667 0 0 0 0.15 0"/>
<feBlend mode="normal" in2="BackgroundImageFix" result="effect1_dropShadow_9994_112139"/>
<feColorMatrix in="SourceAlpha" type="matrix" values="0 0 0 0 0 0 0 0 0 0 0 0 0 0 0 0 0 0 127 0" result="hardAlpha"/>
<feOffset/>
<feColorMatrix type="matrix" values="0 0 0 0 0.2471 0 0 0 0 0.2471 0 0 0 0 0.2667 0 0 0 0.05 0"/>
<feBlend mode="normal" in2="effect1_dropShadow_9994_112139" result="effect2_dropShadow_9994_112139"/>
<feBlend mode="normal" in="SourceGraphic" in2="effect2_dropShadow_9994_112139" result="shape"/>
</filter>
</defs>
</svg>
