<svg width="15" height="18" viewBox="0 0 15 18" fill="none" xmlns="http://www.w3.org/2000/svg">
<path fill-rule="evenodd" clip-rule="evenodd" d="M11.2467 17.2489H4.23612C3.66287 17.2489 3.1177 16.6062 3.01873 15.813L1.73977 5.05399H13.743L12.4641 15.813C12.3651 16.606 11.8199 17.2489 11.2467 17.2489ZM7.37916 15.2761C7.37916 15.4742 7.54131 15.6349 7.74122 15.6349C7.94112 15.6349 8.10328 15.4742 8.10328 15.2761V7.0267C8.10328 6.82863 7.94112 6.66808 7.74122 6.66808C7.54131 6.66808 7.37916 6.82863 7.37916 7.0267V15.2761ZM9.92591 15.2017C9.90163 15.3984 10.0427 15.5773 10.2411 15.6014C10.4397 15.6255 10.6203 15.4857 10.6446 15.2891L11.6594 7.10126C11.6838 6.90469 11.5427 6.72573 11.3442 6.70157C11.1458 6.6774 10.9651 6.81723 10.9407 7.01381L9.92591 15.2017ZM4.83777 15.2892C4.86205 15.4857 5.04274 15.6256 5.24125 15.6014C5.43966 15.5773 5.58075 15.3984 5.55647 15.2017L4.54164 7.01384C4.51724 6.81727 4.33656 6.67744 4.13815 6.7016C3.93963 6.72576 3.79854 6.90472 3.82294 7.10128L4.83777 15.2892ZM4.16588 2.90202H1.22309C0.822819 2.90202 0.5 3.22321 0.5 3.61936C0.5 4.01481 0.823732 4.33671 1.22309 4.33671H14.2593C14.6596 4.33671 14.9824 4.01563 14.9824 3.61936C14.9824 3.22404 14.6586 2.90202 14.2593 2.90202H11.3165V2.18308C11.3165 1.39069 10.6672 0.75 9.86731 0.75H5.61501C4.8139 0.75 4.16582 1.39069 4.16582 2.18308L4.16588 2.90202ZM5.61413 2.90202H9.86819C9.86819 2.65308 9.86808 2.18467 9.86716 2.18467C9.86716 2.18467 5.61398 2.18363 5.61398 2.18306L5.61413 2.90202Z" fill="white"/>
</svg>
