<svg width="14" height="12" viewBox="0 0 14 12" fill="none" xmlns="http://www.w3.org/2000/svg">
<path d="M4.32443 6.80549C4.51171 6.59065 4.35915 6.25521 4.07413 6.25521H3.22078C3.21522 6.17077 3.21211 6.08568 3.21211 5.99988C3.21211 3.87372 4.94183 2.144 7.06796 2.144C8.0897 2.144 9.01974 2.54359 9.71041 3.19454L10.9137 1.78682C9.86037 0.823221 8.50479 0.29541 7.06796 0.29541C5.54425 0.29541 4.11175 0.888792 3.03431 1.9662C1.9569 3.04364 1.36352 4.47614 1.36352 5.99985C1.36352 6.08528 1.36566 6.17038 1.36937 6.25518H0.650589C0.365568 6.25518 0.212981 6.59062 0.40029 6.80546L2.02176 8.66538L2.36234 9.05604L3.58515 7.65341L4.32443 6.80549Z" fill="white"/>
<path d="M13.7355 5.72031L12.5262 4.33306L11.7735 3.46973L10.6989 4.70236L9.81144 5.72031C9.62416 5.93514 9.77672 6.27059 10.0617 6.27059H10.9141C10.7746 8.27087 9.10296 9.8557 7.06788 9.8557C6.17951 9.8557 5.36047 9.55355 4.70778 9.04684L3.50439 10.4547C4.51252 11.2643 5.75629 11.7043 7.0679 11.7043C8.59161 11.7043 10.0241 11.1109 11.1016 10.0335C12.1149 9.02013 12.6999 7.69263 12.7659 6.27061H13.4853C13.7703 6.27059 13.9228 5.93514 13.7355 5.72031Z" fill="white"/>
</svg>
