<svg width="20" height="21" viewBox="0 0 20 21" fill="none" xmlns="http://www.w3.org/2000/svg">
<path d="M0.204101 14.6643L0.204101 16.8519L0.437298 16.8519C1.05141 16.8519 1.66553 16.8573 2.27964 16.8481C2.44188 16.8456 2.51491 16.8888 2.5701 17.0515C3.1257 18.6818 4.25144 19.683 5.93776 20.0341C8.03695 20.471 10.2532 19.1465 10.8801 17.0959C11.6615 14.5394 10.1714 12.002 7.54857 11.4734C5.339 11.0278 3.24106 12.3348 2.57508 14.4373C2.51367 14.6307 2.42653 14.6722 2.24271 14.6689C1.6427 14.6581 1.04228 14.6647 0.441863 14.6647C0.367588 14.6647 0.293729 14.6647 0.204101 14.6647L0.204101 14.6643ZM6.7137 13.5842C7.93861 13.5888 8.90584 14.546 8.90501 15.7523C8.90418 16.9436 7.91164 17.9403 6.7357 17.9303C5.5278 17.9203 4.54356 16.9332 4.55352 15.7419C4.56306 14.5518 5.5361 13.5796 6.7137 13.5842Z" fill="#717171"/>
<path d="M19.7963 5.94522L19.7963 3.77009C19.7187 3.76595 19.6461 3.75889 19.5735 3.75848C18.9457 3.75765 18.3178 3.75391 17.69 3.76097C17.5498 3.76263 17.4888 3.71947 17.4427 3.5842C16.8527 1.83398 15.639 0.797869 13.817 0.527327C11.5676 0.193714 9.38747 1.79207 8.98996 4.02404C8.5522 6.48049 10.0987 8.70458 12.5556 9.15189C14.6576 9.53446 16.8162 8.2137 17.4282 6.1614C17.4784 5.99294 17.5494 5.93775 17.7249 5.94065C18.4071 5.95144 19.0896 5.94522 19.7963 5.94522ZM13.2825 7.02365C12.0618 7.02116 11.0937 6.06182 11.0937 4.85517C11.0937 3.65931 12.0788 2.66635 13.2547 2.67672C14.4809 2.68751 15.4448 3.64354 15.446 4.84936C15.4473 6.04812 14.4742 7.02614 13.2825 7.02365Z" fill="#717171"/>
<path d="M0.206055 3.77551L0.206055 5.9332L6.71856 5.9332C6.7252 5.87885 6.73516 5.83237 6.73557 5.7859C6.73682 5.17179 6.73391 4.55726 6.73848 3.94314C6.73931 3.81991 6.71939 3.75476 6.57167 3.75517C4.48701 3.75932 2.40234 3.75808 0.317674 3.75891C0.284479 3.75891 0.250868 3.76845 0.206055 3.77509L0.206055 3.77551Z" fill="#717171"/>
<path d="M19.7951 16.8349L19.7951 14.683L13.2793 14.683L13.2793 16.8349L19.7951 16.8349Z" fill="#717171"/>
</svg>
