<svg width="27" height="27" viewBox="0 0 27 27" fill="none" xmlns="http://www.w3.org/2000/svg">
<circle cx="13.5" cy="13.5" r="12.5" fill="#8B1232" stroke="#540419" stroke-width="2"/>
<path d="M20.9561 18.2112L20.0466 14.5731C20.0324 14.5163 20.0102 14.4633 19.982 14.4147C20.034 14.2704 20.0625 14.115 20.0625 13.9531V7.95589C20.0625 7.20389 19.4507 6.59204 18.6987 6.59204H8.62153C7.8694 6.59204 7.25762 7.20386 7.25762 7.95589V13.953C7.25762 14.115 7.28614 14.2704 7.33826 14.4146C7.31 14.4633 7.28767 14.5163 7.27353 14.573L6.35662 18.2405C6.31099 18.4231 6.35203 18.6166 6.46788 18.7649C6.5837 18.9133 6.76142 19 6.9497 19H20.3705C20.3707 19 20.3709 19 20.3711 19C20.7087 19 20.9823 18.7263 20.9823 18.3887C20.9823 18.327 20.9731 18.2674 20.9561 18.2112ZM15.2092 18.0444C15.209 18.0444 15.2089 18.0444 15.2086 18.0444H12.1114C12.0757 18.0444 12.0417 18.0285 12.0189 18.0011C11.9959 17.9737 11.9863 17.9375 11.9927 17.9022L12.234 16.5628C12.2444 16.5053 12.2944 16.4636 12.3528 16.4636H14.9673C15.0257 16.4636 15.0757 16.5054 15.086 16.5628L15.3254 17.8915C15.3282 17.9018 15.3297 17.9126 15.3297 17.9237C15.3298 17.9904 15.2758 18.0444 15.2092 18.0444ZM18.8712 13.9531C18.8712 14.0228 18.8296 14.0828 18.7701 14.1101H8.55001C8.49037 14.0828 8.44874 14.0228 8.44874 13.9531V7.95589C8.44874 7.86067 8.52625 7.78322 8.6215 7.78322H18.6986C18.7938 7.78322 18.8713 7.86067 18.8713 7.95589L18.8712 13.9531Z" fill="white"/>
<path d="M13.9921 10.702L14.3739 10.5979C14.4495 10.5773 14.5033 10.5103 14.507 10.432C14.5108 10.3537 14.4637 10.2819 14.3905 10.2541L12.6299 9.58634C12.5634 9.56111 12.4881 9.57725 12.4378 9.62757C12.3874 9.67793 12.3713 9.75311 12.3965 9.81971L13.0643 11.5802C13.0921 11.6535 13.1639 11.7006 13.2422 11.6968C13.3206 11.6931 13.3875 11.6393 13.4081 11.5637L13.5122 11.1819L14.403 12.0726C14.4737 12.1433 14.5882 12.1433 14.6589 12.0726L14.8829 11.8487C14.9535 11.778 14.9535 11.6634 14.8829 11.5928L13.9921 10.702Z" fill="white"/>
</svg>
