<svg width="24" height="15" viewBox="0 0 24 15" fill="none" xmlns="http://www.w3.org/2000/svg">
<path d="M11.625 0.25C5.20501 0.25 0 7.18813 0 7.18813C0 7.18813 5.20501 14.1263 11.625 14.1263C18.045 14.1263 23.25 7.18813 23.25 7.18813C23.25 7.18813 18.045 0.25 11.625 0.25ZM11.625 11.593C10.4565 11.5931 9.33594 11.129 8.5096 10.303C7.68339 9.47676 7.21916 8.35618 7.21916 7.1877C7.21903 6.01936 7.68326 4.89877 8.50947 4.07257C9.33567 3.24636 10.4563 2.78212 11.6247 2.78226C12.7931 2.78226 13.9137 3.24649 14.7399 4.0727C15.5659 4.89904 16.03 6.01962 16.0299 7.1881C16.0298 8.35631 15.5657 9.47663 14.7396 10.3027C13.9135 11.1288 12.7932 11.5929 11.625 11.593Z" fill="white"/>
<path d="M11.6251 4.79834C10.9911 4.79808 10.3831 5.04965 9.93475 5.49767C9.48636 5.94579 9.2344 6.55365 9.23413 7.18758C9.234 7.8215 9.4857 8.42949 9.93382 8.87775C10.3819 9.32614 10.9898 9.57811 11.6237 9.57811C12.2577 9.57824 12.8656 9.32641 13.3139 8.87828C13.7622 8.43002 14.014 7.82217 14.014 7.18824C14.0139 6.55458 13.7622 5.94699 13.3142 5.49886C12.8662 5.05073 12.2587 4.79877 11.6251 4.79837V4.79834Z" fill="white"/>
</svg>
