<svg width="25" height="25" viewBox="0 0 25 25" fill="none" xmlns="http://www.w3.org/2000/svg">
<path d="M12.5 0C5.60788 0 0 5.60788 0 12.5C0 19.3921 5.60788 25 12.5 25C19.3921 25 25 19.3921 25 12.5C25 5.60788 19.3921 0 12.5 0ZM12.5 22.7271C6.86144 22.7271 2.27286 18.1386 2.27286 12.5C2.27286 6.86139 6.86139 2.27286 12.5 2.27286C18.1386 2.27286 22.7271 6.86139 22.7271 12.5C22.7271 18.1386 18.1386 22.7271 12.5 22.7271Z" fill="white"/>
<path d="M12.5 5.68182C11.8728 5.68182 11.3637 6.19089 11.3637 6.81811V14.7724C11.3637 15.3996 11.8728 15.9087 12.5 15.9087C13.1272 15.9087 13.6363 15.3996 13.6363 14.7724V6.81811C13.6363 6.19089 13.1272 5.68182 12.5 5.68182Z" fill="white"/>
<path d="M13.6362 18.1818C13.6362 18.8094 13.1275 19.3181 12.4999 19.3181C11.8723 19.3181 11.3636 18.8094 11.3636 18.1818C11.3636 17.5542 11.8723 17.0453 12.4999 17.0453C13.1275 17.0453 13.6362 17.5542 13.6362 18.1818Z" fill="white"/>
</svg>
