<svg width="257" height="470" viewBox="0 0 257 470" fill="none" xmlns="http://www.w3.org/2000/svg">
<path d="M0.261274 234.405C0.31051 228.757 2.55166 223.349 6.51193 219.322L219.845 5.98852C223.869 2.10248 229.258 -0.047801 234.851 0.000805509C240.445 0.049412 245.795 2.29301 249.751 6.24839C253.706 10.2038 255.95 15.5544 255.998 21.148C256.047 26.7415 253.897 32.1303 250.011 36.1539L51.7599 234.405L250.011 432.655C252.048 434.623 253.673 436.977 254.791 439.58C255.909 442.183 256.498 444.982 256.523 447.815C256.547 450.647 256.007 453.456 254.935 456.078C253.862 458.7 252.278 461.082 250.275 463.085C248.272 465.088 245.89 466.672 243.268 467.745C240.646 468.817 237.837 469.357 235.005 469.333C232.172 469.308 229.373 468.719 226.77 467.601C224.167 466.483 221.813 464.858 219.845 462.821L6.51192 249.487C2.55166 245.46 0.31051 240.052 0.261274 234.405Z" fill="#8B1232"/>
</svg>
