<svg width="22" height="22" viewBox="0 0 22 22" fill="none" xmlns="http://www.w3.org/2000/svg">
<circle cx="10.9823" cy="11.369" r="9.65717" fill="white" stroke="#9F2241" stroke-width="1.54515"/>
<path d="M12.3033 11.3965V12.5648C13.2111 13.111 13.8261 14.1276 13.8261 15.2959C13.8261 17.0358 12.4643 18.4469 10.7854 18.4469C9.1064 18.4469 7.74468 17.0358 7.74468 15.2959C7.74468 14.1276 8.35477 13.111 9.26747 12.5648V11.3965C7.78373 12.0186 6.73438 13.5308 6.73438 15.2909C6.73438 17.6123 8.55 19.4938 10.7902 19.4938C13.0305 19.4938 14.8461 17.6123 14.8461 15.2909C14.8364 13.5258 13.787 12.0186 12.3033 11.3965Z" fill="#8B1232"/>
<path d="M12.7327 5.3264C12.9425 5.3264 13.1134 5.14938 13.1134 4.9319V4.6689C13.1134 4.45142 12.9425 4.2744 12.7327 4.2744H11.288V3.65231C11.288 3.43483 11.1171 3.25781 10.9073 3.25781H10.6535C10.4436 3.25781 10.2728 3.43483 10.2728 3.65231V13.2568C9.39913 13.4895 8.75 14.3139 8.75 15.29C8.75 16.4482 9.65781 17.394 10.7804 17.394C11.8981 17.394 12.8108 16.4532 12.8108 15.29C12.8108 14.3088 12.1665 13.4895 11.288 13.2568V8.74537H12.7327C12.9425 8.74537 13.1134 8.56835 13.1134 8.35087V8.08788C13.1134 7.8704 12.9425 7.69338 12.7327 7.69338H11.288V7.0106H12.0982C12.2592 7.0106 12.391 6.87404 12.391 6.70714V6.257C12.391 6.0901 12.2592 5.95354 12.0982 5.95354H11.288V5.32134L12.7327 5.3264Z" fill="#B18147"/>
</svg>
