<svg width="102" height="102" viewBox="0 0 102 102" fill="none" xmlns="http://www.w3.org/2000/svg">
<circle cx="51" cy="51" r="51" fill="#672033"/>
<circle cx="51" cy="51" r="41" fill="#8B1232"/>
<path d="M54.7367 54.8975L51.564 58.0701C52.6386 62.1126 51.5896 66.5901 48.4298 69.75C43.7092 74.4705 36.0463 74.4833 31.3129 69.75C26.5796 65.0166 26.5796 57.3665 31.3129 52.6331C34.4728 49.4733 38.9631 48.4371 42.9928 49.4989L46.1654 46.3263C40.3191 43.8572 33.2702 44.9958 28.4857 49.7803C22.1916 56.0744 22.1788 66.2959 28.4857 72.6028C34.7798 78.8969 45.0013 78.9097 51.3082 72.6028C56.0799 67.8055 57.2313 60.7694 54.7367 54.8975Z" fill="white"/>
<path d="M72.4035 39.6356C72.992 40.2241 73.9387 40.2241 74.5271 39.6356L75.2435 38.9192C75.832 38.3307 75.832 37.3841 75.2435 36.7956L71.1754 32.7275L72.8768 31.026C73.4653 30.4375 73.4781 29.4781 72.8768 28.8768L72.1605 28.1604C71.5848 27.5847 70.6381 27.5847 70.0368 28.186L43.9778 54.245C40.8947 52.4157 36.8394 52.8378 34.1785 55.4988C31.0314 58.6458 31.0314 63.7629 34.1785 66.91C37.3255 70.057 42.4426 70.057 45.5897 66.91C48.2506 64.2491 48.66 60.2065 46.8434 57.1106L59.0862 44.8679L63.1287 48.9104C63.7172 49.4989 64.6638 49.4989 65.2523 48.9104L65.9687 48.194C66.5572 47.6056 66.5572 46.6589 65.9687 46.0704L61.9006 42.0023L63.7683 40.1345L66.0455 42.4117C66.4932 42.8594 67.2352 42.8594 67.683 42.4117L68.8983 41.1963C69.346 40.7486 69.346 40.0066 68.8983 39.5589L66.6211 37.2817L68.3354 35.5675L72.4035 39.6356Z" fill="white"/>
</svg>
