<svg width="52" height="28" viewBox="0 0 52 28" fill="none" xmlns="http://www.w3.org/2000/svg">
<path d="M36.7741 15.2979C36.9078 15.5119 37.1217 15.6188 37.4159 15.6188C37.7904 15.6456 38.0578 15.2444 38.0578 15.2444L44.3963 7.08724C44.9312 6.55234 45.4394 6.98026 45.4394 6.98026C45.9475 7.51516 45.5731 7.96982 45.5731 7.96982L44.1556 9.78847V9.81521C44.0219 9.94894 43.9684 10.1094 43.9684 10.2966C43.9684 10.4571 44.0219 10.6176 44.1289 10.7513L45.5464 12.5699L50.0395 6.84654L48.2476 4.54648L47.9266 4.11856C47.6325 3.69065 46.9906 3.61041 46.9906 3.61041H44.2894C43.5672 3.61041 43.1928 4.11856 43.1928 4.11856L35.624 13.8269L36.7741 15.2979Z" fill="#9F2241"/>
<path d="M36.453 10.3235L34.6611 7.99669C34.2867 7.4083 34.8216 6.98039 34.8216 6.98039C35.4902 6.57921 35.8914 7.19434 35.8914 7.19434L37.3891 9.11997L39.1542 6.81992L37.1216 4.19892C36.6402 3.50356 35.8914 3.61054 35.8914 3.61054H33.4576C32.682 3.61054 32.3343 4.09194 32.3343 4.09194L30.168 6.81992L34.6611 12.5968L36.453 10.3235Z" fill="#9F2241"/>
<path d="M43.4334 12.3026C43.4334 12.3026 43.2194 11.9817 42.8183 11.9817C42.3904 11.9817 42.2299 12.2759 42.2299 12.2759L35.8111 20.54C35.303 21.1017 34.7146 20.647 34.7146 20.647C34.2064 20.1121 34.6344 19.6307 34.6344 19.6307L36.0786 17.7853V17.7586C36.2123 17.6248 36.2658 17.4644 36.2658 17.2772C36.2658 17.1167 36.2123 16.9562 36.1053 16.8225L34.6878 15.0039L30.168 20.8075L32.682 23.9901L36.6402 24.0169L44.6102 13.8271L43.4334 12.3026Z" fill="#9F2241"/>
<path d="M43.7549 17.2507L45.5736 19.6042C46.0015 20.1926 45.4666 20.6205 45.4666 20.6205C44.7712 21.1019 44.3433 20.3798 44.3433 20.3798L42.8189 18.4274L41.0537 20.7275L43.6212 23.9904L47.5527 23.9636L50.0667 20.7275L45.5468 14.9774L43.7549 17.2507Z" fill="#9F2241"/>
<path d="M50.013 14.7897C49.4781 14.7897 49.0502 14.3618 49.0502 13.8269C49.0502 13.292 49.4781 12.8641 50.013 12.8641C50.5479 12.8641 50.9758 13.292 50.9758 13.8269C50.9758 14.3618 50.5479 14.7897 50.013 14.7897ZM50.013 12.0082C48.9967 12.0082 48.1943 12.8106 48.1943 13.8001C48.1943 14.7897 48.9967 15.592 50.013 15.592C51.0293 15.592 51.8316 14.7897 51.8316 13.8001C51.8316 12.8106 51.0293 12.0082 50.013 12.0082Z" fill="#9F2241"/>
<path d="M40.0906 0.82909C40.6255 0.82909 41.0534 1.25701 41.0534 1.7919C41.0534 2.3268 40.6255 2.75472 40.0906 2.75472C39.5557 2.75472 39.1278 2.3268 39.1278 1.7919C39.1278 1.25701 39.5825 0.82909 40.0906 0.82909ZM40.0906 3.61055C41.1069 3.61055 41.9093 2.80821 41.9093 1.81865C41.9093 0.82909 41.1069 0 40.0906 0C39.0743 0 38.272 0.802345 38.272 1.7919C38.272 2.78146 39.0743 3.61055 40.0906 3.61055Z" fill="#9F2241"/>
<path d="M29.1787 13.8001C29.1787 13.2652 29.6066 12.8373 30.1415 12.8373C30.6764 12.8373 31.1043 13.2652 31.1043 13.8001C31.1043 14.335 30.6764 14.763 30.1415 14.763C29.6066 14.763 29.1787 14.335 29.1787 13.8001ZM31.9869 13.8001C31.9869 12.8106 31.1846 12.0082 30.1683 12.0082C29.152 12.0082 28.3496 12.8106 28.3496 13.8001C28.3496 14.7897 29.152 15.592 30.1683 15.592C31.1578 15.6188 31.9869 14.7897 31.9869 13.8001Z" fill="#9F2241"/>
<path d="M40.0906 26.7982C39.5557 26.7982 39.1278 26.3703 39.1278 25.8354C39.1278 25.3005 39.5557 24.8726 40.0906 24.8726C40.6255 24.8726 41.0534 25.3005 41.0534 25.8354C41.0534 26.3435 40.6255 26.7982 40.0906 26.7982ZM40.0906 24.0167C39.0743 24.0167 38.272 24.8191 38.272 25.8086C38.272 26.7982 39.0743 27.6005 40.0906 27.6005C41.1069 27.6005 41.9093 26.7982 41.9093 25.8086C41.9093 24.8191 41.1069 24.0167 40.0906 24.0167Z" fill="#9F2241"/>
<path d="M21.0214 1.79211H0V15.8064C0 23.5089 10.484 25.809 10.484 25.809H10.5107C10.5107 25.809 20.9947 23.4822 20.9947 15.8064L21.0214 1.79211ZM20.4865 2.30027V15.8064C20.4865 17.4378 19.9784 18.9623 18.9621 20.2995C18.133 21.3961 16.983 22.3856 15.512 23.2415C13.2922 24.552 11.0189 25.1671 10.484 25.2741C9.97582 25.1404 7.72926 24.552 5.48269 23.2415C4.01172 22.3856 2.8617 21.3961 2.03261 20.2995C1.0163 18.9623 0.508152 17.4378 0.508152 15.8064V2.30027H20.4865Z" fill="#BC955C"/>
<path d="M13.0515 6.28516V5.0014H11.741V6.20492H11.2328V5.0014H9.86883V6.20492H9.36068V5.0014H8.02344V6.28516L8.69206 7.40844C8.7188 7.46193 8.7188 7.48867 8.7188 7.54216V13.426H9.36068V11.3132C9.36068 10.805 9.92232 10.3504 10.5375 10.3504C11.1793 10.3504 11.7142 10.805 11.7142 11.3132V13.426H12.3828V11.2062C12.3828 11.1795 12.3828 11.1795 12.3828 11.1795V10.0829V10.0562V9.25383V8.90615V7.56891C12.3828 7.51542 12.4096 7.48867 12.4363 7.43518L13.0515 6.28516Z" fill="#BC955C"/>
<path d="M8.15688 13.5599V11.6076L7.94292 11.768C7.86269 11.8215 7.75571 11.8215 7.67548 11.7413L7.38128 11.5541C7.38128 11.5808 7.38128 11.5808 7.38128 11.5808L7.35454 12.3297C7.35454 12.4099 7.30105 12.4901 7.24756 12.5169C7.2743 12.5436 7.30105 12.5436 7.32779 12.5704C7.67548 12.8378 7.70222 13.239 7.62199 13.5599H8.15688Z" fill="#BC955C"/>
<path d="M10.4845 10.8853C10.0834 10.8853 9.81592 11.1794 9.81592 11.3132V13.426H11.1532V11.3132C11.1799 11.1527 10.8857 10.8853 10.4845 10.8853Z" fill="#BC955C"/>
<path d="M2.62102 13.5594C2.54078 13.3989 2.48729 13.2117 2.46055 12.971C2.38031 12.5431 2.40706 12.1954 2.40706 12.1686C2.40706 12.0617 2.48729 11.9814 2.59427 11.9279L3.15591 11.7675L2.51404 11.3128C2.4338 11.2593 2.40706 11.1791 2.40706 11.0989V10.3767C2.40706 10.2698 2.46055 10.1895 2.54078 10.136L2.78149 10.0023V9.76161L2.59427 9.68138C2.48729 9.65464 2.40706 9.5744 2.40706 9.44068V8.58484C2.40706 8.45112 2.51404 8.31739 2.67451 8.31739L3.47685 8.29065C3.45011 8.07669 3.45011 7.7825 3.5036 7.54179C3.58383 7.22086 3.77105 6.87317 3.85128 6.7127L3.79779 6.41851C3.77105 6.33828 3.82453 6.28479 3.85128 6.2313C3.90477 6.17781 3.95826 6.15106 4.03849 6.15106H4.46641C4.5199 6.15106 4.57339 6.17781 4.60014 6.20455L5.64318 6.87317H6.15134C6.23157 6.87317 6.28506 6.89992 6.33855 6.95341C6.39204 7.0069 6.41878 7.06039 6.41878 7.14062L6.36529 7.96971C6.36529 8.04994 6.33855 8.10343 6.28506 8.15692H6.606C6.68623 8.15692 6.73972 8.18367 6.79321 8.23716L6.92694 8.39763L7.03392 8.31739L7.22113 7.94297C7.27462 7.86273 7.35485 7.80924 7.46183 7.80924H8.1572V7.67552L7.48858 6.52549C7.46183 6.472 7.46183 6.44525 7.46183 6.39176V4.73359C7.46183 4.59986 7.56881 4.46614 7.72928 4.46614H9.33397H9.84212H11.2061H11.741H13.319C13.4527 4.46614 13.5864 4.57312 13.5864 4.73359V6.33828C13.5864 6.39177 13.5597 6.41851 13.5329 6.472L12.8643 7.59528V7.75575H13.5597C13.6666 7.75575 13.7469 7.80924 13.8004 7.88948L13.9876 8.2639L14.0946 8.34414L14.2283 8.18367C14.2818 8.13018 14.3353 8.10343 14.4155 8.10343H14.7364C14.6829 8.04994 14.6562 7.99646 14.6562 7.91622L14.6027 7.08713C14.6027 7.0069 14.6294 6.95341 14.6829 6.89992C14.7364 6.84643 14.7899 6.81968 14.8702 6.81968H15.3516L16.3946 6.15106C16.4481 6.12432 16.4748 6.09757 16.5283 6.09757H16.9563C17.0365 6.09757 17.09 6.12432 17.1435 6.17781C17.197 6.2313 17.2237 6.31153 17.197 6.36502L17.1435 6.65921C17.2237 6.81968 17.4109 7.16737 17.4911 7.4883C17.5446 7.72901 17.5446 8.0232 17.5179 8.23716L18.3202 8.2639C18.454 8.2639 18.5877 8.37088 18.5877 8.53135V9.38719C18.5877 9.49417 18.5342 9.5744 18.4272 9.62789L18.1865 9.70812V9.94883L18.4272 10.0826C18.5075 10.136 18.5609 10.2163 18.5609 10.3233V11.0454C18.5609 11.1256 18.5075 11.2058 18.454 11.2593L17.8121 11.714L18.3737 11.8745C18.4807 11.9012 18.5342 12.0082 18.5609 12.1152C18.5609 12.1419 18.5877 12.4896 18.5074 12.9175C18.454 13.1582 18.4272 13.3454 18.347 13.5059H19.2831H19.3098V3.58356H1.6582V13.5594H2.62102Z" fill="#BC955C"/>
<path d="M13.6666 12.5704C13.6933 12.5436 13.7201 12.5436 13.7468 12.5169C13.6933 12.4634 13.6399 12.4099 13.6399 12.3297V11.5808C13.6399 11.5541 13.6399 11.5541 13.6399 11.5541L13.3724 11.768C13.2922 11.8215 13.1852 11.8215 13.0782 11.7948L12.8643 11.6611V13.6134H13.3724C13.3189 13.239 13.3189 12.8646 13.6666 12.5704Z" fill="#BC955C"/>
<path d="M17.1165 18.9086C16.9827 18.9086 16.849 18.8016 16.849 18.6412V16.9563C16.849 16.8225 16.7688 16.6621 16.6618 16.5551C16.5548 16.4481 16.3944 16.3411 16.1269 16.3679C15.7257 16.3679 15.485 16.6888 15.4583 16.983V18.6679C15.4583 18.7482 15.4315 18.8016 15.3781 18.8551C15.3246 18.9086 15.2711 18.9354 15.1908 18.9354H13.6664C13.5327 18.9354 13.3989 18.8284 13.3989 18.6679V16.983C13.3989 16.8493 13.3187 16.6888 13.2117 16.5818C13.1047 16.4748 12.9443 16.3679 12.6768 16.3946C12.5164 16.3946 12.3559 16.4748 12.2222 16.5551L13.4792 23.0006C15.2443 22.225 17.3572 20.9145 18.5072 18.9354L17.1165 18.9086Z" fill="#BC955C"/>
<path d="M12.9984 23.1347L11.2332 14.0949H9.81572L8.02382 23.1347C8.02382 23.1614 8.02382 23.1614 7.99707 23.1882C9.22733 23.6963 10.2169 23.937 10.5111 24.044C10.8053 23.9638 11.7948 23.6963 13.0251 23.1882C13.0251 23.1614 13.0251 23.1614 12.9984 23.1347Z" fill="#BC955C"/>
<path d="M8.77207 16.5285C8.66509 16.4215 8.50463 16.368 8.31741 16.368H8.29067C8.02322 16.368 7.86275 16.475 7.78252 16.582C7.67554 16.689 7.5953 16.8494 7.5953 16.9832V18.6681C7.5953 18.8018 7.48832 18.9355 7.32785 18.9355H5.8034C5.72316 18.9355 5.66967 18.9088 5.61618 18.8553C5.56269 18.8018 5.53595 18.7483 5.53595 18.6681V16.9832C5.5092 16.689 5.2685 16.368 4.86733 16.368H4.84058C4.57314 16.368 4.41267 16.475 4.33243 16.582C4.22545 16.689 4.14522 16.8494 4.14522 16.9832V18.6681C4.14522 18.8018 4.03824 18.9355 3.87777 18.9355H2.54053C3.66381 20.9147 5.74991 22.1984 7.54181 23.0008L8.77207 16.5285Z" fill="#BC955C"/>
<path d="M19.3369 14.0949H11.7681L12.1425 15.9938C12.303 15.9136 12.4902 15.8601 12.6774 15.8601C13.0251 15.8601 13.346 15.967 13.5867 16.2077C13.8007 16.4217 13.9344 16.7159 13.9344 16.9566V18.3741H14.9507V16.9566C14.9507 16.9299 14.9507 16.9299 14.9507 16.9299C15.0042 16.3147 15.5123 15.8333 16.1275 15.8333C16.4752 15.8333 16.7961 15.9403 17.0368 16.181C17.2508 16.395 17.3845 16.6892 17.3845 16.9299V18.3473H18.802C19.1496 17.5717 19.3636 16.7159 19.3636 15.7263L19.3369 14.0949Z" fill="#BC955C"/>
<path d="M3.66369 18.4004V16.9829C3.66369 16.7155 3.79741 16.448 4.01137 16.234C4.25207 15.9933 4.57301 15.8864 4.92069 15.8864C5.53583 15.9131 6.04398 16.3678 6.09747 16.9829C6.09747 17.0096 6.09747 17.0096 6.09747 17.0096V18.4271H7.11377V17.0096C7.11377 16.7422 7.24749 16.4747 7.46145 16.2608C7.70216 16.0201 8.0231 15.9131 8.37078 15.9131C8.55799 15.9131 8.74521 15.9666 8.90567 16.0468L9.2801 14.1479H1.68457V15.7794C1.68457 16.7689 1.89853 17.6515 2.24621 18.4004H3.66369Z" fill="#BC955C"/>
<path d="M4.27891 13.0247H4.70683C4.73358 13.0782 4.76032 13.1317 4.76032 13.1852C4.76032 13.2119 4.76032 13.2654 4.76032 13.2922C4.76032 13.3724 4.73358 13.4794 4.73358 13.5596H3.26261C3.04865 13.4259 2.94167 12.8375 2.94167 12.3828L3.58355 12.1956C3.69053 12.1689 3.77076 12.0619 3.77076 11.9549V11.7142C3.77076 11.634 3.71727 11.5538 3.66378 11.5003L2.91493 10.9654V10.5375L3.15563 10.4037C3.23587 10.3502 3.28936 10.27 3.28936 10.163V9.60138C3.28936 9.4944 3.23587 9.41417 3.12889 9.36068L2.88818 9.28044V8.85253H3.5568L3.87774 9.38742V10.1095L3.66378 10.8049C3.63704 10.8851 3.63704 10.9654 3.71727 11.0456C3.77076 11.1258 3.851 11.1526 3.93123 11.1526H4.11845C4.25217 11.1526 4.35915 11.0723 4.38589 10.9386C4.41264 10.8316 4.46613 10.484 4.51962 10.3502C4.57311 10.2433 4.76032 10.0026 4.8673 9.84209C4.94754 9.73511 4.94754 9.60138 4.8673 9.52115L4.01147 8.50484C3.98472 8.34437 3.95798 7.99669 4.01147 7.72924C4.06496 7.43505 4.27892 7.08737 4.3324 6.98039C4.35915 6.9269 4.38589 6.87341 4.35915 6.81992L4.3324 6.73969H4.38589L5.42894 7.40831C5.48243 7.43505 5.50918 7.4618 5.56267 7.4618H5.88361L5.85686 7.75599L5.50918 7.88971C5.42894 7.9432 5.34871 8.02344 5.34871 8.13042V8.39786C5.34871 8.53159 5.45569 8.66531 5.61616 8.66531H6.49874L6.73944 8.90602C6.81967 9.013 6.98014 9.013 7.08712 8.93276C7.08712 8.93276 7.48829 8.61182 7.51504 8.58508L7.64876 8.29089H8.18366V8.87927V9.20021C8.18366 9.20021 7.24759 9.52115 7.16736 9.54789C7.11387 9.57464 7.06038 9.86883 7.08712 9.92232C7.11387 10.0026 7.08712 10.0293 7.1941 10.0828C7.1941 10.0828 7.46155 10.2967 7.54179 10.3235L7.80923 10.056L8.15692 10.1095V10.9921L7.80923 11.2328L6.71269 10.484C6.60572 10.4037 6.44525 10.4305 6.36501 10.5375L6.20454 10.7514C6.12431 10.8584 6.12431 11.0189 6.23129 11.0991L6.84642 11.6875V12.1689L6.20454 12.4363C6.09756 12.4898 6.04407 12.5701 6.04407 12.677V12.784C6.04407 12.9177 6.15105 13.0515 6.31152 13.0515H7.06038C7.1941 13.2119 7.14061 13.4259 7.08712 13.5864H5.37545C5.32196 13.5329 5.29522 13.4259 5.26847 13.2922C5.26847 13.2654 5.26847 13.2119 5.26847 13.1852C5.26847 13.0247 5.29522 12.8643 5.32196 12.7573L5.72314 12.2491C5.74988 12.1956 5.77663 12.1421 5.77663 12.1154L5.80337 11.8747C5.80337 11.7945 5.74988 11.7142 5.69639 11.634C5.6429 11.5538 5.53592 11.5805 5.45569 11.6072L4.81381 11.8747C4.73358 11.9014 4.68009 11.9817 4.65334 12.0619L4.59985 12.3294L4.22543 12.4363C4.11845 12.4631 4.03821 12.5701 4.03821 12.677V12.784C4.01147 12.9177 4.14519 13.0247 4.27891 13.0247Z" fill="#BC955C"/>
<path d="M16.7423 13.0245H16.3143C16.2876 13.078 16.2609 13.1315 16.2609 13.185C16.2609 13.2117 16.2609 13.2652 16.2609 13.292C16.2609 13.3722 16.2876 13.4792 16.2876 13.5594H17.7586C17.9725 13.4257 18.0795 12.8373 18.0795 12.3827L17.4376 12.1954C17.3306 12.1687 17.2504 12.0617 17.2504 11.9547V11.714C17.2504 11.6338 17.3039 11.5536 17.3574 11.5001L18.0795 10.9919V10.564L17.8388 10.4303C17.7586 10.3768 17.7051 10.2966 17.7051 10.1896V9.62793C17.7051 9.52095 17.7586 9.44072 17.8655 9.38723L18.1062 9.30699V8.87908H17.4376L17.1167 9.41397V10.1361L17.3306 10.8315C17.3574 10.9117 17.3574 10.9919 17.2772 11.0722C17.2237 11.1524 17.1434 11.1791 17.0632 11.1791H16.876C16.7423 11.1791 16.6353 11.0989 16.6085 10.9652C16.5818 10.8582 16.5283 10.5105 16.4748 10.3768C16.4213 10.2698 16.2341 10.0291 16.1271 9.86864C16.0469 9.76166 16.0469 9.62793 16.1271 9.5477L17.0097 8.53139C17.0365 8.37093 17.0632 8.02324 17.0097 7.75579C16.9562 7.4616 16.7423 7.11392 16.6888 7.00694C16.662 6.95345 16.6353 6.89996 16.662 6.84647L16.6888 6.76624H16.6353L15.5922 7.43486C15.5387 7.4616 15.512 7.48835 15.4585 7.48835H15.1643L15.1911 7.86277L15.5387 7.9965C15.6457 8.04999 15.6992 8.13022 15.6992 8.2372V8.50465C15.6992 8.63837 15.5922 8.7721 15.4318 8.7721H14.5492L14.3085 9.0128C14.2282 9.11978 14.0678 9.11978 13.9608 9.03955C13.9608 9.03955 13.5596 8.71861 13.5329 8.69186L13.3992 8.39767H12.8643V8.98606V9.30699C12.8643 9.30699 13.8003 9.62793 13.8806 9.65468C13.9341 9.68142 13.9875 9.97562 13.9608 10.0291C13.9341 10.1093 13.9608 10.1361 13.8538 10.1896C13.8538 10.1896 13.5864 10.4035 13.5061 10.4303L13.2387 10.1628H12.8643V11.0454L13.2119 11.2594L14.3085 10.5105C14.4155 10.4303 14.5759 10.457 14.6562 10.564L14.8166 10.778C14.8969 10.8849 14.8969 11.0454 14.7899 11.1256L14.1748 11.6873V12.1687L14.8166 12.4361C14.9236 12.4896 14.9771 12.5699 14.9771 12.6768V12.7838C14.9771 12.9175 14.8701 13.0513 14.7097 13.0513H13.9608C13.8271 13.2117 13.8806 13.4257 13.9341 13.5862H15.6725C15.726 13.5327 15.7527 13.4257 15.7794 13.292C15.7794 13.2652 15.7794 13.2117 15.7794 13.185C15.7794 13.0245 15.7527 12.8641 15.726 12.7571L15.3248 12.2489C15.298 12.1954 15.2713 12.1419 15.2713 12.1152L15.2445 11.8478C15.2445 11.7675 15.298 11.6873 15.3515 11.6071C15.4318 11.5536 15.512 11.5536 15.5922 11.5803L16.2341 11.8478C16.3143 11.8745 16.3678 11.9547 16.3946 12.035L16.4481 12.3024L16.8225 12.4094C16.9295 12.4361 17.0097 12.5431 17.0097 12.6501V12.7571C17.0097 12.9175 16.9027 13.0245 16.7423 13.0245Z" fill="#BC955C"/>
</svg>
