<svg width="18" height="18" viewBox="0 0 18 18" fill="none" xmlns="http://www.w3.org/2000/svg">
<circle cx="9.19562" cy="8.52423" r="7.85848" fill="white" stroke="#9F2241" stroke-width="1.25736"/>
<path d="M10.486 8.12793L10.5059 9.00773C11.2238 9.41907 11.7212 10.1846 11.7412 11.0644C11.7709 12.3746 10.7321 13.4372 9.42155 13.4372C8.11103 13.4372 7.02405 12.3746 6.99434 11.0644C6.97439 10.1846 7.43324 9.41907 8.13631 9.00773L8.11636 8.12793C6.96886 8.5964 6.1756 9.73519 6.20566 11.0606C6.2453 12.8088 7.69461 14.2256 9.44324 14.2256C11.1919 14.2256 12.5769 12.8088 12.5373 11.0606C12.4995 9.73138 11.6547 8.5964 10.486 8.12793Z" fill="#8B1232"/>
<path d="M10.7167 3.55774C10.8806 3.55774 11.0109 3.42444 11.0072 3.26067L11.0027 3.06262C10.999 2.89884 10.8626 2.76554 10.6988 2.76554H9.57113L9.5605 2.29708C9.55679 2.1333 9.42043 2 9.25662 2H9.05851C8.8947 2 8.76438 2.1333 8.7681 2.29708L8.9321 9.52973C8.25414 9.70493 7.76154 10.3257 7.77821 11.0608C7.79798 11.933 8.52272 12.6452 9.39894 12.6452C10.2714 12.6452 10.9677 11.9368 10.9478 11.0608C10.9311 10.3219 10.4142 9.70493 9.7245 9.52973L9.64747 6.1324H10.7751C10.9389 6.1324 11.0693 5.9991 11.0655 5.83532L11.061 5.63727C11.0573 5.4735 10.921 5.3402 10.7572 5.3402H9.62951L9.61785 4.82603H10.2502C10.376 4.82603 10.4765 4.72319 10.4736 4.59751L10.466 4.25854C10.4631 4.13285 10.3579 4.03002 10.2322 4.03002H9.5998L9.589 3.55393L10.7167 3.55774Z" fill="#B18147"/>
</svg>
