<svg width="403" height="107" viewBox="0 0 403 107" fill="none" xmlns="http://www.w3.org/2000/svg">
<g filter="url(#filter0_d_943_30485)">
<path d="M135.382 54.182C135.855 54.9398 136.613 55.3187 137.655 55.3187C138.981 55.4135 139.929 53.9926 139.929 53.9926L162.378 25.1014C164.273 23.2069 166.073 24.7225 166.073 24.7225C167.873 26.617 166.546 28.2273 166.546 28.2273L161.526 34.6686V34.7634C161.052 35.237 160.863 35.8053 160.863 36.4684C160.863 37.0368 161.052 37.6051 161.431 38.0787L166.452 44.5201L182.366 24.2489L176.019 16.1025L174.882 14.5869C173.84 13.0713 171.567 12.7871 171.567 12.7871H162C159.442 12.7871 158.116 14.5869 158.116 14.5869L131.309 48.9721L135.382 54.182Z" fill="white"/>
<path d="M134.243 36.5646L127.896 28.3235C126.57 26.2395 128.465 24.7239 128.465 24.7239C130.833 23.3031 132.254 25.4817 132.254 25.4817L137.558 32.302L143.81 24.1556L136.611 14.8725C134.906 12.4097 132.254 12.7886 132.254 12.7886H123.634C120.887 12.7886 119.655 14.4936 119.655 14.4936L111.982 24.1556L127.896 44.6162L134.243 36.5646Z" fill="white"/>
<path d="M158.966 43.5723C158.966 43.5723 158.208 42.4355 156.787 42.4355C155.272 42.4355 154.703 43.4775 154.703 43.4775L131.969 72.7476C130.17 74.7369 128.086 73.1265 128.086 73.1265C126.286 71.232 127.802 69.527 127.802 69.527L132.917 62.9909V62.8962C133.39 62.4226 133.58 61.8542 133.58 61.1911C133.58 60.6228 133.39 60.0544 133.011 59.5808L127.991 53.1395L111.982 73.6949L120.887 84.9672L134.906 85.0619L163.134 48.9716L158.966 43.5723Z" fill="white"/>
<path d="M160.106 61.0985L166.548 69.4343C168.063 71.5183 166.169 73.0339 166.169 73.0339C163.706 74.739 162.19 72.1814 162.19 72.1814L156.791 65.2664L150.539 73.4128L159.633 84.9693L173.557 84.8746L182.461 73.4128L166.453 53.0469L160.106 61.0985Z" fill="white"/>
<path d="M182.273 52.3827C180.379 52.3827 178.863 50.8671 178.863 48.9726C178.863 47.0781 180.379 45.5625 182.273 45.5625C184.168 45.5625 185.683 47.0781 185.683 48.9726C185.683 50.8671 184.168 52.3827 182.273 52.3827ZM182.273 42.5312C178.674 42.5312 175.832 45.373 175.832 48.8778C175.832 52.3827 178.674 55.2244 182.273 55.2244C185.873 55.2244 188.715 52.3827 188.715 48.8778C188.715 45.373 185.873 42.5312 182.273 42.5312Z" fill="white"/>
<path d="M147.129 2.93648C149.023 2.93648 150.539 4.45209 150.539 6.34659C150.539 8.2411 149.023 9.7567 147.129 9.7567C145.234 9.7567 143.719 8.2411 143.719 6.34659C143.719 4.45209 145.329 2.93648 147.129 2.93648ZM147.129 12.7879C150.728 12.7879 153.57 9.94615 153.57 6.44132C153.57 2.93648 150.728 0 147.129 0C143.529 0 140.688 2.84176 140.688 6.34659C140.688 9.85143 143.529 12.7879 147.129 12.7879Z" fill="white"/>
<path d="M108.479 48.8778C108.479 46.9833 109.995 45.4677 111.89 45.4677C113.784 45.4677 115.3 46.9833 115.3 48.8778C115.3 50.7723 113.784 52.288 111.89 52.288C109.995 52.288 108.479 50.7723 108.479 48.8778ZM118.426 48.8778C118.426 45.373 115.584 42.5312 111.984 42.5312C108.385 42.5312 105.543 45.373 105.543 48.8778C105.543 52.3827 108.385 55.2244 111.984 55.2244C115.489 55.3192 118.426 52.3827 118.426 48.8778Z" fill="white"/>
<path d="M147.129 94.9139C145.234 94.9139 143.719 93.3983 143.719 91.5038C143.719 89.6093 145.234 88.0937 147.129 88.0937C149.023 88.0937 150.539 89.6093 150.539 91.5038C150.539 93.3036 149.023 94.9139 147.129 94.9139ZM147.129 85.0625C143.529 85.0625 140.688 87.9043 140.688 91.4091C140.688 94.9139 143.529 97.7557 147.129 97.7557C150.728 97.7557 153.57 94.9139 153.57 91.4091C153.57 87.9043 150.728 85.0625 147.129 85.0625Z" fill="white"/>
<path d="M79.5888 6.34766H5.13477V55.9837C5.13477 83.2646 42.2671 91.4109 42.2671 91.4109H42.3618C42.3618 91.4109 79.4941 83.1698 79.4941 55.9837L79.5888 6.34766ZM77.6943 8.14744V55.9837C77.6943 61.7619 75.8945 67.1613 72.295 71.8975C69.3585 75.7813 65.2853 79.2861 60.0754 82.3173C52.2132 86.9589 44.1616 89.1375 42.2671 89.5164C40.4673 89.0428 32.5104 86.9589 24.5534 82.3173C19.3436 79.2861 15.2704 75.7813 12.3339 71.8975C8.73432 67.1613 6.93455 61.7619 6.93455 55.9837V8.14744H77.6943Z" fill="white"/>
<path d="M51.3572 22.2597V17.7129H46.7156V21.9755H44.9159V17.7129H40.0849V21.9755H38.2851V17.7129H33.5488V22.2597L35.917 26.2382C36.0117 26.4276 36.0117 26.5223 36.0117 26.7118V47.5513H38.2851V40.068C38.2851 38.2683 40.2743 36.6579 42.453 36.6579C44.7264 36.6579 46.6209 38.2683 46.6209 40.068V47.5513H48.989V39.6891C48.989 39.5944 48.989 39.5944 48.989 39.5944V35.7107V35.616V32.7742V31.5428V26.8065C48.989 26.6171 49.0838 26.5223 49.1785 26.3329L51.3572 22.2597Z" fill="white"/>
<path d="M34.0293 48.0263V41.1113L33.2715 41.6797C32.9873 41.8691 32.6084 41.8691 32.3242 41.585L31.2822 40.9219C31.2822 41.0166 31.2822 41.0166 31.2822 41.0166L31.1875 43.6689C31.1875 43.9531 30.998 44.2373 30.8086 44.332C30.9033 44.4267 30.998 44.4267 31.0928 44.5214C32.3242 45.4687 32.4189 46.8896 32.1347 48.0263H34.0293Z" fill="white"/>
<path d="M42.2646 38.5527C40.8437 38.5527 39.8965 39.5947 39.8965 40.0683V47.5516H44.6328V40.0683C44.7275 39.5 43.6855 38.5527 42.2646 38.5527Z" fill="white"/>
<path d="M14.414 48.0259C14.1298 47.4575 13.9404 46.7944 13.8457 45.9419C13.5615 44.4263 13.6562 43.1949 13.6562 43.1002C13.6562 42.7213 13.9404 42.4371 14.3193 42.2476L16.3085 41.6793L14.0351 40.069C13.7509 39.8795 13.6562 39.5953 13.6562 39.3112V36.7536C13.6562 36.3747 13.8457 36.0905 14.1298 35.901L14.9824 35.4274V34.5749L14.3193 34.2907C13.9404 34.196 13.6562 33.9118 13.6562 33.4382V30.407C13.6562 29.9334 14.0351 29.4597 14.6035 29.4597L17.4452 29.365C17.3505 28.6072 17.3505 27.5652 17.5399 26.7127C17.8241 25.576 18.4872 24.3446 18.7714 23.7762L18.5819 22.7342C18.4872 22.4501 18.6767 22.2606 18.7714 22.0712C18.9608 21.8817 19.1503 21.787 19.4345 21.787H20.9501C21.1395 21.787 21.329 21.8817 21.4237 21.9764L25.118 24.3446H26.9177C27.2019 24.3446 27.3914 24.4393 27.5808 24.6287C27.7703 24.8182 27.865 25.0076 27.865 25.2918L27.6755 28.2283C27.6755 28.5125 27.5808 28.7019 27.3914 28.8914H28.5281C28.8123 28.8914 29.0017 28.9861 29.1912 29.1756L29.6648 29.7439L30.0437 29.4597L30.7068 28.1336C30.8962 27.8494 31.1804 27.6599 31.5593 27.6599H34.0221V27.1863L31.654 23.1131C31.5593 22.9237 31.5593 22.829 31.5593 22.6395V16.7665C31.5593 16.2929 31.9382 15.8193 32.5065 15.8193H38.19H39.9898H44.8208H46.7153H52.3041C52.7777 15.8193 53.2514 16.1982 53.2514 16.7665V22.4501C53.2514 22.6395 53.1566 22.7342 53.0619 22.9237L50.6938 26.9021V27.4705H53.1566C53.5355 27.4705 53.8197 27.6599 54.0092 27.9441L54.6722 29.2703L55.0511 29.5545L55.5248 28.9861C55.7142 28.7967 55.9037 28.7019 56.1878 28.7019H57.3245C57.1351 28.5125 57.0404 28.323 57.0404 28.0388L56.8509 25.1024C56.8509 24.8182 56.9456 24.6287 57.1351 24.4393C57.3245 24.2498 57.514 24.1551 57.7982 24.1551H59.5032L63.1975 21.787C63.387 21.6923 63.4817 21.5975 63.6711 21.5975H65.1867C65.4709 21.5975 65.6604 21.6923 65.8498 21.8817C66.0393 22.0712 66.134 22.3553 66.0393 22.5448L65.8498 23.5868C66.134 24.1551 66.7971 25.3865 67.0812 26.5232C67.2707 27.3758 67.2707 28.4177 67.176 29.1756L70.0177 29.2703C70.4914 29.2703 70.965 29.6492 70.965 30.2175V33.2487C70.965 33.6276 70.7755 33.9118 70.3966 34.1013L69.5441 34.3854V35.238L70.3966 35.7116C70.6808 35.901 70.8703 36.1852 70.8703 36.5641V39.1217C70.8703 39.4059 70.6808 39.6901 70.4914 39.8795L68.2179 41.4898L70.2072 42.0582C70.5861 42.1529 70.7755 42.5318 70.8703 42.9107C70.8703 43.0054 70.965 44.2369 70.6808 45.7525C70.4913 46.605 70.3966 47.2681 70.1124 47.8364H73.4278H73.5226V12.6934H11.0039V48.0259H14.414Z" fill="white"/>
<path d="M53.539 44.5214C53.6337 44.4267 53.7285 44.4267 53.8232 44.332C53.6338 44.1425 53.4443 43.9531 53.4443 43.6689V41.0166C53.4443 40.9219 53.4443 40.9219 53.4443 40.9219L52.497 41.6797C52.2129 41.8691 51.834 41.8691 51.4551 41.7744L50.6973 41.3008V48.2157H52.497C52.3076 46.8896 52.3076 45.5634 53.539 44.5214Z" fill="white"/>
<path d="M65.7566 66.9706C65.283 66.9706 64.8093 66.5917 64.8093 66.0234V60.0557C64.8093 59.5821 64.5252 59.0137 64.1463 58.6348C63.7674 58.2559 63.199 57.877 62.2518 57.9718C60.8309 57.9718 59.9784 59.1085 59.8836 60.1504V66.1181C59.8836 66.4023 59.7889 66.5917 59.5995 66.7812C59.41 66.9707 59.2206 67.0654 58.9364 67.0654H53.537C53.0634 67.0654 52.5898 66.6865 52.5898 66.1181V60.1504C52.5898 59.6768 52.3056 59.1085 51.9267 58.7296C51.5478 58.3507 50.9795 57.9718 50.0322 58.0665C49.4639 58.0665 48.8955 58.3507 48.4219 58.6348L52.874 81.4636C59.1258 78.7166 66.6091 74.075 70.6823 67.0654L65.7566 66.9706Z" fill="white"/>
<path d="M51.1726 81.937L44.9207 49.9199H39.9003L33.5537 81.937C33.5537 82.0318 33.5537 82.0318 33.459 82.1265C37.8163 83.9263 41.3212 84.7788 42.3632 85.1577C43.4051 84.8735 46.91 83.9263 51.2673 82.1265C51.2673 82.0318 51.2673 82.0318 51.1726 81.937Z" fill="white"/>
<path d="M36.2038 58.541C35.8249 58.1621 35.2565 57.9727 34.5935 57.9727H34.4987C33.5515 57.9727 32.9831 58.3516 32.699 58.7305C32.3201 59.1094 32.0359 59.6777 32.0359 60.1513V66.119C32.0359 66.5927 31.657 67.0663 31.0886 67.0663H25.6893C25.4051 67.0663 25.2157 66.9716 25.0262 66.7821C24.8368 66.5927 24.742 66.4032 24.742 66.119V60.1513C24.6473 59.1094 23.7948 57.9727 22.3739 57.9727H22.2792C21.3319 57.9727 20.7636 58.3516 20.4794 58.7305C20.1005 59.1094 19.8163 59.6777 19.8163 60.1513V66.119C19.8163 66.5927 19.4374 67.0663 18.8691 67.0663H14.1328C18.1113 74.076 25.4998 78.6228 31.8464 81.4645L36.2038 58.541Z" fill="white"/>
<path d="M73.6197 49.9199H46.8125L48.1387 56.6454C48.707 56.3612 49.3701 56.1718 50.0332 56.1718C51.2646 56.1718 52.4013 56.5507 53.2538 57.4032C54.0116 58.161 54.4852 59.203 54.4852 60.0555V65.0759H58.0848V60.0555C58.0848 59.9608 58.0848 59.9608 58.0848 59.9608C58.2743 57.7821 60.074 56.0771 62.2527 56.0771C63.4841 56.0771 64.6208 56.456 65.4734 57.3085C66.2312 58.0663 66.7048 59.1083 66.7048 59.9608V64.9812H71.7252C72.9567 62.2342 73.7145 59.203 73.7145 55.6982L73.6197 49.9199Z" fill="white"/>
<path d="M18.1112 65.1707V60.1502C18.1112 59.203 18.5849 58.2557 19.3427 57.4979C20.1952 56.6454 21.3319 56.2665 22.5633 56.2665C24.742 56.3612 26.5418 57.9716 26.7312 60.1502C26.7312 60.245 26.7312 60.245 26.7312 60.245V65.2654H30.3308V60.245C30.3308 59.2977 30.8044 58.3505 31.5622 57.5927C32.4147 56.7401 33.5514 56.3612 34.7829 56.3612C35.4459 56.3612 36.109 56.5507 36.6774 56.8349L38.0035 50.1094H11.1016V55.8876C11.1016 59.3924 11.8594 62.5184 13.0908 65.1707H18.1112Z" fill="white"/>
<path d="M20.2929 46.1315H21.8085C21.9032 46.321 21.998 46.5104 21.998 46.6999C21.998 46.7946 21.998 46.9841 21.998 47.0788C21.998 47.363 21.9032 47.7419 21.9032 48.026H16.6933C15.9355 47.5524 15.5566 45.4684 15.5566 43.8581L17.83 43.195C18.2089 43.1003 18.4931 42.7214 18.4931 42.3425V41.49C18.4931 41.2058 18.3037 40.9216 18.1142 40.7322L15.4619 38.8377V37.3221L16.3144 36.8485C16.5986 36.659 16.7881 36.3748 16.7881 35.9959V34.0067C16.7881 33.6278 16.5986 33.3436 16.2197 33.1542L15.3672 32.87V31.3544H17.7353L18.872 33.2489V35.8065L18.1142 38.2693C18.0195 38.5535 18.0195 38.8377 18.3037 39.1219C18.4931 39.406 18.7773 39.5008 19.0615 39.5008H19.7245C20.1982 39.5008 20.5771 39.2166 20.6718 38.743C20.7665 38.3641 20.956 37.1326 21.1454 36.659C21.3349 36.2801 21.998 35.4276 22.3769 34.8592C22.661 34.4803 22.661 34.0067 22.3769 33.7225L19.3456 30.123C19.2509 29.5546 19.1562 28.3232 19.3456 27.3759C19.5351 26.3339 20.2929 25.1025 20.4824 24.7236C20.5771 24.5342 20.6718 24.3447 20.5771 24.1553L20.4824 23.8711H20.6718L24.3661 26.2392C24.5555 26.334 24.6503 26.4287 24.8397 26.4287H25.9764L25.8817 27.4707L24.6503 27.9443C24.3661 28.1337 24.0819 28.4179 24.0819 28.7968V29.7441C24.0819 30.2177 24.4608 30.6913 25.0292 30.6913H28.1551L29.0076 31.5438C29.2918 31.9227 29.8601 31.9227 30.2391 31.6386C30.2391 31.6386 31.6599 30.5019 31.7547 30.4071L32.2283 29.3652H34.1228V31.4491V32.5858C34.1228 32.5858 30.8074 33.7225 30.5232 33.8172C30.3338 33.912 30.1443 34.9539 30.2391 35.1434C30.3338 35.4276 30.239 35.5223 30.618 35.7117C30.618 35.7117 31.5652 36.4695 31.8494 36.5643L32.7966 35.617L34.0281 35.8065V38.9324L32.7966 39.7849L28.9129 37.1326C28.534 36.8485 27.9656 36.9432 27.6815 37.3221L27.1131 38.0799C26.8289 38.4588 26.8289 39.0271 27.2078 39.3113L29.3865 41.3953V43.1003L27.1131 44.0476C26.7342 44.237 26.5448 44.5212 26.5448 44.9001V45.279C26.5448 45.7526 26.9237 46.2262 27.492 46.2262H30.1443C30.618 46.7946 30.4285 47.5524 30.2391 48.1208H24.1766C23.9872 47.9313 23.8925 47.5524 23.7977 47.0788C23.7977 46.9841 23.7977 46.7946 23.7977 46.6999C23.7977 46.1315 23.8925 45.5632 23.9872 45.1843L25.4081 43.3845C25.5028 43.195 25.5975 43.0056 25.5975 42.9109L25.6922 42.0583C25.6922 41.7742 25.5028 41.49 25.3133 41.2058C25.1239 40.9216 24.745 41.0164 24.4608 41.1111L22.1874 42.0583C21.9032 42.1531 21.7138 42.4372 21.6191 42.7214L21.4296 43.6687L20.1034 44.0476C19.7245 44.1423 19.4404 44.5212 19.4404 44.9001V45.279C19.3456 45.7526 19.8193 46.1315 20.2929 46.1315Z" fill="white"/>
<path d="M64.4324 46.1306H62.9168C62.8221 46.32 62.7274 46.5095 62.7274 46.6989C62.7274 46.7936 62.7274 46.9831 62.7274 47.0778C62.7274 47.362 62.8221 47.7409 62.8221 48.0251H68.032C68.7898 47.5514 69.1687 45.4675 69.1687 43.8571L66.8953 43.1941C66.5164 43.0993 66.2322 42.7204 66.2322 42.3415V41.489C66.2322 41.2048 66.4217 40.9207 66.6111 40.7312L69.1687 38.9314V37.4158L68.3162 36.9422C68.032 36.7528 67.8425 36.4686 67.8425 36.0897V34.1004C67.8425 33.7215 68.032 33.4374 68.4109 33.2479L69.2634 32.9637V31.4481H66.8953L65.7586 33.3426V35.9002L66.5164 38.3631C66.6111 38.6473 66.6111 38.9314 66.3269 39.2156C66.1375 39.4998 65.8533 39.5945 65.5691 39.5945H64.906C64.4324 39.5945 64.0535 39.3103 63.9588 38.8367C63.8641 38.4578 63.6746 37.2264 63.4852 36.7528C63.2957 36.3738 62.6326 35.5213 62.2537 34.953C61.9696 34.5741 61.9696 34.1004 62.2537 33.8163L65.3797 30.2167C65.4744 29.6484 65.5691 28.4169 65.3797 27.4697C65.1902 26.4277 64.4324 25.1963 64.243 24.8174C64.1482 24.6279 64.0535 24.4385 64.1482 24.249L64.243 23.9648H64.0535L60.3592 26.333C60.1698 26.4277 60.0751 26.5224 59.8856 26.5224H58.8436L58.9384 27.8486L60.1698 28.3222C60.5487 28.5117 60.7381 28.7958 60.7381 29.1747V30.122C60.7381 30.5956 60.3592 31.0692 59.7909 31.0692H56.665L55.8124 31.9218C55.5283 32.3007 54.9599 32.3007 54.581 32.0165C54.581 32.0165 53.1601 30.8798 53.0654 30.7851L52.5918 29.7431H50.6973V31.827V32.9637C50.6973 32.9637 54.0127 34.1004 54.2968 34.1952C54.4863 34.2899 54.6757 35.3319 54.581 35.5213C54.4863 35.8055 54.581 35.9002 54.2021 36.0897C54.2021 36.0897 53.2548 36.8475 52.9707 36.9422L52.0234 35.995H50.6973V39.1209L51.9287 39.8787L55.8124 37.2264C56.1913 36.9422 56.7597 37.0369 57.0439 37.4158L57.6122 38.1736C57.8964 38.5525 57.8964 39.1209 57.5175 39.4051L55.3388 41.3943V43.0993L57.6122 44.0466C57.9911 44.236 58.1806 44.5202 58.1806 44.8991V45.278C58.1806 45.7516 57.8017 46.2253 57.2333 46.2253H54.581C54.1074 46.7936 54.2968 47.5514 54.4863 48.1198H60.6434C60.8329 47.9303 60.9276 47.5514 61.0223 47.0778C61.0223 46.9831 61.0223 46.7936 61.0223 46.6989C61.0223 46.1306 60.9276 45.5622 60.8329 45.1833L59.412 43.3835C59.3173 43.1941 59.2225 43.0046 59.2225 42.9099L59.1278 41.9626C59.1278 41.6785 59.3173 41.3943 59.5067 41.1101C59.7909 40.9207 60.0751 40.9207 60.3592 41.0154L62.6326 41.9626C62.9168 42.0574 63.1063 42.3415 63.201 42.6257L63.3904 43.573L64.7166 43.9519C65.0955 44.0466 65.3797 44.4255 65.3797 44.8044V45.1833C65.3797 45.7516 65.0008 46.1306 64.4324 46.1306Z" fill="white"/>
<path d="M208.32 38.08C208.32 34.5752 210.878 31.4492 214.667 31.4492C216.751 31.4492 218.077 32.0176 219.403 33.1543L218.456 34.1962C217.509 33.3437 216.372 32.6806 214.572 32.6806C211.825 32.6806 209.741 35.0488 209.741 37.8905V37.9853C209.741 41.0165 211.636 43.2899 214.762 43.2899C216.277 43.2899 217.509 42.7215 218.456 42.0584V38.8378H214.572V37.6064H219.782V42.6268C218.645 43.6688 216.846 44.5213 214.667 44.5213C210.878 44.616 208.32 41.6795 208.32 38.08Z" fill="white"/>
<path d="M236.077 38.08C236.077 35.1435 233.993 32.7754 231.057 32.7754C228.215 32.7754 226.131 35.1435 226.131 37.9853V38.08C226.131 40.9217 228.215 43.2899 231.151 43.2899C233.993 43.2899 236.077 40.9217 236.077 38.08ZM224.615 38.08C224.615 34.5752 227.268 31.4492 231.057 31.4492C234.94 31.4492 237.498 34.4804 237.498 37.9853V38.08C237.498 41.5848 234.846 44.616 231.057 44.616C227.173 44.616 224.615 41.4901 224.615 38.08Z" fill="white"/>
<path d="M248.105 38.5536H244.127V43.0057H248.39C250.284 43.0057 251.516 42.1532 251.516 40.7323C251.421 39.4061 250.284 38.5536 248.105 38.5536ZM250.758 35.0488C250.758 33.8174 249.716 32.9648 248.011 32.9648H244.127V37.3222H247.916C249.526 37.3222 250.758 36.5644 250.758 35.0488ZM242.611 31.6387H248.011C249.526 31.6387 250.568 32.0176 251.326 32.7754C251.8 33.3437 252.179 34.0068 252.179 34.7646V34.8593C252.179 36.5644 251.137 37.3222 250.189 37.7958C251.705 38.2694 252.936 39.122 252.936 40.827V40.9217C252.936 43.1004 251.137 44.3319 248.295 44.3319H242.706L242.611 31.6387Z" fill="white"/>
<path d="M261.595 31.6387H260.174V44.3319H261.595V31.6387Z" fill="white"/>
<path d="M267.471 31.6387H276.659V32.9648H268.892V37.3222H275.806V38.5536H268.892V43.1004H276.754V44.3319H267.471V31.6387Z" fill="white"/>
<path d="M286.794 38.1747C288.688 38.1747 290.015 37.2275 290.015 35.5224V35.4277C290.015 33.8174 288.783 32.9648 286.794 32.9648H282.91V38.1747H286.794ZM281.395 31.6387H286.889C288.499 31.6387 289.636 32.1123 290.488 32.8701C291.057 33.4385 291.435 34.3857 291.435 35.333V35.4277C291.435 37.5116 289.92 38.7431 288.025 39.122L291.909 44.3319H290.109L286.415 39.4061H282.91V44.3319H281.489L281.395 31.6387Z" fill="white"/>
<path d="M296.641 31.6387H297.967L305.924 41.869V31.6387H307.345V44.3319H306.208L298.062 33.9121V44.3319H296.641V31.6387Z" fill="white"/>
<path d="M323.919 38.08C323.919 35.1435 321.835 32.7754 318.898 32.7754C315.962 32.7754 313.973 35.1435 313.973 37.9853V38.08C313.973 40.9217 316.057 43.2899 318.993 43.2899C321.835 43.2899 323.919 40.9217 323.919 38.08ZM312.457 38.08C312.457 34.5752 315.109 31.4492 318.898 31.4492C322.782 31.4492 325.34 34.4804 325.34 37.9853V38.08C325.34 41.5848 322.687 44.616 318.898 44.616C315.015 44.616 312.457 41.4901 312.457 38.08Z" fill="white"/>
<path d="M338.603 32.9629V43.0037H341.634C344.854 43.0037 346.938 40.8251 346.938 38.078V37.9833C346.938 35.2363 344.949 32.9629 341.634 32.9629H338.603ZM337.182 31.6367H341.634C345.612 31.6367 348.359 34.3837 348.359 37.8886V37.9833C348.359 41.4881 345.612 44.3299 341.634 44.3299H337.182V31.6367Z" fill="white"/>
<path d="M352.818 31.6387H362.007V32.9648H354.239V37.3222H361.154V38.5536H354.239V43.1004H362.101V44.3319H352.818V31.6387Z" fill="white"/>
<path d="M373.465 31.6387H374.886V43.1004H381.99V44.3319H373.465V31.6387Z" fill="white"/>
<path d="M394.4 39.6903L391.559 33.249L388.717 39.6903H394.4ZM390.801 31.6387H392.127L397.905 44.4266H396.389L394.874 41.1112H387.959L386.443 44.4266H384.928L390.801 31.6387Z" fill="white"/>
<path d="M210.348 59.7714C210.348 56.0771 213.095 53.1406 216.978 53.1406C219.347 53.1406 220.767 53.9932 221.999 55.1299L220.199 57.1191C219.252 56.1718 218.21 55.6982 216.978 55.6982C214.894 55.6982 213.284 57.498 213.284 59.6767V59.7714C213.284 61.9501 214.8 63.7499 216.978 63.7499C218.494 63.7499 219.347 63.1815 220.294 62.2342L222.094 64.034C220.767 65.4549 219.347 66.3074 216.884 66.3074C213.095 66.3074 210.348 63.371 210.348 59.7714Z" fill="white"/>
<path d="M227.019 53.4258H224.271V66.119H227.019V53.4258Z" fill="white"/>
<path d="M230.338 60.7245V53.5254H233.085V60.6298C233.085 62.7137 234.127 63.7557 235.832 63.7557C237.537 63.7557 238.579 62.7137 238.579 60.7245V53.5254H241.326V60.6298C241.326 64.5135 239.147 66.3133 235.737 66.3133C232.422 66.3133 230.338 64.4188 230.338 60.7245Z" fill="white"/>
<path d="M249.567 63.5614C251.841 63.5614 253.356 62.0458 253.356 59.7724C253.356 57.499 251.841 55.9834 249.567 55.9834H247.389V63.6561L249.567 63.5614ZM244.547 53.4258H249.473C253.451 53.4258 256.198 56.1728 256.198 59.6776V59.7724C256.198 63.2772 253.451 66.119 249.473 66.119H244.547V53.4258Z" fill="white"/>
<path d="M265.291 60.8153L263.586 56.7421L261.881 60.8153H265.291ZM262.449 53.332H265.007L270.406 66.12H267.47L266.333 63.2782H260.934L259.797 66.12H256.955L262.449 53.332Z" fill="white"/>
<path d="M277.415 63.5614C279.688 63.5614 281.204 62.0458 281.204 59.7724C281.204 57.499 279.688 55.9834 277.415 55.9834H275.236V63.6561L277.415 63.5614ZM272.395 53.4258H277.32C281.299 53.4258 284.046 56.1728 284.046 59.6776V59.7724C284.046 63.2772 281.299 66.119 277.32 66.119H272.395V53.4258Z" fill="white"/>
<path d="M297.214 63.5614C299.487 63.5614 301.003 62.0458 301.003 59.7724C301.003 57.499 299.487 55.9834 297.214 55.9834H295.035V63.6561L297.214 63.5614ZM292.193 53.4258H297.119C301.098 53.4258 303.845 56.1728 303.845 59.6776V59.7724C303.845 63.2772 301.098 66.119 297.119 66.119H292.193V53.4258Z" fill="white"/>
<path d="M306.59 53.4258H316.157V55.8886H309.337V58.4462H315.305V60.9091H309.337V63.6561H316.252V66.119H306.59V53.4258Z" fill="white"/>
<path d="M324.303 53.4258H327.334L330.649 58.7304L333.965 53.4258H336.996V66.119H334.249V57.7831L330.649 63.1825H330.555L327.05 57.8779V66.119H324.303V53.4258Z" fill="white"/>
<path d="M345.615 49.2578L347.983 50.2998L345.615 52.4785H343.531L345.615 49.2578ZM340.311 53.4257H349.878V55.8886H343.058V58.4462H349.025V60.909H343.058V63.5613H349.973V66.0242H340.311V53.4257Z" fill="white"/>
<path d="M356.224 59.6776L351.961 53.4258H355.182L357.834 57.499L360.581 53.4258H363.707L359.444 59.5829L363.896 66.119H360.676L357.739 61.7616L354.897 66.119H351.771L356.224 59.6776Z" fill="white"/>
<path d="M368.728 53.4258H365.98V66.119H368.728V53.4258Z" fill="white"/>
<path d="M371.57 59.7714C371.57 56.0771 374.317 53.1406 378.201 53.1406C380.569 53.1406 381.99 53.9932 383.221 55.1299L381.422 57.1191C380.474 56.1718 379.432 55.6982 378.201 55.6982C376.117 55.6982 374.507 57.498 374.507 59.6767V59.7714C374.507 61.9501 376.022 63.7499 378.201 63.7499C379.717 63.7499 380.569 63.1815 381.516 62.2342L383.316 64.034C381.99 65.4549 380.569 66.3074 378.106 66.3074C374.317 66.3074 371.57 63.371 371.57 59.7714Z" fill="white"/>
<path d="M395.063 59.7714C395.063 57.498 393.453 55.7929 391.18 55.7929C388.906 55.7929 387.391 57.5927 387.391 59.7714V59.8661C387.391 62.0448 389.001 63.8446 391.274 63.8446C393.548 63.7499 395.063 61.9501 395.063 59.7714ZM384.549 59.7714C384.549 56.0771 387.391 53.1406 391.274 53.1406C395.158 53.1406 398 56.0771 398 59.6767V59.7714C398 63.371 395.158 66.3074 391.274 66.3074C387.391 66.3074 384.549 63.371 384.549 59.7714Z" fill="white"/>
</g>
<defs>
<filter id="filter0_d_943_30485" x="0.744245" y="0" width="401.646" height="106.537" filterUnits="userSpaceOnUse" color-interpolation-filters="sRGB">
<feFlood flood-opacity="0" result="BackgroundImageFix"/>
<feColorMatrix in="SourceAlpha" type="matrix" values="0 0 0 0 0 0 0 0 0 0 0 0 0 0 0 0 0 0 127 0" result="hardAlpha"/>
<feOffset dy="4.39052"/>
<feGaussianBlur stdDeviation="2.19526"/>
<feComposite in2="hardAlpha" operator="out"/>
<feColorMatrix type="matrix" values="0 0 0 0 0 0 0 0 0 0 0 0 0 0 0 0 0 0 0.25 0"/>
<feBlend mode="normal" in2="BackgroundImageFix" result="effect1_dropShadow_943_30485"/>
<feBlend mode="normal" in="SourceGraphic" in2="effect1_dropShadow_943_30485" result="shape"/>
</filter>
</defs>
</svg>
