<svg width="87" height="82" viewBox="0 0 87 82" fill="none" xmlns="http://www.w3.org/2000/svg">
<g filter="url(#filter0_dd_10184_27)">
<path fill-rule="evenodd" clip-rule="evenodd" d="M83.191 9.08844C83.1818 5.46601 80.2378 2.53595 76.6153 2.54397L9.6635 2.6922C6.04107 2.70022 3.11197 5.64327 3.12116 9.2657L3.27765 70.9405C3.28684 74.5629 6.23086 77.493 9.85328 77.4849L76.8051 77.3367C80.4275 77.3287 83.3566 74.3856 83.3474 70.7632L83.191 9.08844Z" fill="white"/>
</g>
<path d="M64.4796 45.7961L61.4031 45.1085V44.5924C63.4027 43.282 64.7138 41.112 64.7138 38.6596V34.9177C64.7138 30.925 61.242 27.6768 56.9744 27.6768C55.0593 27.6768 53.3058 28.3324 51.953 29.4144C50.4468 25.9635 46.8227 23.5247 42.5992 23.5247C38.3705 23.5247 34.7426 25.9698 33.2399 29.4273C31.885 28.3375 30.1252 27.6765 28.2023 27.6765C23.9347 27.6765 20.4629 30.9247 20.4629 34.9174V35.166V38.6593C20.4629 41.1116 21.774 43.2817 23.7735 44.5921V45.1082L20.697 45.7958C17.0238 46.6169 14.4583 49.658 14.4583 53.1913V56.2128C14.4583 57.1064 15.2326 57.8307 16.1875 57.8307H24.1337C24.1214 58.027 24.1129 58.2242 24.1129 58.423V64.2405C24.1129 65.134 24.8873 65.8583 25.8422 65.8583H36.2366C37.1915 65.8583 37.9659 65.134 37.9659 64.2405C37.9659 63.3469 37.1915 62.6226 36.2366 62.6226H34.45V59.2793C34.45 58.3858 33.6756 57.6615 32.7208 57.6615C31.7659 57.6615 30.9915 58.3858 30.9915 59.2793V62.623H27.5716V58.4233C27.5716 55.303 29.8369 52.6159 33.0799 51.8888L37.8253 50.8249L41.0011 57.5846C41.277 58.1721 41.8982 58.5515 42.5838 58.5515H42.584C43.2698 58.5515 43.891 58.1722 44.1669 57.5848L47.3394 50.8351L52.0697 51.8924C55.3159 52.618 57.5831 55.3054 57.5831 58.428V62.623H54.1632V59.2793C54.1632 58.3858 53.3888 57.6615 52.4339 57.6615C51.479 57.6615 50.7047 58.3858 50.7047 59.2793V62.623H48.7449C47.79 62.623 47.0157 63.3473 47.0157 64.2408C47.0157 65.1343 47.79 65.8587 48.7449 65.8587H59.3125C60.2674 65.8587 61.0417 65.1343 61.0417 64.2408V58.428C61.0417 58.2276 61.0331 58.0289 61.0206 57.831H68.9893C69.9442 57.831 70.7186 57.1067 70.7186 56.2132V53.1917C70.7186 49.6583 68.1531 46.617 64.4796 45.7961ZM56.9744 30.9122C59.24 30.9122 61.1 32.5674 61.246 34.6532H58.8418C56.8207 34.6532 54.8317 34.1979 53.0438 33.331C53.7015 31.9093 55.2159 30.9122 56.9744 30.9122ZM52.6935 38.4231C52.6956 38.3443 52.6999 38.2658 52.6999 38.1866V36.7457C54.6403 37.497 56.7269 37.8889 58.8418 37.8889H61.2553V38.6595C61.2553 40.8678 59.335 42.6646 56.9744 42.6646C54.6138 42.6646 52.6935 40.8678 52.6935 38.6593V38.4231ZM35.9572 32.9746C35.9572 29.5482 38.9367 26.7605 42.5992 26.7605C45.9026 26.7605 48.6502 29.0284 49.1575 31.9871L46.2464 30.3869C45.5182 29.9866 44.5875 30.1369 44.045 30.7428C42.6224 32.3312 40.5361 33.2422 38.3209 33.2422H35.9572V32.9746ZM28.2024 30.9122C29.9609 30.9122 31.4752 31.9094 32.133 33.3309C30.345 34.1977 28.3562 34.653 26.335 34.653H23.9309C24.0768 32.5674 25.9369 30.9122 28.2024 30.9122ZM23.9215 37.8887H26.335C28.4521 37.8887 30.541 37.4961 32.4833 36.7431V38.6591C32.4833 40.8675 30.563 42.6643 28.2024 42.6643C25.8418 42.6643 23.9215 40.8678 23.9215 38.6593V37.8887ZM32.2741 48.7421C28.872 49.5047 26.1982 51.724 24.9257 54.5952H17.9167V53.1915C17.9167 51.1617 19.3904 49.4146 21.5006 48.943L25.9046 47.9587C26.6829 47.7848 27.2321 47.1339 27.2321 46.3852V45.8413C27.5503 45.8786 27.8737 45.9002 28.2024 45.9002C28.5287 45.9002 28.8499 45.879 29.1656 45.8421V46.3037C29.1644 46.3278 29.1639 46.3519 29.1637 46.376C29.1634 46.9068 29.4423 47.4268 29.9545 47.7367C30.1475 47.8537 30.356 47.9298 30.5689 47.9678L33.1484 48.546L32.2741 48.7421ZM37.0976 46.2305C36.6534 46.0472 36.1903 45.9006 35.713 45.7937L32.6239 45.1011V44.597C33.1814 44.2325 33.6855 43.8016 34.1227 43.316C34.8949 44.429 35.9096 45.3808 37.0976 46.1058V46.2305ZM44.6081 48.6076L42.5845 52.9136L40.5563 48.5966V47.4421C41.2163 47.5695 41.8996 47.6366 42.5992 47.6366C43.2869 47.6366 43.9586 47.5714 44.6081 47.4483V48.6076ZM42.5992 44.4007C38.9367 44.4009 35.9572 41.6132 35.9572 38.1866V36.4778H38.3209C41.0631 36.4778 43.6705 35.5237 45.6688 33.8221L49.2348 35.7823V38.4232C49.1013 41.7403 46.177 44.4007 42.5992 44.4007ZM48.0666 46.2357V46.1262C49.2642 45.4017 50.2879 44.4475 51.0663 43.3296C51.5005 43.8097 52.0002 44.2359 52.5524 44.597V45.1011L49.4631 45.7937C48.9817 45.9018 48.5146 46.0501 48.0666 46.2357ZM67.2599 54.5952H60.2271C58.9533 51.724 56.2777 49.506 52.8735 48.7452L52.0052 48.5512L54.5986 47.9697C54.8144 47.9322 55.0264 47.8552 55.222 47.7367C55.7333 47.4273 56.0114 46.9073 56.0114 46.3765C56.0114 46.3638 56.0112 46.3511 56.0109 46.3384V45.8421C56.3268 45.879 56.6477 45.9002 56.974 45.9002C57.3028 45.9002 57.6261 45.8786 57.9443 45.8413V46.3852C57.9443 47.1339 58.4935 47.7848 59.2719 47.9587L63.6759 48.943C65.7861 49.4148 67.2599 51.1617 67.2599 53.1915V54.5952Z" fill="#1A6058"/>
<path d="M43.6929 62.1187C43.4008 61.7114 42.9992 61.4793 42.5882 61.4793C42.1754 61.4793 41.774 61.7114 41.4833 62.1187C41.191 62.5281 41.0254 63.0909 41.0254 63.669C41.0254 64.2449 41.191 64.8076 41.4833 65.2171C41.774 65.6243 42.1756 65.8587 42.5882 65.8587C42.9992 65.8587 43.4008 65.6243 43.6929 65.2171C43.9836 64.8076 44.151 64.2449 44.151 63.669C44.151 63.0909 43.9837 62.5281 43.6929 62.1187Z" fill="#1A6058"/>
<path d="M42.5882 14.766C41.7252 14.766 41.0254 15.5137 41.0254 16.4361V18.935C41.0254 19.8574 41.7252 20.6051 42.5882 20.6051C43.4511 20.6051 44.151 19.8574 44.151 18.935V16.4361C44.151 15.5137 43.4513 14.766 42.5882 14.766Z" fill="#1A6058"/>
<path d="M37.2982 19.6119L35.1475 18.1061C34.3465 17.5452 33.0484 17.5456 32.248 18.107C31.4476 18.6683 31.4484 19.5781 32.2495 20.1389L34.4004 21.6446C34.8006 21.925 35.3251 22.065 35.8493 22.065C36.3744 22.065 36.8992 21.9245 37.2997 21.6438C38.0997 21.0824 38.0993 20.1726 37.2982 19.6119Z" fill="#1A6058"/>
<path d="M52.9245 18.1069C52.1213 17.545 50.8194 17.5452 50.0173 18.1079L47.8775 19.6078C47.0751 20.1703 47.0757 21.0819 47.8789 21.6438C48.2804 21.9247 48.806 22.065 49.3319 22.065C49.8584 22.065 50.3848 21.9242 50.7861 21.6428L52.9259 20.1428C53.7283 19.5803 53.7276 18.6688 52.9245 18.1069Z" fill="#1A6058"/>
<defs>
<filter id="filter0_dd_10184_27" x="0.310092" y="0.669959" width="85.8483" height="80.563" filterUnits="userSpaceOnUse" color-interpolation-filters="sRGB">
<feFlood flood-opacity="0" result="BackgroundImageFix"/>
<feColorMatrix in="SourceAlpha" type="matrix" values="0 0 0 0 0 0 0 0 0 0 0 0 0 0 0 0 0 0 127 0" result="hardAlpha"/>
<feOffset dy="0.937001"/>
<feGaussianBlur stdDeviation="1.4055"/>
<feColorMatrix type="matrix" values="0 0 0 0 0.2471 0 0 0 0 0.2471 0 0 0 0 0.2667 0 0 0 0.15 0"/>
<feBlend mode="normal" in2="BackgroundImageFix" result="effect1_dropShadow_10184_27"/>
<feColorMatrix in="SourceAlpha" type="matrix" values="0 0 0 0 0 0 0 0 0 0 0 0 0 0 0 0 0 0 127 0" result="hardAlpha"/>
<feOffset/>
<feColorMatrix type="matrix" values="0 0 0 0 0.2471 0 0 0 0 0.2471 0 0 0 0 0.2667 0 0 0 0.05 0"/>
<feBlend mode="normal" in2="effect1_dropShadow_10184_27" result="effect2_dropShadow_10184_27"/>
<feBlend mode="normal" in="SourceGraphic" in2="effect2_dropShadow_10184_27" result="shape"/>
</filter>
</defs>
</svg>
