<svg width="17" height="20" viewBox="0 0 17 20" fill="none" xmlns="http://www.w3.org/2000/svg">
<path d="M10.0497 10.5563L9.45973 11.6054C10.0176 12.5899 10.0689 13.8374 9.47893 14.8865C8.6003 16.4487 6.63716 16.9745 5.09528 16.0607C3.55341 15.1469 3.01548 13.1387 3.89411 11.5765C4.48412 10.5275 5.55778 9.94676 6.6718 9.95306L7.26181 8.90402C5.58506 8.65504 3.85769 9.44175 2.96885 11.0221C1.79649 13.1065 2.51373 15.7841 4.57106 17.0034C6.62839 18.2227 9.24591 17.5216 10.4183 15.4371C11.3007 13.8469 11.0982 11.9225 10.0497 10.5563Z" fill="#8B1232"/>
<path d="M13.5085 5.34065C13.7012 5.45488 13.9475 5.38891 14.0573 5.19363L14.1901 4.95749C14.2999 4.76221 14.2325 4.51029 14.0397 4.39606L12.713 3.60976L13.0272 3.05118C13.137 2.85591 13.0695 2.60399 12.8768 2.48976L12.6437 2.35163C12.451 2.2374 12.2047 2.30337 12.0949 2.49864L7.24452 11.1225C6.32471 10.8559 5.31225 11.2428 4.8193 12.1193C4.2344 13.1592 4.59046 14.5026 5.62137 15.1135C6.64779 15.7219 7.96104 15.3739 8.54849 14.3295C9.044 13.4484 8.86612 12.3621 8.17681 11.6751L10.4551 7.62424L11.7819 8.41055C11.9746 8.52477 12.2209 8.4588 12.3307 8.26353L12.4635 8.02738C12.5733 7.83211 12.5058 7.58019 12.3131 7.46596L10.9864 6.67965L11.3312 6.06658L12.0752 6.50755C12.2232 6.59522 12.4131 6.54433 12.4974 6.39446L12.7247 5.99029C12.809 5.84043 12.757 5.64609 12.6091 5.55843L11.865 5.11746L12.1843 4.5498L13.5085 5.34065Z" fill="#B18147"/>
</svg>
