<svg width="20" height="20" viewBox="0 0 20 20" fill="none" xmlns="http://www.w3.org/2000/svg">
<path d="M19.5425 17.0644L14.7813 12.2856C16.8018 9.24639 16.4017 5.20749 13.8211 2.62817C12.3607 1.18855 10.4401 0.388794 8.37962 0.388794C6.31908 0.388794 4.39857 1.18851 2.95819 2.62817C-0.0225226 5.62738 -0.0225226 10.4861 2.95819 13.4653C5.53895 16.0447 9.57994 16.4446 12.6207 14.4451L17.402 19.2238C17.6221 19.4438 18.0022 19.4438 18.2223 19.2238L19.5426 17.9041C19.7827 17.6642 19.7827 17.2843 19.5426 17.0644H19.5425ZM12.0606 11.7258C10.0401 13.7452 6.73916 13.7452 4.69862 11.7258C2.67812 9.70634 2.67812 6.40717 4.69862 4.36771C6.71911 2.34828 10.02 2.34828 12.0606 4.36771C14.0811 6.40707 14.0811 9.7063 12.0606 11.7258Z" fill="white"/>
</svg>
