<?xml version="1.0" encoding="utf-8"?>
<!-- Generator: Adobe Illustrator 26.5.0, SVG Export Plug-In . SVG Version: 6.00 Build 0)  -->
<svg version="1.1" id="Layer_1" xmlns="http://www.w3.org/2000/svg" xmlns:xlink="http://www.w3.org/1999/xlink" x="0px" y="0px"
	 viewBox="0 0 16 16" style="enable-background:new 0 0 16 16;" xml:space="preserve">
<style type="text/css">
	.st0{fill:#838383;}
</style>
<path class="st0" d="M2,2c-2.6,2.6-2.6,6.9,0,9.5c2.4,2.4,6.2,2.6,8.8,0.6l3.6,3.7c0.4,0.4,0.9,0.4,1.3,0c0.4-0.4,0.4-0.9,0-1.3
	l-3.6-3.7c2-2.6,1.8-6.4-0.6-8.8C8.9-0.7,4.6-0.7,2,2z M11.7,6.4c0.2,2.7-1.9,5.1-4.6,5.3C4.3,11.9,2,9.8,1.8,7.1
	C1.6,4.3,3.7,2,6.4,1.8C9.1,1.6,11.5,3.7,11.7,6.4z"/>
</svg>
