<svg width="31" height="24" viewBox="0 0 31 24" fill="none" xmlns="http://www.w3.org/2000/svg">
<path d="M29.1429 3.42857H1.71429C1.25963 3.42857 0.823594 3.24796 0.502103 2.92647C0.180612 2.60498 0 2.16894 0 1.71429C0 1.25963 0.180612 0.823594 0.502103 0.502103C0.823594 0.180612 1.25963 0 1.71429 0H29.1429C29.5975 0 30.0336 0.180612 30.355 0.502103C30.6765 0.823594 30.8571 1.25963 30.8571 1.71429C30.8571 2.16894 30.6765 2.60498 30.355 2.92647C30.0336 3.24796 29.5975 3.42857 29.1429 3.42857Z" fill="#9F2241"/>
<path d="M29.1429 13.7142H1.71429C1.25963 13.7142 0.823594 13.5336 0.502103 13.2121C0.180612 12.8906 0 12.4546 0 11.9999C0 11.5453 0.180612 11.1092 0.502103 10.7877C0.823594 10.4663 1.25963 10.2856 1.71429 10.2856H29.1429C29.5975 10.2856 30.0336 10.4663 30.355 10.7877C30.6765 11.1092 30.8571 11.5453 30.8571 11.9999C30.8571 12.4546 30.6765 12.8906 30.355 13.2121C30.0336 13.5336 29.5975 13.7142 29.1429 13.7142Z" fill="#9F2241"/>
<path d="M29.1429 24.0001H1.71429C1.25963 24.0001 0.823594 23.8195 0.502103 23.498C0.180612 23.1765 0 22.7405 0 22.2858C0 21.8312 0.180612 21.3951 0.502103 21.0736C0.823594 20.7521 1.25963 20.5715 1.71429 20.5715H29.1429C29.5975 20.5715 30.0336 20.7521 30.355 21.0736C30.6765 21.3951 30.8571 21.8312 30.8571 22.2858C30.8571 22.7405 30.6765 23.1765 30.355 23.498C30.0336 23.8195 29.5975 24.0001 29.1429 24.0001Z" fill="#9F2241"/>
</svg>
