<?xml version="1.0" encoding="UTF-8"?>
<svg width="27px" height="24px" viewBox="0 0 27 24" version="1.1" xmlns="http://www.w3.org/2000/svg" xmlns:xlink="http://www.w3.org/1999/xlink">
    <title>Group 4 Copy</title>
    <g id="Page-1" stroke="none" stroke-width="1" fill="none" fill-rule="evenodd">
        <g id="Group-4-Copy" fill="#00BE6A" fill-rule="nonzero">
            <path d="M1.33333333,2.66666667 L25.3333333,2.66666667 C26.069713,2.66666667 26.6666667,2.069713 26.6666667,1.33333333 C26.6666667,0.596953667 26.069713,-1.88737914e-14 25.3333333,-1.88737914e-14 L1.33333333,-1.88737914e-14 C0.596953667,-1.88737914e-14 -7.46069873e-14,0.596953667 -7.46069873e-14,1.33333333 C-7.46069873e-14,2.069713 0.596953667,2.66666667 1.33333333,2.66666667 Z" id="Path"></path>
            <path d="M1.33333333,13.3333333 L25.3333333,13.3333333 C26.069713,13.3333333 26.6666667,12.7363797 26.6666667,12 C26.6666667,11.2636203 26.069713,10.6666667 25.3333333,10.6666667 L1.33333333,10.6666667 C0.596953667,10.6666667 -7.46069873e-14,11.2636203 -7.46069873e-14,12 C-7.46069873e-14,12.7363797 0.596953667,13.3333333 1.33333333,13.3333333 Z" id="Path"></path>
            <path d="M1.33333333,24 L25.3333333,24 C26.069713,24 26.6666667,23.4030463 26.6666667,22.6666667 C26.6666667,21.930287 26.069713,21.3333333 25.3333333,21.3333333 L1.33333333,21.3333333 C0.596953667,21.3333333 -7.46069873e-14,21.930287 -7.46069873e-14,22.6666667 C-7.46069873e-14,23.4030463 0.596953667,24 1.33333333,24 Z" id="Path"></path>
        </g>
    </g>
</svg>