<svg width="257" height="470" viewBox="0 0 257 470" fill="none" xmlns="http://www.w3.org/2000/svg">
<path d="M257 234.929C256.951 240.577 254.71 245.985 250.75 250.012L37.4164 463.345C33.3929 467.231 28.0041 469.381 22.4105 469.333C16.817 469.284 11.4663 467.04 7.51097 463.085C3.55559 459.13 1.31198 453.779 1.26338 448.186C1.21477 442.592 3.36506 437.203 7.2511 433.18L205.502 234.929L7.25108 36.6783C5.21353 34.7104 3.58831 32.3564 2.47025 29.7536C1.35219 27.1509 0.763682 24.3515 0.739067 21.5189C0.714452 18.6862 1.25422 15.8771 2.32688 13.2553C3.39953 10.6335 4.9836 8.25161 6.98665 6.24856C8.98969 4.24552 11.3716 2.66143 13.9934 1.58877C16.6152 0.516112 19.4243 -0.023653 22.257 0.000961635C25.0896 0.0255763 27.889 0.614104 30.4917 1.73216C33.0945 2.85022 35.4485 4.47541 37.4164 6.51296L250.75 219.846C254.71 223.873 256.951 229.281 257 234.929Z" fill="#8B1232"/>
</svg>
