<?xml version="1.0" encoding="UTF-8"?>
<svg width="17px" height="16px" viewBox="0 0 17 16" version="1.1" xmlns="http://www.w3.org/2000/svg" xmlns:xlink="http://www.w3.org/1999/xlink">
    <title>llamada-telefonica</title>
    <g id="Symbols" stroke="none" stroke-width="1" fill="none" fill-rule="evenodd">
        <g id="Footer" transform="translate(-993.000000, -128.000000)" fill="#FFFFFF" fill-rule="nonzero">
            <g id="llamada-telefonica" transform="translate(993.000000, 128.000000)">
                <path d="M15.6578936,10.5347455 C14.6092472,10.5347455 13.5821164,10.3806401 12.608628,10.0783109 C12.1335223,9.92420553 11.5939956,10.0429425 11.2817461,10.3427453 L9.35179716,11.7145359 C7.13732166,10.6021271 5.72005734,9.26906025 4.55422825,7.20000592 L5.97237333,5.42653078 C6.32937363,5.0905305 6.45733508,4.59872747 6.30433495,4.13810867 C5.98042597,3.21600264 5.81580824,2.2484229 5.81580824,1.26315893 C5.81580824,0.56672415 5.21366383,0 4.47370187,0 L1.34210637,0 C0.60214441,0 0,0.56672415 0,1.26315893 C0,9.38862614 7.02458472,16 15.6578936,16 C16.3978556,16 17,15.4332758 17,14.7368411 L17,11.7979044 C17,11.1014697 16.3978556,10.5347455 15.6578936,10.5347455 Z" id="Path"></path>
            </g>
        </g>
    </g>
</svg>