<svg width="11" height="14" viewBox="0 0 11 14" fill="none" xmlns="http://www.w3.org/2000/svg">
<path fill-rule="evenodd" clip-rule="evenodd" d="M7.61732 2.42467C6.93415 1.75479 6.01316 1.38324 5.0564 1.39151L5.06083 1.38855C4.10406 1.38028 3.18307 1.75184 2.4999 2.42172C1.81672 3.09161 1.42714 4.00511 1.41662 4.96186C1.4168 5.82159 1.73212 6.65143 2.30293 7.29433V7.30762L5.05196 10.7051L7.97235 7.11263L7.9886 7.089C8.02996 7.03435 8.07133 6.97674 8.10973 6.91765C8.49621 6.33981 8.7019 5.65999 8.70061 4.96481C8.69008 4.00807 8.3005 3.09456 7.61732 2.42467ZM5.06083 0C7.85566 0 10.1202 2.22168 10.1202 4.96186V4.96777C10.1205 6.12286 9.71057 7.24053 8.96354 8.12155L5.08151 13.042L1.29253 8.26927C0.462057 7.36797 0.000703714 6.18743 0 4.96186C0 2.21577 2.266 0 5.06083 0ZM4.62183 4.32567C4.74133 4.24609 4.88176 4.20376 5.02534 4.20405C5.21718 4.20444 5.40107 4.28083 5.53672 4.41648C5.67238 4.55214 5.74877 4.73602 5.74916 4.92787C5.74945 5.07145 5.70712 5.21188 5.62754 5.33138C5.54795 5.45088 5.43469 5.54407 5.3021 5.59915C5.16951 5.65423 5.02356 5.66872 4.88272 5.64078C4.74189 5.61284 4.61252 5.54373 4.511 5.44221C4.40948 5.34069 4.34037 5.21131 4.31243 5.07048C4.28449 4.92965 4.29898 4.7837 4.35406 4.65111C4.40913 4.51852 4.50233 4.40526 4.62183 4.32567ZM3.821 6.73041C4.17756 6.96835 4.59668 7.09519 5.02534 7.0949C5.59969 7.09412 6.15028 6.86551 6.55627 6.45924C6.96226 6.05297 7.1905 5.50223 7.19089 4.92787C7.19089 4.49921 7.06375 4.08018 6.82557 3.72378C6.58739 3.36738 6.24886 3.08963 5.8528 2.92566C5.45674 2.76169 5.02095 2.71886 4.60055 2.80259C4.18015 2.88633 3.79402 3.09286 3.49102 3.39608C3.18801 3.69929 2.98174 4.08555 2.89829 4.50601C2.81484 4.92647 2.85797 5.36223 3.02221 5.75818C3.18645 6.15413 3.46444 6.49247 3.821 6.73041Z" fill="#8B1232"/>
</svg>
