<svg width="452" height="470" viewBox="0 0 452 470" fill="none" xmlns="http://www.w3.org/2000/svg">
<path d="M195.262 234.405C195.311 228.757 197.552 223.349 201.512 219.322L414.846 5.98852C418.869 2.10248 424.258 -0.047801 429.852 0.000805509C435.445 0.049412 440.796 2.29301 444.751 6.24839C448.707 10.2038 450.95 15.5544 450.999 21.148C451.047 26.7415 448.897 32.1303 445.011 36.1539L246.76 234.405L445.011 432.655C447.049 434.623 448.674 436.977 449.792 439.58C450.91 442.183 451.498 444.982 451.523 447.815C451.548 450.647 451.008 453.456 449.935 456.078C448.863 458.7 447.279 461.082 445.276 463.085C443.272 465.088 440.891 466.672 438.269 467.745C435.647 468.817 432.838 469.357 430.005 469.333C427.173 469.308 424.373 468.719 421.77 467.601C419.168 466.483 416.814 464.858 414.846 462.821L201.512 249.487C197.552 245.46 195.311 240.052 195.262 234.405Z" fill="#8B1232"/>
<path d="M4.31518e-05 234.405C0.0492796 228.757 2.29043 223.349 6.2507 219.322L219.584 5.98852C223.608 2.10248 228.996 -0.047801 234.59 0.000805509C240.183 0.049412 245.534 2.29301 249.49 6.24839C253.445 10.2038 255.689 15.5544 255.737 21.148C255.786 26.7415 253.635 32.1303 249.749 36.1539L51.4987 234.405L249.749 432.655C251.787 434.623 253.412 436.977 254.53 439.58C255.648 442.183 256.237 444.982 256.261 447.815C256.286 450.647 255.746 453.456 254.674 456.078C253.601 458.7 252.017 461.082 250.014 463.085C248.011 465.088 245.629 466.672 243.007 467.745C240.385 468.817 237.576 469.357 234.743 469.333C231.911 469.308 229.111 468.719 226.509 467.601C223.906 466.483 221.552 464.858 219.584 462.821L6.25069 249.487C2.29043 245.46 0.0492791 240.052 4.31518e-05 234.405Z" fill="#8B1232"/>
</svg>
