<svg width="12" height="12" viewBox="0 0 12 12" fill="none" xmlns="http://www.w3.org/2000/svg">
<path fill-rule="evenodd" clip-rule="evenodd" d="M3.32224 9.63594C4.07234 10.1365 4.95408 10.4033 5.85586 10.4025V10.4091C7.06361 10.4074 8.22133 9.92654 9.07496 9.07216C9.9286 8.21779 10.4084 7.05965 10.4091 5.8519C10.4104 4.95012 10.1442 4.06823 9.64403 3.31784C9.1439 2.56746 8.43238 1.98232 7.59954 1.6365C6.7667 1.29068 5.84998 1.19972 4.96543 1.37513C4.08087 1.55055 3.26825 1.98445 2.63041 2.62192C1.99256 3.25939 1.55819 4.07177 1.38227 4.95622C1.20634 5.84068 1.29675 6.75745 1.64209 7.59048C1.98743 8.42352 2.57215 9.13537 3.32224 9.63594ZM2.60364 0.984296C3.5665 0.341758 4.6983 -0.000783445 5.85586 1.3455e-06C7.40688 0.00210263 8.89371 0.619442 9.99006 1.71654C11.0864 2.81365 11.7028 4.30089 11.7038 5.8519C11.7038 7.00947 11.3605 8.14103 10.7173 9.10346C10.0741 10.0659 9.15994 10.8159 8.09041 11.2587C7.02088 11.7015 5.84406 11.8172 4.7088 11.5911C3.57353 11.365 2.53082 10.8072 1.71257 9.98842C0.894329 9.16962 0.337309 8.12654 0.11196 6.99112C-0.113388 5.8557 0.00307105 4.67895 0.446596 3.60973C0.890121 2.5405 1.64078 1.62683 2.60364 0.984296ZM5.18648 2.59072H6.48117V5.85588H8.43842V7.15189H5.18648V2.59072Z" fill="#8B1232"/>
</svg>
