<svg width="26" height="27" viewBox="0 0 26 27" fill="none" xmlns="http://www.w3.org/2000/svg">
<path fill-rule="evenodd" clip-rule="evenodd" d="M18.6444 17.4627L25.0798 23.8994C25.5805 24.4001 25.582 25.2104 25.0757 25.7171C24.5727 26.22 23.7499 26.2129 23.2583 25.7212L16.8229 19.2845C12.7809 22.4309 6.93423 22.146 3.21889 18.4299C-0.804734 14.4055 -0.804734 7.88045 3.21889 3.85619C7.24272 -0.168211 13.7663 -0.168211 17.7898 3.85619C21.5051 7.57225 21.79 13.4199 18.6442 17.4628L18.6444 17.4627ZM15.9687 16.6083C18.9865 13.5899 18.9865 8.69643 15.9687 5.67773C12.9508 2.65929 8.05834 2.65929 5.04023 5.67773C2.02237 8.69618 2.02237 13.5896 5.04023 16.6083C8.05809 19.6267 12.9506 19.6267 15.9687 16.6083Z" fill="#BC955C"/>
</svg>
