<svg width="12" height="13" viewBox="0 0 12 13" fill="none" xmlns="http://www.w3.org/2000/svg">
<path d="M9.25253 10.9807C8.68217 11.4257 7.95872 11.6265 7.24059 11.5393C6.52246 11.452 5.86816 11.0838 5.42096 10.5151L2.02558 6.16957C1.57746 5.59966 1.37399 4.87512 1.45992 4.15525C1.54584 3.43538 1.91411 2.77908 2.48378 2.33066L2.88764 2.01345L4.30336 3.82569C4.30558 3.83027 4.30672 3.83529 4.30672 3.84038C4.30672 3.84546 4.30558 3.85048 4.30336 3.85506C4.30344 3.86017 4.3021 3.8652 4.29951 3.8696C4.29692 3.874 4.29318 3.87761 4.28868 3.88003L2.6042 5.20177L6.34765 9.99232L8.03212 8.67059C8.0357 8.66676 8.04002 8.66371 8.04482 8.66162C8.04962 8.65954 8.05479 8.65847 8.06003 8.65847C8.06526 8.65847 8.07044 8.65954 8.07524 8.66162C8.08004 8.66371 8.08436 8.66676 8.08793 8.67059L9.64317 10.6635L9.25253 10.9807ZM9.22903 7.78943C9.11021 7.63679 8.96242 7.50913 8.79412 7.41377C8.62583 7.31842 8.44036 7.25726 8.24836 7.23378C8.05636 7.21031 7.86161 7.225 7.67531 7.27701C7.489 7.32901 7.3148 7.41731 7.16272 7.53683L6.60759 7.97006L4.62939 5.44408L5.18452 5.0035C5.33727 4.88479 5.46505 4.73708 5.56054 4.56884C5.65603 4.4006 5.71734 4.21515 5.74095 4.02314C5.76456 3.83114 5.75 3.63637 5.69811 3.45C5.64622 3.26364 5.55803 3.08936 5.43859 2.93719L3.14024 0L1.60262 1.20131C1.17109 1.53818 0.810177 1.9568 0.540515 2.43323C0.270853 2.90966 0.097728 3.43455 0.031034 3.97792C-0.03566 4.5213 0.00538614 5.07249 0.151825 5.59999C0.298264 6.12749 0.547224 6.62096 0.884477 7.05219L4.27987 11.3978C4.61565 11.8301 5.03389 12.1914 5.51035 12.4609C5.9868 12.7304 6.512 12.9027 7.05551 12.9677C7.22697 12.9894 7.39963 13.0002 7.57245 13C8.49978 13.0008 9.40058 12.6905 10.1307 12.1188L11.664 10.9205L9.22903 7.78943Z" fill="#8B1232"/>
</svg>
