<svg width="453" height="470" viewBox="0 0 453 470" fill="none" xmlns="http://www.w3.org/2000/svg">
<path d="M257 234.929C256.951 240.577 254.71 245.984 250.75 250.011L37.4164 463.345C33.3929 467.231 28.0041 469.381 22.4105 469.332C16.817 469.284 11.4663 467.04 7.51097 463.085C3.55559 459.129 1.31198 453.779 1.26338 448.185C1.21477 442.592 3.36506 437.203 7.2511 433.179L205.502 234.929L7.25108 36.6781C5.21353 34.7102 3.58831 32.3561 2.47025 29.7534C1.35219 27.1506 0.763682 24.3512 0.739067 21.5186C0.714452 18.686 1.25422 15.8769 2.32688 13.2551C3.39953 10.6333 4.9836 8.25136 6.98665 6.24832C8.98969 4.24527 11.3716 2.66119 13.9934 1.58853C16.6152 0.515868 19.4243 -0.0238971 22.257 0.000717494C25.0896 0.0253321 27.889 0.61386 30.4917 1.73192C33.0945 2.84998 35.4485 4.47517 37.4164 6.51272L250.75 219.846C254.71 223.873 256.951 229.281 257 234.929Z" fill="#8B1232"/>
<path d="M452.262 234.929C452.213 240.577 449.972 245.984 446.011 250.011L232.678 463.345C228.655 467.231 223.266 469.381 217.672 469.332C212.079 469.284 206.728 467.04 202.773 463.085C198.817 459.129 196.574 453.779 196.525 448.185C196.476 442.592 198.627 437.203 202.513 433.179L400.763 234.929L202.513 36.6781C200.475 34.7102 198.85 32.3561 197.732 29.7534C196.614 27.1506 196.025 24.3512 196.001 21.5186C195.976 18.686 196.516 15.8769 197.589 13.2551C198.661 10.6333 200.245 8.25136 202.248 6.24832C204.251 4.24527 206.633 2.66119 209.255 1.58853C211.877 0.515868 214.686 -0.0238971 217.519 0.000717494C220.351 0.0253321 223.151 0.61386 225.753 1.73192C228.356 2.84998 230.71 4.47517 232.678 6.51272L446.011 219.846C449.972 223.873 452.213 229.281 452.262 234.929Z" fill="#8B1232"/>
</svg>
